<?xml version="1.0" encoding="utf-8" standalone="no"?>
<!DOCTYPE svg PUBLIC "-//W3C//DTD SVG 1.1//EN"
  "http://www.w3.org/Graphics/SVG/1.1/DTD/svg11.dtd">
<!-- Created with matplotlib (https://matplotlib.org/) -->
<svg height="355.091687pt" version="1.1" viewBox="0 0 432.198125 355.091687" width="432.198125pt" xmlns="http://www.w3.org/2000/svg" xmlns:xlink="http://www.w3.org/1999/xlink">
 <metadata>
  <rdf:RDF xmlns:cc="http://creativecommons.org/ns#" xmlns:dc="http://purl.org/dc/elements/1.1/" xmlns:rdf="http://www.w3.org/1999/02/22-rdf-syntax-ns#">
   <cc:Work>
    <dc:type rdf:resource="http://purl.org/dc/dcmitype/StillImage"/>
    <dc:date>2022-02-22T11:25:45.026769</dc:date>
    <dc:format>image/svg+xml</dc:format>
    <dc:creator>
     <cc:Agent>
      <dc:title>Matplotlib v3.3.4, https://matplotlib.org/</dc:title>
     </cc:Agent>
    </dc:creator>
   </cc:Work>
  </rdf:RDF>
 </metadata>
 <defs>
  <style type="text/css">*{stroke-linecap:butt;stroke-linejoin:round;}</style>
 </defs>
 <g id="figure_1">
  <g id="patch_1">
   <path d="M 0 355.091687 
L 432.198125 355.091687 
L 432.198125 0 
L 0 0 
z
" style="fill:#ffffff;"/>
  </g>
  <g id="axes_1">
   <g id="patch_2">
    <path d="M 67.878125 300.560437 
L 424.998125 300.560437 
L 424.998125 34.448437 
L 67.878125 34.448437 
z
" style="fill:#ffffff;"/>
   </g>
   <g id="matplotlib.axis_1">
    <g id="xtick_1">
     <g id="line2d_1">
      <path clip-path="url(#p06d991faca)" d="M 83.975591 300.560437 
L 83.975591 34.448437 
" style="fill:none;stroke:#b0b0b0;stroke-linecap:square;stroke-width:0.8;"/>
     </g>
     <g id="line2d_2">
      <defs>
       <path d="M 0 0 
L 0 3.5 
" id="m240eb827e1" style="stroke:#000000;stroke-width:0.8;"/>
      </defs>
      <g>
       <use style="stroke:#000000;stroke-width:0.8;" x="83.975591" xlink:href="#m240eb827e1" y="300.560437"/>
      </g>
     </g>
     <g id="text_1">
      <!-- 0 -->
      <g transform="translate(78.975591 321.447937)scale(0.2 -0.2)">
       <defs>
        <path d="M 3.609375 32.71875 
Q 3.609375 44.046875 7.03125 52.21875 
Q 10.453125 60.40625 16.109375 64.40625 
Q 20.515625 67.578125 25.203125 67.578125 
Q 32.8125 67.578125 38.875 59.8125 
Q 46.4375 50.203125 46.4375 33.734375 
Q 46.4375 22.21875 43.109375 14.15625 
Q 39.796875 6.109375 34.640625 2.46875 
Q 29.5 -1.171875 24.703125 -1.171875 
Q 15.234375 -1.171875 8.9375 10.015625 
Q 3.609375 19.4375 3.609375 32.71875 
z
M 13.1875 31.5 
Q 13.1875 17.828125 16.546875 9.1875 
Q 19.34375 1.90625 24.859375 1.90625 
Q 27.484375 1.90625 30.3125 4.265625 
Q 33.15625 6.640625 34.625 12.203125 
Q 36.859375 20.609375 36.859375 35.890625 
Q 36.859375 47.21875 34.515625 54.78125 
Q 32.765625 60.40625 29.984375 62.75 
Q 27.984375 64.359375 25.140625 64.359375 
Q 21.828125 64.359375 19.234375 61.375 
Q 15.71875 57.328125 14.453125 48.625 
Q 13.1875 39.9375 13.1875 31.5 
z
" id="TimesNewRomanPSMT-48"/>
       </defs>
       <use xlink:href="#TimesNewRomanPSMT-48"/>
      </g>
     </g>
    </g>
    <g id="xtick_2">
     <g id="line2d_3">
      <path clip-path="url(#p06d991faca)" d="M 180.872082 300.560437 
L 180.872082 34.448437 
" style="fill:none;stroke:#b0b0b0;stroke-linecap:square;stroke-width:0.8;"/>
     </g>
     <g id="line2d_4">
      <g>
       <use style="stroke:#000000;stroke-width:0.8;" x="180.872082" xlink:href="#m240eb827e1" y="300.560437"/>
      </g>
     </g>
     <g id="text_2">
      <!-- 1 -->
      <g transform="translate(175.872082 321.447937)scale(0.2 -0.2)">
       <defs>
        <path d="M 11.71875 59.71875 
L 27.828125 67.578125 
L 29.4375 67.578125 
L 29.4375 11.671875 
Q 29.4375 6.109375 29.90625 4.734375 
Q 30.375 3.375 31.828125 2.640625 
Q 33.296875 1.90625 37.796875 1.8125 
L 37.796875 0 
L 12.890625 0 
L 12.890625 1.8125 
Q 17.578125 1.90625 18.9375 2.609375 
Q 20.3125 3.328125 20.84375 4.515625 
Q 21.390625 5.71875 21.390625 11.671875 
L 21.390625 47.40625 
Q 21.390625 54.640625 20.90625 56.6875 
Q 20.5625 58.25 19.65625 58.984375 
Q 18.75 59.71875 17.484375 59.71875 
Q 15.671875 59.71875 12.453125 58.203125 
z
" id="TimesNewRomanPSMT-49"/>
       </defs>
       <use xlink:href="#TimesNewRomanPSMT-49"/>
      </g>
     </g>
    </g>
    <g id="xtick_3">
     <g id="line2d_5">
      <path clip-path="url(#p06d991faca)" d="M 277.768573 300.560437 
L 277.768573 34.448437 
" style="fill:none;stroke:#b0b0b0;stroke-linecap:square;stroke-width:0.8;"/>
     </g>
     <g id="line2d_6">
      <g>
       <use style="stroke:#000000;stroke-width:0.8;" x="277.768573" xlink:href="#m240eb827e1" y="300.560437"/>
      </g>
     </g>
     <g id="text_3">
      <!-- 2 -->
      <g transform="translate(272.768573 321.447937)scale(0.2 -0.2)">
       <defs>
        <path d="M 45.84375 12.75 
L 41.21875 0 
L 2.15625 0 
L 2.15625 1.8125 
Q 19.390625 17.53125 26.421875 27.484375 
Q 33.453125 37.453125 33.453125 45.703125 
Q 33.453125 52 29.59375 56.046875 
Q 25.734375 60.109375 20.359375 60.109375 
Q 15.484375 60.109375 11.59375 57.25 
Q 7.71875 54.390625 5.859375 48.875 
L 4.046875 48.875 
Q 5.28125 57.90625 10.328125 62.734375 
Q 15.375 67.578125 22.953125 67.578125 
Q 31 67.578125 36.390625 62.40625 
Q 41.796875 57.234375 41.796875 50.203125 
Q 41.796875 45.171875 39.453125 40.140625 
Q 35.84375 32.234375 27.734375 23.390625 
Q 15.578125 10.109375 12.546875 7.375 
L 29.828125 7.375 
Q 35.109375 7.375 37.234375 7.765625 
Q 39.359375 8.15625 41.0625 9.34375 
Q 42.78125 10.546875 44.046875 12.75 
z
" id="TimesNewRomanPSMT-50"/>
       </defs>
       <use xlink:href="#TimesNewRomanPSMT-50"/>
      </g>
     </g>
    </g>
    <g id="xtick_4">
     <g id="line2d_7">
      <path clip-path="url(#p06d991faca)" d="M 374.665064 300.560437 
L 374.665064 34.448437 
" style="fill:none;stroke:#b0b0b0;stroke-linecap:square;stroke-width:0.8;"/>
     </g>
     <g id="line2d_8">
      <g>
       <use style="stroke:#000000;stroke-width:0.8;" x="374.665064" xlink:href="#m240eb827e1" y="300.560437"/>
      </g>
     </g>
     <g id="text_4">
      <!-- 3 -->
      <g transform="translate(369.665064 321.447937)scale(0.2 -0.2)">
       <defs>
        <path d="M 5.078125 53.609375 
Q 7.90625 60.296875 12.21875 63.9375 
Q 16.546875 67.578125 23 67.578125 
Q 30.953125 67.578125 35.203125 62.40625 
Q 38.421875 58.546875 38.421875 54.15625 
Q 38.421875 46.921875 29.34375 39.203125 
Q 35.453125 36.8125 38.578125 32.375 
Q 41.703125 27.9375 41.703125 21.921875 
Q 41.703125 13.328125 36.234375 7.03125 
Q 29.109375 -1.171875 15.578125 -1.171875 
Q 8.890625 -1.171875 6.46875 0.484375 
Q 4.046875 2.15625 4.046875 4.046875 
Q 4.046875 5.46875 5.1875 6.546875 
Q 6.34375 7.625 7.953125 7.625 
Q 9.1875 7.625 10.453125 7.234375 
Q 11.28125 6.984375 14.203125 5.4375 
Q 17.140625 3.90625 18.265625 3.609375 
Q 20.0625 3.078125 22.125 3.078125 
Q 27.09375 3.078125 30.78125 6.9375 
Q 34.46875 10.796875 34.46875 16.0625 
Q 34.46875 19.921875 32.765625 23.578125 
Q 31.5 26.3125 29.984375 27.734375 
Q 27.875 29.6875 24.21875 31.265625 
Q 20.5625 32.859375 16.75 32.859375 
L 15.1875 32.859375 
L 15.1875 34.328125 
Q 19.046875 34.8125 22.921875 37.109375 
Q 26.8125 39.40625 28.5625 42.625 
Q 30.328125 45.84375 30.328125 49.703125 
Q 30.328125 54.734375 27.171875 57.828125 
Q 24.03125 60.9375 19.34375 60.9375 
Q 11.765625 60.9375 6.6875 52.828125 
z
" id="TimesNewRomanPSMT-51"/>
       </defs>
       <use xlink:href="#TimesNewRomanPSMT-51"/>
      </g>
     </g>
    </g>
    <g id="text_5">
     <!-- Time [s] -->
     <g transform="translate(212.633438 343.613563)scale(0.2 -0.2)">
      <defs>
       <path d="M 57.859375 66.21875 
L 58.59375 50.6875 
L 56.734375 50.6875 
Q 56.203125 54.78125 55.28125 56.546875 
Q 53.765625 59.375 51.25 60.71875 
Q 48.734375 62.0625 44.625 62.0625 
L 35.296875 62.0625 
L 35.296875 11.46875 
Q 35.296875 5.375 36.625 3.859375 
Q 38.484375 1.8125 42.328125 1.8125 
L 44.625 1.8125 
L 44.625 0 
L 16.546875 0 
L 16.546875 1.8125 
L 18.890625 1.8125 
Q 23.09375 1.8125 24.859375 4.34375 
Q 25.921875 5.90625 25.921875 11.46875 
L 25.921875 62.0625 
L 17.96875 62.0625 
Q 13.328125 62.0625 11.375 61.375 
Q 8.84375 60.453125 7.03125 57.8125 
Q 5.21875 55.171875 4.890625 50.6875 
L 3.03125 50.6875 
L 3.8125 66.21875 
z
" id="TimesNewRomanPSMT-84"/>
       <path d="M 14.5 69.4375 
Q 16.546875 69.4375 17.984375 67.984375 
Q 19.4375 66.546875 19.4375 64.5 
Q 19.4375 62.453125 17.984375 60.984375 
Q 16.546875 59.515625 14.5 59.515625 
Q 12.453125 59.515625 10.984375 60.984375 
Q 9.515625 62.453125 9.515625 64.5 
Q 9.515625 66.546875 10.953125 67.984375 
Q 12.40625 69.4375 14.5 69.4375 
z
M 18.5625 46.046875 
L 18.5625 10.109375 
Q 18.5625 5.90625 19.171875 4.515625 
Q 19.78125 3.125 20.96875 2.4375 
Q 22.171875 1.765625 25.34375 1.765625 
L 25.34375 0 
L 3.609375 0 
L 3.609375 1.765625 
Q 6.890625 1.765625 8 2.390625 
Q 9.125 3.03125 9.78125 4.484375 
Q 10.453125 5.953125 10.453125 10.109375 
L 10.453125 27.34375 
Q 10.453125 34.625 10.015625 36.765625 
Q 9.671875 38.328125 8.9375 38.9375 
Q 8.203125 39.546875 6.9375 39.546875 
Q 5.5625 39.546875 3.609375 38.8125 
L 2.9375 40.578125 
L 16.40625 46.046875 
z
" id="TimesNewRomanPSMT-105"/>
       <path d="M 16.40625 36.53125 
Q 21.296875 41.40625 22.171875 42.140625 
Q 24.359375 44 26.890625 45.015625 
Q 29.4375 46.046875 31.9375 46.046875 
Q 36.140625 46.046875 39.15625 43.59375 
Q 42.1875 41.15625 43.21875 36.53125 
Q 48.25 42.390625 51.703125 44.21875 
Q 55.171875 46.046875 58.84375 46.046875 
Q 62.40625 46.046875 65.15625 44.21875 
Q 67.921875 42.390625 69.53125 38.234375 
Q 70.609375 35.40625 70.609375 29.34375 
L 70.609375 10.109375 
Q 70.609375 5.90625 71.234375 4.34375 
Q 71.734375 3.265625 73.046875 2.515625 
Q 74.359375 1.765625 77.34375 1.765625 
L 77.34375 0 
L 55.28125 0 
L 55.28125 1.765625 
L 56.203125 1.765625 
Q 59.078125 1.765625 60.6875 2.875 
Q 61.8125 3.65625 62.3125 5.375 
Q 62.5 6.203125 62.5 10.109375 
L 62.5 29.34375 
Q 62.5 34.8125 61.1875 37.0625 
Q 59.28125 40.1875 55.078125 40.1875 
Q 52.484375 40.1875 49.875 38.890625 
Q 47.265625 37.59375 43.5625 34.078125 
L 43.453125 33.546875 
L 43.5625 31.453125 
L 43.5625 10.109375 
Q 43.5625 5.515625 44.0625 4.390625 
Q 44.578125 3.265625 45.984375 2.515625 
Q 47.40625 1.765625 50.828125 1.765625 
L 50.828125 0 
L 28.21875 0 
L 28.21875 1.765625 
Q 31.9375 1.765625 33.328125 2.640625 
Q 34.71875 3.515625 35.25 5.28125 
Q 35.5 6.109375 35.5 10.109375 
L 35.5 29.34375 
Q 35.5 34.8125 33.890625 37.203125 
Q 31.734375 40.328125 27.875 40.328125 
Q 25.25 40.328125 22.65625 38.921875 
Q 18.609375 36.765625 16.40625 34.078125 
L 16.40625 10.109375 
Q 16.40625 5.71875 17.015625 4.390625 
Q 17.625 3.078125 18.8125 2.421875 
Q 20.015625 1.765625 23.6875 1.765625 
L 23.6875 0 
L 1.5625 0 
L 1.5625 1.765625 
Q 4.640625 1.765625 5.859375 2.421875 
Q 7.078125 3.078125 7.703125 4.515625 
Q 8.34375 5.953125 8.34375 10.109375 
L 8.34375 27.203125 
Q 8.34375 34.578125 7.90625 36.71875 
Q 7.5625 38.328125 6.828125 38.9375 
Q 6.109375 39.546875 4.828125 39.546875 
Q 3.46875 39.546875 1.5625 38.8125 
L 0.828125 40.578125 
L 14.3125 46.046875 
L 16.40625 46.046875 
z
" id="TimesNewRomanPSMT-109"/>
       <path d="M 10.640625 27.875 
Q 10.59375 17.921875 15.484375 12.25 
Q 20.359375 6.59375 26.953125 6.59375 
Q 31.34375 6.59375 34.59375 9 
Q 37.84375 11.421875 40.046875 17.28125 
L 41.546875 16.3125 
Q 40.53125 9.625 35.59375 4.125 
Q 30.671875 -1.375 23.25 -1.375 
Q 15.1875 -1.375 9.453125 4.90625 
Q 3.71875 11.1875 3.71875 21.78125 
Q 3.71875 33.25 9.59375 39.671875 
Q 15.484375 46.09375 24.359375 46.09375 
Q 31.890625 46.09375 36.71875 41.140625 
Q 41.546875 36.1875 41.546875 27.875 
z
M 10.640625 30.71875 
L 31.34375 30.71875 
Q 31.109375 35.015625 30.328125 36.765625 
Q 29.109375 39.5 26.6875 41.0625 
Q 24.265625 42.625 21.625 42.625 
Q 17.578125 42.625 14.375 39.46875 
Q 11.1875 36.328125 10.640625 30.71875 
z
" id="TimesNewRomanPSMT-101"/>
       <path id="TimesNewRomanPSMT-32"/>
       <path d="M 29.6875 -19.828125 
L 8.203125 -19.828125 
L 8.203125 67.71875 
L 29.6875 67.71875 
L 29.6875 63.875 
L 15.53125 63.875 
L 15.53125 -16.015625 
L 29.6875 -16.015625 
z
" id="TimesNewRomanPSMT-91"/>
       <path d="M 32.03125 46.046875 
L 32.03125 30.8125 
L 30.421875 30.8125 
Q 28.5625 37.984375 25.65625 40.578125 
Q 22.75 43.171875 18.265625 43.171875 
Q 14.84375 43.171875 12.734375 41.359375 
Q 10.640625 39.546875 10.640625 37.359375 
Q 10.640625 34.625 12.203125 32.671875 
Q 13.71875 30.671875 18.359375 28.421875 
L 25.484375 24.953125 
Q 35.40625 20.125 35.40625 12.203125 
Q 35.40625 6.109375 30.78125 2.359375 
Q 26.171875 -1.375 20.453125 -1.375 
Q 16.359375 -1.375 11.078125 0.09375 
Q 9.46875 0.59375 8.453125 0.59375 
Q 7.328125 0.59375 6.6875 -0.6875 
L 5.078125 -0.6875 
L 5.078125 15.28125 
L 6.6875 15.28125 
Q 8.0625 8.453125 11.90625 4.984375 
Q 15.765625 1.515625 20.5625 1.515625 
Q 23.921875 1.515625 26.046875 3.484375 
Q 28.171875 5.46875 28.171875 8.25 
Q 28.171875 11.625 25.796875 13.921875 
Q 23.4375 16.21875 16.359375 19.734375 
Q 9.28125 23.25 7.078125 26.078125 
Q 4.890625 28.859375 4.890625 33.109375 
Q 4.890625 38.625 8.671875 42.328125 
Q 12.453125 46.046875 18.453125 46.046875 
Q 21.09375 46.046875 24.859375 44.921875 
Q 27.34375 44.1875 28.171875 44.1875 
Q 28.953125 44.1875 29.390625 44.53125 
Q 29.828125 44.875 30.421875 46.046875 
z
" id="TimesNewRomanPSMT-115"/>
       <path d="M 3.65625 67.71875 
L 25.140625 67.71875 
L 25.140625 -19.875 
L 3.65625 -19.875 
L 3.65625 -16.015625 
L 17.828125 -16.015625 
L 17.828125 63.875 
L 3.65625 63.875 
z
" id="TimesNewRomanPSMT-93"/>
      </defs>
      <use xlink:href="#TimesNewRomanPSMT-84"/>
      <use x="57.583984" xlink:href="#TimesNewRomanPSMT-105"/>
      <use x="85.367188" xlink:href="#TimesNewRomanPSMT-109"/>
      <use x="163.150391" xlink:href="#TimesNewRomanPSMT-101"/>
      <use x="207.535156" xlink:href="#TimesNewRomanPSMT-32"/>
      <use x="232.535156" xlink:href="#TimesNewRomanPSMT-91"/>
      <use x="265.835938" xlink:href="#TimesNewRomanPSMT-115"/>
      <use x="304.751953" xlink:href="#TimesNewRomanPSMT-93"/>
     </g>
    </g>
   </g>
   <g id="matplotlib.axis_2">
    <g id="ytick_1">
     <g id="line2d_9">
      <path clip-path="url(#p06d991faca)" d="M 67.878125 293.988677 
L 424.998125 293.988677 
" style="fill:none;stroke:#b0b0b0;stroke-linecap:square;stroke-width:0.8;"/>
     </g>
     <g id="line2d_10">
      <defs>
       <path d="M 0 0 
L -3.5 0 
" id="m5475fab211" style="stroke:#000000;stroke-width:0.8;"/>
      </defs>
      <g>
       <use style="stroke:#000000;stroke-width:0.8;" x="67.878125" xlink:href="#m5475fab211" y="293.988677"/>
      </g>
     </g>
     <g id="text_6">
      <!-- −75 -->
      <g transform="translate(29.6 300.932427)scale(0.2 -0.2)">
       <defs>
        <path d="M 54.4375 31.25 
L 1.8125 31.25 
L 1.8125 35.25 
L 54.4375 35.25 
z
" id="TimesNewRomanPSMT-8722"/>
        <path d="M 10.0625 66.21875 
L 45.5625 66.21875 
L 45.5625 64.359375 
L 23.484375 -1.375 
L 18.015625 -1.375 
L 37.796875 58.25 
L 19.578125 58.25 
Q 14.0625 58.25 11.71875 56.9375 
Q 7.625 54.6875 5.125 50 
L 3.71875 50.53125 
z
" id="TimesNewRomanPSMT-55"/>
        <path d="M 43.40625 66.21875 
L 39.59375 57.90625 
L 19.671875 57.90625 
L 15.328125 49.03125 
Q 28.265625 47.125 35.84375 39.40625 
Q 42.328125 32.765625 42.328125 23.78125 
Q 42.328125 18.5625 40.203125 14.109375 
Q 38.09375 9.671875 34.859375 6.546875 
Q 31.640625 3.421875 27.6875 1.515625 
Q 22.078125 -1.171875 16.15625 -1.171875 
Q 10.203125 -1.171875 7.484375 0.84375 
Q 4.78125 2.875 4.78125 5.328125 
Q 4.78125 6.6875 5.90625 7.734375 
Q 7.03125 8.796875 8.734375 8.796875 
Q 10.015625 8.796875 10.96875 8.40625 
Q 11.921875 8.015625 14.203125 6.390625 
Q 17.875 3.859375 21.625 3.859375 
Q 27.34375 3.859375 31.65625 8.171875 
Q 35.984375 12.5 35.984375 18.703125 
Q 35.984375 24.703125 32.125 29.90625 
Q 28.265625 35.109375 21.484375 37.9375 
Q 16.15625 40.140625 6.984375 40.484375 
L 19.671875 66.21875 
z
" id="TimesNewRomanPSMT-53"/>
       </defs>
       <use xlink:href="#TimesNewRomanPSMT-8722"/>
       <use x="56.396484" xlink:href="#TimesNewRomanPSMT-55"/>
       <use x="106.396484" xlink:href="#TimesNewRomanPSMT-53"/>
      </g>
     </g>
    </g>
    <g id="ytick_2">
     <g id="line2d_11">
      <path clip-path="url(#p06d991faca)" d="M 67.878125 246.935855 
L 424.998125 246.935855 
" style="fill:none;stroke:#b0b0b0;stroke-linecap:square;stroke-width:0.8;"/>
     </g>
     <g id="line2d_12">
      <g>
       <use style="stroke:#000000;stroke-width:0.8;" x="67.878125" xlink:href="#m5475fab211" y="246.935855"/>
      </g>
     </g>
     <g id="text_7">
      <!-- −50 -->
      <g transform="translate(29.6 253.879605)scale(0.2 -0.2)">
       <use xlink:href="#TimesNewRomanPSMT-8722"/>
       <use x="56.396484" xlink:href="#TimesNewRomanPSMT-53"/>
       <use x="106.396484" xlink:href="#TimesNewRomanPSMT-48"/>
      </g>
     </g>
    </g>
    <g id="ytick_3">
     <g id="line2d_13">
      <path clip-path="url(#p06d991faca)" d="M 67.878125 199.883033 
L 424.998125 199.883033 
" style="fill:none;stroke:#b0b0b0;stroke-linecap:square;stroke-width:0.8;"/>
     </g>
     <g id="line2d_14">
      <g>
       <use style="stroke:#000000;stroke-width:0.8;" x="67.878125" xlink:href="#m5475fab211" y="199.883033"/>
      </g>
     </g>
     <g id="text_8">
      <!-- −25 -->
      <g transform="translate(29.6 206.826783)scale(0.2 -0.2)">
       <use xlink:href="#TimesNewRomanPSMT-8722"/>
       <use x="56.396484" xlink:href="#TimesNewRomanPSMT-50"/>
       <use x="106.396484" xlink:href="#TimesNewRomanPSMT-53"/>
      </g>
     </g>
    </g>
    <g id="ytick_4">
     <g id="line2d_15">
      <path clip-path="url(#p06d991faca)" d="M 67.878125 152.830211 
L 424.998125 152.830211 
" style="fill:none;stroke:#b0b0b0;stroke-linecap:square;stroke-width:0.8;"/>
     </g>
     <g id="line2d_16">
      <g>
       <use style="stroke:#000000;stroke-width:0.8;" x="67.878125" xlink:href="#m5475fab211" y="152.830211"/>
      </g>
     </g>
     <g id="text_9">
      <!-- 0 -->
      <g transform="translate(50.878125 159.773961)scale(0.2 -0.2)">
       <use xlink:href="#TimesNewRomanPSMT-48"/>
      </g>
     </g>
    </g>
    <g id="ytick_5">
     <g id="line2d_17">
      <path clip-path="url(#p06d991faca)" d="M 67.878125 105.777389 
L 424.998125 105.777389 
" style="fill:none;stroke:#b0b0b0;stroke-linecap:square;stroke-width:0.8;"/>
     </g>
     <g id="line2d_18">
      <g>
       <use style="stroke:#000000;stroke-width:0.8;" x="67.878125" xlink:href="#m5475fab211" y="105.777389"/>
      </g>
     </g>
     <g id="text_10">
      <!-- 25 -->
      <g transform="translate(40.878125 112.721139)scale(0.2 -0.2)">
       <use xlink:href="#TimesNewRomanPSMT-50"/>
       <use x="50" xlink:href="#TimesNewRomanPSMT-53"/>
      </g>
     </g>
    </g>
    <g id="ytick_6">
     <g id="line2d_19">
      <path clip-path="url(#p06d991faca)" d="M 67.878125 58.724567 
L 424.998125 58.724567 
" style="fill:none;stroke:#b0b0b0;stroke-linecap:square;stroke-width:0.8;"/>
     </g>
     <g id="line2d_20">
      <g>
       <use style="stroke:#000000;stroke-width:0.8;" x="67.878125" xlink:href="#m5475fab211" y="58.724567"/>
      </g>
     </g>
     <g id="text_11">
      <!-- 50 -->
      <g transform="translate(40.878125 65.668317)scale(0.2 -0.2)">
       <use xlink:href="#TimesNewRomanPSMT-53"/>
       <use x="50" xlink:href="#TimesNewRomanPSMT-48"/>
      </g>
     </g>
    </g>
    <g id="text_12">
     <!-- Angle [$^\circ$] -->
     <g transform="translate(21.2 206.204437)rotate(-90)scale(0.2 -0.2)">
      <defs>
       <path d="M 45.75 22.171875 
L 20.125 22.171875 
L 15.625 11.71875 
Q 13.96875 7.859375 13.96875 5.953125 
Q 13.96875 4.4375 15.40625 3.296875 
Q 16.84375 2.15625 21.625 1.8125 
L 21.625 0 
L 0.78125 0 
L 0.78125 1.8125 
Q 4.9375 2.546875 6.15625 3.71875 
Q 8.640625 6.0625 11.671875 13.234375 
L 34.96875 67.71875 
L 36.671875 67.71875 
L 59.71875 12.640625 
Q 62.5 6 64.765625 4.015625 
Q 67.046875 2.046875 71.09375 1.8125 
L 71.09375 0 
L 44.96875 0 
L 44.96875 1.8125 
Q 48.921875 2 50.3125 3.125 
Q 51.703125 4.25 51.703125 5.859375 
Q 51.703125 8.015625 49.75 12.640625 
z
M 44.390625 25.78125 
L 33.15625 52.546875 
L 21.625 25.78125 
z
" id="TimesNewRomanPSMT-65"/>
       <path d="M 16.15625 36.578125 
Q 24.03125 46.046875 31.15625 46.046875 
Q 34.8125 46.046875 37.453125 44.21875 
Q 40.09375 42.390625 41.65625 38.1875 
Q 42.71875 35.25 42.71875 29.203125 
L 42.71875 10.109375 
Q 42.71875 5.859375 43.40625 4.34375 
Q 43.953125 3.125 45.140625 2.4375 
Q 46.34375 1.765625 49.5625 1.765625 
L 49.5625 0 
L 27.4375 0 
L 27.4375 1.765625 
L 28.375 1.765625 
Q 31.5 1.765625 32.734375 2.703125 
Q 33.984375 3.65625 34.46875 5.515625 
Q 34.671875 6.25 34.671875 10.109375 
L 34.671875 28.421875 
Q 34.671875 34.515625 33.078125 37.28125 
Q 31.5 40.046875 27.734375 40.046875 
Q 21.921875 40.046875 16.15625 33.6875 
L 16.15625 10.109375 
Q 16.15625 5.5625 16.703125 4.5 
Q 17.390625 3.078125 18.578125 2.421875 
Q 19.78125 1.765625 23.4375 1.765625 
L 23.4375 0 
L 1.3125 0 
L 1.3125 1.765625 
L 2.296875 1.765625 
Q 5.71875 1.765625 6.90625 3.484375 
Q 8.109375 5.21875 8.109375 10.109375 
L 8.109375 26.703125 
Q 8.109375 34.765625 7.734375 36.515625 
Q 7.375 38.28125 6.609375 38.90625 
Q 5.859375 39.546875 4.59375 39.546875 
Q 3.21875 39.546875 1.3125 38.8125 
L 0.59375 40.578125 
L 14.0625 46.046875 
L 16.15625 46.046875 
z
" id="TimesNewRomanPSMT-110"/>
       <path d="M 15.09375 16.3125 
Q 10.984375 18.3125 8.78125 21.890625 
Q 6.59375 25.484375 6.59375 29.828125 
Q 6.59375 36.46875 11.59375 41.25 
Q 16.609375 46.046875 24.421875 46.046875 
Q 30.8125 46.046875 35.5 42.921875 
L 44.96875 42.921875 
Q 47.078125 42.921875 47.40625 42.796875 
Q 47.75 42.671875 47.90625 42.390625 
Q 48.1875 41.9375 48.1875 40.828125 
Q 48.1875 39.546875 47.953125 39.0625 
Q 47.796875 38.8125 47.4375 38.671875 
Q 47.078125 38.53125 44.96875 38.53125 
L 39.15625 38.53125 
Q 41.890625 35.015625 41.890625 29.546875 
Q 41.890625 23.296875 37.109375 18.84375 
Q 32.328125 14.40625 24.265625 14.40625 
Q 20.953125 14.40625 17.484375 15.375 
Q 15.328125 13.53125 14.5625 12.140625 
Q 13.8125 10.75 13.8125 9.765625 
Q 13.8125 8.9375 14.625 8.15625 
Q 15.4375 7.375 17.78125 7.03125 
Q 19.140625 6.84375 24.609375 6.6875 
Q 34.671875 6.453125 37.640625 6 
Q 42.1875 5.375 44.890625 2.640625 
Q 47.609375 -0.09375 47.609375 -4.109375 
Q 47.609375 -9.625 42.4375 -14.453125 
Q 34.8125 -21.578125 22.5625 -21.578125 
Q 13.140625 -21.578125 6.640625 -17.328125 
Q 2.984375 -14.890625 2.984375 -12.25 
Q 2.984375 -11.078125 3.515625 -9.90625 
Q 4.34375 -8.109375 6.9375 -4.890625 
Q 7.28125 -4.4375 11.921875 0.390625 
Q 9.375 1.90625 8.328125 3.09375 
Q 7.28125 4.296875 7.28125 5.8125 
Q 7.28125 7.515625 8.671875 9.8125 
Q 10.0625 12.109375 15.09375 16.3125 
z
M 23.578125 43.703125 
Q 19.96875 43.703125 17.53125 40.8125 
Q 15.09375 37.9375 15.09375 31.984375 
Q 15.09375 24.265625 18.40625 20.015625 
Q 20.953125 16.796875 24.859375 16.796875 
Q 28.5625 16.796875 30.953125 19.578125 
Q 33.34375 22.359375 33.34375 28.328125 
Q 33.34375 36.078125 29.984375 40.484375 
Q 27.484375 43.703125 23.578125 43.703125 
z
M 14.59375 0 
Q 12.3125 -2.484375 11.140625 -4.625 
Q 9.96875 -6.78125 9.96875 -8.59375 
Q 9.96875 -10.9375 12.796875 -12.703125 
Q 17.671875 -15.71875 26.90625 -15.71875 
Q 35.6875 -15.71875 39.859375 -12.609375 
Q 44.046875 -9.515625 44.046875 -6 
Q 44.046875 -3.46875 41.546875 -2.390625 
Q 39.015625 -1.3125 31.5 -1.125 
Q 20.515625 -0.828125 14.59375 0 
z
" id="TimesNewRomanPSMT-103"/>
       <path d="M 18.5 69.4375 
L 18.5 10.109375 
Q 18.5 5.90625 19.109375 4.53125 
Q 19.734375 3.171875 21 2.46875 
Q 22.265625 1.765625 25.734375 1.765625 
L 25.734375 0 
L 3.8125 0 
L 3.8125 1.765625 
Q 6.890625 1.765625 8 2.390625 
Q 9.125 3.03125 9.765625 4.484375 
Q 10.40625 5.953125 10.40625 10.109375 
L 10.40625 50.734375 
Q 10.40625 58.296875 10.0625 60.03125 
Q 9.71875 61.765625 8.953125 62.390625 
Q 8.203125 63.03125 7.03125 63.03125 
Q 5.765625 63.03125 3.8125 62.25 
L 2.984375 63.96875 
L 16.3125 69.4375 
z
" id="TimesNewRomanPSMT-108"/>
       <path d="M 23.203125 38.703125 
Q 31 30.796875 31 25.1875 
Q 31 19.59375 27.046875 15.640625 
Q 23.09375 11.703125 17.5 11.703125 
Q 11.796875 11.703125 7.890625 15.640625 
Q 4 19.59375 4 25.40625 
Q 4 31 7.953125 34.84375 
Q 11.90625 38.703125 17.703125 38.703125 
Q 23.203125 38.703125 31 30.796875 
z
M 20.40625 18.296875 
Q 24.40625 22.296875 24.40625 25.1875 
Q 24.40625 28.09375 22.40625 30.09375 
Q 20.40625 32.09375 17.703125 32.09375 
Q 14.59375 32.09375 12.59375 30.140625 
Q 10.59375 28.203125 10.59375 25.40625 
Q 10.59375 22.296875 12.546875 20.296875 
Q 14.5 18.296875 17.5 18.296875 
Q 20.40625 18.296875 24.40625 22.296875 
z
" id="STIXGeneral-Regular-8728"/>
      </defs>
      <use transform="translate(0 0.5625)" xlink:href="#TimesNewRomanPSMT-65"/>
      <use transform="translate(72.216797 0.5625)" xlink:href="#TimesNewRomanPSMT-110"/>
      <use transform="translate(122.216797 0.5625)" xlink:href="#TimesNewRomanPSMT-103"/>
      <use transform="translate(172.216797 0.5625)" xlink:href="#TimesNewRomanPSMT-108"/>
      <use transform="translate(200 0.5625)" xlink:href="#TimesNewRomanPSMT-101"/>
      <use transform="translate(244.384766 0.5625)" xlink:href="#TimesNewRomanPSMT-32"/>
      <use transform="translate(269.384766 0.5625)" xlink:href="#TimesNewRomanPSMT-91"/>
      <use transform="translate(314.336826 35.8375)scale(0.7)" xlink:href="#STIXGeneral-Regular-8728"/>
      <use transform="translate(353.354187 0.5625)" xlink:href="#TimesNewRomanPSMT-93"/>
     </g>
    </g>
   </g>
   <g id="line2d_21">
    <path clip-path="url(#p06d991faca)" d="M 84.110852 130.495011 
L 85.766844 129.3038 
L 87.381068 130.792813 
L 88.986352 133.473037 
L 90.541458 171.293976 
L 92.235036 177.547833 
L 93.843623 184.099491 
L 95.244663 187.077518 
L 96.847451 183.503886 
L 98.459919 175.761017 
L 100.325862 166.231331 
L 101.870502 162.955502 
L 103.562533 161.764291 
L 105.173939 171.293976 
L 106.806644 173.080793 
L 108.191327 184.397294 
L 111.624504 182.908281 
L 112.981442 186.18411 
L 114.747214 191.246755 
L 116.203675 189.459939 
L 117.942788 187.673123 
L 119.535804 188.864334 
L 120.909214 185.588505 
L 122.48525 188.268729 
L 124.259039 184.695097 
L 125.804765 185.588505 
L 127.224979 170.698371 
L 128.953419 186.481913 
L 130.336739 164.742318 
L 132.107548 165.635726 
L 133.490175 163.551107 
L 135.273782 179.632451 
L 136.841848 164.742318 
L 138.40996 166.826936 
L 139.995006 160.275278 
L 141.379944 161.466488 
L 142.937845 158.786264 
L 144.718241 157.595054 
L 146.269766 154.91483 
L 147.69795 154.91483 
L 151.08587 152.532408 
L 152.483144 151.043395 
L 154.089028 150.44779 
L 155.704199 148.363171 
L 157.568409 146.576355 
L 158.930983 143.300525 
L 160.550798 141.811512 
L 162.408031 140.918104 
L 163.783981 138.535683 
L 165.717358 139.429091 
L 167.263755 136.153261 
L 168.886988 137.642275 
L 170.271348 132.281827 
L 171.884717 135.259853 
L 173.514904 129.005997 
L 175.134049 131.388419 
L 178.315877 126.623576 
L 179.885514 117.987298 
L 181.633937 118.880706 
L 183.032851 113.520258 
L 184.601425 116.200482 
L 186.388983 114.711469 
L 187.740399 119.476312 
L 189.34395 120.667522 
L 191.087336 124.241154 
L 192.457766 125.730168 
L 194.044544 127.814786 
L 195.610324 132.281827 
L 197.366971 135.557656 
L 198.763343 140.918104 
L 200.504605 139.726893 
L 201.896542 142.109315 
L 203.478192 142.407117 
L 205.044918 144.491736 
L 206.627077 145.087341 
L 211.335295 148.660973 
L 213.106889 150.44779 
L 214.683803 151.341198 
L 216.004586 153.128014 
L 219.43573 155.212632 
L 221.051502 156.999448 
L 222.676283 159.084067 
L 224.287666 161.466488 
L 225.620693 164.146712 
L 227.5254 167.720344 
L 229.139924 170.400568 
L 230.547525 168.613752 
L 232.156828 169.209358 
L 233.768025 168.911555 
L 237.078716 177.25003 
L 238.719946 182.014873 
L 240.292332 184.695097 
L 241.869038 186.779715 
L 243.449533 184.099491 
L 244.817513 188.268729 
L 246.591441 185.588505 
L 248.16154 187.970926 
L 249.737091 183.503886 
L 251.136305 186.18411 
L 252.873686 181.71707 
L 254.4439 185.886307 
L 256.041537 189.459939 
L 257.432319 178.143438 
L 259.171016 181.121465 
L 260.543894 175.463214 
L 262.150332 172.78299 
L 263.914072 169.50716 
L 265.296607 157.297251 
L 268.636359 153.723619 
L 270.180908 154.319224 
L 271.56499 155.212632 
L 275.004358 155.808238 
L 276.657624 155.808238 
L 278.021077 155.212632 
L 281.238736 152.830211 
L 283.098395 152.532408 
L 284.704948 149.554381 
L 289.315908 144.491736 
L 291.180695 142.407117 
L 292.804414 139.429091 
L 294.172694 138.23788 
L 295.792624 135.259853 
L 297.663811 135.557656 
L 299.269995 134.366445 
L 300.888655 132.579629 
L 302.512466 128.708195 
L 304.125812 128.410392 
L 307.327692 127.516984 
L 308.887534 117.09389 
L 310.463963 118.285101 
L 312.036419 113.520258 
L 313.430273 117.09389 
L 315.051659 115.90268 
L 316.620718 118.880706 
L 318.20052 121.263128 
L 319.761771 121.56093 
L 321.329537 128.708195 
L 322.995209 128.708195 
L 324.500507 134.366445 
L 326.038564 134.068643 
L 327.820693 138.535683 
L 329.416804 138.535683 
L 330.955046 141.215907 
L 332.385263 141.215907 
L 334.116036 143.002723 
L 335.513887 143.598328 
L 337.073244 145.682947 
L 338.662656 147.469763 
L 340.416416 148.660973 
L 341.974987 150.149987 
L 343.392406 151.043395 
L 344.938294 152.532408 
L 348.32961 153.723619 
L 349.694148 156.999448 
L 351.560483 159.084067 
L 352.952328 161.466488 
L 354.488421 163.84891 
L 356.423854 167.124739 
L 357.800752 169.804963 
L 359.425141 171.293976 
L 361.035691 171.889582 
L 362.676921 170.400568 
L 364.277099 171.889582 
L 367.370077 179.930254 
L 369.028633 180.525859 
L 370.785211 187.077518 
L 372.184795 184.992899 
L 373.757135 187.970926 
L 375.505281 191.544558 
L 376.90602 189.162137 
L 378.658301 191.544558 
L 380.050238 193.92698 
L 381.62036 193.629177 
L 383.388743 180.823662 
L 384.763331 179.632451 
L 386.337242 174.867609 
L 388.111631 175.165411 
L 391.061192 180.228057 
L 392.823546 174.569806 
L 394.220149 161.168686 
L 395.789394 154.021422 
L 408.765398 154.021422 
L 408.765398 154.021422 
" style="fill:none;stroke:#1f77b4;stroke-linecap:square;stroke-width:1.5;"/>
   </g>
   <g id="line2d_22">
    <path clip-path="url(#p06d991faca)" d="M 84.110852 81.238449 
L 85.766844 74.999483 
L 87.381068 69.936837 
L 88.986352 65.901611 
L 90.541458 81.863834 
L 92.235036 89.919397 
L 93.843623 99.702214 
L 95.244663 109.157449 
L 96.847451 115.753778 
L 98.459919 119.163619 
L 100.325862 119.654993 
L 101.870502 121.203567 
L 103.562533 123.079724 
L 105.173939 130.554571 
L 106.806644 136.153261 
L 108.191327 147.439983 
L 111.624504 154.512796 
L 112.981442 163.83402 
L 116.203675 183.578337 
L 117.942788 191.75302 
L 119.535804 201.118914 
L 120.909214 208.325739 
L 122.48525 217.989435 
L 124.259039 224.883567 
L 125.804765 233.341163 
L 127.224979 233.341163 
L 128.953419 246.489151 
L 130.336739 242.945299 
L 132.107548 246.4147 
L 133.490175 248.469539 
L 135.273782 259.994502 
L 136.841848 258.505489 
L 138.40996 262.630056 
L 139.995006 262.525825 
L 141.379944 265.042257 
L 144.718241 266.561051 
L 146.269766 266.278138 
L 147.69795 266.799293 
L 151.08587 266.010116 
L 152.483144 265.116708 
L 154.089028 264.342421 
L 157.568409 260.500767 
L 158.930983 257.135596 
L 160.550798 253.934218 
L 162.408031 250.688169 
L 163.783981 246.39981 
L 165.717358 243.317553 
L 167.263755 238.165566 
L 168.886988 234.815286 
L 170.271348 228.070056 
L 171.884717 224.570874 
L 173.514904 216.738664 
L 175.134049 212.092942 
L 178.315877 204.111831 
L 179.885514 192.810219 
L 181.633937 184.590866 
L 183.032851 173.155243 
L 187.740399 147.916467 
L 189.34395 140.233158 
L 191.087336 134.157983 
L 192.457766 127.829677 
L 194.044544 122.201206 
L 195.610324 118.404222 
L 197.366971 115.068832 
L 198.763343 113.69894 
L 200.504605 110.065747 
L 201.896542 108.10025 
L 203.478192 105.583817 
L 205.044918 104.124584 
L 206.627077 102.367548 
L 208.188189 101.086997 
L 209.759282 100.104248 
L 211.335295 99.419302 
L 214.683803 99.25551 
L 216.004586 99.866006 
L 219.43573 101.086997 
L 221.051502 102.665351 
L 222.676283 104.854201 
L 224.287666 107.727996 
L 225.620693 111.361189 
L 227.5254 116.155812 
L 229.139924 121.352469 
L 230.547525 124.762309 
L 232.156828 129.035777 
L 233.768025 132.966773 
L 237.078716 141.57327 
L 240.292332 159.069177 
L 241.869038 168.181939 
L 243.449533 175.195191 
L 244.817513 185.305592 
L 246.591441 192.691098 
L 248.16154 202.191004 
L 249.737091 208.51931 
L 251.136305 217.661852 
L 252.873686 223.543455 
L 256.041537 243.287772 
L 257.432319 246.221129 
L 259.171016 254.18735 
L 260.543894 258.148126 
L 262.150332 262.332253 
L 263.914072 265.518742 
L 265.296607 262.972529 
L 267.038815 263.10654 
L 268.636359 262.793847 
L 270.180908 263.344782 
L 271.56499 264.20841 
L 275.004358 265.131598 
L 276.657624 265.876105 
L 278.021077 266.293029 
L 281.238736 265.578302 
L 283.098395 265.414511 
L 286.10444 262.064231 
L 287.70277 259.890271 
L 291.180695 254.038449 
L 292.804414 249.794761 
L 294.172694 245.789315 
L 295.792624 240.503317 
L 297.663811 236.274519 
L 299.269995 231.301215 
L 300.888655 225.702525 
L 302.512466 218.51059 
L 304.125812 212.316294 
L 307.327692 205.719965 
L 308.887534 193.658957 
L 310.463963 185.380043 
L 312.036419 174.123102 
L 315.051659 156.671865 
L 319.761771 134.172874 
L 321.329537 130.286549 
L 322.995209 124.256045 
L 324.500507 121.337578 
L 326.038564 116.557846 
L 327.820693 114.324325 
L 329.416804 110.750693 
L 330.955046 108.651185 
L 332.385263 105.747609 
L 334.116036 103.826781 
L 335.513887 101.697492 
L 337.073244 100.536062 
L 338.662656 99.731995 
L 340.416416 99.047048 
L 343.392406 98.645015 
L 344.938294 99.017268 
L 348.32961 99.597983 
L 349.694148 101.623042 
L 351.560483 103.811891 
L 352.952328 106.685687 
L 356.423854 114.711469 
L 357.800752 119.759224 
L 361.035691 129.765394 
L 362.676921 133.711279 
L 364.277099 138.922826 
L 367.370077 148.110039 
L 369.028633 155.212632 
L 370.785211 165.739957 
L 372.184795 173.155243 
L 378.658301 212.346075 
L 380.050238 223.334993 
L 381.62036 233.445394 
L 383.388743 236.602102 
L 384.763331 242.945299 
L 386.337242 247.025196 
L 388.111631 252.698337 
L 391.061192 261.066592 
L 392.823546 264.804015 
L 394.220149 262.868298 
L 395.789394 261.021921 
L 408.765398 261.617527 
L 408.765398 261.617527 
" style="fill:none;stroke:#ff7f0e;stroke-linecap:square;stroke-width:1.5;"/>
   </g>
   <g id="line2d_23">
    <path clip-path="url(#p06d991faca)" d="M 84.110852 58.903248 
L 85.766844 51.473072 
L 87.381068 47.89944 
L 88.986352 46.544437 
L 90.541458 100.3276 
L 92.235036 114.637018 
L 93.843623 130.971495 
L 95.244663 143.404756 
L 96.847451 146.427453 
L 98.459919 142.094425 
L 100.325862 133.056114 
L 101.870502 131.328858 
L 103.562533 132.013804 
L 105.173939 149.018337 
L 106.806644 156.403843 
L 108.191327 179.007066 
L 111.624504 184.590866 
L 114.747214 213.373494 
L 116.203675 220.208065 
L 117.942788 226.595933 
L 119.535804 237.153037 
L 120.909214 241.084033 
L 122.48525 253.427953 
L 124.259039 256.748453 
L 125.804765 266.099457 
L 127.224979 251.209323 
L 128.953419 280.140853 
L 130.336739 254.857406 
L 132.107548 259.220215 
L 133.490175 259.190435 
L 135.273782 286.796743 
L 136.841848 270.417596 
L 138.40996 276.626781 
L 139.995006 269.970892 
L 141.379944 273.678535 
L 142.937845 271.683257 
L 144.718241 271.325894 
L 146.269766 268.362757 
L 147.69795 268.883912 
L 151.08587 265.712313 
L 152.483144 263.329892 
L 154.089028 261.96 
L 155.704199 258.133235 
L 157.568409 254.246911 
L 158.930983 247.605911 
L 160.550798 242.915519 
L 162.408031 238.776062 
L 163.783981 232.105282 
L 165.717358 229.916432 
L 167.263755 221.488617 
L 168.886988 219.62735 
L 170.271348 207.521671 
L 171.884717 207.000517 
L 173.514904 192.91445 
L 175.134049 190.65115 
L 178.315877 177.905196 
L 179.885514 157.967307 
L 181.633937 150.641361 
L 183.032851 133.845291 
L 184.601425 128.17215 
L 186.388983 116.706747 
L 187.740399 114.562568 
L 189.34395 108.070469 
L 191.087336 105.568927 
L 192.457766 100.729634 
L 194.044544 97.185782 
L 195.610324 97.855838 
L 197.366971 97.796277 
L 198.763343 101.786833 
L 200.504605 96.96243 
L 201.896542 97.379353 
L 203.478192 95.160724 
L 205.044918 95.786109 
L 206.627077 94.624679 
L 208.188189 94.535338 
L 209.759282 94.7438 
L 211.335295 95.250064 
L 213.106889 96.97732 
L 214.683803 97.766497 
L 216.004586 100.163808 
L 219.43573 103.469418 
L 221.051502 106.834588 
L 222.676283 111.108057 
L 224.287666 116.364274 
L 225.620693 122.67769 
L 227.5254 131.045945 
L 229.139924 138.922826 
L 230.547525 140.545851 
L 232.156828 145.414924 
L 233.768025 149.048117 
L 237.078716 165.993089 
L 238.719946 179.48355 
L 241.869038 202.131443 
L 243.449533 206.464472 
L 244.817513 220.74411 
L 246.591441 225.449392 
L 248.16154 237.331719 
L 249.737091 239.192986 
L 251.136305 251.015752 
L 252.873686 252.430314 
L 256.041537 279.917501 
L 257.432319 271.534356 
L 259.171016 282.478604 
L 260.543894 280.781129 
L 262.150332 282.285032 
L 263.914072 282.195691 
L 265.296607 267.439569 
L 267.038815 265.786764 
L 268.636359 263.687255 
L 270.180908 264.833796 
L 271.56499 266.590831 
L 276.657624 268.854132 
L 278.021077 268.67545 
L 281.238736 265.578302 
L 283.098395 265.116708 
L 284.704948 260.426316 
L 286.10444 257.299388 
L 287.70277 253.338612 
L 291.180695 243.615355 
L 292.804414 236.39364 
L 294.172694 231.196984 
L 295.792624 222.93296 
L 297.663811 219.001964 
L 299.269995 212.837449 
L 300.888655 205.451943 
L 302.512466 194.388574 
L 304.125812 187.896475 
L 307.327692 180.406738 
L 308.887534 157.922637 
L 310.463963 150.834933 
L 312.036419 134.813149 
L 313.430273 130.524791 
L 315.051659 119.744334 
L 318.20052 110.33377 
L 319.761771 102.903593 
L 321.329537 106.164532 
L 322.995209 100.134028 
L 324.500507 102.873813 
L 326.038564 97.796277 
L 327.820693 100.029797 
L 329.416804 96.456165 
L 330.955046 97.03688 
L 332.385263 94.133304 
L 334.116036 93.999293 
L 335.513887 92.465609 
L 338.662656 94.371547 
L 340.416416 94.877811 
L 341.974987 96.143472 
L 343.392406 96.858199 
L 344.938294 98.719466 
L 348.32961 100.491391 
L 349.694148 105.792279 
L 351.560483 110.065747 
L 354.488421 121.173787 
L 356.423854 129.005997 
L 357.800752 136.733976 
L 359.425141 143.285635 
L 361.035691 148.824765 
L 362.676921 151.281637 
L 364.277099 157.982197 
L 367.370077 175.210082 
L 369.028633 182.908281 
L 370.785211 199.987264 
L 372.184795 205.317932 
L 375.505281 232.298854 
L 376.90602 238.284687 
L 378.658301 251.060422 
L 380.050238 264.431762 
L 381.62036 274.24436 
L 383.388743 264.595553 
L 384.763331 269.74754 
L 386.337242 269.062593 
L 388.111631 275.033537 
L 391.061192 288.464437 
L 392.823546 286.54361 
L 394.220149 271.206773 
L 395.789394 262.213132 
L 408.765398 262.808737 
L 408.765398 262.808737 
" style="fill:none;stroke:#2ca02c;stroke-linecap:square;stroke-width:1.5;"/>
   </g>
   <g id="patch_3">
    <path d="M 67.878125 300.560437 
L 67.878125 34.448437 
" style="fill:none;stroke:#000000;stroke-linecap:square;stroke-linejoin:miter;stroke-width:0.8;"/>
   </g>
   <g id="patch_4">
    <path d="M 424.998125 300.560437 
L 424.998125 34.448437 
" style="fill:none;stroke:#000000;stroke-linecap:square;stroke-linejoin:miter;stroke-width:0.8;"/>
   </g>
   <g id="patch_5">
    <path d="M 67.878125 300.560437 
L 424.998125 300.560437 
" style="fill:none;stroke:#000000;stroke-linecap:square;stroke-linejoin:miter;stroke-width:0.8;"/>
   </g>
   <g id="patch_6">
    <path d="M 67.878125 34.448437 
L 424.998125 34.448437 
" style="fill:none;stroke:#000000;stroke-linecap:square;stroke-linejoin:miter;stroke-width:0.8;"/>
   </g>
   <g id="text_13">
    <!-- The servo performance -->
    <g transform="translate(107.34125 28.03125)scale(0.3 -0.3)">
     <defs>
      <path d="M 16.265625 69.4375 
L 16.265625 36.71875 
Q 21.6875 42.671875 24.859375 44.359375 
Q 28.03125 46.046875 31.203125 46.046875 
Q 35.015625 46.046875 37.75 43.9375 
Q 40.484375 41.84375 41.796875 37.359375 
Q 42.71875 34.234375 42.71875 25.921875 
L 42.71875 10.109375 
Q 42.71875 5.859375 43.40625 4.296875 
Q 43.890625 3.125 45.0625 2.4375 
Q 46.234375 1.765625 49.359375 1.765625 
L 49.359375 0 
L 27.390625 0 
L 27.390625 1.765625 
L 28.421875 1.765625 
Q 31.546875 1.765625 32.765625 2.703125 
Q 33.984375 3.65625 34.46875 5.515625 
Q 34.625 6.296875 34.625 10.109375 
L 34.625 25.921875 
Q 34.625 33.25 33.859375 35.546875 
Q 33.109375 37.84375 31.4375 38.984375 
Q 29.78125 40.140625 27.4375 40.140625 
Q 25.046875 40.140625 22.453125 38.859375 
Q 19.875 37.59375 16.265625 33.734375 
L 16.265625 10.109375 
Q 16.265625 5.515625 16.765625 4.390625 
Q 17.28125 3.265625 18.671875 2.515625 
Q 20.0625 1.765625 23.484375 1.765625 
L 23.484375 0 
L 1.3125 0 
L 1.3125 1.765625 
Q 4.296875 1.765625 6 2.6875 
Q 6.984375 3.171875 7.5625 4.53125 
Q 8.15625 5.90625 8.15625 10.109375 
L 8.15625 50.59375 
Q 8.15625 58.25 7.78125 60 
Q 7.421875 61.765625 6.65625 62.390625 
Q 5.90625 63.03125 4.640625 63.03125 
Q 3.609375 63.03125 1.3125 62.25 
L 0.640625 63.96875 
L 14.015625 69.4375 
z
" id="TimesNewRomanPSMT-104"/>
      <path d="M 16.21875 46.046875 
L 16.21875 35.984375 
Q 21.828125 46.046875 27.734375 46.046875 
Q 30.421875 46.046875 32.171875 44.40625 
Q 33.9375 42.78125 33.9375 40.625 
Q 33.9375 38.71875 32.65625 37.390625 
Q 31.390625 36.078125 29.640625 36.078125 
Q 27.9375 36.078125 25.8125 37.765625 
Q 23.6875 39.453125 22.65625 39.453125 
Q 21.78125 39.453125 20.75 38.484375 
Q 18.5625 36.46875 16.21875 31.890625 
L 16.21875 10.453125 
Q 16.21875 6.734375 17.140625 4.828125 
Q 17.78125 3.515625 19.390625 2.640625 
Q 21 1.765625 24.03125 1.765625 
L 24.03125 0 
L 1.125 0 
L 1.125 1.765625 
Q 4.546875 1.765625 6.203125 2.828125 
Q 7.421875 3.609375 7.90625 5.328125 
Q 8.15625 6.15625 8.15625 10.0625 
L 8.15625 27.390625 
Q 8.15625 35.203125 7.828125 36.6875 
Q 7.515625 38.1875 6.65625 38.859375 
Q 5.8125 39.546875 4.546875 39.546875 
Q 3.03125 39.546875 1.125 38.8125 
L 0.640625 40.578125 
L 14.15625 46.046875 
z
" id="TimesNewRomanPSMT-114"/>
      <path d="M 0.828125 44.734375 
L 21.875 44.734375 
L 21.875 42.921875 
L 20.515625 42.921875 
Q 18.609375 42.921875 17.609375 41.984375 
Q 16.609375 41.0625 16.609375 39.5 
Q 16.609375 37.796875 17.625 35.453125 
L 28.03125 10.75 
L 38.484375 36.375 
Q 39.59375 39.109375 39.59375 40.53125 
Q 39.59375 41.21875 39.203125 41.65625 
Q 38.671875 42.390625 37.84375 42.65625 
Q 37.015625 42.921875 34.46875 42.921875 
L 34.46875 44.734375 
L 49.078125 44.734375 
L 49.078125 42.921875 
Q 46.53125 42.71875 45.5625 41.890625 
Q 43.84375 40.4375 42.484375 37.015625 
L 26.609375 -1.375 
L 24.609375 -1.375 
L 8.640625 36.375 
Q 7.5625 39.015625 6.578125 40.15625 
Q 5.609375 41.3125 4.109375 42.09375 
Q 3.265625 42.53125 0.828125 42.921875 
z
" id="TimesNewRomanPSMT-118"/>
      <path d="M 25 46.046875 
Q 35.15625 46.046875 41.3125 38.328125 
Q 46.53125 31.734375 46.53125 23.1875 
Q 46.53125 17.1875 43.640625 11.03125 
Q 40.765625 4.890625 35.71875 1.75 
Q 30.671875 -1.375 24.46875 -1.375 
Q 14.359375 -1.375 8.40625 6.6875 
Q 3.375 13.484375 3.375 21.921875 
Q 3.375 28.078125 6.421875 34.15625 
Q 9.46875 40.234375 14.453125 43.140625 
Q 19.4375 46.046875 25 46.046875 
z
M 23.484375 42.875 
Q 20.90625 42.875 18.28125 41.328125 
Q 15.671875 39.796875 14.0625 35.9375 
Q 12.453125 32.078125 12.453125 26.03125 
Q 12.453125 16.265625 16.328125 9.171875 
Q 20.21875 2.09375 26.5625 2.09375 
Q 31.296875 2.09375 34.375 6 
Q 37.453125 9.90625 37.453125 19.4375 
Q 37.453125 31.34375 32.328125 38.1875 
Q 28.859375 42.875 23.484375 42.875 
z
" id="TimesNewRomanPSMT-111"/>
      <path d="M -0.09375 40.28125 
L 13.671875 45.84375 
L 15.53125 45.84375 
L 15.53125 35.40625 
Q 19 41.3125 22.484375 43.671875 
Q 25.984375 46.046875 29.828125 46.046875 
Q 36.578125 46.046875 41.0625 40.765625 
Q 46.578125 34.328125 46.578125 23.96875 
Q 46.578125 12.40625 39.9375 4.828125 
Q 34.46875 -1.375 26.171875 -1.375 
Q 22.5625 -1.375 19.921875 -0.34375 
Q 17.96875 0.390625 15.53125 2.59375 
L 15.53125 -11.03125 
Q 15.53125 -15.625 16.09375 -16.859375 
Q 16.65625 -18.109375 18.046875 -18.84375 
Q 19.4375 -19.578125 23.09375 -19.578125 
L 23.09375 -21.390625 
L -0.34375 -21.390625 
L -0.34375 -19.578125 
L 0.875 -19.578125 
Q 3.5625 -19.625 5.46875 -18.5625 
Q 6.390625 -18.015625 6.90625 -16.8125 
Q 7.421875 -15.625 7.421875 -10.75 
L 7.421875 31.546875 
Q 7.421875 35.890625 7.03125 37.0625 
Q 6.640625 38.234375 5.78125 38.8125 
Q 4.9375 39.40625 3.46875 39.40625 
Q 2.296875 39.40625 0.484375 38.71875 
z
M 15.53125 32.515625 
L 15.53125 15.828125 
Q 15.53125 10.40625 15.96875 8.6875 
Q 16.65625 5.859375 19.3125 3.703125 
Q 21.96875 1.5625 26.03125 1.5625 
Q 30.90625 1.5625 33.9375 5.375 
Q 37.890625 10.359375 37.890625 19.390625 
Q 37.890625 29.640625 33.40625 35.15625 
Q 30.28125 38.96875 25.984375 38.96875 
Q 23.640625 38.96875 21.34375 37.796875 
Q 19.578125 36.921875 15.53125 32.515625 
z
" id="TimesNewRomanPSMT-112"/>
      <path d="M 20.609375 41.21875 
L 20.609375 11.8125 
Q 20.609375 5.5625 21.96875 3.90625 
Q 23.78125 1.765625 26.8125 1.765625 
L 30.859375 1.765625 
L 30.859375 0 
L 4.15625 0 
L 4.15625 1.765625 
L 6.15625 1.765625 
Q 8.109375 1.765625 9.71875 2.734375 
Q 11.328125 3.71875 11.9375 5.375 
Q 12.546875 7.03125 12.546875 11.8125 
L 12.546875 41.21875 
L 3.859375 41.21875 
L 3.859375 44.734375 
L 12.546875 44.734375 
L 12.546875 47.65625 
Q 12.546875 54.34375 14.6875 58.984375 
Q 16.84375 63.625 21.265625 66.484375 
Q 25.6875 69.34375 31.203125 69.34375 
Q 36.328125 69.34375 40.625 66.015625 
Q 43.453125 63.8125 43.453125 61.078125 
Q 43.453125 59.625 42.1875 58.328125 
Q 40.921875 57.03125 39.453125 57.03125 
Q 38.328125 57.03125 37.078125 57.828125 
Q 35.84375 58.640625 34.03125 61.296875 
Q 32.234375 63.96875 30.71875 64.890625 
Q 29.203125 65.828125 27.34375 65.828125 
Q 25.09375 65.828125 23.53125 64.625 
Q 21.96875 63.421875 21.28125 60.90625 
Q 20.609375 58.40625 20.609375 47.953125 
L 20.609375 44.734375 
L 32.125 44.734375 
L 32.125 41.21875 
z
" id="TimesNewRomanPSMT-102"/>
      <path d="M 28.46875 6.453125 
Q 21.578125 1.125 19.828125 0.296875 
Q 17.1875 -0.921875 14.203125 -0.921875 
Q 9.578125 -0.921875 6.5625 2.25 
Q 3.5625 5.421875 3.5625 10.59375 
Q 3.5625 13.875 5.03125 16.265625 
Q 7.03125 19.578125 11.984375 22.5 
Q 16.9375 25.4375 28.46875 29.640625 
L 28.46875 31.390625 
Q 28.46875 38.09375 26.34375 40.578125 
Q 24.21875 43.0625 20.171875 43.0625 
Q 17.09375 43.0625 15.28125 41.40625 
Q 13.421875 39.75 13.421875 37.59375 
L 13.53125 34.765625 
Q 13.53125 32.515625 12.375 31.296875 
Q 11.234375 30.078125 9.375 30.078125 
Q 7.5625 30.078125 6.421875 31.34375 
Q 5.28125 32.625 5.28125 34.8125 
Q 5.28125 39.015625 9.578125 42.53125 
Q 13.875 46.046875 21.625 46.046875 
Q 27.59375 46.046875 31.390625 44.046875 
Q 34.28125 42.53125 35.640625 39.3125 
Q 36.53125 37.203125 36.53125 30.71875 
L 36.53125 15.53125 
Q 36.53125 9.125 36.765625 7.6875 
Q 37.015625 6.25 37.578125 5.765625 
Q 38.140625 5.28125 38.875 5.28125 
Q 39.65625 5.28125 40.234375 5.609375 
Q 41.265625 6.25 44.1875 9.1875 
L 44.1875 6.453125 
Q 38.71875 -0.875 33.734375 -0.875 
Q 31.34375 -0.875 29.921875 0.78125 
Q 28.515625 2.4375 28.46875 6.453125 
z
M 28.46875 9.625 
L 28.46875 26.65625 
Q 21.09375 23.734375 18.953125 22.515625 
Q 15.09375 20.359375 13.421875 18.015625 
Q 11.765625 15.671875 11.765625 12.890625 
Q 11.765625 9.375 13.859375 7.046875 
Q 15.96875 4.734375 18.703125 4.734375 
Q 22.40625 4.734375 28.46875 9.625 
z
" id="TimesNewRomanPSMT-97"/>
      <path d="M 41.109375 17 
Q 39.3125 8.15625 34.03125 3.390625 
Q 28.765625 -1.375 22.359375 -1.375 
Q 14.75 -1.375 9.078125 5.015625 
Q 3.421875 11.421875 3.421875 22.3125 
Q 3.421875 32.859375 9.6875 39.453125 
Q 15.96875 46.046875 24.75 46.046875 
Q 31.34375 46.046875 35.59375 42.546875 
Q 39.84375 39.0625 39.84375 35.296875 
Q 39.84375 33.453125 38.640625 32.296875 
Q 37.453125 31.15625 35.296875 31.15625 
Q 32.421875 31.15625 30.953125 33.015625 
Q 30.125 34.03125 29.859375 36.90625 
Q 29.59375 39.796875 27.875 41.3125 
Q 26.171875 42.78125 23.140625 42.78125 
Q 18.265625 42.78125 15.28125 39.15625 
Q 11.328125 34.375 11.328125 26.515625 
Q 11.328125 18.5 15.25 12.375 
Q 19.1875 6.25 25.875 6.25 
Q 30.671875 6.25 34.46875 9.515625 
Q 37.15625 11.765625 39.703125 17.671875 
z
" id="TimesNewRomanPSMT-99"/>
     </defs>
     <use xlink:href="#TimesNewRomanPSMT-84"/>
     <use x="61.083984" xlink:href="#TimesNewRomanPSMT-104"/>
     <use x="111.083984" xlink:href="#TimesNewRomanPSMT-101"/>
     <use x="155.46875" xlink:href="#TimesNewRomanPSMT-32"/>
     <use x="180.46875" xlink:href="#TimesNewRomanPSMT-115"/>
     <use x="219.384766" xlink:href="#TimesNewRomanPSMT-101"/>
     <use x="263.769531" xlink:href="#TimesNewRomanPSMT-114"/>
     <use x="297.070312" xlink:href="#TimesNewRomanPSMT-118"/>
     <use x="347.070312" xlink:href="#TimesNewRomanPSMT-111"/>
     <use x="397.070312" xlink:href="#TimesNewRomanPSMT-32"/>
     <use x="422.070312" xlink:href="#TimesNewRomanPSMT-112"/>
     <use x="472.070312" xlink:href="#TimesNewRomanPSMT-101"/>
     <use x="516.455078" xlink:href="#TimesNewRomanPSMT-114"/>
     <use x="549.755859" xlink:href="#TimesNewRomanPSMT-102"/>
     <use x="583.056641" xlink:href="#TimesNewRomanPSMT-111"/>
     <use x="633.056641" xlink:href="#TimesNewRomanPSMT-114"/>
     <use x="666.357422" xlink:href="#TimesNewRomanPSMT-109"/>
     <use x="744.140625" xlink:href="#TimesNewRomanPSMT-97"/>
     <use x="788.525391" xlink:href="#TimesNewRomanPSMT-110"/>
     <use x="838.525391" xlink:href="#TimesNewRomanPSMT-99"/>
     <use x="882.910156" xlink:href="#TimesNewRomanPSMT-101"/>
    </g>
   </g>
   <g id="legend_1">
    <g id="patch_7">
     <path d="M 164.28875 290.560437 
L 410.998125 290.560437 
Q 414.998125 290.560437 414.998125 286.560437 
L 414.998125 203.726062 
Q 414.998125 199.726062 410.998125 199.726062 
L 164.28875 199.726062 
Q 160.28875 199.726062 160.28875 203.726062 
L 160.28875 286.560437 
Q 160.28875 290.560437 164.28875 290.560437 
z
" style="fill:#ffffff;opacity:0.8;stroke:#cccccc;stroke-linejoin:miter;"/>
    </g>
    <g id="line2d_24">
     <path d="M 168.28875 214.726062 
L 208.28875 214.726062 
" style="fill:none;stroke:#1f77b4;stroke-linecap:square;stroke-width:1.5;"/>
    </g>
    <g id="line2d_25"/>
    <g id="text_14">
     <!-- error -->
     <g transform="translate(224.28875 221.726062)scale(0.2 -0.2)">
      <use xlink:href="#TimesNewRomanPSMT-101"/>
      <use x="44.384766" xlink:href="#TimesNewRomanPSMT-114"/>
      <use x="77.685547" xlink:href="#TimesNewRomanPSMT-114"/>
      <use x="110.986328" xlink:href="#TimesNewRomanPSMT-111"/>
      <use x="160.986328" xlink:href="#TimesNewRomanPSMT-114"/>
     </g>
    </g>
    <g id="line2d_26">
     <path d="M 168.28875 243.004188 
L 208.28875 243.004188 
" style="fill:none;stroke:#ff7f0e;stroke-linecap:square;stroke-width:1.5;"/>
    </g>
    <g id="line2d_27"/>
    <g id="text_15">
     <!-- servo commands -->
     <g transform="translate(224.28875 250.004188)scale(0.2 -0.2)">
      <defs>
       <path d="M 34.71875 5.03125 
Q 31.453125 1.609375 28.328125 0.109375 
Q 25.203125 -1.375 21.578125 -1.375 
Q 14.265625 -1.375 8.796875 4.75 
Q 3.328125 10.890625 3.328125 20.515625 
Q 3.328125 30.125 9.375 38.109375 
Q 15.4375 46.09375 24.953125 46.09375 
Q 30.859375 46.09375 34.71875 42.328125 
L 34.71875 50.59375 
Q 34.71875 58.25 34.34375 60 
Q 33.984375 61.765625 33.203125 62.390625 
Q 32.421875 63.03125 31.25 63.03125 
Q 29.984375 63.03125 27.875 62.25 
L 27.25 63.96875 
L 40.578125 69.4375 
L 42.78125 69.4375 
L 42.78125 17.71875 
Q 42.78125 9.859375 43.140625 8.125 
Q 43.5 6.390625 44.3125 5.703125 
Q 45.125 5.03125 46.1875 5.03125 
Q 47.515625 5.03125 49.703125 5.859375 
L 50.25 4.15625 
L 36.96875 -1.375 
L 34.71875 -1.375 
z
M 34.71875 8.453125 
L 34.71875 31.5 
Q 34.421875 34.8125 32.953125 37.546875 
Q 31.5 40.28125 29.078125 41.671875 
Q 26.65625 43.0625 24.359375 43.0625 
Q 20.0625 43.0625 16.703125 39.203125 
Q 12.25 34.125 12.25 24.359375 
Q 12.25 14.5 16.546875 9.25 
Q 20.84375 4 26.125 4 
Q 30.5625 4 34.71875 8.453125 
z
" id="TimesNewRomanPSMT-100"/>
      </defs>
      <use xlink:href="#TimesNewRomanPSMT-115"/>
      <use x="38.916016" xlink:href="#TimesNewRomanPSMT-101"/>
      <use x="83.300781" xlink:href="#TimesNewRomanPSMT-114"/>
      <use x="116.601562" xlink:href="#TimesNewRomanPSMT-118"/>
      <use x="166.601562" xlink:href="#TimesNewRomanPSMT-111"/>
      <use x="216.601562" xlink:href="#TimesNewRomanPSMT-32"/>
      <use x="241.601562" xlink:href="#TimesNewRomanPSMT-99"/>
      <use x="285.986328" xlink:href="#TimesNewRomanPSMT-111"/>
      <use x="335.986328" xlink:href="#TimesNewRomanPSMT-109"/>
      <use x="413.769531" xlink:href="#TimesNewRomanPSMT-109"/>
      <use x="491.552734" xlink:href="#TimesNewRomanPSMT-97"/>
      <use x="535.9375" xlink:href="#TimesNewRomanPSMT-110"/>
      <use x="585.9375" xlink:href="#TimesNewRomanPSMT-100"/>
      <use x="635.9375" xlink:href="#TimesNewRomanPSMT-115"/>
     </g>
    </g>
    <g id="line2d_28">
     <path d="M 168.28875 271.282312 
L 208.28875 271.282312 
" style="fill:none;stroke:#2ca02c;stroke-linecap:square;stroke-width:1.5;"/>
    </g>
    <g id="line2d_29"/>
    <g id="text_16">
     <!-- Theoretical commands -->
     <g transform="translate(224.28875 278.282312)scale(0.2 -0.2)">
      <defs>
       <path d="M 16.109375 59.421875 
L 16.109375 44.734375 
L 26.5625 44.734375 
L 26.5625 41.3125 
L 16.109375 41.3125 
L 16.109375 12.3125 
Q 16.109375 7.953125 17.359375 6.4375 
Q 18.609375 4.9375 20.5625 4.9375 
Q 22.171875 4.9375 23.6875 5.9375 
Q 25.203125 6.9375 26.03125 8.890625 
L 27.9375 8.890625 
Q 26.21875 4.109375 23.09375 1.6875 
Q 19.96875 -0.734375 16.65625 -0.734375 
Q 14.40625 -0.734375 12.25 0.515625 
Q 10.109375 1.765625 9.078125 4.078125 
Q 8.0625 6.390625 8.0625 11.234375 
L 8.0625 41.3125 
L 0.984375 41.3125 
L 0.984375 42.921875 
Q 3.65625 44 6.46875 46.5625 
Q 9.28125 49.125 11.46875 52.640625 
Q 12.59375 54.5 14.59375 59.421875 
z
" id="TimesNewRomanPSMT-116"/>
      </defs>
      <use xlink:href="#TimesNewRomanPSMT-84"/>
      <use x="61.083984" xlink:href="#TimesNewRomanPSMT-104"/>
      <use x="111.083984" xlink:href="#TimesNewRomanPSMT-101"/>
      <use x="155.46875" xlink:href="#TimesNewRomanPSMT-111"/>
      <use x="205.46875" xlink:href="#TimesNewRomanPSMT-114"/>
      <use x="238.769531" xlink:href="#TimesNewRomanPSMT-101"/>
      <use x="283.154297" xlink:href="#TimesNewRomanPSMT-116"/>
      <use x="310.9375" xlink:href="#TimesNewRomanPSMT-105"/>
      <use x="338.720703" xlink:href="#TimesNewRomanPSMT-99"/>
      <use x="383.105469" xlink:href="#TimesNewRomanPSMT-97"/>
      <use x="427.490234" xlink:href="#TimesNewRomanPSMT-108"/>
      <use x="455.273438" xlink:href="#TimesNewRomanPSMT-32"/>
      <use x="480.273438" xlink:href="#TimesNewRomanPSMT-99"/>
      <use x="524.658203" xlink:href="#TimesNewRomanPSMT-111"/>
      <use x="574.658203" xlink:href="#TimesNewRomanPSMT-109"/>
      <use x="652.441406" xlink:href="#TimesNewRomanPSMT-109"/>
      <use x="730.224609" xlink:href="#TimesNewRomanPSMT-97"/>
      <use x="774.609375" xlink:href="#TimesNewRomanPSMT-110"/>
      <use x="824.609375" xlink:href="#TimesNewRomanPSMT-100"/>
      <use x="874.609375" xlink:href="#TimesNewRomanPSMT-115"/>
     </g>
    </g>
   </g>
  </g>
 </g>
 <defs>
  <clipPath id="p06d991faca">
   <rect height="266.112" width="357.12" x="67.878125" y="34.448437"/>
  </clipPath>
 </defs>
</svg>
