<?xml version="1.0" encoding="utf-8" standalone="no"?>
<!DOCTYPE svg PUBLIC "-//W3C//DTD SVG 1.1//EN"
  "http://www.w3.org/Graphics/SVG/1.1/DTD/svg11.dtd">
<!-- Created with matplotlib (https://matplotlib.org/) -->
<svg height="355.091687pt" version="1.1" viewBox="0 0 433.671534 355.091687" width="433.671534pt" xmlns="http://www.w3.org/2000/svg" xmlns:xlink="http://www.w3.org/1999/xlink">
 <metadata>
  <rdf:RDF xmlns:cc="http://creativecommons.org/ns#" xmlns:dc="http://purl.org/dc/elements/1.1/" xmlns:rdf="http://www.w3.org/1999/02/22-rdf-syntax-ns#">
   <cc:Work>
    <dc:type rdf:resource="http://purl.org/dc/dcmitype/StillImage"/>
    <dc:date>2022-02-22T15:14:23.514005</dc:date>
    <dc:format>image/svg+xml</dc:format>
    <dc:creator>
     <cc:Agent>
      <dc:title>Matplotlib v3.3.4, https://matplotlib.org/</dc:title>
     </cc:Agent>
    </dc:creator>
   </cc:Work>
  </rdf:RDF>
 </metadata>
 <defs>
  <style type="text/css">*{stroke-linecap:butt;stroke-linejoin:round;}</style>
 </defs>
 <g id="figure_1">
  <g id="patch_1">
   <path d="M 0 355.091687 
L 433.671534 355.091687 
L 433.671534 0 
L 0 0 
z
" style="fill:#ffffff;"/>
  </g>
  <g id="axes_1">
   <g id="patch_2">
    <path d="M 67.878125 300.560437 
L 424.998125 300.560437 
L 424.998125 34.448437 
L 67.878125 34.448437 
z
" style="fill:#ffffff;"/>
   </g>
   <g id="matplotlib.axis_1">
    <g id="xtick_1">
     <g id="line2d_1">
      <path clip-path="url(#pb0a2c30178)" d="M 84.056347 300.560437 
L 84.056347 34.448437 
" style="fill:none;stroke:#b0b0b0;stroke-linecap:square;stroke-width:0.8;"/>
     </g>
     <g id="line2d_2">
      <defs>
       <path d="M 0 0 
L 0 3.5 
" id="mfb35acf0c0" style="stroke:#000000;stroke-width:0.8;"/>
      </defs>
      <g>
       <use style="stroke:#000000;stroke-width:0.8;" x="84.056347" xlink:href="#mfb35acf0c0" y="300.560437"/>
      </g>
     </g>
     <g id="text_1">
      <!-- 0.0 -->
      <g transform="translate(71.556347 321.447937)scale(0.2 -0.2)">
       <defs>
        <path d="M 3.609375 32.71875 
Q 3.609375 44.046875 7.03125 52.21875 
Q 10.453125 60.40625 16.109375 64.40625 
Q 20.515625 67.578125 25.203125 67.578125 
Q 32.8125 67.578125 38.875 59.8125 
Q 46.4375 50.203125 46.4375 33.734375 
Q 46.4375 22.21875 43.109375 14.15625 
Q 39.796875 6.109375 34.640625 2.46875 
Q 29.5 -1.171875 24.703125 -1.171875 
Q 15.234375 -1.171875 8.9375 10.015625 
Q 3.609375 19.4375 3.609375 32.71875 
z
M 13.1875 31.5 
Q 13.1875 17.828125 16.546875 9.1875 
Q 19.34375 1.90625 24.859375 1.90625 
Q 27.484375 1.90625 30.3125 4.265625 
Q 33.15625 6.640625 34.625 12.203125 
Q 36.859375 20.609375 36.859375 35.890625 
Q 36.859375 47.21875 34.515625 54.78125 
Q 32.765625 60.40625 29.984375 62.75 
Q 27.984375 64.359375 25.140625 64.359375 
Q 21.828125 64.359375 19.234375 61.375 
Q 15.71875 57.328125 14.453125 48.625 
Q 13.1875 39.9375 13.1875 31.5 
z
" id="TimesNewRomanPSMT-48"/>
        <path d="M 12.5 9.46875 
Q 14.796875 9.46875 16.359375 7.875 
Q 17.921875 6.296875 17.921875 4.046875 
Q 17.921875 1.8125 16.328125 0.21875 
Q 14.75 -1.375 12.5 -1.375 
Q 10.25 -1.375 8.65625 0.21875 
Q 7.078125 1.8125 7.078125 4.046875 
Q 7.078125 6.34375 8.65625 7.90625 
Q 10.25 9.46875 12.5 9.46875 
z
" id="TimesNewRomanPSMT-46"/>
       </defs>
       <use xlink:href="#TimesNewRomanPSMT-48"/>
       <use x="50" xlink:href="#TimesNewRomanPSMT-46"/>
       <use x="75" xlink:href="#TimesNewRomanPSMT-48"/>
      </g>
     </g>
    </g>
    <g id="xtick_2">
     <g id="line2d_3">
      <path clip-path="url(#pb0a2c30178)" d="M 165.285144 300.560437 
L 165.285144 34.448437 
" style="fill:none;stroke:#b0b0b0;stroke-linecap:square;stroke-width:0.8;"/>
     </g>
     <g id="line2d_4">
      <g>
       <use style="stroke:#000000;stroke-width:0.8;" x="165.285144" xlink:href="#mfb35acf0c0" y="300.560437"/>
      </g>
     </g>
     <g id="text_2">
      <!-- 2.5 -->
      <g transform="translate(152.785144 321.447937)scale(0.2 -0.2)">
       <defs>
        <path d="M 45.84375 12.75 
L 41.21875 0 
L 2.15625 0 
L 2.15625 1.8125 
Q 19.390625 17.53125 26.421875 27.484375 
Q 33.453125 37.453125 33.453125 45.703125 
Q 33.453125 52 29.59375 56.046875 
Q 25.734375 60.109375 20.359375 60.109375 
Q 15.484375 60.109375 11.59375 57.25 
Q 7.71875 54.390625 5.859375 48.875 
L 4.046875 48.875 
Q 5.28125 57.90625 10.328125 62.734375 
Q 15.375 67.578125 22.953125 67.578125 
Q 31 67.578125 36.390625 62.40625 
Q 41.796875 57.234375 41.796875 50.203125 
Q 41.796875 45.171875 39.453125 40.140625 
Q 35.84375 32.234375 27.734375 23.390625 
Q 15.578125 10.109375 12.546875 7.375 
L 29.828125 7.375 
Q 35.109375 7.375 37.234375 7.765625 
Q 39.359375 8.15625 41.0625 9.34375 
Q 42.78125 10.546875 44.046875 12.75 
z
" id="TimesNewRomanPSMT-50"/>
        <path d="M 43.40625 66.21875 
L 39.59375 57.90625 
L 19.671875 57.90625 
L 15.328125 49.03125 
Q 28.265625 47.125 35.84375 39.40625 
Q 42.328125 32.765625 42.328125 23.78125 
Q 42.328125 18.5625 40.203125 14.109375 
Q 38.09375 9.671875 34.859375 6.546875 
Q 31.640625 3.421875 27.6875 1.515625 
Q 22.078125 -1.171875 16.15625 -1.171875 
Q 10.203125 -1.171875 7.484375 0.84375 
Q 4.78125 2.875 4.78125 5.328125 
Q 4.78125 6.6875 5.90625 7.734375 
Q 7.03125 8.796875 8.734375 8.796875 
Q 10.015625 8.796875 10.96875 8.40625 
Q 11.921875 8.015625 14.203125 6.390625 
Q 17.875 3.859375 21.625 3.859375 
Q 27.34375 3.859375 31.65625 8.171875 
Q 35.984375 12.5 35.984375 18.703125 
Q 35.984375 24.703125 32.125 29.90625 
Q 28.265625 35.109375 21.484375 37.9375 
Q 16.15625 40.140625 6.984375 40.484375 
L 19.671875 66.21875 
z
" id="TimesNewRomanPSMT-53"/>
       </defs>
       <use xlink:href="#TimesNewRomanPSMT-50"/>
       <use x="50" xlink:href="#TimesNewRomanPSMT-46"/>
       <use x="75" xlink:href="#TimesNewRomanPSMT-53"/>
      </g>
     </g>
    </g>
    <g id="xtick_3">
     <g id="line2d_5">
      <path clip-path="url(#pb0a2c30178)" d="M 246.513941 300.560437 
L 246.513941 34.448437 
" style="fill:none;stroke:#b0b0b0;stroke-linecap:square;stroke-width:0.8;"/>
     </g>
     <g id="line2d_6">
      <g>
       <use style="stroke:#000000;stroke-width:0.8;" x="246.513941" xlink:href="#mfb35acf0c0" y="300.560437"/>
      </g>
     </g>
     <g id="text_3">
      <!-- 5.0 -->
      <g transform="translate(234.013941 321.447937)scale(0.2 -0.2)">
       <use xlink:href="#TimesNewRomanPSMT-53"/>
       <use x="50" xlink:href="#TimesNewRomanPSMT-46"/>
       <use x="75" xlink:href="#TimesNewRomanPSMT-48"/>
      </g>
     </g>
    </g>
    <g id="xtick_4">
     <g id="line2d_7">
      <path clip-path="url(#pb0a2c30178)" d="M 327.742738 300.560437 
L 327.742738 34.448437 
" style="fill:none;stroke:#b0b0b0;stroke-linecap:square;stroke-width:0.8;"/>
     </g>
     <g id="line2d_8">
      <g>
       <use style="stroke:#000000;stroke-width:0.8;" x="327.742738" xlink:href="#mfb35acf0c0" y="300.560437"/>
      </g>
     </g>
     <g id="text_4">
      <!-- 7.5 -->
      <g transform="translate(315.242738 321.447937)scale(0.2 -0.2)">
       <defs>
        <path d="M 10.0625 66.21875 
L 45.5625 66.21875 
L 45.5625 64.359375 
L 23.484375 -1.375 
L 18.015625 -1.375 
L 37.796875 58.25 
L 19.578125 58.25 
Q 14.0625 58.25 11.71875 56.9375 
Q 7.625 54.6875 5.125 50 
L 3.71875 50.53125 
z
" id="TimesNewRomanPSMT-55"/>
       </defs>
       <use xlink:href="#TimesNewRomanPSMT-55"/>
       <use x="50" xlink:href="#TimesNewRomanPSMT-46"/>
       <use x="75" xlink:href="#TimesNewRomanPSMT-53"/>
      </g>
     </g>
    </g>
    <g id="xtick_5">
     <g id="line2d_9">
      <path clip-path="url(#pb0a2c30178)" d="M 408.971534 300.560437 
L 408.971534 34.448437 
" style="fill:none;stroke:#b0b0b0;stroke-linecap:square;stroke-width:0.8;"/>
     </g>
     <g id="line2d_10">
      <g>
       <use style="stroke:#000000;stroke-width:0.8;" x="408.971534" xlink:href="#mfb35acf0c0" y="300.560437"/>
      </g>
     </g>
     <g id="text_5">
      <!-- 10.0 -->
      <g transform="translate(391.471534 321.447937)scale(0.2 -0.2)">
       <defs>
        <path d="M 11.71875 59.71875 
L 27.828125 67.578125 
L 29.4375 67.578125 
L 29.4375 11.671875 
Q 29.4375 6.109375 29.90625 4.734375 
Q 30.375 3.375 31.828125 2.640625 
Q 33.296875 1.90625 37.796875 1.8125 
L 37.796875 0 
L 12.890625 0 
L 12.890625 1.8125 
Q 17.578125 1.90625 18.9375 2.609375 
Q 20.3125 3.328125 20.84375 4.515625 
Q 21.390625 5.71875 21.390625 11.671875 
L 21.390625 47.40625 
Q 21.390625 54.640625 20.90625 56.6875 
Q 20.5625 58.25 19.65625 58.984375 
Q 18.75 59.71875 17.484375 59.71875 
Q 15.671875 59.71875 12.453125 58.203125 
z
" id="TimesNewRomanPSMT-49"/>
       </defs>
       <use xlink:href="#TimesNewRomanPSMT-49"/>
       <use x="50" xlink:href="#TimesNewRomanPSMT-48"/>
       <use x="100" xlink:href="#TimesNewRomanPSMT-46"/>
       <use x="125" xlink:href="#TimesNewRomanPSMT-48"/>
      </g>
     </g>
    </g>
    <g id="text_6">
     <!-- Time [s] -->
     <g transform="translate(212.633438 343.613563)scale(0.2 -0.2)">
      <defs>
       <path d="M 57.859375 66.21875 
L 58.59375 50.6875 
L 56.734375 50.6875 
Q 56.203125 54.78125 55.28125 56.546875 
Q 53.765625 59.375 51.25 60.71875 
Q 48.734375 62.0625 44.625 62.0625 
L 35.296875 62.0625 
L 35.296875 11.46875 
Q 35.296875 5.375 36.625 3.859375 
Q 38.484375 1.8125 42.328125 1.8125 
L 44.625 1.8125 
L 44.625 0 
L 16.546875 0 
L 16.546875 1.8125 
L 18.890625 1.8125 
Q 23.09375 1.8125 24.859375 4.34375 
Q 25.921875 5.90625 25.921875 11.46875 
L 25.921875 62.0625 
L 17.96875 62.0625 
Q 13.328125 62.0625 11.375 61.375 
Q 8.84375 60.453125 7.03125 57.8125 
Q 5.21875 55.171875 4.890625 50.6875 
L 3.03125 50.6875 
L 3.8125 66.21875 
z
" id="TimesNewRomanPSMT-84"/>
       <path d="M 14.5 69.4375 
Q 16.546875 69.4375 17.984375 67.984375 
Q 19.4375 66.546875 19.4375 64.5 
Q 19.4375 62.453125 17.984375 60.984375 
Q 16.546875 59.515625 14.5 59.515625 
Q 12.453125 59.515625 10.984375 60.984375 
Q 9.515625 62.453125 9.515625 64.5 
Q 9.515625 66.546875 10.953125 67.984375 
Q 12.40625 69.4375 14.5 69.4375 
z
M 18.5625 46.046875 
L 18.5625 10.109375 
Q 18.5625 5.90625 19.171875 4.515625 
Q 19.78125 3.125 20.96875 2.4375 
Q 22.171875 1.765625 25.34375 1.765625 
L 25.34375 0 
L 3.609375 0 
L 3.609375 1.765625 
Q 6.890625 1.765625 8 2.390625 
Q 9.125 3.03125 9.78125 4.484375 
Q 10.453125 5.953125 10.453125 10.109375 
L 10.453125 27.34375 
Q 10.453125 34.625 10.015625 36.765625 
Q 9.671875 38.328125 8.9375 38.9375 
Q 8.203125 39.546875 6.9375 39.546875 
Q 5.5625 39.546875 3.609375 38.8125 
L 2.9375 40.578125 
L 16.40625 46.046875 
z
" id="TimesNewRomanPSMT-105"/>
       <path d="M 16.40625 36.53125 
Q 21.296875 41.40625 22.171875 42.140625 
Q 24.359375 44 26.890625 45.015625 
Q 29.4375 46.046875 31.9375 46.046875 
Q 36.140625 46.046875 39.15625 43.59375 
Q 42.1875 41.15625 43.21875 36.53125 
Q 48.25 42.390625 51.703125 44.21875 
Q 55.171875 46.046875 58.84375 46.046875 
Q 62.40625 46.046875 65.15625 44.21875 
Q 67.921875 42.390625 69.53125 38.234375 
Q 70.609375 35.40625 70.609375 29.34375 
L 70.609375 10.109375 
Q 70.609375 5.90625 71.234375 4.34375 
Q 71.734375 3.265625 73.046875 2.515625 
Q 74.359375 1.765625 77.34375 1.765625 
L 77.34375 0 
L 55.28125 0 
L 55.28125 1.765625 
L 56.203125 1.765625 
Q 59.078125 1.765625 60.6875 2.875 
Q 61.8125 3.65625 62.3125 5.375 
Q 62.5 6.203125 62.5 10.109375 
L 62.5 29.34375 
Q 62.5 34.8125 61.1875 37.0625 
Q 59.28125 40.1875 55.078125 40.1875 
Q 52.484375 40.1875 49.875 38.890625 
Q 47.265625 37.59375 43.5625 34.078125 
L 43.453125 33.546875 
L 43.5625 31.453125 
L 43.5625 10.109375 
Q 43.5625 5.515625 44.0625 4.390625 
Q 44.578125 3.265625 45.984375 2.515625 
Q 47.40625 1.765625 50.828125 1.765625 
L 50.828125 0 
L 28.21875 0 
L 28.21875 1.765625 
Q 31.9375 1.765625 33.328125 2.640625 
Q 34.71875 3.515625 35.25 5.28125 
Q 35.5 6.109375 35.5 10.109375 
L 35.5 29.34375 
Q 35.5 34.8125 33.890625 37.203125 
Q 31.734375 40.328125 27.875 40.328125 
Q 25.25 40.328125 22.65625 38.921875 
Q 18.609375 36.765625 16.40625 34.078125 
L 16.40625 10.109375 
Q 16.40625 5.71875 17.015625 4.390625 
Q 17.625 3.078125 18.8125 2.421875 
Q 20.015625 1.765625 23.6875 1.765625 
L 23.6875 0 
L 1.5625 0 
L 1.5625 1.765625 
Q 4.640625 1.765625 5.859375 2.421875 
Q 7.078125 3.078125 7.703125 4.515625 
Q 8.34375 5.953125 8.34375 10.109375 
L 8.34375 27.203125 
Q 8.34375 34.578125 7.90625 36.71875 
Q 7.5625 38.328125 6.828125 38.9375 
Q 6.109375 39.546875 4.828125 39.546875 
Q 3.46875 39.546875 1.5625 38.8125 
L 0.828125 40.578125 
L 14.3125 46.046875 
L 16.40625 46.046875 
z
" id="TimesNewRomanPSMT-109"/>
       <path d="M 10.640625 27.875 
Q 10.59375 17.921875 15.484375 12.25 
Q 20.359375 6.59375 26.953125 6.59375 
Q 31.34375 6.59375 34.59375 9 
Q 37.84375 11.421875 40.046875 17.28125 
L 41.546875 16.3125 
Q 40.53125 9.625 35.59375 4.125 
Q 30.671875 -1.375 23.25 -1.375 
Q 15.1875 -1.375 9.453125 4.90625 
Q 3.71875 11.1875 3.71875 21.78125 
Q 3.71875 33.25 9.59375 39.671875 
Q 15.484375 46.09375 24.359375 46.09375 
Q 31.890625 46.09375 36.71875 41.140625 
Q 41.546875 36.1875 41.546875 27.875 
z
M 10.640625 30.71875 
L 31.34375 30.71875 
Q 31.109375 35.015625 30.328125 36.765625 
Q 29.109375 39.5 26.6875 41.0625 
Q 24.265625 42.625 21.625 42.625 
Q 17.578125 42.625 14.375 39.46875 
Q 11.1875 36.328125 10.640625 30.71875 
z
" id="TimesNewRomanPSMT-101"/>
       <path id="TimesNewRomanPSMT-32"/>
       <path d="M 29.6875 -19.828125 
L 8.203125 -19.828125 
L 8.203125 67.71875 
L 29.6875 67.71875 
L 29.6875 63.875 
L 15.53125 63.875 
L 15.53125 -16.015625 
L 29.6875 -16.015625 
z
" id="TimesNewRomanPSMT-91"/>
       <path d="M 32.03125 46.046875 
L 32.03125 30.8125 
L 30.421875 30.8125 
Q 28.5625 37.984375 25.65625 40.578125 
Q 22.75 43.171875 18.265625 43.171875 
Q 14.84375 43.171875 12.734375 41.359375 
Q 10.640625 39.546875 10.640625 37.359375 
Q 10.640625 34.625 12.203125 32.671875 
Q 13.71875 30.671875 18.359375 28.421875 
L 25.484375 24.953125 
Q 35.40625 20.125 35.40625 12.203125 
Q 35.40625 6.109375 30.78125 2.359375 
Q 26.171875 -1.375 20.453125 -1.375 
Q 16.359375 -1.375 11.078125 0.09375 
Q 9.46875 0.59375 8.453125 0.59375 
Q 7.328125 0.59375 6.6875 -0.6875 
L 5.078125 -0.6875 
L 5.078125 15.28125 
L 6.6875 15.28125 
Q 8.0625 8.453125 11.90625 4.984375 
Q 15.765625 1.515625 20.5625 1.515625 
Q 23.921875 1.515625 26.046875 3.484375 
Q 28.171875 5.46875 28.171875 8.25 
Q 28.171875 11.625 25.796875 13.921875 
Q 23.4375 16.21875 16.359375 19.734375 
Q 9.28125 23.25 7.078125 26.078125 
Q 4.890625 28.859375 4.890625 33.109375 
Q 4.890625 38.625 8.671875 42.328125 
Q 12.453125 46.046875 18.453125 46.046875 
Q 21.09375 46.046875 24.859375 44.921875 
Q 27.34375 44.1875 28.171875 44.1875 
Q 28.953125 44.1875 29.390625 44.53125 
Q 29.828125 44.875 30.421875 46.046875 
z
" id="TimesNewRomanPSMT-115"/>
       <path d="M 3.65625 67.71875 
L 25.140625 67.71875 
L 25.140625 -19.875 
L 3.65625 -19.875 
L 3.65625 -16.015625 
L 17.828125 -16.015625 
L 17.828125 63.875 
L 3.65625 63.875 
z
" id="TimesNewRomanPSMT-93"/>
      </defs>
      <use xlink:href="#TimesNewRomanPSMT-84"/>
      <use x="57.583984" xlink:href="#TimesNewRomanPSMT-105"/>
      <use x="85.367188" xlink:href="#TimesNewRomanPSMT-109"/>
      <use x="163.150391" xlink:href="#TimesNewRomanPSMT-101"/>
      <use x="207.535156" xlink:href="#TimesNewRomanPSMT-32"/>
      <use x="232.535156" xlink:href="#TimesNewRomanPSMT-91"/>
      <use x="265.835938" xlink:href="#TimesNewRomanPSMT-115"/>
      <use x="304.751953" xlink:href="#TimesNewRomanPSMT-93"/>
     </g>
    </g>
   </g>
   <g id="matplotlib.axis_2">
    <g id="ytick_1">
     <g id="line2d_11">
      <path clip-path="url(#pb0a2c30178)" d="M 67.878125 269.334595 
L 424.998125 269.334595 
" style="fill:none;stroke:#b0b0b0;stroke-linecap:square;stroke-width:0.8;"/>
     </g>
     <g id="line2d_12">
      <defs>
       <path d="M 0 0 
L -3.5 0 
" id="m7ad3c54215" style="stroke:#000000;stroke-width:0.8;"/>
      </defs>
      <g>
       <use style="stroke:#000000;stroke-width:0.8;" x="67.878125" xlink:href="#m7ad3c54215" y="269.334595"/>
      </g>
     </g>
     <g id="text_7">
      <!-- −40 -->
      <g transform="translate(29.6 276.278345)scale(0.2 -0.2)">
       <defs>
        <path d="M 54.4375 31.25 
L 1.8125 31.25 
L 1.8125 35.25 
L 54.4375 35.25 
z
" id="TimesNewRomanPSMT-8722"/>
        <path d="M 46.53125 24.421875 
L 46.53125 17.484375 
L 37.640625 17.484375 
L 37.640625 0 
L 29.59375 0 
L 29.59375 17.484375 
L 1.5625 17.484375 
L 1.5625 23.734375 
L 32.28125 67.578125 
L 37.640625 67.578125 
L 37.640625 24.421875 
z
M 29.59375 24.421875 
L 29.59375 57.28125 
L 6.34375 24.421875 
z
" id="TimesNewRomanPSMT-52"/>
       </defs>
       <use xlink:href="#TimesNewRomanPSMT-8722"/>
       <use x="56.396484" xlink:href="#TimesNewRomanPSMT-52"/>
       <use x="106.396484" xlink:href="#TimesNewRomanPSMT-48"/>
      </g>
     </g>
    </g>
    <g id="ytick_2">
     <g id="line2d_13">
      <path clip-path="url(#pb0a2c30178)" d="M 67.878125 211.139356 
L 424.998125 211.139356 
" style="fill:none;stroke:#b0b0b0;stroke-linecap:square;stroke-width:0.8;"/>
     </g>
     <g id="line2d_14">
      <g>
       <use style="stroke:#000000;stroke-width:0.8;" x="67.878125" xlink:href="#m7ad3c54215" y="211.139356"/>
      </g>
     </g>
     <g id="text_8">
      <!-- −20 -->
      <g transform="translate(29.6 218.083106)scale(0.2 -0.2)">
       <use xlink:href="#TimesNewRomanPSMT-8722"/>
       <use x="56.396484" xlink:href="#TimesNewRomanPSMT-50"/>
       <use x="106.396484" xlink:href="#TimesNewRomanPSMT-48"/>
      </g>
     </g>
    </g>
    <g id="ytick_3">
     <g id="line2d_15">
      <path clip-path="url(#pb0a2c30178)" d="M 67.878125 152.944118 
L 424.998125 152.944118 
" style="fill:none;stroke:#b0b0b0;stroke-linecap:square;stroke-width:0.8;"/>
     </g>
     <g id="line2d_16">
      <g>
       <use style="stroke:#000000;stroke-width:0.8;" x="67.878125" xlink:href="#m7ad3c54215" y="152.944118"/>
      </g>
     </g>
     <g id="text_9">
      <!-- 0 -->
      <g transform="translate(50.878125 159.887868)scale(0.2 -0.2)">
       <use xlink:href="#TimesNewRomanPSMT-48"/>
      </g>
     </g>
    </g>
    <g id="ytick_4">
     <g id="line2d_17">
      <path clip-path="url(#pb0a2c30178)" d="M 67.878125 94.748879 
L 424.998125 94.748879 
" style="fill:none;stroke:#b0b0b0;stroke-linecap:square;stroke-width:0.8;"/>
     </g>
     <g id="line2d_18">
      <g>
       <use style="stroke:#000000;stroke-width:0.8;" x="67.878125" xlink:href="#m7ad3c54215" y="94.748879"/>
      </g>
     </g>
     <g id="text_10">
      <!-- 20 -->
      <g transform="translate(40.878125 101.692629)scale(0.2 -0.2)">
       <use xlink:href="#TimesNewRomanPSMT-50"/>
       <use x="50" xlink:href="#TimesNewRomanPSMT-48"/>
      </g>
     </g>
    </g>
    <g id="ytick_5">
     <g id="line2d_19">
      <path clip-path="url(#pb0a2c30178)" d="M 67.878125 36.553641 
L 424.998125 36.553641 
" style="fill:none;stroke:#b0b0b0;stroke-linecap:square;stroke-width:0.8;"/>
     </g>
     <g id="line2d_20">
      <g>
       <use style="stroke:#000000;stroke-width:0.8;" x="67.878125" xlink:href="#m7ad3c54215" y="36.553641"/>
      </g>
     </g>
     <g id="text_11">
      <!-- 40 -->
      <g transform="translate(40.878125 43.497391)scale(0.2 -0.2)">
       <use xlink:href="#TimesNewRomanPSMT-52"/>
       <use x="50" xlink:href="#TimesNewRomanPSMT-48"/>
      </g>
     </g>
    </g>
    <g id="text_12">
     <!-- Angle [$^\circ$] -->
     <g transform="translate(21.2 206.204437)rotate(-90)scale(0.2 -0.2)">
      <defs>
       <path d="M 45.75 22.171875 
L 20.125 22.171875 
L 15.625 11.71875 
Q 13.96875 7.859375 13.96875 5.953125 
Q 13.96875 4.4375 15.40625 3.296875 
Q 16.84375 2.15625 21.625 1.8125 
L 21.625 0 
L 0.78125 0 
L 0.78125 1.8125 
Q 4.9375 2.546875 6.15625 3.71875 
Q 8.640625 6.0625 11.671875 13.234375 
L 34.96875 67.71875 
L 36.671875 67.71875 
L 59.71875 12.640625 
Q 62.5 6 64.765625 4.015625 
Q 67.046875 2.046875 71.09375 1.8125 
L 71.09375 0 
L 44.96875 0 
L 44.96875 1.8125 
Q 48.921875 2 50.3125 3.125 
Q 51.703125 4.25 51.703125 5.859375 
Q 51.703125 8.015625 49.75 12.640625 
z
M 44.390625 25.78125 
L 33.15625 52.546875 
L 21.625 25.78125 
z
" id="TimesNewRomanPSMT-65"/>
       <path d="M 16.15625 36.578125 
Q 24.03125 46.046875 31.15625 46.046875 
Q 34.8125 46.046875 37.453125 44.21875 
Q 40.09375 42.390625 41.65625 38.1875 
Q 42.71875 35.25 42.71875 29.203125 
L 42.71875 10.109375 
Q 42.71875 5.859375 43.40625 4.34375 
Q 43.953125 3.125 45.140625 2.4375 
Q 46.34375 1.765625 49.5625 1.765625 
L 49.5625 0 
L 27.4375 0 
L 27.4375 1.765625 
L 28.375 1.765625 
Q 31.5 1.765625 32.734375 2.703125 
Q 33.984375 3.65625 34.46875 5.515625 
Q 34.671875 6.25 34.671875 10.109375 
L 34.671875 28.421875 
Q 34.671875 34.515625 33.078125 37.28125 
Q 31.5 40.046875 27.734375 40.046875 
Q 21.921875 40.046875 16.15625 33.6875 
L 16.15625 10.109375 
Q 16.15625 5.5625 16.703125 4.5 
Q 17.390625 3.078125 18.578125 2.421875 
Q 19.78125 1.765625 23.4375 1.765625 
L 23.4375 0 
L 1.3125 0 
L 1.3125 1.765625 
L 2.296875 1.765625 
Q 5.71875 1.765625 6.90625 3.484375 
Q 8.109375 5.21875 8.109375 10.109375 
L 8.109375 26.703125 
Q 8.109375 34.765625 7.734375 36.515625 
Q 7.375 38.28125 6.609375 38.90625 
Q 5.859375 39.546875 4.59375 39.546875 
Q 3.21875 39.546875 1.3125 38.8125 
L 0.59375 40.578125 
L 14.0625 46.046875 
L 16.15625 46.046875 
z
" id="TimesNewRomanPSMT-110"/>
       <path d="M 15.09375 16.3125 
Q 10.984375 18.3125 8.78125 21.890625 
Q 6.59375 25.484375 6.59375 29.828125 
Q 6.59375 36.46875 11.59375 41.25 
Q 16.609375 46.046875 24.421875 46.046875 
Q 30.8125 46.046875 35.5 42.921875 
L 44.96875 42.921875 
Q 47.078125 42.921875 47.40625 42.796875 
Q 47.75 42.671875 47.90625 42.390625 
Q 48.1875 41.9375 48.1875 40.828125 
Q 48.1875 39.546875 47.953125 39.0625 
Q 47.796875 38.8125 47.4375 38.671875 
Q 47.078125 38.53125 44.96875 38.53125 
L 39.15625 38.53125 
Q 41.890625 35.015625 41.890625 29.546875 
Q 41.890625 23.296875 37.109375 18.84375 
Q 32.328125 14.40625 24.265625 14.40625 
Q 20.953125 14.40625 17.484375 15.375 
Q 15.328125 13.53125 14.5625 12.140625 
Q 13.8125 10.75 13.8125 9.765625 
Q 13.8125 8.9375 14.625 8.15625 
Q 15.4375 7.375 17.78125 7.03125 
Q 19.140625 6.84375 24.609375 6.6875 
Q 34.671875 6.453125 37.640625 6 
Q 42.1875 5.375 44.890625 2.640625 
Q 47.609375 -0.09375 47.609375 -4.109375 
Q 47.609375 -9.625 42.4375 -14.453125 
Q 34.8125 -21.578125 22.5625 -21.578125 
Q 13.140625 -21.578125 6.640625 -17.328125 
Q 2.984375 -14.890625 2.984375 -12.25 
Q 2.984375 -11.078125 3.515625 -9.90625 
Q 4.34375 -8.109375 6.9375 -4.890625 
Q 7.28125 -4.4375 11.921875 0.390625 
Q 9.375 1.90625 8.328125 3.09375 
Q 7.28125 4.296875 7.28125 5.8125 
Q 7.28125 7.515625 8.671875 9.8125 
Q 10.0625 12.109375 15.09375 16.3125 
z
M 23.578125 43.703125 
Q 19.96875 43.703125 17.53125 40.8125 
Q 15.09375 37.9375 15.09375 31.984375 
Q 15.09375 24.265625 18.40625 20.015625 
Q 20.953125 16.796875 24.859375 16.796875 
Q 28.5625 16.796875 30.953125 19.578125 
Q 33.34375 22.359375 33.34375 28.328125 
Q 33.34375 36.078125 29.984375 40.484375 
Q 27.484375 43.703125 23.578125 43.703125 
z
M 14.59375 0 
Q 12.3125 -2.484375 11.140625 -4.625 
Q 9.96875 -6.78125 9.96875 -8.59375 
Q 9.96875 -10.9375 12.796875 -12.703125 
Q 17.671875 -15.71875 26.90625 -15.71875 
Q 35.6875 -15.71875 39.859375 -12.609375 
Q 44.046875 -9.515625 44.046875 -6 
Q 44.046875 -3.46875 41.546875 -2.390625 
Q 39.015625 -1.3125 31.5 -1.125 
Q 20.515625 -0.828125 14.59375 0 
z
" id="TimesNewRomanPSMT-103"/>
       <path d="M 18.5 69.4375 
L 18.5 10.109375 
Q 18.5 5.90625 19.109375 4.53125 
Q 19.734375 3.171875 21 2.46875 
Q 22.265625 1.765625 25.734375 1.765625 
L 25.734375 0 
L 3.8125 0 
L 3.8125 1.765625 
Q 6.890625 1.765625 8 2.390625 
Q 9.125 3.03125 9.765625 4.484375 
Q 10.40625 5.953125 10.40625 10.109375 
L 10.40625 50.734375 
Q 10.40625 58.296875 10.0625 60.03125 
Q 9.71875 61.765625 8.953125 62.390625 
Q 8.203125 63.03125 7.03125 63.03125 
Q 5.765625 63.03125 3.8125 62.25 
L 2.984375 63.96875 
L 16.3125 69.4375 
z
" id="TimesNewRomanPSMT-108"/>
       <path d="M 23.203125 38.703125 
Q 31 30.796875 31 25.1875 
Q 31 19.59375 27.046875 15.640625 
Q 23.09375 11.703125 17.5 11.703125 
Q 11.796875 11.703125 7.890625 15.640625 
Q 4 19.59375 4 25.40625 
Q 4 31 7.953125 34.84375 
Q 11.90625 38.703125 17.703125 38.703125 
Q 23.203125 38.703125 31 30.796875 
z
M 20.40625 18.296875 
Q 24.40625 22.296875 24.40625 25.1875 
Q 24.40625 28.09375 22.40625 30.09375 
Q 20.40625 32.09375 17.703125 32.09375 
Q 14.59375 32.09375 12.59375 30.140625 
Q 10.59375 28.203125 10.59375 25.40625 
Q 10.59375 22.296875 12.546875 20.296875 
Q 14.5 18.296875 17.5 18.296875 
Q 20.40625 18.296875 24.40625 22.296875 
z
" id="STIXGeneral-Regular-8728"/>
      </defs>
      <use transform="translate(0 0.5625)" xlink:href="#TimesNewRomanPSMT-65"/>
      <use transform="translate(72.216797 0.5625)" xlink:href="#TimesNewRomanPSMT-110"/>
      <use transform="translate(122.216797 0.5625)" xlink:href="#TimesNewRomanPSMT-103"/>
      <use transform="translate(172.216797 0.5625)" xlink:href="#TimesNewRomanPSMT-108"/>
      <use transform="translate(200 0.5625)" xlink:href="#TimesNewRomanPSMT-101"/>
      <use transform="translate(244.384766 0.5625)" xlink:href="#TimesNewRomanPSMT-32"/>
      <use transform="translate(269.384766 0.5625)" xlink:href="#TimesNewRomanPSMT-91"/>
      <use transform="translate(314.336826 35.8375)scale(0.7)" xlink:href="#STIXGeneral-Regular-8728"/>
      <use transform="translate(353.354187 0.5625)" xlink:href="#TimesNewRomanPSMT-93"/>
     </g>
    </g>
   </g>
   <g id="line2d_21">
    <path clip-path="url(#pb0a2c30178)" d="M 84.110852 156.627361 
L 85.24097 162.152225 
L 85.77165 165.835468 
L 87.346305 180.56844 
L 87.81887 181.028845 
L 88.350363 181.949656 
L 88.931527 183.791277 
L 89.405943 191.157763 
L 89.922686 193.920195 
L 90.452189 198.524249 
L 90.981505 200.365871 
L 91.516337 206.35114 
L 92.09905 205.43033 
L 92.561784 206.35114 
L 93.099831 206.35114 
L 93.679624 205.43033 
L 94.146828 197.603438 
L 94.672216 191.157763 
L 96.256524 176.885197 
L 97.847285 163.533441 
L 98.369784 160.771009 
L 98.894971 157.087766 
L 100.476839 147.879659 
L 101.533224 140.052768 
L 102.061603 134.527903 
L 103.643045 123.017769 
L 104.166869 121.636553 
L 104.697734 120.715742 
L 105.291114 117.95331 
L 106.281647 104.141149 
L 106.877978 100.457906 
L 107.398037 101.378717 
L 107.914099 107.824392 
L 108.441301 108.284797 
L 108.906785 110.126419 
L 109.497106 115.190878 
L 110.020666 118.413715 
L 110.548588 123.93858 
L 111.540878 127.161417 
L 112.658307 129.003039 
L 113.185245 132.225876 
L 114.236402 139.592362 
L 115.820555 147.419253 
L 117.403042 160.310604 
L 117.934473 163.533441 
L 118.391188 169.058306 
L 118.923131 174.122765 
L 120.040776 180.56844 
L 121.098045 184.251683 
L 121.62379 185.172493 
L 123.206603 203.128303 
L 123.733642 207.271951 
L 124.261594 208.192762 
L 124.79198 207.732356 
L 125.249307 204.969924 
L 126.374537 193.45979 
L 127.951764 180.56844 
L 129.013348 172.281143 
L 129.537265 169.979116 
L 130.002075 166.756279 
L 131.119914 160.771009 
L 131.649331 157.087766 
L 132.174526 152.483712 
L 134.28516 139.131957 
L 134.745865 132.686282 
L 135.804203 125.780201 
L 136.402773 125.780201 
L 137.391624 119.794931 
L 138.973538 106.903581 
L 139.560412 103.220338 
L 140.030544 103.220338 
L 140.610724 99.537095 
L 141.099208 97.695474 
L 141.692519 105.06196 
L 142.675173 122.096958 
L 143.268282 128.082228 
L 143.729839 129.923849 
L 144.326 131.765471 
L 145.84134 134.527903 
L 146.430592 135.448714 
L 146.902351 138.211146 
L 147.957087 145.577632 
L 149.014154 152.944118 
L 149.536165 158.008577 
L 150.651905 165.375063 
L 152.172575 178.726818 
L 152.701798 179.647629 
L 153.232896 179.187224 
L 153.817306 181.949656 
L 154.286857 187.47452 
L 154.810162 195.761817 
L 155.344118 202.207492 
L 155.936585 202.667897 
L 156.3933 204.049113 
L 156.990314 204.969924 
L 157.458687 204.969924 
L 158.038813 205.43033 
L 158.50972 203.128303 
L 159.565982 190.697358 
L 160.092672 185.172493 
L 160.678143 181.949656 
L 161.735056 170.899927 
L 162.718818 163.533441 
L 163.313004 161.69182 
L 165.891043 146.038037 
L 167.533465 130.384255 
L 168.526415 123.93858 
L 169.055312 123.017769 
L 169.670871 123.017769 
L 170.647219 113.349256 
L 171.166728 106.443176 
L 171.755779 101.378717 
L 172.242256 101.378717 
L 172.754197 103.220338 
L 173.882432 103.220338 
L 175.962699 125.780201 
L 176.951295 130.384255 
L 177.545256 131.305066 
L 178.600379 136.369525 
L 182.820787 162.152225 
L 183.348871 166.295873 
L 183.877932 172.281143 
L 184.403289 175.503981 
L 185.458707 179.187224 
L 185.986203 180.108034 
L 186.458643 183.791277 
L 186.979772 188.855736 
L 187.569736 198.524249 
L 188.100903 203.128303 
L 189.088631 207.271951 
L 191.261896 198.984654 
L 191.792026 192.538979 
L 193.316537 180.108034 
L 193.896144 175.964386 
L 194.361915 171.360332 
L 194.956527 167.67709 
L 195.482234 163.533441 
L 196.011751 161.69182 
L 197.065093 154.785739 
L 197.593177 153.404523 
L 198.583857 143.73601 
L 199.176997 140.513173 
L 200.230501 129.463444 
L 200.692189 125.780201 
L 201.285624 123.017769 
L 201.814654 121.176147 
L 202.868444 111.507635 
L 204.451032 103.220338 
L 204.978412 102.299527 
L 205.506527 99.997501 
L 206.034736 102.299527 
L 206.561364 106.443176 
L 207.57591 122.557364 
L 208.156129 127.161417 
L 208.628276 129.003039 
L 209.153145 129.923849 
L 210.21081 132.686282 
L 210.812719 132.686282 
L 211.322165 135.448714 
L 212.315153 142.8152 
L 212.847521 145.577632 
L 213.904597 152.944118 
L 214.953003 160.310604 
L 215.542317 163.533441 
L 216.541541 174.122765 
L 217.064063 178.726818 
L 217.59056 181.949656 
L 218.180493 179.647629 
L 218.653677 181.028845 
L 219.235004 188.855736 
L 219.704424 200.365871 
L 220.756433 207.271951 
L 221.30008 208.192762 
L 221.910929 208.192762 
L 222.868027 205.43033 
L 223.402471 199.905465 
L 224.447237 186.093304 
L 225.039897 181.949656 
L 226.036325 172.741549 
L 226.626327 169.518711 
L 227.159742 167.67709 
L 228.742299 160.310604 
L 229.785864 151.562902 
L 230.841831 143.73601 
L 231.311739 138.671551 
L 231.836616 135.448714 
L 232.364081 129.923849 
L 232.888331 127.621823 
L 233.420963 124.398985 
L 234.0235 124.398985 
L 235.062479 119.794931 
L 236.056017 103.220338 
L 236.644037 101.378717 
L 237.120924 101.378717 
L 237.640921 103.220338 
L 238.163769 99.537095 
L 238.755135 105.06196 
L 240.278252 127.161417 
L 240.796499 128.082228 
L 241.384286 129.463444 
L 241.904639 129.003039 
L 242.962846 132.686282 
L 243.425386 135.448714 
L 244.020417 137.750741 
L 245.600905 147.419253 
L 246.066692 152.023307 
L 247.712105 163.993847 
L 248.172856 169.518711 
L 248.766321 171.820738 
L 249.821522 177.806008 
L 250.349537 178.726818 
L 250.877304 180.56844 
L 251.404056 184.251683 
L 251.932884 189.316142 
L 252.46117 198.063844 
L 252.987302 204.509519 
L 253.517044 206.35114 
L 254.043022 205.890735 
L 254.569998 204.049113 
L 255.0413 204.049113 
L 255.621915 202.207492 
L 256.152307 197.143033 
L 256.684513 190.236952 
L 257.207818 185.632899 
L 257.735352 183.330872 
L 258.790747 176.424791 
L 259.844871 167.216684 
L 263.010937 147.419253 
L 263.540618 143.275605 
L 264.593866 133.607092 
L 265.054935 127.161417 
L 265.658254 127.161417 
L 266.176655 122.557364 
L 266.636554 121.636553 
L 267.23143 116.111688 
L 268.286499 111.96804 
L 268.814095 105.98277 
L 269.275427 104.141149 
L 269.868994 103.220338 
L 270.397373 101.378717 
L 270.924156 102.759933 
L 271.452604 107.824392 
L 271.983051 115.190878 
L 272.507146 120.715742 
L 273.035037 123.93858 
L 273.564772 125.319796 
L 275.093715 131.765471 
L 275.626246 133.607092 
L 276.153493 136.369525 
L 276.677743 140.973578 
L 278.322745 150.181686 
L 278.789895 153.864929 
L 280.436222 163.993847 
L 280.895184 169.518711 
L 281.487689 174.122765 
L 281.955706 179.647629 
L 282.482466 181.028845 
L 283.077566 181.949656 
L 283.534313 183.330872 
L 284.070322 188.395331 
L 285.184257 202.207492 
L 285.708569 204.509519 
L 286.180754 207.271951 
L 286.738857 207.271951 
L 287.232608 204.509519 
L 288.290334 194.841006 
L 288.89102 191.157763 
L 289.872124 187.014115 
L 290.460407 184.712088 
L 290.924141 178.726818 
L 291.517676 173.662359 
L 291.971928 168.5979 
L 292.566672 165.835468 
L 294.685223 151.562902 
L 295.739184 145.117227 
L 297.780609 126.701012 
L 298.306719 126.240606 
L 299.362237 123.017769 
L 300.946986 107.363986 
L 301.4727 105.06196 
L 302.000978 103.680744 
L 302.537832 102.759933 
L 303.062965 100.457906 
L 303.64904 101.378717 
L 304.703226 116.572094 
L 305.165403 124.85939 
L 305.69241 128.542633 
L 306.761872 130.384255 
L 307.325793 132.686282 
L 308.382876 134.527903 
L 308.909039 136.369525 
L 309.43638 139.131957 
L 310.491944 146.958848 
L 311.019154 151.102496 
L 311.547331 156.166955 
L 312.604383 162.152225 
L 313.657337 171.820738 
L 314.712081 182.410061 
L 315.24754 182.410061 
L 315.768869 181.489251 
L 316.295374 183.330872 
L 316.825279 188.855736 
L 317.811511 203.588708 
L 318.409152 206.35114 
L 318.933108 207.271951 
L 319.46113 205.43033 
L 319.988595 202.667897 
L 320.5163 201.286681 
L 320.976951 197.603438 
L 321.57068 190.697358 
L 323.14958 177.345602 
L 323.680368 175.043575 
L 324.676935 168.5979 
L 325.788197 161.69182 
L 328.429379 143.73601 
L 328.957076 138.211146 
L 329.419415 134.988308 
L 330.014028 131.765471 
L 330.539525 130.384255 
L 330.999354 125.780201 
L 331.602774 125.780201 
L 332.583809 118.413715 
L 333.647779 103.220338 
L 334.174012 99.537095 
L 335.287521 101.378717 
L 335.815543 103.220338 
L 336.280323 104.141149 
L 336.808771 106.903581 
L 337.397852 111.047229 
L 337.859092 117.95331 
L 338.391537 122.096958 
L 338.975134 123.017769 
L 339.510593 125.780201 
L 340.035788 126.701012 
L 342.68539 144.196416 
L 343.155623 146.958848 
L 344.735996 159.389793 
L 345.328493 163.073036 
L 346.390317 173.662359 
L 346.838821 177.806008 
L 347.378734 179.187224 
L 347.965677 181.028845 
L 348.440729 181.028845 
L 349.018833 185.172493 
L 350.004128 196.222222 
L 350.544987 199.44506 
L 351.129172 205.890735 
L 352.115289 204.969924 
L 352.64548 202.667897 
L 353.237761 201.286681 
L 353.706986 199.44506 
L 354.224714 195.761817 
L 354.822897 190.697358 
L 356.345705 173.662359 
L 356.874339 169.518711 
L 359.053158 156.166955 
L 359.501399 154.785739 
L 362.210704 133.146687 
L 362.675971 126.240606 
L 363.265873 124.85939 
L 363.789511 123.017769 
L 364.258737 123.93858 
L 364.781205 119.334526 
L 365.308089 110.586824 
L 366.960667 104.601554 
L 367.412324 104.141149 
L 368.009175 101.839122 
L 368.479447 99.537095 
L 369.000807 105.522365 
L 370.06504 121.176147 
L 371.107963 127.161417 
L 372.17177 131.765471 
L 372.757264 133.607092 
L 373.226165 134.527903 
L 373.805384 136.369525 
L 376.43806 154.325334 
L 378.020803 163.073036 
L 379.603902 180.56844 
L 380.064839 185.632899 
L 380.667384 185.632899 
L 381.184197 183.330872 
L 381.709005 186.55371 
L 382.24135 192.538979 
L 382.703952 203.128303 
L 384.3565 206.811546 
L 384.819528 206.811546 
L 385.403869 201.747087 
L 386.403038 189.316142 
L 387.517655 183.791277 
L 388.044895 181.949656 
L 388.574227 177.806008 
L 389.627669 168.5979 
L 390.621385 162.61263 
L 391.215711 159.850198 
L 391.73288 156.166955 
L 392.261623 151.562902 
L 393.316142 145.117227 
L 393.847279 140.052768 
L 394.375952 136.369525 
L 394.902905 131.305066 
L 395.434282 128.542633 
L 395.958764 124.398985 
L 396.955788 120.715742 
L 397.537278 117.492905 
L 398.526082 108.284797 
L 399.053973 100.457906 
L 399.647911 99.537095 
L 400.122304 103.220338 
L 401.169162 107.824392 
L 402.236377 122.096958 
L 402.81411 128.542633 
L 403.284629 128.542633 
L 403.811978 127.621823 
L 404.590997 126.701012 
L 404.976266 127.621823 
L 405.507371 130.84466 
L 406.000348 132.225876 
L 406.567383 136.369525 
L 407.07992 139.131957 
L 407.611149 142.8152 
L 408.765398 148.800469 
L 408.765398 148.800469 
" style="fill:none;stroke:#1f77b4;stroke-linecap:square;stroke-width:1.5;"/>
   </g>
   <g id="line2d_22">
    <path clip-path="url(#pb0a2c30178)" d="M 84.110852 59.504849 
L 85.24097 65.075754 
L 85.77165 69.403564 
L 86.296217 75.411854 
L 87.81887 98.132859 
L 88.931527 113.924763 
L 90.452189 149.537118 
L 90.981505 161.945043 
L 91.516337 177.092379 
L 92.09905 189.937689 
L 93.099831 216.917443 
L 94.146828 238.579516 
L 94.672216 246.199225 
L 96.256524 263.096102 
L 97.30875 268.736068 
L 98.369784 271.268297 
L 98.894971 271.199236 
L 99.487685 270.462588 
L 99.947422 269.426676 
L 100.476839 267.055588 
L 101.07362 263.257244 
L 101.533224 259.067555 
L 102.650227 245.669759 
L 104.166869 221.084112 
L 105.291114 203.174343 
L 106.877978 162.129205 
L 107.398037 149.514098 
L 108.441301 129.14116 
L 108.906785 118.989222 
L 110.548588 97.810575 
L 112.658307 73.892516 
L 113.185245 69.679807 
L 114.236402 64.408166 
L 114.766021 62.589565 
L 115.29192 61.208348 
L 115.820555 60.655862 
L 116.35094 61.806875 
L 116.874764 63.855679 
L 117.934473 70.554577 
L 120.040776 98.109839 
L 121.62379 122.741526 
L 122.679107 147.442274 
L 125.249307 216.157775 
L 126.899499 241.825374 
L 127.951764 254.187258 
L 129.013348 262.290392 
L 130.002075 268.344723 
L 130.593402 270.025203 
L 131.119914 271.153196 
L 131.649331 271.084135 
L 132.174526 269.587817 
L 132.702208 267.700155 
L 133.232276 265.260007 
L 134.28516 256.94969 
L 134.745865 249.951529 
L 135.340182 242.861286 
L 135.804203 235.103455 
L 136.402773 228.312476 
L 137.918957 199.928485 
L 140.610724 134.689045 
L 141.099208 120.324398 
L 142.142278 102.898054 
L 142.675173 97.948697 
L 143.268282 93.528805 
L 143.729839 88.326225 
L 144.326 83.584049 
L 145.316292 74.23782 
L 146.430592 65.812402 
L 146.902351 62.957889 
L 147.957087 60.793984 
L 148.541628 60.978146 
L 149.014154 62.083119 
L 150.064474 67.907247 
L 150.651905 72.258077 
L 151.643878 84.573921 
L 152.701798 99.214811 
L 153.817306 113.717581 
L 154.810162 137.198254 
L 155.344118 151.4478 
L 155.936585 164.016867 
L 156.3933 177.207481 
L 156.990314 190.490175 
L 158.038813 216.756302 
L 158.50972 228.61174 
L 159.565982 245.255394 
L 160.678143 257.939562 
L 161.144031 262.405494 
L 162.257462 267.308811 
L 162.718818 268.98929 
L 163.313004 270.62373 
L 163.781835 271.291317 
L 164.30569 271.268297 
L 164.833193 270.301446 
L 165.429618 268.528885 
L 165.891043 265.697392 
L 166.953061 255.913778 
L 168.003048 240.927583 
L 169.055312 224.951517 
L 169.670871 217.46993 
L 170.647219 196.03806 
L 172.754197 143.160504 
L 173.882432 118.298614 
L 174.850925 100.895291 
L 176.951295 79.141137 
L 178.075293 69.863969 
L 179.063571 63.92474 
L 179.663048 62.244261 
L 180.182355 61.36949 
L 180.710571 61.30043 
L 181.238199 62.037078 
L 181.703846 63.579436 
L 182.297095 66.180726 
L 182.820787 69.449604 
L 183.348871 74.030638 
L 185.986203 108.100635 
L 186.979772 127.41464 
L 188.624603 169.44965 
L 189.088631 183.584095 
L 191.792026 238.09609 
L 192.783975 251.931272 
L 193.316537 257.617278 
L 194.361915 265.352088 
L 194.956527 267.930358 
L 196.011751 270.969034 
L 196.537101 271.130175 
L 197.065093 270.62373 
L 197.593177 270.324466 
L 198.053564 267.907338 
L 199.176997 260.011386 
L 200.230501 246.222245 
L 201.285624 230.015976 
L 201.814654 221.521497 
L 204.978412 148.754429 
L 206.034736 122.856627 
L 206.561364 112.474486 
L 207.57591 100.158642 
L 208.156129 95.094183 
L 209.153145 84.182576 
L 211.322165 65.927503 
L 211.793173 63.579436 
L 212.315153 62.152179 
L 212.847521 61.139288 
L 213.431412 61.32345 
L 213.904597 62.428423 
L 214.491346 64.707429 
L 215.542317 71.130084 
L 216.074592 77.069313 
L 218.653677 113.211135 
L 219.235004 124.537107 
L 219.704424 139.845585 
L 220.300105 153.98003 
L 221.30008 182.479122 
L 221.910929 196.291283 
L 222.868027 222.050963 
L 223.402471 232.133841 
L 225.039897 252.069393 
L 225.526723 256.788548 
L 226.036325 260.35669 
L 227.680118 269.081372 
L 228.20278 271.176216 
L 228.742299 272.050986 
L 229.197952 271.613601 
L 229.785864 269.887081 
L 230.252425 267.769216 
L 230.841831 264.085973 
L 231.836616 253.657792 
L 234.472453 215.835491 
L 235.062479 206.719465 
L 238.163769 126.51685 
L 239.226662 108.031574 
L 240.796499 92.147589 
L 241.384286 86.691785 
L 242.431066 75.596016 
L 243.425386 67.538922 
L 244.020417 64.431186 
L 244.54555 62.405402 
L 245.074827 61.185328 
L 245.600905 60.770963 
L 246.066692 61.921977 
L 246.651288 63.970781 
L 247.179798 67.055497 
L 247.712105 70.922902 
L 248.172856 76.724009 
L 248.766321 82.133772 
L 250.349537 102.391608 
L 251.404056 118.78204 
L 251.932884 129.394383 
L 255.0413 210.126464 
L 256.152307 231.420213 
L 257.735352 252.368657 
L 258.790747 262.842879 
L 259.320001 265.927595 
L 259.844871 268.252642 
L 260.373025 270.048223 
L 260.902728 271.038094 
L 261.428411 271.475479 
L 261.955001 270.969034 
L 262.482954 269.403655 
L 263.010937 266.917466 
L 263.540618 263.257244 
L 264.593866 251.839191 
L 265.054935 243.459813 
L 265.658254 237.014138 
L 267.23143 209.067532 
L 268.286499 187.796804 
L 270.397373 135.356633 
L 271.452604 113.464358 
L 272.507146 99.836359 
L 274.578916 76.102462 
L 275.626246 67.216638 
L 276.153493 63.90172 
L 276.677743 62.290301 
L 277.277158 61.070227 
L 277.798039 60.655862 
L 278.322745 60.793984 
L 278.789895 62.129159 
L 279.321295 64.131923 
L 279.905086 66.940395 
L 280.436222 70.8078 
L 281.487689 83.284786 
L 282.482466 99.05367 
L 283.077566 106.581297 
L 284.070322 124.974492 
L 285.708569 165.490164 
L 286.180754 179.900852 
L 287.232608 205.545431 
L 289.872124 249.445083 
L 290.924141 261.346561 
L 291.971928 267.400892 
L 293.031087 271.245277 
L 293.560636 271.636621 
L 294.090897 270.853932 
L 294.685223 269.541777 
L 295.143627 267.677135 
L 295.739184 264.615439 
L 296.729669 255.24619 
L 298.900223 225.711186 
L 299.892893 207.294971 
L 300.484383 194.887047 
L 301.4727 169.725893 
L 304.114037 108.399899 
L 305.165403 97.39621 
L 307.854396 72.5113 
L 308.909039 64.592328 
L 309.43638 61.968017 
L 309.966385 60.540761 
L 310.491944 60.287538 
L 311.019154 61.070227 
L 312.075749 65.720321 
L 312.604383 68.989199 
L 313.129609 73.823455 
L 313.657337 80.061948 
L 314.712081 96.590501 
L 316.295374 118.966202 
L 316.825279 129.601566 
L 319.988595 210.057404 
L 320.976951 231.788537 
L 322.628189 251.309724 
L 323.680368 261.277501 
L 324.150012 265.029804 
L 324.676935 267.976399 
L 325.211093 270.117284 
L 325.788197 271.199236 
L 326.319148 271.360378 
L 326.781944 270.600709 
L 327.374217 268.667007 
L 328.429379 262.93496 
L 330.014028 245.876941 
L 330.539525 239.82261 
L 330.999354 231.650415 
L 331.602774 224.859436 
L 332.583809 206.3051 
L 333.647779 178.611717 
L 334.174012 164.154988 
L 335.287521 151.816125 
L 336.808771 117.331763 
L 337.859092 101.424757 
L 340.035788 75.503935 
L 341.105025 67.35476 
L 341.575654 64.661389 
L 342.104613 62.888828 
L 342.68539 61.530632 
L 343.155623 60.863044 
L 343.681051 61.645734 
L 344.278327 63.717558 
L 345.328493 70.071152 
L 346.390317 82.225853 
L 346.838821 89.68442 
L 348.440729 111.254412 
L 349.018833 120.5546 
L 351.129172 171.774697 
L 352.115289 197.626459 
L 353.706986 232.110821 
L 354.224714 241.710272 
L 355.289691 256.028879 
L 356.874339 266.986527 
L 357.931197 270.554669 
L 358.453968 271.452459 
L 359.053158 271.153196 
L 359.501399 271.199236 
L 360.041475 269.380635 
L 360.565082 267.032568 
L 361.094661 263.372345 
L 361.61706 258.67621 
L 362.210704 251.931272 
L 362.675971 243.18357 
L 363.265873 235.748023 
L 364.781205 210.955194 
L 365.83787 186.139345 
L 366.960667 161.300475 
L 368.479447 121.452391 
L 369.000807 111.392533 
L 369.530061 104.095108 
L 371.704232 81.765448 
L 372.17177 77.023273 
L 372.757264 72.741503 
L 373.226165 68.413692 
L 373.805384 64.822531 
L 374.332779 62.704666 
L 374.855387 61.507612 
L 375.38399 60.978146 
L 375.913609 61.760835 
L 376.43806 63.07299 
L 376.966307 64.937632 
L 377.493261 67.239659 
L 378.020803 70.876861 
L 378.552102 76.447766 
L 379.076492 83.399887 
L 379.603902 92.23967 
L 380.064839 101.931203 
L 381.184197 117.009479 
L 381.709005 126.378728 
L 382.24135 138.073024 
L 382.703952 153.795868 
L 383.824836 180.752602 
L 384.819528 207.962559 
L 385.931054 227.299585 
L 386.403038 234.59701 
L 388.574227 260.609913 
L 389.099941 264.039933 
L 390.15518 268.851169 
L 390.621385 270.439567 
L 391.215711 271.337358 
L 391.73288 271.038094 
L 392.798353 267.19371 
L 393.316142 264.270135 
L 394.375952 254.279339 
L 395.958764 232.04176 
L 398.065695 193.805094 
L 400.122304 140.973578 
L 401.169162 119.219425 
L 401.692505 111.99106 
L 402.236377 106.351095 
L 402.81411 102.184426 
L 403.811978 89.477238 
L 404.590997 82.640218 
L 404.976266 76.585888 
L 406.000348 67.262679 
L 407.07992 61.737815 
L 407.611149 60.310558 
L 408.15097 59.297666 
L 408.765398 59.228605 
L 408.765398 59.228605 
" style="fill:none;stroke:#ff7f0e;stroke-linecap:square;stroke-width:1.5;"/>
   </g>
   <g id="line2d_23">
    <path clip-path="url(#pb0a2c30178)" d="M 84.110852 63.188092 
L 85.24097 74.283861 
L 85.77165 82.294914 
L 86.296217 93.367663 
L 87.346305 118.597877 
L 88.931527 144.771923 
L 89.405943 163.901766 
L 89.922686 177.736947 
L 91.516337 230.499402 
L 92.09905 242.423901 
L 92.561784 256.97271 
L 93.679624 282.248965 
L 95.728641 286.438654 
L 96.256524 287.037181 
L 97.30875 283.469039 
L 97.847285 280.729627 
L 98.369784 279.095188 
L 99.947422 268.045459 
L 100.476839 261.991129 
L 101.533224 246.176205 
L 104.166869 189.776547 
L 104.697734 180.522399 
L 105.291114 168.183535 
L 106.281647 127.552762 
L 106.877978 109.642993 
L 107.398037 97.948697 
L 107.914099 95.048143 
L 108.906785 76.171523 
L 109.497106 73.31701 
L 110.020666 68.874098 
L 110.548588 68.805037 
L 112.139937 54.739653 
L 112.658307 49.951437 
L 113.185245 48.961566 
L 113.717102 50.20466 
L 115.29192 52.921052 
L 115.820555 55.130998 
L 116.874764 67.078517 
L 117.934473 81.143901 
L 118.923131 104.23323 
L 121.62379 154.969901 
L 122.679107 192.562 
L 123.733642 230.660544 
L 124.79198 258.768291 
L 125.249307 268.183581 
L 125.84457 271.199236 
L 126.899499 277.736992 
L 127.427646 280.292242 
L 127.951764 281.81158 
L 128.482188 281.581377 
L 129.013348 281.627418 
L 129.537265 282.893533 
L 130.002075 282.156884 
L 131.119914 278.980087 
L 131.649331 275.227783 
L 132.702208 264.016913 
L 133.232276 258.814332 
L 134.28516 243.137529 
L 134.745865 229.693692 
L 135.340182 218.920207 
L 135.804203 207.939539 
L 136.402773 201.14856 
L 137.918957 162.175245 
L 138.973538 129.0721 
L 141.099208 65.075754 
L 141.692519 62.681646 
L 142.142278 62.842787 
L 142.675173 67.101537 
L 143.268282 68.666915 
L 143.729839 65.305956 
L 144.326 62.405402 
L 145.316292 54.900795 
L 146.430592 48.316998 
L 146.902351 48.224917 
L 147.498419 51.677957 
L 147.957087 53.427498 
L 148.541628 57.294903 
L 149.014154 62.083119 
L 149.536165 69.93303 
L 150.064474 76.194543 
L 150.651905 84.689022 
L 151.643878 106.212973 
L 152.172575 118.045391 
L 152.701798 125.918323 
L 153.232896 131.880572 
L 153.817306 142.723119 
L 154.286857 158.538043 
L 155.344118 200.711175 
L 155.936585 213.740646 
L 156.3933 228.312476 
L 158.50972 278.795925 
L 159.03115 281.351175 
L 159.565982 283.008634 
L 160.092672 283.883404 
L 160.678143 286.9451 
L 161.144031 286.346573 
L 161.735056 283.054674 
L 162.718818 279.578614 
L 163.313004 279.371432 
L 164.30569 274.491135 
L 165.429618 265.306048 
L 165.891043 258.791312 
L 166.953061 239.79959 
L 168.526415 203.703809 
L 169.055312 195.025168 
L 169.670871 187.543581 
L 170.647219 156.443199 
L 171.755779 116.364911 
L 172.242256 103.473561 
L 173.294195 81.005779 
L 173.882432 68.574834 
L 174.381444 64.707429 
L 174.850925 62.22124 
L 175.438976 62.543524 
L 175.962699 62.336342 
L 176.490365 59.827132 
L 177.545256 52.368565 
L 178.075293 50.526944 
L 178.600379 49.974457 
L 179.063571 50.112579 
L 179.663048 51.654937 
L 180.182355 54.003004 
L 180.710571 57.156781 
L 181.238199 61.116267 
L 182.297095 72.165996 
L 182.820787 78.657712 
L 183.348871 87.382394 
L 183.877932 99.997501 
L 184.931436 118.321634 
L 185.986203 135.264552 
L 186.979772 163.326259 
L 188.100903 205.821674 
L 189.088631 237.911928 
L 189.67937 247.925745 
L 190.144916 258.077683 
L 191.261896 276.171614 
L 191.792026 277.690952 
L 192.783975 282.778431 
L 193.316537 284.781195 
L 193.896144 285.149519 
L 194.361915 283.768303 
L 194.956527 282.66333 
L 195.482234 279.923918 
L 196.011751 279.716736 
L 197.065093 272.465351 
L 197.593177 270.784871 
L 199.176997 247.580441 
L 201.285624 200.089627 
L 201.814654 189.753527 
L 203.397892 143.206544 
L 206.034736 72.212037 
L 206.561364 65.973544 
L 207.090928 67.193618 
L 207.57591 69.771888 
L 208.156129 69.311483 
L 210.812719 49.214789 
L 211.322165 48.4321 
L 211.793173 49.767275 
L 212.315153 52.023261 
L 212.847521 53.772802 
L 213.431412 57.640207 
L 214.491346 68.851078 
L 215.542317 81.719408 
L 217.59056 128.795856 
L 218.180493 132.479099 
L 218.653677 141.295862 
L 219.235004 160.448725 
L 219.704424 187.267338 
L 221.30008 237.727766 
L 222.868027 274.537175 
L 223.402471 279.095188 
L 223.987826 278.703844 
L 224.447237 279.21029 
L 225.039897 281.074931 
L 225.526723 281.190033 
L 226.036325 280.154121 
L 226.626327 280.10808 
L 227.159742 281.397215 
L 227.680118 281.512316 
L 228.20278 281.765539 
L 228.742299 279.417472 
L 230.252425 263.165163 
L 230.841831 254.877866 
L 231.311739 244.725928 
L 231.836616 236.162388 
L 232.364081 223.224997 
L 235.062479 173.570278 
L 236.056017 129.463444 
L 237.120924 101.286636 
L 237.640921 91.249799 
L 238.163769 73.109827 
L 238.755135 68.321611 
L 239.226662 67.055497 
L 239.743738 70.370415 
L 240.278252 72.304118 
L 240.796499 67.285699 
L 241.384286 63.211112 
L 241.904639 56.627315 
L 242.962846 50.826207 
L 244.020417 49.237809 
L 244.54555 50.434863 
L 245.074827 52.437626 
L 245.600905 55.246099 
L 247.712105 81.97263 
L 248.172856 93.298603 
L 248.766321 101.010392 
L 250.349537 128.174309 
L 250.877304 137.474497 
L 251.404056 150.089604 
L 251.932884 165.766407 
L 252.987302 209.689079 
L 254.043022 238.07307 
L 254.569998 248.455211 
L 255.0413 261.23146 
L 255.621915 271.153196 
L 256.152307 275.619128 
L 256.684513 275.964432 
L 257.207818 278.151357 
L 257.735352 282.755411 
L 258.790747 286.323553 
L 259.844871 282.525208 
L 260.373025 281.097952 
L 261.428411 276.539938 
L 261.955001 272.810655 
L 263.010937 261.392602 
L 263.540618 253.588731 
L 264.593866 232.502165 
L 265.054935 217.677112 
L 265.658254 211.231437 
L 266.176655 197.649479 
L 266.636554 188.625534 
L 267.761792 159.458854 
L 268.286499 146.820726 
L 269.275427 112.704689 
L 269.868994 99.07669 
L 270.397373 83.791232 
L 270.924156 73.040766 
L 271.452604 68.344632 
L 271.983051 68.482753 
L 272.507146 67.607983 
L 273.035037 64.546287 
L 273.564772 59.435788 
L 275.093715 50.319762 
L 275.626246 47.879613 
L 276.153493 47.327127 
L 276.677743 50.319762 
L 277.277158 52.322525 
L 278.322745 58.031551 
L 280.436222 81.857529 
L 280.895184 93.183501 
L 281.487689 104.463433 
L 281.955706 118.321634 
L 283.534313 144.979105 
L 284.070322 160.425705 
L 286.180754 234.228685 
L 286.738857 247.810644 
L 287.232608 257.110832 
L 288.89102 271.406419 
L 289.872124 283.51508 
L 290.460407 288.464438 
L 291.517676 285.725026 
L 291.971928 283.054674 
L 292.566672 282.68635 
L 293.031087 280.913789 
L 293.560636 277.621891 
L 295.739184 256.788548 
L 296.729669 239.592408 
L 297.780609 213.970849 
L 298.900223 197.166053 
L 299.362237 187.888885 
L 303.062965 77.875023 
L 303.64904 66.180726 
L 304.114037 63.280173 
L 304.703226 65.559179 
L 305.165403 69.311483 
L 305.69241 67.999328 
L 306.761872 58.883301 
L 307.325793 56.811477 
L 308.382876 49.767275 
L 308.909039 48.017735 
L 309.43638 48.155856 
L 309.966385 50.411843 
L 310.491944 54.302268 
L 311.019154 59.228605 
L 311.547331 66.618111 
L 312.075749 71.705591 
L 312.604383 78.197306 
L 313.657337 98.938568 
L 314.712081 126.056444 
L 316.295374 149.352956 
L 316.825279 165.513184 
L 317.811511 208.492025 
L 318.933108 240.213955 
L 319.988595 259.781183 
L 320.5163 270.071243 
L 320.976951 276.447857 
L 321.57068 276.908263 
L 322.098539 279.21029 
L 322.628189 278.934046 
L 323.14958 280.844729 
L 323.680368 283.376958 
L 324.150012 283.906424 
L 324.676935 283.630181 
L 325.211093 282.548229 
L 325.788197 279.946938 
L 326.319148 276.424837 
L 327.374217 265.904575 
L 328.429379 253.726853 
L 329.419415 234.182645 
L 330.539525 217.262748 
L 330.999354 204.486499 
L 331.602774 197.695519 
L 332.583809 171.774697 
L 334.174012 110.747966 
L 335.287521 100.250724 
L 335.815543 90.213887 
L 336.280323 79.210198 
L 336.808771 71.291226 
L 337.397852 66.203747 
L 337.859092 66.433949 
L 338.391537 64.108902 
L 338.975134 57.824369 
L 339.510593 54.624552 
L 340.035788 49.260829 
L 340.577847 48.409079 
L 341.105025 48.47814 
L 341.575654 49.468012 
L 342.104613 51.378694 
L 342.68539 52.78293 
L 343.155623 54.877775 
L 343.681051 59.804112 
L 344.278327 66.47999 
L 345.328493 80.20007 
L 346.838821 114.54631 
L 348.440729 139.339139 
L 349.018833 152.782976 
L 351.597561 237.24434 
L 352.115289 249.652265 
L 353.706986 278.611763 
L 354.224714 284.527972 
L 354.822897 287.382485 
L 355.289691 288.257255 
L 355.874658 285.609924 
L 356.345705 284.804215 
L 357.462134 281.995742 
L 358.453968 278.35854 
L 359.053158 274.376033 
L 359.501399 273.040858 
L 360.565082 261.507703 
L 361.61706 244.864049 
L 362.210704 232.133841 
L 362.675971 216.480058 
L 363.265873 207.663296 
L 363.789511 197.787601 
L 364.258737 191.73327 
L 364.781205 177.345602 
L 365.308089 155.384266 
L 368.009175 84.389759 
L 368.479447 68.045368 
L 369.000807 63.970781 
L 369.530061 64.960652 
L 370.06504 66.595091 
L 370.651333 64.362125 
L 371.107963 60.909085 
L 371.704232 58.74518 
L 372.17177 55.844626 
L 372.757264 53.404477 
L 373.226165 49.997478 
L 373.805384 48.247937 
L 374.332779 49.813316 
L 375.38399 54.992876 
L 377.493261 73.685334 
L 378.020803 81.005779 
L 379.076492 104.578534 
L 380.064839 134.619984 
L 380.667384 142.792179 
L 381.184197 147.396233 
L 381.709005 159.98832 
L 382.24135 177.667886 
L 382.703952 203.980053 
L 383.824836 233.699219 
L 384.819528 261.829987 
L 385.403869 267.446933 
L 385.931054 269.656878 
L 386.403038 270.969034 
L 386.995714 275.066641 
L 388.044895 284.643073 
L 388.574227 285.471803 
L 389.627669 282.364066 
L 390.621385 280.10808 
L 391.215711 278.243438 
L 391.73288 274.260932 
L 393.316142 256.443244 
L 395.434282 216.019653 
L 396.422823 193.505831 
L 397.537278 170.002137 
L 398.526082 136.737849 
L 399.053973 113.441337 
L 399.647911 98.892528 
L 401.169162 74.099699 
L 401.692505 74.23782 
L 402.236377 75.503935 
L 402.81411 77.782942 
L 403.811978 64.154943 
L 404.590997 56.397112 
L 404.976266 51.263593 
L 405.507371 49.928417 
L 406.000348 46.544437 
L 406.567383 47.787532 
L 407.07992 47.925654 
L 407.611149 50.18164 
L 408.15097 51.93118 
L 408.765398 55.084957 
L 408.765398 55.084957 
" style="fill:none;stroke:#2ca02c;stroke-linecap:square;stroke-width:1.5;"/>
   </g>
   <g id="patch_3">
    <path d="M 67.878125 300.560438 
L 67.878125 34.448437 
" style="fill:none;stroke:#000000;stroke-linecap:square;stroke-linejoin:miter;stroke-width:0.8;"/>
   </g>
   <g id="patch_4">
    <path d="M 424.998125 300.560438 
L 424.998125 34.448437 
" style="fill:none;stroke:#000000;stroke-linecap:square;stroke-linejoin:miter;stroke-width:0.8;"/>
   </g>
   <g id="patch_5">
    <path d="M 67.878125 300.560437 
L 424.998125 300.560437 
" style="fill:none;stroke:#000000;stroke-linecap:square;stroke-linejoin:miter;stroke-width:0.8;"/>
   </g>
   <g id="patch_6">
    <path d="M 67.878125 34.448437 
L 424.998125 34.448437 
" style="fill:none;stroke:#000000;stroke-linecap:square;stroke-linejoin:miter;stroke-width:0.8;"/>
   </g>
   <g id="text_13">
    <!-- The servo performance -->
    <g transform="translate(107.34125 28.03125)scale(0.3 -0.3)">
     <defs>
      <path d="M 16.265625 69.4375 
L 16.265625 36.71875 
Q 21.6875 42.671875 24.859375 44.359375 
Q 28.03125 46.046875 31.203125 46.046875 
Q 35.015625 46.046875 37.75 43.9375 
Q 40.484375 41.84375 41.796875 37.359375 
Q 42.71875 34.234375 42.71875 25.921875 
L 42.71875 10.109375 
Q 42.71875 5.859375 43.40625 4.296875 
Q 43.890625 3.125 45.0625 2.4375 
Q 46.234375 1.765625 49.359375 1.765625 
L 49.359375 0 
L 27.390625 0 
L 27.390625 1.765625 
L 28.421875 1.765625 
Q 31.546875 1.765625 32.765625 2.703125 
Q 33.984375 3.65625 34.46875 5.515625 
Q 34.625 6.296875 34.625 10.109375 
L 34.625 25.921875 
Q 34.625 33.25 33.859375 35.546875 
Q 33.109375 37.84375 31.4375 38.984375 
Q 29.78125 40.140625 27.4375 40.140625 
Q 25.046875 40.140625 22.453125 38.859375 
Q 19.875 37.59375 16.265625 33.734375 
L 16.265625 10.109375 
Q 16.265625 5.515625 16.765625 4.390625 
Q 17.28125 3.265625 18.671875 2.515625 
Q 20.0625 1.765625 23.484375 1.765625 
L 23.484375 0 
L 1.3125 0 
L 1.3125 1.765625 
Q 4.296875 1.765625 6 2.6875 
Q 6.984375 3.171875 7.5625 4.53125 
Q 8.15625 5.90625 8.15625 10.109375 
L 8.15625 50.59375 
Q 8.15625 58.25 7.78125 60 
Q 7.421875 61.765625 6.65625 62.390625 
Q 5.90625 63.03125 4.640625 63.03125 
Q 3.609375 63.03125 1.3125 62.25 
L 0.640625 63.96875 
L 14.015625 69.4375 
z
" id="TimesNewRomanPSMT-104"/>
      <path d="M 16.21875 46.046875 
L 16.21875 35.984375 
Q 21.828125 46.046875 27.734375 46.046875 
Q 30.421875 46.046875 32.171875 44.40625 
Q 33.9375 42.78125 33.9375 40.625 
Q 33.9375 38.71875 32.65625 37.390625 
Q 31.390625 36.078125 29.640625 36.078125 
Q 27.9375 36.078125 25.8125 37.765625 
Q 23.6875 39.453125 22.65625 39.453125 
Q 21.78125 39.453125 20.75 38.484375 
Q 18.5625 36.46875 16.21875 31.890625 
L 16.21875 10.453125 
Q 16.21875 6.734375 17.140625 4.828125 
Q 17.78125 3.515625 19.390625 2.640625 
Q 21 1.765625 24.03125 1.765625 
L 24.03125 0 
L 1.125 0 
L 1.125 1.765625 
Q 4.546875 1.765625 6.203125 2.828125 
Q 7.421875 3.609375 7.90625 5.328125 
Q 8.15625 6.15625 8.15625 10.0625 
L 8.15625 27.390625 
Q 8.15625 35.203125 7.828125 36.6875 
Q 7.515625 38.1875 6.65625 38.859375 
Q 5.8125 39.546875 4.546875 39.546875 
Q 3.03125 39.546875 1.125 38.8125 
L 0.640625 40.578125 
L 14.15625 46.046875 
z
" id="TimesNewRomanPSMT-114"/>
      <path d="M 0.828125 44.734375 
L 21.875 44.734375 
L 21.875 42.921875 
L 20.515625 42.921875 
Q 18.609375 42.921875 17.609375 41.984375 
Q 16.609375 41.0625 16.609375 39.5 
Q 16.609375 37.796875 17.625 35.453125 
L 28.03125 10.75 
L 38.484375 36.375 
Q 39.59375 39.109375 39.59375 40.53125 
Q 39.59375 41.21875 39.203125 41.65625 
Q 38.671875 42.390625 37.84375 42.65625 
Q 37.015625 42.921875 34.46875 42.921875 
L 34.46875 44.734375 
L 49.078125 44.734375 
L 49.078125 42.921875 
Q 46.53125 42.71875 45.5625 41.890625 
Q 43.84375 40.4375 42.484375 37.015625 
L 26.609375 -1.375 
L 24.609375 -1.375 
L 8.640625 36.375 
Q 7.5625 39.015625 6.578125 40.15625 
Q 5.609375 41.3125 4.109375 42.09375 
Q 3.265625 42.53125 0.828125 42.921875 
z
" id="TimesNewRomanPSMT-118"/>
      <path d="M 25 46.046875 
Q 35.15625 46.046875 41.3125 38.328125 
Q 46.53125 31.734375 46.53125 23.1875 
Q 46.53125 17.1875 43.640625 11.03125 
Q 40.765625 4.890625 35.71875 1.75 
Q 30.671875 -1.375 24.46875 -1.375 
Q 14.359375 -1.375 8.40625 6.6875 
Q 3.375 13.484375 3.375 21.921875 
Q 3.375 28.078125 6.421875 34.15625 
Q 9.46875 40.234375 14.453125 43.140625 
Q 19.4375 46.046875 25 46.046875 
z
M 23.484375 42.875 
Q 20.90625 42.875 18.28125 41.328125 
Q 15.671875 39.796875 14.0625 35.9375 
Q 12.453125 32.078125 12.453125 26.03125 
Q 12.453125 16.265625 16.328125 9.171875 
Q 20.21875 2.09375 26.5625 2.09375 
Q 31.296875 2.09375 34.375 6 
Q 37.453125 9.90625 37.453125 19.4375 
Q 37.453125 31.34375 32.328125 38.1875 
Q 28.859375 42.875 23.484375 42.875 
z
" id="TimesNewRomanPSMT-111"/>
      <path d="M -0.09375 40.28125 
L 13.671875 45.84375 
L 15.53125 45.84375 
L 15.53125 35.40625 
Q 19 41.3125 22.484375 43.671875 
Q 25.984375 46.046875 29.828125 46.046875 
Q 36.578125 46.046875 41.0625 40.765625 
Q 46.578125 34.328125 46.578125 23.96875 
Q 46.578125 12.40625 39.9375 4.828125 
Q 34.46875 -1.375 26.171875 -1.375 
Q 22.5625 -1.375 19.921875 -0.34375 
Q 17.96875 0.390625 15.53125 2.59375 
L 15.53125 -11.03125 
Q 15.53125 -15.625 16.09375 -16.859375 
Q 16.65625 -18.109375 18.046875 -18.84375 
Q 19.4375 -19.578125 23.09375 -19.578125 
L 23.09375 -21.390625 
L -0.34375 -21.390625 
L -0.34375 -19.578125 
L 0.875 -19.578125 
Q 3.5625 -19.625 5.46875 -18.5625 
Q 6.390625 -18.015625 6.90625 -16.8125 
Q 7.421875 -15.625 7.421875 -10.75 
L 7.421875 31.546875 
Q 7.421875 35.890625 7.03125 37.0625 
Q 6.640625 38.234375 5.78125 38.8125 
Q 4.9375 39.40625 3.46875 39.40625 
Q 2.296875 39.40625 0.484375 38.71875 
z
M 15.53125 32.515625 
L 15.53125 15.828125 
Q 15.53125 10.40625 15.96875 8.6875 
Q 16.65625 5.859375 19.3125 3.703125 
Q 21.96875 1.5625 26.03125 1.5625 
Q 30.90625 1.5625 33.9375 5.375 
Q 37.890625 10.359375 37.890625 19.390625 
Q 37.890625 29.640625 33.40625 35.15625 
Q 30.28125 38.96875 25.984375 38.96875 
Q 23.640625 38.96875 21.34375 37.796875 
Q 19.578125 36.921875 15.53125 32.515625 
z
" id="TimesNewRomanPSMT-112"/>
      <path d="M 20.609375 41.21875 
L 20.609375 11.8125 
Q 20.609375 5.5625 21.96875 3.90625 
Q 23.78125 1.765625 26.8125 1.765625 
L 30.859375 1.765625 
L 30.859375 0 
L 4.15625 0 
L 4.15625 1.765625 
L 6.15625 1.765625 
Q 8.109375 1.765625 9.71875 2.734375 
Q 11.328125 3.71875 11.9375 5.375 
Q 12.546875 7.03125 12.546875 11.8125 
L 12.546875 41.21875 
L 3.859375 41.21875 
L 3.859375 44.734375 
L 12.546875 44.734375 
L 12.546875 47.65625 
Q 12.546875 54.34375 14.6875 58.984375 
Q 16.84375 63.625 21.265625 66.484375 
Q 25.6875 69.34375 31.203125 69.34375 
Q 36.328125 69.34375 40.625 66.015625 
Q 43.453125 63.8125 43.453125 61.078125 
Q 43.453125 59.625 42.1875 58.328125 
Q 40.921875 57.03125 39.453125 57.03125 
Q 38.328125 57.03125 37.078125 57.828125 
Q 35.84375 58.640625 34.03125 61.296875 
Q 32.234375 63.96875 30.71875 64.890625 
Q 29.203125 65.828125 27.34375 65.828125 
Q 25.09375 65.828125 23.53125 64.625 
Q 21.96875 63.421875 21.28125 60.90625 
Q 20.609375 58.40625 20.609375 47.953125 
L 20.609375 44.734375 
L 32.125 44.734375 
L 32.125 41.21875 
z
" id="TimesNewRomanPSMT-102"/>
      <path d="M 28.46875 6.453125 
Q 21.578125 1.125 19.828125 0.296875 
Q 17.1875 -0.921875 14.203125 -0.921875 
Q 9.578125 -0.921875 6.5625 2.25 
Q 3.5625 5.421875 3.5625 10.59375 
Q 3.5625 13.875 5.03125 16.265625 
Q 7.03125 19.578125 11.984375 22.5 
Q 16.9375 25.4375 28.46875 29.640625 
L 28.46875 31.390625 
Q 28.46875 38.09375 26.34375 40.578125 
Q 24.21875 43.0625 20.171875 43.0625 
Q 17.09375 43.0625 15.28125 41.40625 
Q 13.421875 39.75 13.421875 37.59375 
L 13.53125 34.765625 
Q 13.53125 32.515625 12.375 31.296875 
Q 11.234375 30.078125 9.375 30.078125 
Q 7.5625 30.078125 6.421875 31.34375 
Q 5.28125 32.625 5.28125 34.8125 
Q 5.28125 39.015625 9.578125 42.53125 
Q 13.875 46.046875 21.625 46.046875 
Q 27.59375 46.046875 31.390625 44.046875 
Q 34.28125 42.53125 35.640625 39.3125 
Q 36.53125 37.203125 36.53125 30.71875 
L 36.53125 15.53125 
Q 36.53125 9.125 36.765625 7.6875 
Q 37.015625 6.25 37.578125 5.765625 
Q 38.140625 5.28125 38.875 5.28125 
Q 39.65625 5.28125 40.234375 5.609375 
Q 41.265625 6.25 44.1875 9.1875 
L 44.1875 6.453125 
Q 38.71875 -0.875 33.734375 -0.875 
Q 31.34375 -0.875 29.921875 0.78125 
Q 28.515625 2.4375 28.46875 6.453125 
z
M 28.46875 9.625 
L 28.46875 26.65625 
Q 21.09375 23.734375 18.953125 22.515625 
Q 15.09375 20.359375 13.421875 18.015625 
Q 11.765625 15.671875 11.765625 12.890625 
Q 11.765625 9.375 13.859375 7.046875 
Q 15.96875 4.734375 18.703125 4.734375 
Q 22.40625 4.734375 28.46875 9.625 
z
" id="TimesNewRomanPSMT-97"/>
      <path d="M 41.109375 17 
Q 39.3125 8.15625 34.03125 3.390625 
Q 28.765625 -1.375 22.359375 -1.375 
Q 14.75 -1.375 9.078125 5.015625 
Q 3.421875 11.421875 3.421875 22.3125 
Q 3.421875 32.859375 9.6875 39.453125 
Q 15.96875 46.046875 24.75 46.046875 
Q 31.34375 46.046875 35.59375 42.546875 
Q 39.84375 39.0625 39.84375 35.296875 
Q 39.84375 33.453125 38.640625 32.296875 
Q 37.453125 31.15625 35.296875 31.15625 
Q 32.421875 31.15625 30.953125 33.015625 
Q 30.125 34.03125 29.859375 36.90625 
Q 29.59375 39.796875 27.875 41.3125 
Q 26.171875 42.78125 23.140625 42.78125 
Q 18.265625 42.78125 15.28125 39.15625 
Q 11.328125 34.375 11.328125 26.515625 
Q 11.328125 18.5 15.25 12.375 
Q 19.1875 6.25 25.875 6.25 
Q 30.671875 6.25 34.46875 9.515625 
Q 37.15625 11.765625 39.703125 17.671875 
z
" id="TimesNewRomanPSMT-99"/>
     </defs>
     <use xlink:href="#TimesNewRomanPSMT-84"/>
     <use x="61.083984" xlink:href="#TimesNewRomanPSMT-104"/>
     <use x="111.083984" xlink:href="#TimesNewRomanPSMT-101"/>
     <use x="155.46875" xlink:href="#TimesNewRomanPSMT-32"/>
     <use x="180.46875" xlink:href="#TimesNewRomanPSMT-115"/>
     <use x="219.384766" xlink:href="#TimesNewRomanPSMT-101"/>
     <use x="263.769531" xlink:href="#TimesNewRomanPSMT-114"/>
     <use x="297.070312" xlink:href="#TimesNewRomanPSMT-118"/>
     <use x="347.070312" xlink:href="#TimesNewRomanPSMT-111"/>
     <use x="397.070312" xlink:href="#TimesNewRomanPSMT-32"/>
     <use x="422.070312" xlink:href="#TimesNewRomanPSMT-112"/>
     <use x="472.070312" xlink:href="#TimesNewRomanPSMT-101"/>
     <use x="516.455078" xlink:href="#TimesNewRomanPSMT-114"/>
     <use x="549.755859" xlink:href="#TimesNewRomanPSMT-102"/>
     <use x="583.056641" xlink:href="#TimesNewRomanPSMT-111"/>
     <use x="633.056641" xlink:href="#TimesNewRomanPSMT-114"/>
     <use x="666.357422" xlink:href="#TimesNewRomanPSMT-109"/>
     <use x="744.140625" xlink:href="#TimesNewRomanPSMT-97"/>
     <use x="788.525391" xlink:href="#TimesNewRomanPSMT-110"/>
     <use x="838.525391" xlink:href="#TimesNewRomanPSMT-99"/>
     <use x="882.910156" xlink:href="#TimesNewRomanPSMT-101"/>
    </g>
   </g>
   <g id="legend_1">
    <g id="patch_7">
     <path d="M 164.28875 290.560437 
L 410.998125 290.560437 
Q 414.998125 290.560437 414.998125 286.560437 
L 414.998125 203.726062 
Q 414.998125 199.726062 410.998125 199.726062 
L 164.28875 199.726062 
Q 160.28875 199.726062 160.28875 203.726062 
L 160.28875 286.560437 
Q 160.28875 290.560437 164.28875 290.560437 
z
" style="fill:#ffffff;opacity:0.8;stroke:#cccccc;stroke-linejoin:miter;"/>
    </g>
    <g id="line2d_24">
     <path d="M 168.28875 214.726062 
L 208.28875 214.726062 
" style="fill:none;stroke:#1f77b4;stroke-linecap:square;stroke-width:1.5;"/>
    </g>
    <g id="line2d_25"/>
    <g id="text_14">
     <!-- error -->
     <g transform="translate(224.28875 221.726062)scale(0.2 -0.2)">
      <use xlink:href="#TimesNewRomanPSMT-101"/>
      <use x="44.384766" xlink:href="#TimesNewRomanPSMT-114"/>
      <use x="77.685547" xlink:href="#TimesNewRomanPSMT-114"/>
      <use x="110.986328" xlink:href="#TimesNewRomanPSMT-111"/>
      <use x="160.986328" xlink:href="#TimesNewRomanPSMT-114"/>
     </g>
    </g>
    <g id="line2d_26">
     <path d="M 168.28875 243.004188 
L 208.28875 243.004188 
" style="fill:none;stroke:#ff7f0e;stroke-linecap:square;stroke-width:1.5;"/>
    </g>
    <g id="line2d_27"/>
    <g id="text_15">
     <!-- servo commands -->
     <g transform="translate(224.28875 250.004188)scale(0.2 -0.2)">
      <defs>
       <path d="M 34.71875 5.03125 
Q 31.453125 1.609375 28.328125 0.109375 
Q 25.203125 -1.375 21.578125 -1.375 
Q 14.265625 -1.375 8.796875 4.75 
Q 3.328125 10.890625 3.328125 20.515625 
Q 3.328125 30.125 9.375 38.109375 
Q 15.4375 46.09375 24.953125 46.09375 
Q 30.859375 46.09375 34.71875 42.328125 
L 34.71875 50.59375 
Q 34.71875 58.25 34.34375 60 
Q 33.984375 61.765625 33.203125 62.390625 
Q 32.421875 63.03125 31.25 63.03125 
Q 29.984375 63.03125 27.875 62.25 
L 27.25 63.96875 
L 40.578125 69.4375 
L 42.78125 69.4375 
L 42.78125 17.71875 
Q 42.78125 9.859375 43.140625 8.125 
Q 43.5 6.390625 44.3125 5.703125 
Q 45.125 5.03125 46.1875 5.03125 
Q 47.515625 5.03125 49.703125 5.859375 
L 50.25 4.15625 
L 36.96875 -1.375 
L 34.71875 -1.375 
z
M 34.71875 8.453125 
L 34.71875 31.5 
Q 34.421875 34.8125 32.953125 37.546875 
Q 31.5 40.28125 29.078125 41.671875 
Q 26.65625 43.0625 24.359375 43.0625 
Q 20.0625 43.0625 16.703125 39.203125 
Q 12.25 34.125 12.25 24.359375 
Q 12.25 14.5 16.546875 9.25 
Q 20.84375 4 26.125 4 
Q 30.5625 4 34.71875 8.453125 
z
" id="TimesNewRomanPSMT-100"/>
      </defs>
      <use xlink:href="#TimesNewRomanPSMT-115"/>
      <use x="38.916016" xlink:href="#TimesNewRomanPSMT-101"/>
      <use x="83.300781" xlink:href="#TimesNewRomanPSMT-114"/>
      <use x="116.601562" xlink:href="#TimesNewRomanPSMT-118"/>
      <use x="166.601562" xlink:href="#TimesNewRomanPSMT-111"/>
      <use x="216.601562" xlink:href="#TimesNewRomanPSMT-32"/>
      <use x="241.601562" xlink:href="#TimesNewRomanPSMT-99"/>
      <use x="285.986328" xlink:href="#TimesNewRomanPSMT-111"/>
      <use x="335.986328" xlink:href="#TimesNewRomanPSMT-109"/>
      <use x="413.769531" xlink:href="#TimesNewRomanPSMT-109"/>
      <use x="491.552734" xlink:href="#TimesNewRomanPSMT-97"/>
      <use x="535.9375" xlink:href="#TimesNewRomanPSMT-110"/>
      <use x="585.9375" xlink:href="#TimesNewRomanPSMT-100"/>
      <use x="635.9375" xlink:href="#TimesNewRomanPSMT-115"/>
     </g>
    </g>
    <g id="line2d_28">
     <path d="M 168.28875 271.282312 
L 208.28875 271.282312 
" style="fill:none;stroke:#2ca02c;stroke-linecap:square;stroke-width:1.5;"/>
    </g>
    <g id="line2d_29"/>
    <g id="text_16">
     <!-- Theoretical commands -->
     <g transform="translate(224.28875 278.282312)scale(0.2 -0.2)">
      <defs>
       <path d="M 16.109375 59.421875 
L 16.109375 44.734375 
L 26.5625 44.734375 
L 26.5625 41.3125 
L 16.109375 41.3125 
L 16.109375 12.3125 
Q 16.109375 7.953125 17.359375 6.4375 
Q 18.609375 4.9375 20.5625 4.9375 
Q 22.171875 4.9375 23.6875 5.9375 
Q 25.203125 6.9375 26.03125 8.890625 
L 27.9375 8.890625 
Q 26.21875 4.109375 23.09375 1.6875 
Q 19.96875 -0.734375 16.65625 -0.734375 
Q 14.40625 -0.734375 12.25 0.515625 
Q 10.109375 1.765625 9.078125 4.078125 
Q 8.0625 6.390625 8.0625 11.234375 
L 8.0625 41.3125 
L 0.984375 41.3125 
L 0.984375 42.921875 
Q 3.65625 44 6.46875 46.5625 
Q 9.28125 49.125 11.46875 52.640625 
Q 12.59375 54.5 14.59375 59.421875 
z
" id="TimesNewRomanPSMT-116"/>
      </defs>
      <use xlink:href="#TimesNewRomanPSMT-84"/>
      <use x="61.083984" xlink:href="#TimesNewRomanPSMT-104"/>
      <use x="111.083984" xlink:href="#TimesNewRomanPSMT-101"/>
      <use x="155.46875" xlink:href="#TimesNewRomanPSMT-111"/>
      <use x="205.46875" xlink:href="#TimesNewRomanPSMT-114"/>
      <use x="238.769531" xlink:href="#TimesNewRomanPSMT-101"/>
      <use x="283.154297" xlink:href="#TimesNewRomanPSMT-116"/>
      <use x="310.9375" xlink:href="#TimesNewRomanPSMT-105"/>
      <use x="338.720703" xlink:href="#TimesNewRomanPSMT-99"/>
      <use x="383.105469" xlink:href="#TimesNewRomanPSMT-97"/>
      <use x="427.490234" xlink:href="#TimesNewRomanPSMT-108"/>
      <use x="455.273438" xlink:href="#TimesNewRomanPSMT-32"/>
      <use x="480.273438" xlink:href="#TimesNewRomanPSMT-99"/>
      <use x="524.658203" xlink:href="#TimesNewRomanPSMT-111"/>
      <use x="574.658203" xlink:href="#TimesNewRomanPSMT-109"/>
      <use x="652.441406" xlink:href="#TimesNewRomanPSMT-109"/>
      <use x="730.224609" xlink:href="#TimesNewRomanPSMT-97"/>
      <use x="774.609375" xlink:href="#TimesNewRomanPSMT-110"/>
      <use x="824.609375" xlink:href="#TimesNewRomanPSMT-100"/>
      <use x="874.609375" xlink:href="#TimesNewRomanPSMT-115"/>
     </g>
    </g>
   </g>
  </g>
 </g>
 <defs>
  <clipPath id="pb0a2c30178">
   <rect height="266.112" width="357.12" x="67.878125" y="34.448437"/>
  </clipPath>
 </defs>
</svg>
