<?xml version="1.0" encoding="utf-8" standalone="no"?>
<!DOCTYPE svg PUBLIC "-//W3C//DTD SVG 1.1//EN"
  "http://www.w3.org/Graphics/SVG/1.1/DTD/svg11.dtd">
<!-- Created with matplotlib (https://matplotlib.org/) -->
<svg height="355.091687pt" version="1.1" viewBox="0 0 432.198125 355.091687" width="432.198125pt" xmlns="http://www.w3.org/2000/svg" xmlns:xlink="http://www.w3.org/1999/xlink">
 <metadata>
  <rdf:RDF xmlns:cc="http://creativecommons.org/ns#" xmlns:dc="http://purl.org/dc/elements/1.1/" xmlns:rdf="http://www.w3.org/1999/02/22-rdf-syntax-ns#">
   <cc:Work>
    <dc:type rdf:resource="http://purl.org/dc/dcmitype/StillImage"/>
    <dc:date>2022-02-22T15:06:50.020787</dc:date>
    <dc:format>image/svg+xml</dc:format>
    <dc:creator>
     <cc:Agent>
      <dc:title>Matplotlib v3.3.4, https://matplotlib.org/</dc:title>
     </cc:Agent>
    </dc:creator>
   </cc:Work>
  </rdf:RDF>
 </metadata>
 <defs>
  <style type="text/css">*{stroke-linecap:butt;stroke-linejoin:round;}</style>
 </defs>
 <g id="figure_1">
  <g id="patch_1">
   <path d="M 0 355.091687 
L 432.198125 355.091687 
L 432.198125 0 
L 0 0 
z
" style="fill:#ffffff;"/>
  </g>
  <g id="axes_1">
   <g id="patch_2">
    <path d="M 67.878125 300.560437 
L 424.998125 300.560437 
L 424.998125 34.448437 
L 67.878125 34.448437 
z
" style="fill:#ffffff;"/>
   </g>
   <g id="matplotlib.axis_1">
    <g id="xtick_1">
     <g id="line2d_1">
      <path clip-path="url(#p103750eed8)" d="M 84.001625 300.560437 
L 84.001625 34.448437 
" style="fill:none;stroke:#b0b0b0;stroke-linecap:square;stroke-width:0.8;"/>
     </g>
     <g id="line2d_2">
      <defs>
       <path d="M 0 0 
L 0 3.5 
" id="m5a5c8be3be" style="stroke:#000000;stroke-width:0.8;"/>
      </defs>
      <g>
       <use style="stroke:#000000;stroke-width:0.8;" x="84.001625" xlink:href="#m5a5c8be3be" y="300.560437"/>
      </g>
     </g>
     <g id="text_1">
      <!-- 0 -->
      <g transform="translate(79.001625 321.447937)scale(0.2 -0.2)">
       <defs>
        <path d="M 3.609375 32.71875 
Q 3.609375 44.046875 7.03125 52.21875 
Q 10.453125 60.40625 16.109375 64.40625 
Q 20.515625 67.578125 25.203125 67.578125 
Q 32.8125 67.578125 38.875 59.8125 
Q 46.4375 50.203125 46.4375 33.734375 
Q 46.4375 22.21875 43.109375 14.15625 
Q 39.796875 6.109375 34.640625 2.46875 
Q 29.5 -1.171875 24.703125 -1.171875 
Q 15.234375 -1.171875 8.9375 10.015625 
Q 3.609375 19.4375 3.609375 32.71875 
z
M 13.1875 31.5 
Q 13.1875 17.828125 16.546875 9.1875 
Q 19.34375 1.90625 24.859375 1.90625 
Q 27.484375 1.90625 30.3125 4.265625 
Q 33.15625 6.640625 34.625 12.203125 
Q 36.859375 20.609375 36.859375 35.890625 
Q 36.859375 47.21875 34.515625 54.78125 
Q 32.765625 60.40625 29.984375 62.75 
Q 27.984375 64.359375 25.140625 64.359375 
Q 21.828125 64.359375 19.234375 61.375 
Q 15.71875 57.328125 14.453125 48.625 
Q 13.1875 39.9375 13.1875 31.5 
z
" id="TimesNewRomanPSMT-48"/>
       </defs>
       <use xlink:href="#TimesNewRomanPSMT-48"/>
      </g>
     </g>
    </g>
    <g id="xtick_2">
     <g id="line2d_3">
      <path clip-path="url(#p103750eed8)" d="M 200.886827 300.560437 
L 200.886827 34.448437 
" style="fill:none;stroke:#b0b0b0;stroke-linecap:square;stroke-width:0.8;"/>
     </g>
     <g id="line2d_4">
      <g>
       <use style="stroke:#000000;stroke-width:0.8;" x="200.886827" xlink:href="#m5a5c8be3be" y="300.560437"/>
      </g>
     </g>
     <g id="text_2">
      <!-- 2 -->
      <g transform="translate(195.886827 321.447937)scale(0.2 -0.2)">
       <defs>
        <path d="M 45.84375 12.75 
L 41.21875 0 
L 2.15625 0 
L 2.15625 1.8125 
Q 19.390625 17.53125 26.421875 27.484375 
Q 33.453125 37.453125 33.453125 45.703125 
Q 33.453125 52 29.59375 56.046875 
Q 25.734375 60.109375 20.359375 60.109375 
Q 15.484375 60.109375 11.59375 57.25 
Q 7.71875 54.390625 5.859375 48.875 
L 4.046875 48.875 
Q 5.28125 57.90625 10.328125 62.734375 
Q 15.375 67.578125 22.953125 67.578125 
Q 31 67.578125 36.390625 62.40625 
Q 41.796875 57.234375 41.796875 50.203125 
Q 41.796875 45.171875 39.453125 40.140625 
Q 35.84375 32.234375 27.734375 23.390625 
Q 15.578125 10.109375 12.546875 7.375 
L 29.828125 7.375 
Q 35.109375 7.375 37.234375 7.765625 
Q 39.359375 8.15625 41.0625 9.34375 
Q 42.78125 10.546875 44.046875 12.75 
z
" id="TimesNewRomanPSMT-50"/>
       </defs>
       <use xlink:href="#TimesNewRomanPSMT-50"/>
      </g>
     </g>
    </g>
    <g id="xtick_3">
     <g id="line2d_5">
      <path clip-path="url(#p103750eed8)" d="M 317.772028 300.560437 
L 317.772028 34.448437 
" style="fill:none;stroke:#b0b0b0;stroke-linecap:square;stroke-width:0.8;"/>
     </g>
     <g id="line2d_6">
      <g>
       <use style="stroke:#000000;stroke-width:0.8;" x="317.772028" xlink:href="#m5a5c8be3be" y="300.560437"/>
      </g>
     </g>
     <g id="text_3">
      <!-- 4 -->
      <g transform="translate(312.772028 321.447937)scale(0.2 -0.2)">
       <defs>
        <path d="M 46.53125 24.421875 
L 46.53125 17.484375 
L 37.640625 17.484375 
L 37.640625 0 
L 29.59375 0 
L 29.59375 17.484375 
L 1.5625 17.484375 
L 1.5625 23.734375 
L 32.28125 67.578125 
L 37.640625 67.578125 
L 37.640625 24.421875 
z
M 29.59375 24.421875 
L 29.59375 57.28125 
L 6.34375 24.421875 
z
" id="TimesNewRomanPSMT-52"/>
       </defs>
       <use xlink:href="#TimesNewRomanPSMT-52"/>
      </g>
     </g>
    </g>
    <g id="text_4">
     <!-- Time [s] -->
     <g transform="translate(212.633438 343.613563)scale(0.2 -0.2)">
      <defs>
       <path d="M 57.859375 66.21875 
L 58.59375 50.6875 
L 56.734375 50.6875 
Q 56.203125 54.78125 55.28125 56.546875 
Q 53.765625 59.375 51.25 60.71875 
Q 48.734375 62.0625 44.625 62.0625 
L 35.296875 62.0625 
L 35.296875 11.46875 
Q 35.296875 5.375 36.625 3.859375 
Q 38.484375 1.8125 42.328125 1.8125 
L 44.625 1.8125 
L 44.625 0 
L 16.546875 0 
L 16.546875 1.8125 
L 18.890625 1.8125 
Q 23.09375 1.8125 24.859375 4.34375 
Q 25.921875 5.90625 25.921875 11.46875 
L 25.921875 62.0625 
L 17.96875 62.0625 
Q 13.328125 62.0625 11.375 61.375 
Q 8.84375 60.453125 7.03125 57.8125 
Q 5.21875 55.171875 4.890625 50.6875 
L 3.03125 50.6875 
L 3.8125 66.21875 
z
" id="TimesNewRomanPSMT-84"/>
       <path d="M 14.5 69.4375 
Q 16.546875 69.4375 17.984375 67.984375 
Q 19.4375 66.546875 19.4375 64.5 
Q 19.4375 62.453125 17.984375 60.984375 
Q 16.546875 59.515625 14.5 59.515625 
Q 12.453125 59.515625 10.984375 60.984375 
Q 9.515625 62.453125 9.515625 64.5 
Q 9.515625 66.546875 10.953125 67.984375 
Q 12.40625 69.4375 14.5 69.4375 
z
M 18.5625 46.046875 
L 18.5625 10.109375 
Q 18.5625 5.90625 19.171875 4.515625 
Q 19.78125 3.125 20.96875 2.4375 
Q 22.171875 1.765625 25.34375 1.765625 
L 25.34375 0 
L 3.609375 0 
L 3.609375 1.765625 
Q 6.890625 1.765625 8 2.390625 
Q 9.125 3.03125 9.78125 4.484375 
Q 10.453125 5.953125 10.453125 10.109375 
L 10.453125 27.34375 
Q 10.453125 34.625 10.015625 36.765625 
Q 9.671875 38.328125 8.9375 38.9375 
Q 8.203125 39.546875 6.9375 39.546875 
Q 5.5625 39.546875 3.609375 38.8125 
L 2.9375 40.578125 
L 16.40625 46.046875 
z
" id="TimesNewRomanPSMT-105"/>
       <path d="M 16.40625 36.53125 
Q 21.296875 41.40625 22.171875 42.140625 
Q 24.359375 44 26.890625 45.015625 
Q 29.4375 46.046875 31.9375 46.046875 
Q 36.140625 46.046875 39.15625 43.59375 
Q 42.1875 41.15625 43.21875 36.53125 
Q 48.25 42.390625 51.703125 44.21875 
Q 55.171875 46.046875 58.84375 46.046875 
Q 62.40625 46.046875 65.15625 44.21875 
Q 67.921875 42.390625 69.53125 38.234375 
Q 70.609375 35.40625 70.609375 29.34375 
L 70.609375 10.109375 
Q 70.609375 5.90625 71.234375 4.34375 
Q 71.734375 3.265625 73.046875 2.515625 
Q 74.359375 1.765625 77.34375 1.765625 
L 77.34375 0 
L 55.28125 0 
L 55.28125 1.765625 
L 56.203125 1.765625 
Q 59.078125 1.765625 60.6875 2.875 
Q 61.8125 3.65625 62.3125 5.375 
Q 62.5 6.203125 62.5 10.109375 
L 62.5 29.34375 
Q 62.5 34.8125 61.1875 37.0625 
Q 59.28125 40.1875 55.078125 40.1875 
Q 52.484375 40.1875 49.875 38.890625 
Q 47.265625 37.59375 43.5625 34.078125 
L 43.453125 33.546875 
L 43.5625 31.453125 
L 43.5625 10.109375 
Q 43.5625 5.515625 44.0625 4.390625 
Q 44.578125 3.265625 45.984375 2.515625 
Q 47.40625 1.765625 50.828125 1.765625 
L 50.828125 0 
L 28.21875 0 
L 28.21875 1.765625 
Q 31.9375 1.765625 33.328125 2.640625 
Q 34.71875 3.515625 35.25 5.28125 
Q 35.5 6.109375 35.5 10.109375 
L 35.5 29.34375 
Q 35.5 34.8125 33.890625 37.203125 
Q 31.734375 40.328125 27.875 40.328125 
Q 25.25 40.328125 22.65625 38.921875 
Q 18.609375 36.765625 16.40625 34.078125 
L 16.40625 10.109375 
Q 16.40625 5.71875 17.015625 4.390625 
Q 17.625 3.078125 18.8125 2.421875 
Q 20.015625 1.765625 23.6875 1.765625 
L 23.6875 0 
L 1.5625 0 
L 1.5625 1.765625 
Q 4.640625 1.765625 5.859375 2.421875 
Q 7.078125 3.078125 7.703125 4.515625 
Q 8.34375 5.953125 8.34375 10.109375 
L 8.34375 27.203125 
Q 8.34375 34.578125 7.90625 36.71875 
Q 7.5625 38.328125 6.828125 38.9375 
Q 6.109375 39.546875 4.828125 39.546875 
Q 3.46875 39.546875 1.5625 38.8125 
L 0.828125 40.578125 
L 14.3125 46.046875 
L 16.40625 46.046875 
z
" id="TimesNewRomanPSMT-109"/>
       <path d="M 10.640625 27.875 
Q 10.59375 17.921875 15.484375 12.25 
Q 20.359375 6.59375 26.953125 6.59375 
Q 31.34375 6.59375 34.59375 9 
Q 37.84375 11.421875 40.046875 17.28125 
L 41.546875 16.3125 
Q 40.53125 9.625 35.59375 4.125 
Q 30.671875 -1.375 23.25 -1.375 
Q 15.1875 -1.375 9.453125 4.90625 
Q 3.71875 11.1875 3.71875 21.78125 
Q 3.71875 33.25 9.59375 39.671875 
Q 15.484375 46.09375 24.359375 46.09375 
Q 31.890625 46.09375 36.71875 41.140625 
Q 41.546875 36.1875 41.546875 27.875 
z
M 10.640625 30.71875 
L 31.34375 30.71875 
Q 31.109375 35.015625 30.328125 36.765625 
Q 29.109375 39.5 26.6875 41.0625 
Q 24.265625 42.625 21.625 42.625 
Q 17.578125 42.625 14.375 39.46875 
Q 11.1875 36.328125 10.640625 30.71875 
z
" id="TimesNewRomanPSMT-101"/>
       <path id="TimesNewRomanPSMT-32"/>
       <path d="M 29.6875 -19.828125 
L 8.203125 -19.828125 
L 8.203125 67.71875 
L 29.6875 67.71875 
L 29.6875 63.875 
L 15.53125 63.875 
L 15.53125 -16.015625 
L 29.6875 -16.015625 
z
" id="TimesNewRomanPSMT-91"/>
       <path d="M 32.03125 46.046875 
L 32.03125 30.8125 
L 30.421875 30.8125 
Q 28.5625 37.984375 25.65625 40.578125 
Q 22.75 43.171875 18.265625 43.171875 
Q 14.84375 43.171875 12.734375 41.359375 
Q 10.640625 39.546875 10.640625 37.359375 
Q 10.640625 34.625 12.203125 32.671875 
Q 13.71875 30.671875 18.359375 28.421875 
L 25.484375 24.953125 
Q 35.40625 20.125 35.40625 12.203125 
Q 35.40625 6.109375 30.78125 2.359375 
Q 26.171875 -1.375 20.453125 -1.375 
Q 16.359375 -1.375 11.078125 0.09375 
Q 9.46875 0.59375 8.453125 0.59375 
Q 7.328125 0.59375 6.6875 -0.6875 
L 5.078125 -0.6875 
L 5.078125 15.28125 
L 6.6875 15.28125 
Q 8.0625 8.453125 11.90625 4.984375 
Q 15.765625 1.515625 20.5625 1.515625 
Q 23.921875 1.515625 26.046875 3.484375 
Q 28.171875 5.46875 28.171875 8.25 
Q 28.171875 11.625 25.796875 13.921875 
Q 23.4375 16.21875 16.359375 19.734375 
Q 9.28125 23.25 7.078125 26.078125 
Q 4.890625 28.859375 4.890625 33.109375 
Q 4.890625 38.625 8.671875 42.328125 
Q 12.453125 46.046875 18.453125 46.046875 
Q 21.09375 46.046875 24.859375 44.921875 
Q 27.34375 44.1875 28.171875 44.1875 
Q 28.953125 44.1875 29.390625 44.53125 
Q 29.828125 44.875 30.421875 46.046875 
z
" id="TimesNewRomanPSMT-115"/>
       <path d="M 3.65625 67.71875 
L 25.140625 67.71875 
L 25.140625 -19.875 
L 3.65625 -19.875 
L 3.65625 -16.015625 
L 17.828125 -16.015625 
L 17.828125 63.875 
L 3.65625 63.875 
z
" id="TimesNewRomanPSMT-93"/>
      </defs>
      <use xlink:href="#TimesNewRomanPSMT-84"/>
      <use x="57.583984" xlink:href="#TimesNewRomanPSMT-105"/>
      <use x="85.367188" xlink:href="#TimesNewRomanPSMT-109"/>
      <use x="163.150391" xlink:href="#TimesNewRomanPSMT-101"/>
      <use x="207.535156" xlink:href="#TimesNewRomanPSMT-32"/>
      <use x="232.535156" xlink:href="#TimesNewRomanPSMT-91"/>
      <use x="265.835938" xlink:href="#TimesNewRomanPSMT-115"/>
      <use x="304.751953" xlink:href="#TimesNewRomanPSMT-93"/>
     </g>
    </g>
   </g>
   <g id="matplotlib.axis_2">
    <g id="ytick_1">
     <g id="line2d_7">
      <path clip-path="url(#p103750eed8)" d="M 67.878125 295.882982 
L 424.998125 295.882982 
" style="fill:none;stroke:#b0b0b0;stroke-linecap:square;stroke-width:0.8;"/>
     </g>
     <g id="line2d_8">
      <defs>
       <path d="M 0 0 
L -3.5 0 
" id="m2318cef63b" style="stroke:#000000;stroke-width:0.8;"/>
      </defs>
      <g>
       <use style="stroke:#000000;stroke-width:0.8;" x="67.878125" xlink:href="#m2318cef63b" y="295.882982"/>
      </g>
     </g>
     <g id="text_5">
      <!-- −60 -->
      <g transform="translate(29.6 302.826732)scale(0.2 -0.2)">
       <defs>
        <path d="M 54.4375 31.25 
L 1.8125 31.25 
L 1.8125 35.25 
L 54.4375 35.25 
z
" id="TimesNewRomanPSMT-8722"/>
        <path d="M 44.828125 67.578125 
L 44.828125 65.765625 
Q 38.375 65.140625 34.296875 63.203125 
Q 30.21875 61.28125 26.234375 57.328125 
Q 22.265625 53.375 19.65625 48.515625 
Q 17.046875 43.65625 15.28125 36.96875 
Q 22.3125 41.796875 29.390625 41.796875 
Q 36.1875 41.796875 41.15625 36.328125 
Q 46.140625 30.859375 46.140625 22.265625 
Q 46.140625 13.96875 41.109375 7.125 
Q 35.0625 -1.171875 25.09375 -1.171875 
Q 18.3125 -1.171875 13.578125 3.328125 
Q 4.296875 12.0625 4.296875 25.984375 
Q 4.296875 34.859375 7.859375 42.859375 
Q 11.421875 50.875 18.03125 57.078125 
Q 24.65625 63.28125 30.703125 65.421875 
Q 36.765625 67.578125 42 67.578125 
z
M 14.453125 33.40625 
Q 13.578125 26.8125 13.578125 22.75 
Q 13.578125 18.0625 15.3125 12.5625 
Q 17.046875 7.078125 20.453125 3.859375 
Q 22.953125 1.5625 26.515625 1.5625 
Q 30.765625 1.5625 34.109375 5.5625 
Q 37.453125 9.578125 37.453125 17 
Q 37.453125 25.34375 34.125 31.4375 
Q 30.8125 37.546875 24.703125 37.546875 
Q 22.859375 37.546875 20.734375 36.765625 
Q 18.609375 35.984375 14.453125 33.40625 
z
" id="TimesNewRomanPSMT-54"/>
       </defs>
       <use xlink:href="#TimesNewRomanPSMT-8722"/>
       <use x="56.396484" xlink:href="#TimesNewRomanPSMT-54"/>
       <use x="106.396484" xlink:href="#TimesNewRomanPSMT-48"/>
      </g>
     </g>
    </g>
    <g id="ytick_2">
     <g id="line2d_9">
      <path clip-path="url(#p103750eed8)" d="M 67.878125 250.473585 
L 424.998125 250.473585 
" style="fill:none;stroke:#b0b0b0;stroke-linecap:square;stroke-width:0.8;"/>
     </g>
     <g id="line2d_10">
      <g>
       <use style="stroke:#000000;stroke-width:0.8;" x="67.878125" xlink:href="#m2318cef63b" y="250.473585"/>
      </g>
     </g>
     <g id="text_6">
      <!-- −40 -->
      <g transform="translate(29.6 257.417335)scale(0.2 -0.2)">
       <use xlink:href="#TimesNewRomanPSMT-8722"/>
       <use x="56.396484" xlink:href="#TimesNewRomanPSMT-52"/>
       <use x="106.396484" xlink:href="#TimesNewRomanPSMT-48"/>
      </g>
     </g>
    </g>
    <g id="ytick_3">
     <g id="line2d_11">
      <path clip-path="url(#p103750eed8)" d="M 67.878125 205.064188 
L 424.998125 205.064188 
" style="fill:none;stroke:#b0b0b0;stroke-linecap:square;stroke-width:0.8;"/>
     </g>
     <g id="line2d_12">
      <g>
       <use style="stroke:#000000;stroke-width:0.8;" x="67.878125" xlink:href="#m2318cef63b" y="205.064188"/>
      </g>
     </g>
     <g id="text_7">
      <!-- −20 -->
      <g transform="translate(29.6 212.007938)scale(0.2 -0.2)">
       <use xlink:href="#TimesNewRomanPSMT-8722"/>
       <use x="56.396484" xlink:href="#TimesNewRomanPSMT-50"/>
       <use x="106.396484" xlink:href="#TimesNewRomanPSMT-48"/>
      </g>
     </g>
    </g>
    <g id="ytick_4">
     <g id="line2d_13">
      <path clip-path="url(#p103750eed8)" d="M 67.878125 159.654791 
L 424.998125 159.654791 
" style="fill:none;stroke:#b0b0b0;stroke-linecap:square;stroke-width:0.8;"/>
     </g>
     <g id="line2d_14">
      <g>
       <use style="stroke:#000000;stroke-width:0.8;" x="67.878125" xlink:href="#m2318cef63b" y="159.654791"/>
      </g>
     </g>
     <g id="text_8">
      <!-- 0 -->
      <g transform="translate(50.878125 166.598541)scale(0.2 -0.2)">
       <use xlink:href="#TimesNewRomanPSMT-48"/>
      </g>
     </g>
    </g>
    <g id="ytick_5">
     <g id="line2d_15">
      <path clip-path="url(#p103750eed8)" d="M 67.878125 114.245394 
L 424.998125 114.245394 
" style="fill:none;stroke:#b0b0b0;stroke-linecap:square;stroke-width:0.8;"/>
     </g>
     <g id="line2d_16">
      <g>
       <use style="stroke:#000000;stroke-width:0.8;" x="67.878125" xlink:href="#m2318cef63b" y="114.245394"/>
      </g>
     </g>
     <g id="text_9">
      <!-- 20 -->
      <g transform="translate(40.878125 121.189144)scale(0.2 -0.2)">
       <use xlink:href="#TimesNewRomanPSMT-50"/>
       <use x="50" xlink:href="#TimesNewRomanPSMT-48"/>
      </g>
     </g>
    </g>
    <g id="ytick_6">
     <g id="line2d_17">
      <path clip-path="url(#p103750eed8)" d="M 67.878125 68.835997 
L 424.998125 68.835997 
" style="fill:none;stroke:#b0b0b0;stroke-linecap:square;stroke-width:0.8;"/>
     </g>
     <g id="line2d_18">
      <g>
       <use style="stroke:#000000;stroke-width:0.8;" x="67.878125" xlink:href="#m2318cef63b" y="68.835997"/>
      </g>
     </g>
     <g id="text_10">
      <!-- 40 -->
      <g transform="translate(40.878125 75.779747)scale(0.2 -0.2)">
       <use xlink:href="#TimesNewRomanPSMT-52"/>
       <use x="50" xlink:href="#TimesNewRomanPSMT-48"/>
      </g>
     </g>
    </g>
    <g id="text_11">
     <!-- Angle [$^\circ$] -->
     <g transform="translate(21.2 206.204437)rotate(-90)scale(0.2 -0.2)">
      <defs>
       <path d="M 45.75 22.171875 
L 20.125 22.171875 
L 15.625 11.71875 
Q 13.96875 7.859375 13.96875 5.953125 
Q 13.96875 4.4375 15.40625 3.296875 
Q 16.84375 2.15625 21.625 1.8125 
L 21.625 0 
L 0.78125 0 
L 0.78125 1.8125 
Q 4.9375 2.546875 6.15625 3.71875 
Q 8.640625 6.0625 11.671875 13.234375 
L 34.96875 67.71875 
L 36.671875 67.71875 
L 59.71875 12.640625 
Q 62.5 6 64.765625 4.015625 
Q 67.046875 2.046875 71.09375 1.8125 
L 71.09375 0 
L 44.96875 0 
L 44.96875 1.8125 
Q 48.921875 2 50.3125 3.125 
Q 51.703125 4.25 51.703125 5.859375 
Q 51.703125 8.015625 49.75 12.640625 
z
M 44.390625 25.78125 
L 33.15625 52.546875 
L 21.625 25.78125 
z
" id="TimesNewRomanPSMT-65"/>
       <path d="M 16.15625 36.578125 
Q 24.03125 46.046875 31.15625 46.046875 
Q 34.8125 46.046875 37.453125 44.21875 
Q 40.09375 42.390625 41.65625 38.1875 
Q 42.71875 35.25 42.71875 29.203125 
L 42.71875 10.109375 
Q 42.71875 5.859375 43.40625 4.34375 
Q 43.953125 3.125 45.140625 2.4375 
Q 46.34375 1.765625 49.5625 1.765625 
L 49.5625 0 
L 27.4375 0 
L 27.4375 1.765625 
L 28.375 1.765625 
Q 31.5 1.765625 32.734375 2.703125 
Q 33.984375 3.65625 34.46875 5.515625 
Q 34.671875 6.25 34.671875 10.109375 
L 34.671875 28.421875 
Q 34.671875 34.515625 33.078125 37.28125 
Q 31.5 40.046875 27.734375 40.046875 
Q 21.921875 40.046875 16.15625 33.6875 
L 16.15625 10.109375 
Q 16.15625 5.5625 16.703125 4.5 
Q 17.390625 3.078125 18.578125 2.421875 
Q 19.78125 1.765625 23.4375 1.765625 
L 23.4375 0 
L 1.3125 0 
L 1.3125 1.765625 
L 2.296875 1.765625 
Q 5.71875 1.765625 6.90625 3.484375 
Q 8.109375 5.21875 8.109375 10.109375 
L 8.109375 26.703125 
Q 8.109375 34.765625 7.734375 36.515625 
Q 7.375 38.28125 6.609375 38.90625 
Q 5.859375 39.546875 4.59375 39.546875 
Q 3.21875 39.546875 1.3125 38.8125 
L 0.59375 40.578125 
L 14.0625 46.046875 
L 16.15625 46.046875 
z
" id="TimesNewRomanPSMT-110"/>
       <path d="M 15.09375 16.3125 
Q 10.984375 18.3125 8.78125 21.890625 
Q 6.59375 25.484375 6.59375 29.828125 
Q 6.59375 36.46875 11.59375 41.25 
Q 16.609375 46.046875 24.421875 46.046875 
Q 30.8125 46.046875 35.5 42.921875 
L 44.96875 42.921875 
Q 47.078125 42.921875 47.40625 42.796875 
Q 47.75 42.671875 47.90625 42.390625 
Q 48.1875 41.9375 48.1875 40.828125 
Q 48.1875 39.546875 47.953125 39.0625 
Q 47.796875 38.8125 47.4375 38.671875 
Q 47.078125 38.53125 44.96875 38.53125 
L 39.15625 38.53125 
Q 41.890625 35.015625 41.890625 29.546875 
Q 41.890625 23.296875 37.109375 18.84375 
Q 32.328125 14.40625 24.265625 14.40625 
Q 20.953125 14.40625 17.484375 15.375 
Q 15.328125 13.53125 14.5625 12.140625 
Q 13.8125 10.75 13.8125 9.765625 
Q 13.8125 8.9375 14.625 8.15625 
Q 15.4375 7.375 17.78125 7.03125 
Q 19.140625 6.84375 24.609375 6.6875 
Q 34.671875 6.453125 37.640625 6 
Q 42.1875 5.375 44.890625 2.640625 
Q 47.609375 -0.09375 47.609375 -4.109375 
Q 47.609375 -9.625 42.4375 -14.453125 
Q 34.8125 -21.578125 22.5625 -21.578125 
Q 13.140625 -21.578125 6.640625 -17.328125 
Q 2.984375 -14.890625 2.984375 -12.25 
Q 2.984375 -11.078125 3.515625 -9.90625 
Q 4.34375 -8.109375 6.9375 -4.890625 
Q 7.28125 -4.4375 11.921875 0.390625 
Q 9.375 1.90625 8.328125 3.09375 
Q 7.28125 4.296875 7.28125 5.8125 
Q 7.28125 7.515625 8.671875 9.8125 
Q 10.0625 12.109375 15.09375 16.3125 
z
M 23.578125 43.703125 
Q 19.96875 43.703125 17.53125 40.8125 
Q 15.09375 37.9375 15.09375 31.984375 
Q 15.09375 24.265625 18.40625 20.015625 
Q 20.953125 16.796875 24.859375 16.796875 
Q 28.5625 16.796875 30.953125 19.578125 
Q 33.34375 22.359375 33.34375 28.328125 
Q 33.34375 36.078125 29.984375 40.484375 
Q 27.484375 43.703125 23.578125 43.703125 
z
M 14.59375 0 
Q 12.3125 -2.484375 11.140625 -4.625 
Q 9.96875 -6.78125 9.96875 -8.59375 
Q 9.96875 -10.9375 12.796875 -12.703125 
Q 17.671875 -15.71875 26.90625 -15.71875 
Q 35.6875 -15.71875 39.859375 -12.609375 
Q 44.046875 -9.515625 44.046875 -6 
Q 44.046875 -3.46875 41.546875 -2.390625 
Q 39.015625 -1.3125 31.5 -1.125 
Q 20.515625 -0.828125 14.59375 0 
z
" id="TimesNewRomanPSMT-103"/>
       <path d="M 18.5 69.4375 
L 18.5 10.109375 
Q 18.5 5.90625 19.109375 4.53125 
Q 19.734375 3.171875 21 2.46875 
Q 22.265625 1.765625 25.734375 1.765625 
L 25.734375 0 
L 3.8125 0 
L 3.8125 1.765625 
Q 6.890625 1.765625 8 2.390625 
Q 9.125 3.03125 9.765625 4.484375 
Q 10.40625 5.953125 10.40625 10.109375 
L 10.40625 50.734375 
Q 10.40625 58.296875 10.0625 60.03125 
Q 9.71875 61.765625 8.953125 62.390625 
Q 8.203125 63.03125 7.03125 63.03125 
Q 5.765625 63.03125 3.8125 62.25 
L 2.984375 63.96875 
L 16.3125 69.4375 
z
" id="TimesNewRomanPSMT-108"/>
       <path d="M 23.203125 38.703125 
Q 31 30.796875 31 25.1875 
Q 31 19.59375 27.046875 15.640625 
Q 23.09375 11.703125 17.5 11.703125 
Q 11.796875 11.703125 7.890625 15.640625 
Q 4 19.59375 4 25.40625 
Q 4 31 7.953125 34.84375 
Q 11.90625 38.703125 17.703125 38.703125 
Q 23.203125 38.703125 31 30.796875 
z
M 20.40625 18.296875 
Q 24.40625 22.296875 24.40625 25.1875 
Q 24.40625 28.09375 22.40625 30.09375 
Q 20.40625 32.09375 17.703125 32.09375 
Q 14.59375 32.09375 12.59375 30.140625 
Q 10.59375 28.203125 10.59375 25.40625 
Q 10.59375 22.296875 12.546875 20.296875 
Q 14.5 18.296875 17.5 18.296875 
Q 20.40625 18.296875 24.40625 22.296875 
z
" id="STIXGeneral-Regular-8728"/>
      </defs>
      <use transform="translate(0 0.5625)" xlink:href="#TimesNewRomanPSMT-65"/>
      <use transform="translate(72.216797 0.5625)" xlink:href="#TimesNewRomanPSMT-110"/>
      <use transform="translate(122.216797 0.5625)" xlink:href="#TimesNewRomanPSMT-103"/>
      <use transform="translate(172.216797 0.5625)" xlink:href="#TimesNewRomanPSMT-108"/>
      <use transform="translate(200 0.5625)" xlink:href="#TimesNewRomanPSMT-101"/>
      <use transform="translate(244.384766 0.5625)" xlink:href="#TimesNewRomanPSMT-32"/>
      <use transform="translate(269.384766 0.5625)" xlink:href="#TimesNewRomanPSMT-91"/>
      <use transform="translate(314.336826 35.8375)scale(0.7)" xlink:href="#STIXGeneral-Regular-8728"/>
      <use transform="translate(353.354187 0.5625)" xlink:href="#TimesNewRomanPSMT-93"/>
     </g>
    </g>
   </g>
   <g id="line2d_19">
    <path clip-path="url(#p103750eed8)" d="M 84.110852 174.024853 
L 85.081801 176.898866 
L 85.916562 200.96872 
L 88.71001 200.96872 
L 104.839361 169.713835 
L 106.75969 146.003232 
L 107.708428 138.8182 
L 108.684115 136.662691 
L 109.607717 137.021943 
L 111.638151 148.517993 
L 112.477593 154.625269 
L 113.431194 158.577036 
L 115.324171 168.63608 
L 116.386108 176.180363 
L 117.331516 185.161652 
L 120.064283 213.542525 
L 122.878883 213.542525 
L 134.261211 189.831922 
L 138.090247 128.759157 
L 139.061015 119.418616 
L 139.994329 116.185352 
L 140.958841 115.107598 
L 141.904013 116.185352 
L 142.849644 124.088887 
L 144.85391 148.517993 
L 145.805686 158.217785 
L 146.759915 164.684313 
L 147.704097 170.073086 
L 148.653881 176.898866 
L 149.480308 184.8024 
L 150.57439 197.735456 
L 151.420785 206.357494 
L 152.364382 209.231506 
L 155.174886 209.231506 
L 167.497787 181.569136 
L 168.610276 165.762067 
L 169.465978 150.31425 
L 171.35065 124.088887 
L 172.292715 117.622358 
L 173.356421 116.185352 
L 174.316265 118.340862 
L 175.254595 127.322151 
L 177.059956 148.517993 
L 178.956973 163.606558 
L 180.00729 167.917577 
L 180.837493 173.30635 
L 183.702185 203.842733 
L 185.582009 213.183273 
L 188.380418 213.183273 
L 198.830504 190.909677 
L 199.938673 176.180363 
L 201.727147 144.566225 
L 202.677515 128.759157 
L 203.626198 117.98161 
L 204.573251 115.826101 
L 205.628987 114.389094 
L 206.586504 114.029843 
L 207.422156 117.263107 
L 208.375381 127.322151 
L 211.186414 160.014042 
L 213.200768 175.102608 
L 214.149981 179.413627 
L 216.997409 204.920487 
L 217.954466 212.105519 
L 220.641182 212.105519 
L 232.033152 184.443149 
L 235.996775 124.80739 
L 236.824248 117.263107 
L 237.881976 114.748346 
L 238.827622 113.670591 
L 239.777712 116.185352 
L 240.726674 125.885144 
L 241.676527 140.614458 
L 242.626492 152.46976 
L 244.414198 166.839822 
L 245.481068 173.30635 
L 246.421906 181.569136 
L 247.268189 192.346683 
L 248.194592 196.29845 
L 249.14386 205.279739 
L 250.115743 208.872255 
L 251.044556 212.824022 
L 252.0027 214.979531 
L 254.014616 213.901776 
L 254.965807 212.824022 
L 255.914309 210.668512 
L 256.8638 208.153751 
L 257.817694 203.842733 
L 258.761988 195.939198 
L 259.711297 184.083897 
L 262.439229 143.488471 
L 263.508245 130.914666 
L 264.456927 133.070176 
L 265.408118 109.359573 
L 266.352301 103.611548 
L 269.057883 103.611548 
L 280.459927 139.177452 
L 282.526714 170.073086 
L 283.357391 185.520903 
L 284.413894 198.453959 
L 285.264511 201.687223 
L 286.200151 202.046475 
L 287.262743 198.094708 
L 288.113583 192.705934 
L 289.059883 185.520903 
L 291.894227 160.014042 
L 293.905321 146.003232 
L 294.745919 138.458949 
L 295.697821 123.729635 
L 296.752178 113.670591 
L 297.606808 107.922566 
L 298.666947 103.611548 
L 301.508718 106.48556 
L 302.455812 105.048554 
L 305.137916 105.048554 
L 308.948825 129.47766 
L 309.941037 133.070176 
L 310.996258 140.97371 
L 312.783867 167.199074 
L 313.734584 183.724645 
L 314.794208 198.813211 
L 315.626739 205.998242 
L 316.697649 211.387015 
L 317.533398 212.824022 
L 318.479044 212.46477 
L 319.534905 210.309261 
L 320.378095 205.998242 
L 321.320801 199.890966 
L 322.270069 189.113419 
L 323.227223 176.898866 
L 324.279936 166.480571 
L 325.132239 156.062275 
L 326.083137 148.158741 
L 327.127559 138.099697 
L 328.925563 115.107598 
L 329.952206 110.796579 
L 330.784095 107.922566 
L 331.843134 106.48556 
L 332.793266 103.611548 
L 333.760007 103.611548 
L 334.561354 107.922566 
L 335.540357 106.48556 
L 336.47466 109.718824 
L 337.419609 115.466849 
L 338.383006 129.118408 
L 339.313812 139.895955 
L 340.377281 155.343772 
L 341.356521 161.8103 
L 344.059776 185.880155 
L 345.024524 194.861444 
L 345.979338 195.220695 
L 348.803748 214.261028 
L 351.689995 214.261028 
L 352.618405 214.620279 
L 354.526277 213.542525 
L 355.46391 208.872255 
L 356.422347 203.483481 
L 358.318835 175.46186 
L 361.170666 125.166641 
L 363.057553 109.359573 
L 364.966261 103.611548 
L 366.039944 103.611548 
L 366.865355 105.048554 
L 368.763125 112.952088 
L 369.698654 117.98161 
L 370.768603 131.992421 
L 371.720797 140.255207 
L 372.665328 151.032754 
L 373.613537 156.780778 
L 375.40757 171.150841 
L 376.477226 179.772878 
L 378.256349 200.609469 
L 380.150078 211.027764 
L 381.116708 214.620279 
L 382.053645 214.979531 
L 382.992908 214.620279 
L 383.945674 213.183273 
L 384.889786 210.668512 
L 385.839696 205.638991 
L 386.799135 198.453959 
L 392.516815 134.14793 
L 393.46175 120.855623 
L 395.363658 110.796579 
L 396.421693 107.922566 
L 398.208244 105.048554 
L 400.24184 105.048554 
L 401.165568 109.359573 
L 402.015641 115.107598 
L 403.069051 126.244396 
L 403.906347 139.177452 
L 404.977814 144.925477 
L 405.916966 153.188263 
L 406.750319 153.547514 
L 407.693401 155.703024 
L 408.765398 156.062275 
L 408.765398 156.062275 
" style="fill:none;stroke:#1f77b4;stroke-linecap:square;stroke-width:1.5;"/>
   </g>
   <g id="line2d_20">
    <path clip-path="url(#p103750eed8)" d="M 84.110852 93.354916 
L 85.081801 98.528138 
L 85.916562 116.077577 
L 88.71001 126.406059 
L 104.839361 119.544354 
L 105.838136 114.945934 
L 108.684115 94.540446 
L 109.607717 88.990009 
L 110.564412 86.295623 
L 111.638151 85.343606 
L 112.477593 85.918408 
L 113.431194 86.8345 
L 114.475129 89.528887 
L 115.324171 93.17529 
L 116.386108 99.569968 
L 117.331516 108.64107 
L 118.277621 120.550259 
L 120.064283 150.475914 
L 122.878883 163.947847 
L 134.261211 164.378949 
L 135.254315 163.229344 
L 136.201005 158.127972 
L 137.26499 149.470009 
L 139.061015 124.573876 
L 140.958841 101.276413 
L 141.904013 90.732379 
L 142.849644 84.211963 
L 143.805113 81.643315 
L 144.85391 82.739032 
L 145.805686 85.289718 
L 146.759915 88.487057 
L 147.704097 92.708263 
L 148.653881 99.067015 
L 149.480308 107.724978 
L 150.57439 121.125061 
L 151.420785 135.387348 
L 152.364382 148.643731 
L 155.174886 161.037909 
L 167.497787 158.217785 
L 168.610276 155.002483 
L 169.465978 148.033003 
L 170.513591 137.596745 
L 172.292715 112.808388 
L 174.316265 91.828097 
L 175.254595 86.439323 
L 176.107427 84.086225 
L 177.059956 84.53529 
L 178.106719 86.493211 
L 180.00729 92.780113 
L 180.837493 97.809635 
L 181.789632 106.952587 
L 183.702185 132.926475 
L 184.755539 146.937286 
L 185.582009 161.504936 
L 188.380418 174.887057 
L 198.830504 176.018699 
L 199.938673 175.731298 
L 200.76963 171.366392 
L 201.727147 162.744354 
L 204.573251 125.022941 
L 207.422156 92.13346 
L 208.375381 87.068013 
L 209.426631 85.900446 
L 210.234332 86.295623 
L 211.186414 89.510924 
L 212.253214 93.947681 
L 214.149981 106.198159 
L 215.101576 115.879988 
L 216.047681 127.914916 
L 217.954466 156.870591 
L 220.641182 169.983273 
L 232.033152 167.881652 
L 233.009187 165.78003 
L 233.971023 159.51109 
L 235.028167 149.487972 
L 235.996775 136.788429 
L 236.824248 123.927223 
L 239.777712 90.013876 
L 240.726674 84.481402 
L 241.676527 84.140113 
L 242.626492 85.900446 
L 243.573642 88.451132 
L 244.414198 92.187348 
L 245.481068 97.540196 
L 246.421906 105.497618 
L 247.268189 116.903855 
L 248.194592 127.2503 
L 252.0027 183.68872 
L 254.014616 196.92714 
L 255.914309 222.002899 
L 256.8638 233.373211 
L 257.817694 243.126891 
L 258.761988 249.826932 
L 259.711297 252.377618 
L 260.663324 250.778949 
L 261.610015 245.875165 
L 263.508245 226.996496 
L 264.456927 220.996995 
L 265.408118 201.310009 
L 266.352301 185.574791 
L 269.057883 171.56398 
L 280.459927 177.114417 
L 281.458172 180.293793 
L 282.526714 187.640487 
L 285.264511 223.799157 
L 286.200151 234.504853 
L 288.113583 249.575456 
L 289.059883 253.886475 
L 290.114853 255.018117 
L 290.943552 254.317577 
L 291.894227 252.25188 
L 292.86494 248.587514 
L 293.905321 243.019115 
L 294.745919 235.45687 
L 296.752178 207.543024 
L 297.606808 192.88556 
L 298.666947 177.581444 
L 301.508718 165.15134 
L 302.455812 151.068679 
L 305.137916 137.417119 
L 308.948825 137.201568 
L 309.941037 131.633169 
L 310.996258 129.333959 
L 311.826183 130.986517 
L 312.783867 137.291381 
L 313.734584 148.266517 
L 314.794208 162.582691 
L 315.626739 176.324063 
L 316.697649 190.873751 
L 317.533398 204.597161 
L 318.479044 217.69188 
L 320.378095 240.001402 
L 321.320801 248.228263 
L 322.270069 252.359656 
L 323.227223 253.006309 
L 324.279936 251.587265 
L 325.132239 247.563647 
L 326.083137 242.318575 
L 327.127559 233.912088 
L 327.98669 222.793252 
L 328.925563 207.884313 
L 329.952206 194.376454 
L 330.784095 180.581194 
L 331.843134 166.857785 
L 333.760007 137.973959 
L 335.540357 112.610799 
L 336.47466 101.096787 
L 337.419609 91.774209 
L 338.383006 88.235581 
L 339.313812 86.529136 
L 340.377281 90.085726 
L 341.356521 92.564562 
L 342.178476 97.055207 
L 343.134362 103.737286 
L 344.059776 112.988013 
L 345.024524 124.484063 
L 345.979338 133.483315 
L 346.91739 145.931381 
L 348.803748 175.479822 
L 351.689995 189.131381 
L 352.618405 202.980529 
L 354.526277 216.129136 
L 355.46391 227.032421 
L 356.422347 236.372961 
L 357.372256 239.624188 
L 358.318835 239.372712 
L 359.269134 233.840238 
L 360.201695 224.194334 
L 362.22969 197.358242 
L 363.057553 182.628928 
L 366.865355 126.370134 
L 367.923627 115.089635 
L 368.763125 104.491714 
L 369.698654 95.582275 
L 371.720797 90.498866 
L 373.613537 92.582525 
L 374.455264 95.420612 
L 375.40757 100.665685 
L 376.477226 108.281818 
L 377.411752 119.238991 
L 378.256349 132.495373 
L 379.206077 145.500279 
L 382.992908 202.351839 
L 384.889786 227.30186 
L 385.839696 237.289053 
L 386.799135 244.833336 
L 387.738051 248.803065 
L 388.709111 249.575456 
L 389.679893 248.461776 
L 390.613249 244.132795 
L 391.676774 237.217203 
L 392.516815 227.607223 
L 393.46175 213.919739 
L 394.541926 201.058533 
L 395.363658 187.550675 
L 396.421693 173.755415 
L 398.208244 145.949344 
L 400.24184 118.646225 
L 402.015641 97.953336 
L 403.069051 92.941776 
L 403.906347 91.702358 
L 404.977814 89.744437 
L 405.916966 90.606641 
L 406.750319 89.187598 
L 407.693401 88.846309 
L 408.765398 88.055955 
L 408.765398 88.055955 
" style="fill:none;stroke:#ff7f0e;stroke-linecap:square;stroke-width:1.5;"/>
   </g>
   <g id="line2d_21">
    <path clip-path="url(#p103750eed8)" d="M 84.110852 107.724978 
L 85.081801 115.772213 
L 85.916562 157.391506 
L 88.71001 167.719988 
L 104.839361 129.603398 
L 107.708428 80.098533 
L 108.684115 71.548346 
L 109.607717 66.357161 
L 110.564412 69.051548 
L 111.638151 74.206808 
L 112.477593 80.888887 
L 113.431194 85.756745 
L 114.475129 93.839905 
L 115.324171 102.156579 
L 116.386108 116.095539 
L 117.331516 134.14793 
L 119.119237 177.814957 
L 120.064283 204.363647 
L 122.878883 217.835581 
L 134.261211 194.55608 
L 135.254315 177.599406 
L 137.26499 132.944437 
L 138.090247 106.539448 
L 139.061015 84.337702 
L 139.994329 69.267099 
L 140.958841 56.729219 
L 141.904013 47.262941 
L 142.849644 48.646059 
L 143.805113 57.57346 
L 145.805686 83.852712 
L 147.704097 103.126558 
L 148.653881 116.31109 
L 149.480308 132.872587 
L 151.420785 182.090051 
L 152.364382 198.220446 
L 155.174886 210.614625 
L 167.497787 180.13213 
L 168.610276 161.10976 
L 171.35065 89.69055 
L 172.292715 70.775955 
L 173.356421 58.040487 
L 174.316265 50.514167 
L 175.254595 54.106683 
L 176.107427 62.17188 
L 177.059956 73.398492 
L 178.956973 93.372878 
L 180.00729 101.042899 
L 180.837493 111.461194 
L 181.789632 131.022442 
L 183.702185 177.114417 
L 184.755539 196.514001 
L 185.582009 215.033419 
L 188.380418 228.415539 
L 198.830504 207.273585 
L 199.938673 192.25687 
L 201.727147 147.655789 
L 202.677515 119.382691 
L 203.626198 94.953585 
L 204.573251 81.19425 
L 206.586504 56.136454 
L 207.422156 49.741776 
L 208.375381 54.735373 
L 209.426631 66.14161 
L 210.234332 76.236579 
L 211.186414 89.870176 
L 212.253214 102.210467 
L 213.200768 115.412961 
L 214.149981 125.956995 
L 215.101576 144.260862 
L 217.954466 209.321319 
L 220.641182 222.434001 
L 232.033152 192.670009 
L 233.009187 175.479822 
L 235.028167 127.932878 
L 236.824248 81.535539 
L 238.827622 54.142608 
L 239.777712 46.544437 
L 240.726674 50.711756 
L 242.626492 78.715415 
L 245.481068 111.191756 
L 246.421906 127.411963 
L 247.268189 149.595747 
L 248.194592 163.893959 
L 249.14386 186.975872 
L 250.115743 203.950508 
L 251.044556 222.380113 
L 252.0027 239.01346 
L 254.014616 251.174126 
L 254.965807 263.065352 
L 256.8638 281.872171 
L 257.817694 287.314833 
L 258.761988 286.11134 
L 259.711297 276.806724 
L 260.663324 261.197244 
L 261.610015 242.641901 
L 262.439229 221.787348 
L 263.508245 198.256371 
L 264.456927 194.412379 
L 265.408118 151.014791 
L 266.352301 129.531548 
L 269.057883 115.520737 
L 280.459927 156.637078 
L 281.458172 174.90502 
L 282.526714 198.058783 
L 283.357391 224.607473 
L 284.413894 251.120238 
L 285.264511 265.831589 
L 286.200151 276.896537 
L 287.262743 281.369219 
L 288.113583 282.6266 
L 289.059883 279.752587 
L 290.114853 271.184437 
L 290.943552 261.86186 
L 292.86494 242.120986 
L 293.905321 229.367556 
L 294.745919 214.261028 
L 295.697821 186.131631 
L 297.606808 141.153336 
L 298.666947 121.5382 
L 301.508718 111.982109 
L 302.455812 96.462442 
L 305.137916 82.810882 
L 308.948825 107.024437 
L 309.941037 105.048554 
L 310.996258 110.652878 
L 311.826183 123.801485 
L 312.783867 144.835664 
L 314.794208 201.741111 
L 315.626739 222.667514 
L 317.533398 257.766392 
L 318.479044 270.50186 
L 319.534905 280.363315 
L 320.378095 286.344853 
L 321.320801 288.464437 
L 322.270069 281.818284 
L 324.279936 258.413045 
L 325.132239 243.971132 
L 326.083137 230.822525 
L 327.127559 212.356995 
L 327.98669 190.819864 
L 328.925563 163.337119 
L 329.952206 145.518242 
L 330.784095 128.84897 
L 331.843134 113.688554 
L 332.793266 95.941527 
L 333.760007 81.930716 
L 334.561354 74.601984 
L 335.540357 59.441568 
L 336.47466 51.16082 
L 337.419609 47.586267 
L 339.313812 66.7703 
L 340.377281 85.774708 
L 341.356521 94.720072 
L 343.134362 120.981361 
L 345.024524 159.690716 
L 345.979338 169.049219 
L 347.85565 208.49504 
L 348.803748 230.086059 
L 351.689995 243.737618 
L 352.618405 257.946018 
L 355.46391 276.249884 
L 356.422347 280.201652 
L 357.372256 269.442067 
L 358.318835 255.179781 
L 359.269134 232.403232 
L 361.170666 176.23425 
L 362.22969 154.248055 
L 363.057553 132.33371 
L 364.966261 97.558159 
L 366.865355 71.763897 
L 367.923627 64.794417 
L 368.763125 57.789011 
L 369.698654 53.909094 
L 370.768603 65.207556 
L 371.720797 71.099282 
L 372.665328 82.954583 
L 373.613537 89.708512 
L 374.455264 99.013128 
L 376.477226 128.399905 
L 377.411752 150.134625 
L 378.256349 173.450051 
L 382.053645 244.042982 
L 382.992908 257.317327 
L 383.945674 268.83134 
L 384.889786 278.315581 
L 385.839696 283.273252 
L 386.799135 283.632504 
L 387.738051 277.183939 
L 389.679893 255.646808 
L 391.676774 222.487889 
L 392.516815 202.100363 
L 393.46175 175.120571 
L 394.541926 156.51134 
L 395.363658 138.692462 
L 396.421693 122.02319 
L 398.208244 91.343107 
L 400.24184 64.039988 
L 401.165568 57.070508 
L 402.015641 53.406142 
L 403.069051 59.531381 
L 403.906347 71.22502 
L 404.977814 75.015124 
L 405.916966 84.140113 
L 406.750319 83.080321 
L 407.693401 84.894541 
L 408.765398 84.46344 
L 408.765398 84.46344 
" style="fill:none;stroke:#2ca02c;stroke-linecap:square;stroke-width:1.5;"/>
   </g>
   <g id="patch_3">
    <path d="M 67.878125 300.560437 
L 67.878125 34.448437 
" style="fill:none;stroke:#000000;stroke-linecap:square;stroke-linejoin:miter;stroke-width:0.8;"/>
   </g>
   <g id="patch_4">
    <path d="M 424.998125 300.560437 
L 424.998125 34.448437 
" style="fill:none;stroke:#000000;stroke-linecap:square;stroke-linejoin:miter;stroke-width:0.8;"/>
   </g>
   <g id="patch_5">
    <path d="M 67.878125 300.560437 
L 424.998125 300.560437 
" style="fill:none;stroke:#000000;stroke-linecap:square;stroke-linejoin:miter;stroke-width:0.8;"/>
   </g>
   <g id="patch_6">
    <path d="M 67.878125 34.448437 
L 424.998125 34.448437 
" style="fill:none;stroke:#000000;stroke-linecap:square;stroke-linejoin:miter;stroke-width:0.8;"/>
   </g>
   <g id="text_12">
    <!-- The servo performance -->
    <g transform="translate(107.34125 28.03125)scale(0.3 -0.3)">
     <defs>
      <path d="M 16.265625 69.4375 
L 16.265625 36.71875 
Q 21.6875 42.671875 24.859375 44.359375 
Q 28.03125 46.046875 31.203125 46.046875 
Q 35.015625 46.046875 37.75 43.9375 
Q 40.484375 41.84375 41.796875 37.359375 
Q 42.71875 34.234375 42.71875 25.921875 
L 42.71875 10.109375 
Q 42.71875 5.859375 43.40625 4.296875 
Q 43.890625 3.125 45.0625 2.4375 
Q 46.234375 1.765625 49.359375 1.765625 
L 49.359375 0 
L 27.390625 0 
L 27.390625 1.765625 
L 28.421875 1.765625 
Q 31.546875 1.765625 32.765625 2.703125 
Q 33.984375 3.65625 34.46875 5.515625 
Q 34.625 6.296875 34.625 10.109375 
L 34.625 25.921875 
Q 34.625 33.25 33.859375 35.546875 
Q 33.109375 37.84375 31.4375 38.984375 
Q 29.78125 40.140625 27.4375 40.140625 
Q 25.046875 40.140625 22.453125 38.859375 
Q 19.875 37.59375 16.265625 33.734375 
L 16.265625 10.109375 
Q 16.265625 5.515625 16.765625 4.390625 
Q 17.28125 3.265625 18.671875 2.515625 
Q 20.0625 1.765625 23.484375 1.765625 
L 23.484375 0 
L 1.3125 0 
L 1.3125 1.765625 
Q 4.296875 1.765625 6 2.6875 
Q 6.984375 3.171875 7.5625 4.53125 
Q 8.15625 5.90625 8.15625 10.109375 
L 8.15625 50.59375 
Q 8.15625 58.25 7.78125 60 
Q 7.421875 61.765625 6.65625 62.390625 
Q 5.90625 63.03125 4.640625 63.03125 
Q 3.609375 63.03125 1.3125 62.25 
L 0.640625 63.96875 
L 14.015625 69.4375 
z
" id="TimesNewRomanPSMT-104"/>
      <path d="M 16.21875 46.046875 
L 16.21875 35.984375 
Q 21.828125 46.046875 27.734375 46.046875 
Q 30.421875 46.046875 32.171875 44.40625 
Q 33.9375 42.78125 33.9375 40.625 
Q 33.9375 38.71875 32.65625 37.390625 
Q 31.390625 36.078125 29.640625 36.078125 
Q 27.9375 36.078125 25.8125 37.765625 
Q 23.6875 39.453125 22.65625 39.453125 
Q 21.78125 39.453125 20.75 38.484375 
Q 18.5625 36.46875 16.21875 31.890625 
L 16.21875 10.453125 
Q 16.21875 6.734375 17.140625 4.828125 
Q 17.78125 3.515625 19.390625 2.640625 
Q 21 1.765625 24.03125 1.765625 
L 24.03125 0 
L 1.125 0 
L 1.125 1.765625 
Q 4.546875 1.765625 6.203125 2.828125 
Q 7.421875 3.609375 7.90625 5.328125 
Q 8.15625 6.15625 8.15625 10.0625 
L 8.15625 27.390625 
Q 8.15625 35.203125 7.828125 36.6875 
Q 7.515625 38.1875 6.65625 38.859375 
Q 5.8125 39.546875 4.546875 39.546875 
Q 3.03125 39.546875 1.125 38.8125 
L 0.640625 40.578125 
L 14.15625 46.046875 
z
" id="TimesNewRomanPSMT-114"/>
      <path d="M 0.828125 44.734375 
L 21.875 44.734375 
L 21.875 42.921875 
L 20.515625 42.921875 
Q 18.609375 42.921875 17.609375 41.984375 
Q 16.609375 41.0625 16.609375 39.5 
Q 16.609375 37.796875 17.625 35.453125 
L 28.03125 10.75 
L 38.484375 36.375 
Q 39.59375 39.109375 39.59375 40.53125 
Q 39.59375 41.21875 39.203125 41.65625 
Q 38.671875 42.390625 37.84375 42.65625 
Q 37.015625 42.921875 34.46875 42.921875 
L 34.46875 44.734375 
L 49.078125 44.734375 
L 49.078125 42.921875 
Q 46.53125 42.71875 45.5625 41.890625 
Q 43.84375 40.4375 42.484375 37.015625 
L 26.609375 -1.375 
L 24.609375 -1.375 
L 8.640625 36.375 
Q 7.5625 39.015625 6.578125 40.15625 
Q 5.609375 41.3125 4.109375 42.09375 
Q 3.265625 42.53125 0.828125 42.921875 
z
" id="TimesNewRomanPSMT-118"/>
      <path d="M 25 46.046875 
Q 35.15625 46.046875 41.3125 38.328125 
Q 46.53125 31.734375 46.53125 23.1875 
Q 46.53125 17.1875 43.640625 11.03125 
Q 40.765625 4.890625 35.71875 1.75 
Q 30.671875 -1.375 24.46875 -1.375 
Q 14.359375 -1.375 8.40625 6.6875 
Q 3.375 13.484375 3.375 21.921875 
Q 3.375 28.078125 6.421875 34.15625 
Q 9.46875 40.234375 14.453125 43.140625 
Q 19.4375 46.046875 25 46.046875 
z
M 23.484375 42.875 
Q 20.90625 42.875 18.28125 41.328125 
Q 15.671875 39.796875 14.0625 35.9375 
Q 12.453125 32.078125 12.453125 26.03125 
Q 12.453125 16.265625 16.328125 9.171875 
Q 20.21875 2.09375 26.5625 2.09375 
Q 31.296875 2.09375 34.375 6 
Q 37.453125 9.90625 37.453125 19.4375 
Q 37.453125 31.34375 32.328125 38.1875 
Q 28.859375 42.875 23.484375 42.875 
z
" id="TimesNewRomanPSMT-111"/>
      <path d="M -0.09375 40.28125 
L 13.671875 45.84375 
L 15.53125 45.84375 
L 15.53125 35.40625 
Q 19 41.3125 22.484375 43.671875 
Q 25.984375 46.046875 29.828125 46.046875 
Q 36.578125 46.046875 41.0625 40.765625 
Q 46.578125 34.328125 46.578125 23.96875 
Q 46.578125 12.40625 39.9375 4.828125 
Q 34.46875 -1.375 26.171875 -1.375 
Q 22.5625 -1.375 19.921875 -0.34375 
Q 17.96875 0.390625 15.53125 2.59375 
L 15.53125 -11.03125 
Q 15.53125 -15.625 16.09375 -16.859375 
Q 16.65625 -18.109375 18.046875 -18.84375 
Q 19.4375 -19.578125 23.09375 -19.578125 
L 23.09375 -21.390625 
L -0.34375 -21.390625 
L -0.34375 -19.578125 
L 0.875 -19.578125 
Q 3.5625 -19.625 5.46875 -18.5625 
Q 6.390625 -18.015625 6.90625 -16.8125 
Q 7.421875 -15.625 7.421875 -10.75 
L 7.421875 31.546875 
Q 7.421875 35.890625 7.03125 37.0625 
Q 6.640625 38.234375 5.78125 38.8125 
Q 4.9375 39.40625 3.46875 39.40625 
Q 2.296875 39.40625 0.484375 38.71875 
z
M 15.53125 32.515625 
L 15.53125 15.828125 
Q 15.53125 10.40625 15.96875 8.6875 
Q 16.65625 5.859375 19.3125 3.703125 
Q 21.96875 1.5625 26.03125 1.5625 
Q 30.90625 1.5625 33.9375 5.375 
Q 37.890625 10.359375 37.890625 19.390625 
Q 37.890625 29.640625 33.40625 35.15625 
Q 30.28125 38.96875 25.984375 38.96875 
Q 23.640625 38.96875 21.34375 37.796875 
Q 19.578125 36.921875 15.53125 32.515625 
z
" id="TimesNewRomanPSMT-112"/>
      <path d="M 20.609375 41.21875 
L 20.609375 11.8125 
Q 20.609375 5.5625 21.96875 3.90625 
Q 23.78125 1.765625 26.8125 1.765625 
L 30.859375 1.765625 
L 30.859375 0 
L 4.15625 0 
L 4.15625 1.765625 
L 6.15625 1.765625 
Q 8.109375 1.765625 9.71875 2.734375 
Q 11.328125 3.71875 11.9375 5.375 
Q 12.546875 7.03125 12.546875 11.8125 
L 12.546875 41.21875 
L 3.859375 41.21875 
L 3.859375 44.734375 
L 12.546875 44.734375 
L 12.546875 47.65625 
Q 12.546875 54.34375 14.6875 58.984375 
Q 16.84375 63.625 21.265625 66.484375 
Q 25.6875 69.34375 31.203125 69.34375 
Q 36.328125 69.34375 40.625 66.015625 
Q 43.453125 63.8125 43.453125 61.078125 
Q 43.453125 59.625 42.1875 58.328125 
Q 40.921875 57.03125 39.453125 57.03125 
Q 38.328125 57.03125 37.078125 57.828125 
Q 35.84375 58.640625 34.03125 61.296875 
Q 32.234375 63.96875 30.71875 64.890625 
Q 29.203125 65.828125 27.34375 65.828125 
Q 25.09375 65.828125 23.53125 64.625 
Q 21.96875 63.421875 21.28125 60.90625 
Q 20.609375 58.40625 20.609375 47.953125 
L 20.609375 44.734375 
L 32.125 44.734375 
L 32.125 41.21875 
z
" id="TimesNewRomanPSMT-102"/>
      <path d="M 28.46875 6.453125 
Q 21.578125 1.125 19.828125 0.296875 
Q 17.1875 -0.921875 14.203125 -0.921875 
Q 9.578125 -0.921875 6.5625 2.25 
Q 3.5625 5.421875 3.5625 10.59375 
Q 3.5625 13.875 5.03125 16.265625 
Q 7.03125 19.578125 11.984375 22.5 
Q 16.9375 25.4375 28.46875 29.640625 
L 28.46875 31.390625 
Q 28.46875 38.09375 26.34375 40.578125 
Q 24.21875 43.0625 20.171875 43.0625 
Q 17.09375 43.0625 15.28125 41.40625 
Q 13.421875 39.75 13.421875 37.59375 
L 13.53125 34.765625 
Q 13.53125 32.515625 12.375 31.296875 
Q 11.234375 30.078125 9.375 30.078125 
Q 7.5625 30.078125 6.421875 31.34375 
Q 5.28125 32.625 5.28125 34.8125 
Q 5.28125 39.015625 9.578125 42.53125 
Q 13.875 46.046875 21.625 46.046875 
Q 27.59375 46.046875 31.390625 44.046875 
Q 34.28125 42.53125 35.640625 39.3125 
Q 36.53125 37.203125 36.53125 30.71875 
L 36.53125 15.53125 
Q 36.53125 9.125 36.765625 7.6875 
Q 37.015625 6.25 37.578125 5.765625 
Q 38.140625 5.28125 38.875 5.28125 
Q 39.65625 5.28125 40.234375 5.609375 
Q 41.265625 6.25 44.1875 9.1875 
L 44.1875 6.453125 
Q 38.71875 -0.875 33.734375 -0.875 
Q 31.34375 -0.875 29.921875 0.78125 
Q 28.515625 2.4375 28.46875 6.453125 
z
M 28.46875 9.625 
L 28.46875 26.65625 
Q 21.09375 23.734375 18.953125 22.515625 
Q 15.09375 20.359375 13.421875 18.015625 
Q 11.765625 15.671875 11.765625 12.890625 
Q 11.765625 9.375 13.859375 7.046875 
Q 15.96875 4.734375 18.703125 4.734375 
Q 22.40625 4.734375 28.46875 9.625 
z
" id="TimesNewRomanPSMT-97"/>
      <path d="M 41.109375 17 
Q 39.3125 8.15625 34.03125 3.390625 
Q 28.765625 -1.375 22.359375 -1.375 
Q 14.75 -1.375 9.078125 5.015625 
Q 3.421875 11.421875 3.421875 22.3125 
Q 3.421875 32.859375 9.6875 39.453125 
Q 15.96875 46.046875 24.75 46.046875 
Q 31.34375 46.046875 35.59375 42.546875 
Q 39.84375 39.0625 39.84375 35.296875 
Q 39.84375 33.453125 38.640625 32.296875 
Q 37.453125 31.15625 35.296875 31.15625 
Q 32.421875 31.15625 30.953125 33.015625 
Q 30.125 34.03125 29.859375 36.90625 
Q 29.59375 39.796875 27.875 41.3125 
Q 26.171875 42.78125 23.140625 42.78125 
Q 18.265625 42.78125 15.28125 39.15625 
Q 11.328125 34.375 11.328125 26.515625 
Q 11.328125 18.5 15.25 12.375 
Q 19.1875 6.25 25.875 6.25 
Q 30.671875 6.25 34.46875 9.515625 
Q 37.15625 11.765625 39.703125 17.671875 
z
" id="TimesNewRomanPSMT-99"/>
     </defs>
     <use xlink:href="#TimesNewRomanPSMT-84"/>
     <use x="61.083984" xlink:href="#TimesNewRomanPSMT-104"/>
     <use x="111.083984" xlink:href="#TimesNewRomanPSMT-101"/>
     <use x="155.46875" xlink:href="#TimesNewRomanPSMT-32"/>
     <use x="180.46875" xlink:href="#TimesNewRomanPSMT-115"/>
     <use x="219.384766" xlink:href="#TimesNewRomanPSMT-101"/>
     <use x="263.769531" xlink:href="#TimesNewRomanPSMT-114"/>
     <use x="297.070312" xlink:href="#TimesNewRomanPSMT-118"/>
     <use x="347.070312" xlink:href="#TimesNewRomanPSMT-111"/>
     <use x="397.070312" xlink:href="#TimesNewRomanPSMT-32"/>
     <use x="422.070312" xlink:href="#TimesNewRomanPSMT-112"/>
     <use x="472.070312" xlink:href="#TimesNewRomanPSMT-101"/>
     <use x="516.455078" xlink:href="#TimesNewRomanPSMT-114"/>
     <use x="549.755859" xlink:href="#TimesNewRomanPSMT-102"/>
     <use x="583.056641" xlink:href="#TimesNewRomanPSMT-111"/>
     <use x="633.056641" xlink:href="#TimesNewRomanPSMT-114"/>
     <use x="666.357422" xlink:href="#TimesNewRomanPSMT-109"/>
     <use x="744.140625" xlink:href="#TimesNewRomanPSMT-97"/>
     <use x="788.525391" xlink:href="#TimesNewRomanPSMT-110"/>
     <use x="838.525391" xlink:href="#TimesNewRomanPSMT-99"/>
     <use x="882.910156" xlink:href="#TimesNewRomanPSMT-101"/>
    </g>
   </g>
   <g id="legend_1">
    <g id="patch_7">
     <path d="M 81.878125 290.560437 
L 328.5875 290.560437 
Q 332.5875 290.560437 332.5875 286.560437 
L 332.5875 203.726062 
Q 332.5875 199.726062 328.5875 199.726062 
L 81.878125 199.726062 
Q 77.878125 199.726062 77.878125 203.726062 
L 77.878125 286.560437 
Q 77.878125 290.560437 81.878125 290.560437 
z
" style="fill:#ffffff;opacity:0.8;stroke:#cccccc;stroke-linejoin:miter;"/>
    </g>
    <g id="line2d_22">
     <path d="M 85.878125 214.726062 
L 125.878125 214.726062 
" style="fill:none;stroke:#1f77b4;stroke-linecap:square;stroke-width:1.5;"/>
    </g>
    <g id="line2d_23"/>
    <g id="text_13">
     <!-- error -->
     <g transform="translate(141.878125 221.726062)scale(0.2 -0.2)">
      <use xlink:href="#TimesNewRomanPSMT-101"/>
      <use x="44.384766" xlink:href="#TimesNewRomanPSMT-114"/>
      <use x="77.685547" xlink:href="#TimesNewRomanPSMT-114"/>
      <use x="110.986328" xlink:href="#TimesNewRomanPSMT-111"/>
      <use x="160.986328" xlink:href="#TimesNewRomanPSMT-114"/>
     </g>
    </g>
    <g id="line2d_24">
     <path d="M 85.878125 243.004188 
L 125.878125 243.004188 
" style="fill:none;stroke:#ff7f0e;stroke-linecap:square;stroke-width:1.5;"/>
    </g>
    <g id="line2d_25"/>
    <g id="text_14">
     <!-- servo commands -->
     <g transform="translate(141.878125 250.004188)scale(0.2 -0.2)">
      <defs>
       <path d="M 34.71875 5.03125 
Q 31.453125 1.609375 28.328125 0.109375 
Q 25.203125 -1.375 21.578125 -1.375 
Q 14.265625 -1.375 8.796875 4.75 
Q 3.328125 10.890625 3.328125 20.515625 
Q 3.328125 30.125 9.375 38.109375 
Q 15.4375 46.09375 24.953125 46.09375 
Q 30.859375 46.09375 34.71875 42.328125 
L 34.71875 50.59375 
Q 34.71875 58.25 34.34375 60 
Q 33.984375 61.765625 33.203125 62.390625 
Q 32.421875 63.03125 31.25 63.03125 
Q 29.984375 63.03125 27.875 62.25 
L 27.25 63.96875 
L 40.578125 69.4375 
L 42.78125 69.4375 
L 42.78125 17.71875 
Q 42.78125 9.859375 43.140625 8.125 
Q 43.5 6.390625 44.3125 5.703125 
Q 45.125 5.03125 46.1875 5.03125 
Q 47.515625 5.03125 49.703125 5.859375 
L 50.25 4.15625 
L 36.96875 -1.375 
L 34.71875 -1.375 
z
M 34.71875 8.453125 
L 34.71875 31.5 
Q 34.421875 34.8125 32.953125 37.546875 
Q 31.5 40.28125 29.078125 41.671875 
Q 26.65625 43.0625 24.359375 43.0625 
Q 20.0625 43.0625 16.703125 39.203125 
Q 12.25 34.125 12.25 24.359375 
Q 12.25 14.5 16.546875 9.25 
Q 20.84375 4 26.125 4 
Q 30.5625 4 34.71875 8.453125 
z
" id="TimesNewRomanPSMT-100"/>
      </defs>
      <use xlink:href="#TimesNewRomanPSMT-115"/>
      <use x="38.916016" xlink:href="#TimesNewRomanPSMT-101"/>
      <use x="83.300781" xlink:href="#TimesNewRomanPSMT-114"/>
      <use x="116.601562" xlink:href="#TimesNewRomanPSMT-118"/>
      <use x="166.601562" xlink:href="#TimesNewRomanPSMT-111"/>
      <use x="216.601562" xlink:href="#TimesNewRomanPSMT-32"/>
      <use x="241.601562" xlink:href="#TimesNewRomanPSMT-99"/>
      <use x="285.986328" xlink:href="#TimesNewRomanPSMT-111"/>
      <use x="335.986328" xlink:href="#TimesNewRomanPSMT-109"/>
      <use x="413.769531" xlink:href="#TimesNewRomanPSMT-109"/>
      <use x="491.552734" xlink:href="#TimesNewRomanPSMT-97"/>
      <use x="535.9375" xlink:href="#TimesNewRomanPSMT-110"/>
      <use x="585.9375" xlink:href="#TimesNewRomanPSMT-100"/>
      <use x="635.9375" xlink:href="#TimesNewRomanPSMT-115"/>
     </g>
    </g>
    <g id="line2d_26">
     <path d="M 85.878125 271.282312 
L 125.878125 271.282312 
" style="fill:none;stroke:#2ca02c;stroke-linecap:square;stroke-width:1.5;"/>
    </g>
    <g id="line2d_27"/>
    <g id="text_15">
     <!-- Theoretical commands -->
     <g transform="translate(141.878125 278.282312)scale(0.2 -0.2)">
      <defs>
       <path d="M 16.109375 59.421875 
L 16.109375 44.734375 
L 26.5625 44.734375 
L 26.5625 41.3125 
L 16.109375 41.3125 
L 16.109375 12.3125 
Q 16.109375 7.953125 17.359375 6.4375 
Q 18.609375 4.9375 20.5625 4.9375 
Q 22.171875 4.9375 23.6875 5.9375 
Q 25.203125 6.9375 26.03125 8.890625 
L 27.9375 8.890625 
Q 26.21875 4.109375 23.09375 1.6875 
Q 19.96875 -0.734375 16.65625 -0.734375 
Q 14.40625 -0.734375 12.25 0.515625 
Q 10.109375 1.765625 9.078125 4.078125 
Q 8.0625 6.390625 8.0625 11.234375 
L 8.0625 41.3125 
L 0.984375 41.3125 
L 0.984375 42.921875 
Q 3.65625 44 6.46875 46.5625 
Q 9.28125 49.125 11.46875 52.640625 
Q 12.59375 54.5 14.59375 59.421875 
z
" id="TimesNewRomanPSMT-116"/>
      </defs>
      <use xlink:href="#TimesNewRomanPSMT-84"/>
      <use x="61.083984" xlink:href="#TimesNewRomanPSMT-104"/>
      <use x="111.083984" xlink:href="#TimesNewRomanPSMT-101"/>
      <use x="155.46875" xlink:href="#TimesNewRomanPSMT-111"/>
      <use x="205.46875" xlink:href="#TimesNewRomanPSMT-114"/>
      <use x="238.769531" xlink:href="#TimesNewRomanPSMT-101"/>
      <use x="283.154297" xlink:href="#TimesNewRomanPSMT-116"/>
      <use x="310.9375" xlink:href="#TimesNewRomanPSMT-105"/>
      <use x="338.720703" xlink:href="#TimesNewRomanPSMT-99"/>
      <use x="383.105469" xlink:href="#TimesNewRomanPSMT-97"/>
      <use x="427.490234" xlink:href="#TimesNewRomanPSMT-108"/>
      <use x="455.273438" xlink:href="#TimesNewRomanPSMT-32"/>
      <use x="480.273438" xlink:href="#TimesNewRomanPSMT-99"/>
      <use x="524.658203" xlink:href="#TimesNewRomanPSMT-111"/>
      <use x="574.658203" xlink:href="#TimesNewRomanPSMT-109"/>
      <use x="652.441406" xlink:href="#TimesNewRomanPSMT-109"/>
      <use x="730.224609" xlink:href="#TimesNewRomanPSMT-97"/>
      <use x="774.609375" xlink:href="#TimesNewRomanPSMT-110"/>
      <use x="824.609375" xlink:href="#TimesNewRomanPSMT-100"/>
      <use x="874.609375" xlink:href="#TimesNewRomanPSMT-115"/>
     </g>
    </g>
   </g>
  </g>
 </g>
 <defs>
  <clipPath id="p103750eed8">
   <rect height="266.112" width="357.12" x="67.878125" y="34.448437"/>
  </clipPath>
 </defs>
</svg>
