<?xml version="1.0" encoding="utf-8" standalone="no"?>
<!DOCTYPE svg PUBLIC "-//W3C//DTD SVG 1.1//EN"
  "http://www.w3.org/Graphics/SVG/1.1/DTD/svg11.dtd">
<!-- Created with matplotlib (https://matplotlib.org/) -->
<svg height="340.4645pt" version="1.1" viewBox="0 0 436.098745 340.4645" width="436.098745pt" xmlns="http://www.w3.org/2000/svg" xmlns:xlink="http://www.w3.org/1999/xlink">
 <metadata>
  <rdf:RDF xmlns:cc="http://creativecommons.org/ns#" xmlns:dc="http://purl.org/dc/elements/1.1/" xmlns:rdf="http://www.w3.org/1999/02/22-rdf-syntax-ns#">
   <cc:Work>
    <dc:type rdf:resource="http://purl.org/dc/dcmitype/StillImage"/>
    <dc:date>2022-02-21T10:58:49.008531</dc:date>
    <dc:format>image/svg+xml</dc:format>
    <dc:creator>
     <cc:Agent>
      <dc:title>Matplotlib v3.3.4, https://matplotlib.org/</dc:title>
     </cc:Agent>
    </dc:creator>
   </cc:Work>
  </rdf:RDF>
 </metadata>
 <defs>
  <style type="text/css">*{stroke-linecap:butt;stroke-linejoin:round;}</style>
 </defs>
 <g id="figure_1">
  <g id="patch_1">
   <path d="M 0 340.4645 
L 436.098745 340.4645 
L 436.098745 0 
L 0 0 
z
" style="fill:#ffffff;"/>
  </g>
  <g id="axes_1">
   <g id="patch_2">
    <path d="M 57.9425 293.1995 
L 415.0625 293.1995 
L 415.0625 27.0875 
L 57.9425 27.0875 
z
" style="fill:#ffffff;"/>
   </g>
   <g id="matplotlib.axis_1">
    <g id="xtick_1">
     <g id="line2d_1">
      <path clip-path="url(#pe21647e723)" d="M 74.137568 293.1995 
L 74.137568 27.0875 
" style="fill:none;stroke:#b0b0b0;stroke-linecap:square;stroke-width:0.8;"/>
     </g>
     <g id="line2d_2">
      <defs>
       <path d="M 0 0 
L 0 3.5 
" id="mbfc850950e" style="stroke:#000000;stroke-width:0.8;"/>
      </defs>
      <g>
       <use style="stroke:#000000;stroke-width:0.8;" x="74.137568" xlink:href="#mbfc850950e" y="293.1995"/>
      </g>
     </g>
     <g id="text_1">
      <!-- 0.0 -->
      <g transform="translate(64.137568 311.3095)scale(0.16 -0.16)">
       <defs>
        <path d="M 3.609375 32.71875 
Q 3.609375 44.046875 7.03125 52.21875 
Q 10.453125 60.40625 16.109375 64.40625 
Q 20.515625 67.578125 25.203125 67.578125 
Q 32.8125 67.578125 38.875 59.8125 
Q 46.4375 50.203125 46.4375 33.734375 
Q 46.4375 22.21875 43.109375 14.15625 
Q 39.796875 6.109375 34.640625 2.46875 
Q 29.5 -1.171875 24.703125 -1.171875 
Q 15.234375 -1.171875 8.9375 10.015625 
Q 3.609375 19.4375 3.609375 32.71875 
z
M 13.1875 31.5 
Q 13.1875 17.828125 16.546875 9.1875 
Q 19.34375 1.90625 24.859375 1.90625 
Q 27.484375 1.90625 30.3125 4.265625 
Q 33.15625 6.640625 34.625 12.203125 
Q 36.859375 20.609375 36.859375 35.890625 
Q 36.859375 47.21875 34.515625 54.78125 
Q 32.765625 60.40625 29.984375 62.75 
Q 27.984375 64.359375 25.140625 64.359375 
Q 21.828125 64.359375 19.234375 61.375 
Q 15.71875 57.328125 14.453125 48.625 
Q 13.1875 39.9375 13.1875 31.5 
z
" id="TimesNewRomanPSMT-48"/>
        <path d="M 12.5 9.46875 
Q 14.796875 9.46875 16.359375 7.875 
Q 17.921875 6.296875 17.921875 4.046875 
Q 17.921875 1.8125 16.328125 0.21875 
Q 14.75 -1.375 12.5 -1.375 
Q 10.25 -1.375 8.65625 0.21875 
Q 7.078125 1.8125 7.078125 4.046875 
Q 7.078125 6.34375 8.65625 7.90625 
Q 10.25 9.46875 12.5 9.46875 
z
" id="TimesNewRomanPSMT-46"/>
       </defs>
       <use xlink:href="#TimesNewRomanPSMT-48"/>
       <use x="50" xlink:href="#TimesNewRomanPSMT-46"/>
       <use x="75" xlink:href="#TimesNewRomanPSMT-48"/>
      </g>
     </g>
    </g>
    <g id="xtick_2">
     <g id="line2d_3">
      <path clip-path="url(#pe21647e723)" d="M 130.931098 293.1995 
L 130.931098 27.0875 
" style="fill:none;stroke:#b0b0b0;stroke-linecap:square;stroke-width:0.8;"/>
     </g>
     <g id="line2d_4">
      <g>
       <use style="stroke:#000000;stroke-width:0.8;" x="130.931098" xlink:href="#mbfc850950e" y="293.1995"/>
      </g>
     </g>
     <g id="text_2">
      <!-- 2.5 -->
      <g transform="translate(120.931098 311.3095)scale(0.16 -0.16)">
       <defs>
        <path d="M 45.84375 12.75 
L 41.21875 0 
L 2.15625 0 
L 2.15625 1.8125 
Q 19.390625 17.53125 26.421875 27.484375 
Q 33.453125 37.453125 33.453125 45.703125 
Q 33.453125 52 29.59375 56.046875 
Q 25.734375 60.109375 20.359375 60.109375 
Q 15.484375 60.109375 11.59375 57.25 
Q 7.71875 54.390625 5.859375 48.875 
L 4.046875 48.875 
Q 5.28125 57.90625 10.328125 62.734375 
Q 15.375 67.578125 22.953125 67.578125 
Q 31 67.578125 36.390625 62.40625 
Q 41.796875 57.234375 41.796875 50.203125 
Q 41.796875 45.171875 39.453125 40.140625 
Q 35.84375 32.234375 27.734375 23.390625 
Q 15.578125 10.109375 12.546875 7.375 
L 29.828125 7.375 
Q 35.109375 7.375 37.234375 7.765625 
Q 39.359375 8.15625 41.0625 9.34375 
Q 42.78125 10.546875 44.046875 12.75 
z
" id="TimesNewRomanPSMT-50"/>
        <path d="M 43.40625 66.21875 
L 39.59375 57.90625 
L 19.671875 57.90625 
L 15.328125 49.03125 
Q 28.265625 47.125 35.84375 39.40625 
Q 42.328125 32.765625 42.328125 23.78125 
Q 42.328125 18.5625 40.203125 14.109375 
Q 38.09375 9.671875 34.859375 6.546875 
Q 31.640625 3.421875 27.6875 1.515625 
Q 22.078125 -1.171875 16.15625 -1.171875 
Q 10.203125 -1.171875 7.484375 0.84375 
Q 4.78125 2.875 4.78125 5.328125 
Q 4.78125 6.6875 5.90625 7.734375 
Q 7.03125 8.796875 8.734375 8.796875 
Q 10.015625 8.796875 10.96875 8.40625 
Q 11.921875 8.015625 14.203125 6.390625 
Q 17.875 3.859375 21.625 3.859375 
Q 27.34375 3.859375 31.65625 8.171875 
Q 35.984375 12.5 35.984375 18.703125 
Q 35.984375 24.703125 32.125 29.90625 
Q 28.265625 35.109375 21.484375 37.9375 
Q 16.15625 40.140625 6.984375 40.484375 
L 19.671875 66.21875 
z
" id="TimesNewRomanPSMT-53"/>
       </defs>
       <use xlink:href="#TimesNewRomanPSMT-50"/>
       <use x="50" xlink:href="#TimesNewRomanPSMT-46"/>
       <use x="75" xlink:href="#TimesNewRomanPSMT-53"/>
      </g>
     </g>
    </g>
    <g id="xtick_3">
     <g id="line2d_5">
      <path clip-path="url(#pe21647e723)" d="M 187.724627 293.1995 
L 187.724627 27.0875 
" style="fill:none;stroke:#b0b0b0;stroke-linecap:square;stroke-width:0.8;"/>
     </g>
     <g id="line2d_6">
      <g>
       <use style="stroke:#000000;stroke-width:0.8;" x="187.724627" xlink:href="#mbfc850950e" y="293.1995"/>
      </g>
     </g>
     <g id="text_3">
      <!-- 5.0 -->
      <g transform="translate(177.724627 311.3095)scale(0.16 -0.16)">
       <use xlink:href="#TimesNewRomanPSMT-53"/>
       <use x="50" xlink:href="#TimesNewRomanPSMT-46"/>
       <use x="75" xlink:href="#TimesNewRomanPSMT-48"/>
      </g>
     </g>
    </g>
    <g id="xtick_4">
     <g id="line2d_7">
      <path clip-path="url(#pe21647e723)" d="M 244.518156 293.1995 
L 244.518156 27.0875 
" style="fill:none;stroke:#b0b0b0;stroke-linecap:square;stroke-width:0.8;"/>
     </g>
     <g id="line2d_8">
      <g>
       <use style="stroke:#000000;stroke-width:0.8;" x="244.518156" xlink:href="#mbfc850950e" y="293.1995"/>
      </g>
     </g>
     <g id="text_4">
      <!-- 7.5 -->
      <g transform="translate(234.518156 311.3095)scale(0.16 -0.16)">
       <defs>
        <path d="M 10.0625 66.21875 
L 45.5625 66.21875 
L 45.5625 64.359375 
L 23.484375 -1.375 
L 18.015625 -1.375 
L 37.796875 58.25 
L 19.578125 58.25 
Q 14.0625 58.25 11.71875 56.9375 
Q 7.625 54.6875 5.125 50 
L 3.71875 50.53125 
z
" id="TimesNewRomanPSMT-55"/>
       </defs>
       <use xlink:href="#TimesNewRomanPSMT-55"/>
       <use x="50" xlink:href="#TimesNewRomanPSMT-46"/>
       <use x="75" xlink:href="#TimesNewRomanPSMT-53"/>
      </g>
     </g>
    </g>
    <g id="xtick_5">
     <g id="line2d_9">
      <path clip-path="url(#pe21647e723)" d="M 301.311686 293.1995 
L 301.311686 27.0875 
" style="fill:none;stroke:#b0b0b0;stroke-linecap:square;stroke-width:0.8;"/>
     </g>
     <g id="line2d_10">
      <g>
       <use style="stroke:#000000;stroke-width:0.8;" x="301.311686" xlink:href="#mbfc850950e" y="293.1995"/>
      </g>
     </g>
     <g id="text_5">
      <!-- 10.0 -->
      <g transform="translate(287.311686 311.3095)scale(0.16 -0.16)">
       <defs>
        <path d="M 11.71875 59.71875 
L 27.828125 67.578125 
L 29.4375 67.578125 
L 29.4375 11.671875 
Q 29.4375 6.109375 29.90625 4.734375 
Q 30.375 3.375 31.828125 2.640625 
Q 33.296875 1.90625 37.796875 1.8125 
L 37.796875 0 
L 12.890625 0 
L 12.890625 1.8125 
Q 17.578125 1.90625 18.9375 2.609375 
Q 20.3125 3.328125 20.84375 4.515625 
Q 21.390625 5.71875 21.390625 11.671875 
L 21.390625 47.40625 
Q 21.390625 54.640625 20.90625 56.6875 
Q 20.5625 58.25 19.65625 58.984375 
Q 18.75 59.71875 17.484375 59.71875 
Q 15.671875 59.71875 12.453125 58.203125 
z
" id="TimesNewRomanPSMT-49"/>
       </defs>
       <use xlink:href="#TimesNewRomanPSMT-49"/>
       <use x="50" xlink:href="#TimesNewRomanPSMT-48"/>
       <use x="100" xlink:href="#TimesNewRomanPSMT-46"/>
       <use x="125" xlink:href="#TimesNewRomanPSMT-48"/>
      </g>
     </g>
    </g>
    <g id="xtick_6">
     <g id="line2d_11">
      <path clip-path="url(#pe21647e723)" d="M 358.105215 293.1995 
L 358.105215 27.0875 
" style="fill:none;stroke:#b0b0b0;stroke-linecap:square;stroke-width:0.8;"/>
     </g>
     <g id="line2d_12">
      <g>
       <use style="stroke:#000000;stroke-width:0.8;" x="358.105215" xlink:href="#mbfc850950e" y="293.1995"/>
      </g>
     </g>
     <g id="text_6">
      <!-- 12.5 -->
      <g transform="translate(344.105215 311.3095)scale(0.16 -0.16)">
       <use xlink:href="#TimesNewRomanPSMT-49"/>
       <use x="50" xlink:href="#TimesNewRomanPSMT-50"/>
       <use x="100" xlink:href="#TimesNewRomanPSMT-46"/>
       <use x="125" xlink:href="#TimesNewRomanPSMT-53"/>
      </g>
     </g>
    </g>
    <g id="xtick_7">
     <g id="line2d_13">
      <path clip-path="url(#pe21647e723)" d="M 414.898745 293.1995 
L 414.898745 27.0875 
" style="fill:none;stroke:#b0b0b0;stroke-linecap:square;stroke-width:0.8;"/>
     </g>
     <g id="line2d_14">
      <g>
       <use style="stroke:#000000;stroke-width:0.8;" x="414.898745" xlink:href="#mbfc850950e" y="293.1995"/>
      </g>
     </g>
     <g id="text_7">
      <!-- 15.0 -->
      <g transform="translate(400.898745 311.3095)scale(0.16 -0.16)">
       <use xlink:href="#TimesNewRomanPSMT-49"/>
       <use x="50" xlink:href="#TimesNewRomanPSMT-53"/>
       <use x="100" xlink:href="#TimesNewRomanPSMT-46"/>
       <use x="125" xlink:href="#TimesNewRomanPSMT-48"/>
      </g>
     </g>
    </g>
    <g id="text_8">
     <!-- Time [s] -->
     <g transform="translate(209.45875 329.842)scale(0.16 -0.16)">
      <defs>
       <path d="M 57.859375 66.21875 
L 58.59375 50.6875 
L 56.734375 50.6875 
Q 56.203125 54.78125 55.28125 56.546875 
Q 53.765625 59.375 51.25 60.71875 
Q 48.734375 62.0625 44.625 62.0625 
L 35.296875 62.0625 
L 35.296875 11.46875 
Q 35.296875 5.375 36.625 3.859375 
Q 38.484375 1.8125 42.328125 1.8125 
L 44.625 1.8125 
L 44.625 0 
L 16.546875 0 
L 16.546875 1.8125 
L 18.890625 1.8125 
Q 23.09375 1.8125 24.859375 4.34375 
Q 25.921875 5.90625 25.921875 11.46875 
L 25.921875 62.0625 
L 17.96875 62.0625 
Q 13.328125 62.0625 11.375 61.375 
Q 8.84375 60.453125 7.03125 57.8125 
Q 5.21875 55.171875 4.890625 50.6875 
L 3.03125 50.6875 
L 3.8125 66.21875 
z
" id="TimesNewRomanPSMT-84"/>
       <path d="M 14.5 69.4375 
Q 16.546875 69.4375 17.984375 67.984375 
Q 19.4375 66.546875 19.4375 64.5 
Q 19.4375 62.453125 17.984375 60.984375 
Q 16.546875 59.515625 14.5 59.515625 
Q 12.453125 59.515625 10.984375 60.984375 
Q 9.515625 62.453125 9.515625 64.5 
Q 9.515625 66.546875 10.953125 67.984375 
Q 12.40625 69.4375 14.5 69.4375 
z
M 18.5625 46.046875 
L 18.5625 10.109375 
Q 18.5625 5.90625 19.171875 4.515625 
Q 19.78125 3.125 20.96875 2.4375 
Q 22.171875 1.765625 25.34375 1.765625 
L 25.34375 0 
L 3.609375 0 
L 3.609375 1.765625 
Q 6.890625 1.765625 8 2.390625 
Q 9.125 3.03125 9.78125 4.484375 
Q 10.453125 5.953125 10.453125 10.109375 
L 10.453125 27.34375 
Q 10.453125 34.625 10.015625 36.765625 
Q 9.671875 38.328125 8.9375 38.9375 
Q 8.203125 39.546875 6.9375 39.546875 
Q 5.5625 39.546875 3.609375 38.8125 
L 2.9375 40.578125 
L 16.40625 46.046875 
z
" id="TimesNewRomanPSMT-105"/>
       <path d="M 16.40625 36.53125 
Q 21.296875 41.40625 22.171875 42.140625 
Q 24.359375 44 26.890625 45.015625 
Q 29.4375 46.046875 31.9375 46.046875 
Q 36.140625 46.046875 39.15625 43.59375 
Q 42.1875 41.15625 43.21875 36.53125 
Q 48.25 42.390625 51.703125 44.21875 
Q 55.171875 46.046875 58.84375 46.046875 
Q 62.40625 46.046875 65.15625 44.21875 
Q 67.921875 42.390625 69.53125 38.234375 
Q 70.609375 35.40625 70.609375 29.34375 
L 70.609375 10.109375 
Q 70.609375 5.90625 71.234375 4.34375 
Q 71.734375 3.265625 73.046875 2.515625 
Q 74.359375 1.765625 77.34375 1.765625 
L 77.34375 0 
L 55.28125 0 
L 55.28125 1.765625 
L 56.203125 1.765625 
Q 59.078125 1.765625 60.6875 2.875 
Q 61.8125 3.65625 62.3125 5.375 
Q 62.5 6.203125 62.5 10.109375 
L 62.5 29.34375 
Q 62.5 34.8125 61.1875 37.0625 
Q 59.28125 40.1875 55.078125 40.1875 
Q 52.484375 40.1875 49.875 38.890625 
Q 47.265625 37.59375 43.5625 34.078125 
L 43.453125 33.546875 
L 43.5625 31.453125 
L 43.5625 10.109375 
Q 43.5625 5.515625 44.0625 4.390625 
Q 44.578125 3.265625 45.984375 2.515625 
Q 47.40625 1.765625 50.828125 1.765625 
L 50.828125 0 
L 28.21875 0 
L 28.21875 1.765625 
Q 31.9375 1.765625 33.328125 2.640625 
Q 34.71875 3.515625 35.25 5.28125 
Q 35.5 6.109375 35.5 10.109375 
L 35.5 29.34375 
Q 35.5 34.8125 33.890625 37.203125 
Q 31.734375 40.328125 27.875 40.328125 
Q 25.25 40.328125 22.65625 38.921875 
Q 18.609375 36.765625 16.40625 34.078125 
L 16.40625 10.109375 
Q 16.40625 5.71875 17.015625 4.390625 
Q 17.625 3.078125 18.8125 2.421875 
Q 20.015625 1.765625 23.6875 1.765625 
L 23.6875 0 
L 1.5625 0 
L 1.5625 1.765625 
Q 4.640625 1.765625 5.859375 2.421875 
Q 7.078125 3.078125 7.703125 4.515625 
Q 8.34375 5.953125 8.34375 10.109375 
L 8.34375 27.203125 
Q 8.34375 34.578125 7.90625 36.71875 
Q 7.5625 38.328125 6.828125 38.9375 
Q 6.109375 39.546875 4.828125 39.546875 
Q 3.46875 39.546875 1.5625 38.8125 
L 0.828125 40.578125 
L 14.3125 46.046875 
L 16.40625 46.046875 
z
" id="TimesNewRomanPSMT-109"/>
       <path d="M 10.640625 27.875 
Q 10.59375 17.921875 15.484375 12.25 
Q 20.359375 6.59375 26.953125 6.59375 
Q 31.34375 6.59375 34.59375 9 
Q 37.84375 11.421875 40.046875 17.28125 
L 41.546875 16.3125 
Q 40.53125 9.625 35.59375 4.125 
Q 30.671875 -1.375 23.25 -1.375 
Q 15.1875 -1.375 9.453125 4.90625 
Q 3.71875 11.1875 3.71875 21.78125 
Q 3.71875 33.25 9.59375 39.671875 
Q 15.484375 46.09375 24.359375 46.09375 
Q 31.890625 46.09375 36.71875 41.140625 
Q 41.546875 36.1875 41.546875 27.875 
z
M 10.640625 30.71875 
L 31.34375 30.71875 
Q 31.109375 35.015625 30.328125 36.765625 
Q 29.109375 39.5 26.6875 41.0625 
Q 24.265625 42.625 21.625 42.625 
Q 17.578125 42.625 14.375 39.46875 
Q 11.1875 36.328125 10.640625 30.71875 
z
" id="TimesNewRomanPSMT-101"/>
       <path id="TimesNewRomanPSMT-32"/>
       <path d="M 29.6875 -19.828125 
L 8.203125 -19.828125 
L 8.203125 67.71875 
L 29.6875 67.71875 
L 29.6875 63.875 
L 15.53125 63.875 
L 15.53125 -16.015625 
L 29.6875 -16.015625 
z
" id="TimesNewRomanPSMT-91"/>
       <path d="M 32.03125 46.046875 
L 32.03125 30.8125 
L 30.421875 30.8125 
Q 28.5625 37.984375 25.65625 40.578125 
Q 22.75 43.171875 18.265625 43.171875 
Q 14.84375 43.171875 12.734375 41.359375 
Q 10.640625 39.546875 10.640625 37.359375 
Q 10.640625 34.625 12.203125 32.671875 
Q 13.71875 30.671875 18.359375 28.421875 
L 25.484375 24.953125 
Q 35.40625 20.125 35.40625 12.203125 
Q 35.40625 6.109375 30.78125 2.359375 
Q 26.171875 -1.375 20.453125 -1.375 
Q 16.359375 -1.375 11.078125 0.09375 
Q 9.46875 0.59375 8.453125 0.59375 
Q 7.328125 0.59375 6.6875 -0.6875 
L 5.078125 -0.6875 
L 5.078125 15.28125 
L 6.6875 15.28125 
Q 8.0625 8.453125 11.90625 4.984375 
Q 15.765625 1.515625 20.5625 1.515625 
Q 23.921875 1.515625 26.046875 3.484375 
Q 28.171875 5.46875 28.171875 8.25 
Q 28.171875 11.625 25.796875 13.921875 
Q 23.4375 16.21875 16.359375 19.734375 
Q 9.28125 23.25 7.078125 26.078125 
Q 4.890625 28.859375 4.890625 33.109375 
Q 4.890625 38.625 8.671875 42.328125 
Q 12.453125 46.046875 18.453125 46.046875 
Q 21.09375 46.046875 24.859375 44.921875 
Q 27.34375 44.1875 28.171875 44.1875 
Q 28.953125 44.1875 29.390625 44.53125 
Q 29.828125 44.875 30.421875 46.046875 
z
" id="TimesNewRomanPSMT-115"/>
       <path d="M 3.65625 67.71875 
L 25.140625 67.71875 
L 25.140625 -19.875 
L 3.65625 -19.875 
L 3.65625 -16.015625 
L 17.828125 -16.015625 
L 17.828125 63.875 
L 3.65625 63.875 
z
" id="TimesNewRomanPSMT-93"/>
      </defs>
      <use xlink:href="#TimesNewRomanPSMT-84"/>
      <use x="57.583984" xlink:href="#TimesNewRomanPSMT-105"/>
      <use x="85.367188" xlink:href="#TimesNewRomanPSMT-109"/>
      <use x="163.150391" xlink:href="#TimesNewRomanPSMT-101"/>
      <use x="207.535156" xlink:href="#TimesNewRomanPSMT-32"/>
      <use x="232.535156" xlink:href="#TimesNewRomanPSMT-91"/>
      <use x="265.835938" xlink:href="#TimesNewRomanPSMT-115"/>
      <use x="304.751953" xlink:href="#TimesNewRomanPSMT-93"/>
     </g>
    </g>
   </g>
   <g id="matplotlib.axis_2">
    <g id="ytick_1">
     <g id="line2d_15">
      <path clip-path="url(#pe21647e723)" d="M 57.9425 272.804358 
L 415.0625 272.804358 
" style="fill:none;stroke:#b0b0b0;stroke-linecap:square;stroke-width:0.8;"/>
     </g>
     <g id="line2d_16">
      <defs>
       <path d="M 0 0 
L -3.5 0 
" id="md5736d7ac5" style="stroke:#000000;stroke-width:0.8;"/>
      </defs>
      <g>
       <use style="stroke:#000000;stroke-width:0.8;" x="57.9425" xlink:href="#md5736d7ac5" y="272.804358"/>
      </g>
     </g>
     <g id="text_9">
      <!-- −60 -->
      <g transform="translate(25.92 278.359358)scale(0.16 -0.16)">
       <defs>
        <path d="M 54.4375 31.25 
L 1.8125 31.25 
L 1.8125 35.25 
L 54.4375 35.25 
z
" id="TimesNewRomanPSMT-8722"/>
        <path d="M 44.828125 67.578125 
L 44.828125 65.765625 
Q 38.375 65.140625 34.296875 63.203125 
Q 30.21875 61.28125 26.234375 57.328125 
Q 22.265625 53.375 19.65625 48.515625 
Q 17.046875 43.65625 15.28125 36.96875 
Q 22.3125 41.796875 29.390625 41.796875 
Q 36.1875 41.796875 41.15625 36.328125 
Q 46.140625 30.859375 46.140625 22.265625 
Q 46.140625 13.96875 41.109375 7.125 
Q 35.0625 -1.171875 25.09375 -1.171875 
Q 18.3125 -1.171875 13.578125 3.328125 
Q 4.296875 12.0625 4.296875 25.984375 
Q 4.296875 34.859375 7.859375 42.859375 
Q 11.421875 50.875 18.03125 57.078125 
Q 24.65625 63.28125 30.703125 65.421875 
Q 36.765625 67.578125 42 67.578125 
z
M 14.453125 33.40625 
Q 13.578125 26.8125 13.578125 22.75 
Q 13.578125 18.0625 15.3125 12.5625 
Q 17.046875 7.078125 20.453125 3.859375 
Q 22.953125 1.5625 26.515625 1.5625 
Q 30.765625 1.5625 34.109375 5.5625 
Q 37.453125 9.578125 37.453125 17 
Q 37.453125 25.34375 34.125 31.4375 
Q 30.8125 37.546875 24.703125 37.546875 
Q 22.859375 37.546875 20.734375 36.765625 
Q 18.609375 35.984375 14.453125 33.40625 
z
" id="TimesNewRomanPSMT-54"/>
       </defs>
       <use xlink:href="#TimesNewRomanPSMT-8722"/>
       <use x="56.396484" xlink:href="#TimesNewRomanPSMT-54"/>
       <use x="106.396484" xlink:href="#TimesNewRomanPSMT-48"/>
      </g>
     </g>
    </g>
    <g id="ytick_2">
     <g id="line2d_17">
      <path clip-path="url(#pe21647e723)" d="M 57.9425 233.952076 
L 415.0625 233.952076 
" style="fill:none;stroke:#b0b0b0;stroke-linecap:square;stroke-width:0.8;"/>
     </g>
     <g id="line2d_18">
      <g>
       <use style="stroke:#000000;stroke-width:0.8;" x="57.9425" xlink:href="#md5736d7ac5" y="233.952076"/>
      </g>
     </g>
     <g id="text_10">
      <!-- −40 -->
      <g transform="translate(25.92 239.507076)scale(0.16 -0.16)">
       <defs>
        <path d="M 46.53125 24.421875 
L 46.53125 17.484375 
L 37.640625 17.484375 
L 37.640625 0 
L 29.59375 0 
L 29.59375 17.484375 
L 1.5625 17.484375 
L 1.5625 23.734375 
L 32.28125 67.578125 
L 37.640625 67.578125 
L 37.640625 24.421875 
z
M 29.59375 24.421875 
L 29.59375 57.28125 
L 6.34375 24.421875 
z
" id="TimesNewRomanPSMT-52"/>
       </defs>
       <use xlink:href="#TimesNewRomanPSMT-8722"/>
       <use x="56.396484" xlink:href="#TimesNewRomanPSMT-52"/>
       <use x="106.396484" xlink:href="#TimesNewRomanPSMT-48"/>
      </g>
     </g>
    </g>
    <g id="ytick_3">
     <g id="line2d_19">
      <path clip-path="url(#pe21647e723)" d="M 57.9425 195.099795 
L 415.0625 195.099795 
" style="fill:none;stroke:#b0b0b0;stroke-linecap:square;stroke-width:0.8;"/>
     </g>
     <g id="line2d_20">
      <g>
       <use style="stroke:#000000;stroke-width:0.8;" x="57.9425" xlink:href="#md5736d7ac5" y="195.099795"/>
      </g>
     </g>
     <g id="text_11">
      <!-- −20 -->
      <g transform="translate(25.92 200.654795)scale(0.16 -0.16)">
       <use xlink:href="#TimesNewRomanPSMT-8722"/>
       <use x="56.396484" xlink:href="#TimesNewRomanPSMT-50"/>
       <use x="106.396484" xlink:href="#TimesNewRomanPSMT-48"/>
      </g>
     </g>
    </g>
    <g id="ytick_4">
     <g id="line2d_21">
      <path clip-path="url(#pe21647e723)" d="M 57.9425 156.247514 
L 415.0625 156.247514 
" style="fill:none;stroke:#b0b0b0;stroke-linecap:square;stroke-width:0.8;"/>
     </g>
     <g id="line2d_22">
      <g>
       <use style="stroke:#000000;stroke-width:0.8;" x="57.9425" xlink:href="#md5736d7ac5" y="156.247514"/>
      </g>
     </g>
     <g id="text_12">
      <!-- 0 -->
      <g transform="translate(42.9425 161.802514)scale(0.16 -0.16)">
       <use xlink:href="#TimesNewRomanPSMT-48"/>
      </g>
     </g>
    </g>
    <g id="ytick_5">
     <g id="line2d_23">
      <path clip-path="url(#pe21647e723)" d="M 57.9425 117.395232 
L 415.0625 117.395232 
" style="fill:none;stroke:#b0b0b0;stroke-linecap:square;stroke-width:0.8;"/>
     </g>
     <g id="line2d_24">
      <g>
       <use style="stroke:#000000;stroke-width:0.8;" x="57.9425" xlink:href="#md5736d7ac5" y="117.395232"/>
      </g>
     </g>
     <g id="text_13">
      <!-- 20 -->
      <g transform="translate(34.9425 122.950232)scale(0.16 -0.16)">
       <use xlink:href="#TimesNewRomanPSMT-50"/>
       <use x="50" xlink:href="#TimesNewRomanPSMT-48"/>
      </g>
     </g>
    </g>
    <g id="ytick_6">
     <g id="line2d_25">
      <path clip-path="url(#pe21647e723)" d="M 57.9425 78.542951 
L 415.0625 78.542951 
" style="fill:none;stroke:#b0b0b0;stroke-linecap:square;stroke-width:0.8;"/>
     </g>
     <g id="line2d_26">
      <g>
       <use style="stroke:#000000;stroke-width:0.8;" x="57.9425" xlink:href="#md5736d7ac5" y="78.542951"/>
      </g>
     </g>
     <g id="text_14">
      <!-- 40 -->
      <g transform="translate(34.9425 84.097951)scale(0.16 -0.16)">
       <use xlink:href="#TimesNewRomanPSMT-52"/>
       <use x="50" xlink:href="#TimesNewRomanPSMT-48"/>
      </g>
     </g>
    </g>
    <g id="ytick_7">
     <g id="line2d_27">
      <path clip-path="url(#pe21647e723)" d="M 57.9425 39.69067 
L 415.0625 39.69067 
" style="fill:none;stroke:#b0b0b0;stroke-linecap:square;stroke-width:0.8;"/>
     </g>
     <g id="line2d_28">
      <g>
       <use style="stroke:#000000;stroke-width:0.8;" x="57.9425" xlink:href="#md5736d7ac5" y="39.69067"/>
      </g>
     </g>
     <g id="text_15">
      <!-- 60 -->
      <g transform="translate(34.9425 45.24567)scale(0.16 -0.16)">
       <use xlink:href="#TimesNewRomanPSMT-54"/>
       <use x="50" xlink:href="#TimesNewRomanPSMT-48"/>
      </g>
     </g>
    </g>
    <g id="text_16">
     <!-- Angle [$^\circ$] -->
     <g transform="translate(18.4 191.1035)rotate(-90)scale(0.16 -0.16)">
      <defs>
       <path d="M 45.75 22.171875 
L 20.125 22.171875 
L 15.625 11.71875 
Q 13.96875 7.859375 13.96875 5.953125 
Q 13.96875 4.4375 15.40625 3.296875 
Q 16.84375 2.15625 21.625 1.8125 
L 21.625 0 
L 0.78125 0 
L 0.78125 1.8125 
Q 4.9375 2.546875 6.15625 3.71875 
Q 8.640625 6.0625 11.671875 13.234375 
L 34.96875 67.71875 
L 36.671875 67.71875 
L 59.71875 12.640625 
Q 62.5 6 64.765625 4.015625 
Q 67.046875 2.046875 71.09375 1.8125 
L 71.09375 0 
L 44.96875 0 
L 44.96875 1.8125 
Q 48.921875 2 50.3125 3.125 
Q 51.703125 4.25 51.703125 5.859375 
Q 51.703125 8.015625 49.75 12.640625 
z
M 44.390625 25.78125 
L 33.15625 52.546875 
L 21.625 25.78125 
z
" id="TimesNewRomanPSMT-65"/>
       <path d="M 16.15625 36.578125 
Q 24.03125 46.046875 31.15625 46.046875 
Q 34.8125 46.046875 37.453125 44.21875 
Q 40.09375 42.390625 41.65625 38.1875 
Q 42.71875 35.25 42.71875 29.203125 
L 42.71875 10.109375 
Q 42.71875 5.859375 43.40625 4.34375 
Q 43.953125 3.125 45.140625 2.4375 
Q 46.34375 1.765625 49.5625 1.765625 
L 49.5625 0 
L 27.4375 0 
L 27.4375 1.765625 
L 28.375 1.765625 
Q 31.5 1.765625 32.734375 2.703125 
Q 33.984375 3.65625 34.46875 5.515625 
Q 34.671875 6.25 34.671875 10.109375 
L 34.671875 28.421875 
Q 34.671875 34.515625 33.078125 37.28125 
Q 31.5 40.046875 27.734375 40.046875 
Q 21.921875 40.046875 16.15625 33.6875 
L 16.15625 10.109375 
Q 16.15625 5.5625 16.703125 4.5 
Q 17.390625 3.078125 18.578125 2.421875 
Q 19.78125 1.765625 23.4375 1.765625 
L 23.4375 0 
L 1.3125 0 
L 1.3125 1.765625 
L 2.296875 1.765625 
Q 5.71875 1.765625 6.90625 3.484375 
Q 8.109375 5.21875 8.109375 10.109375 
L 8.109375 26.703125 
Q 8.109375 34.765625 7.734375 36.515625 
Q 7.375 38.28125 6.609375 38.90625 
Q 5.859375 39.546875 4.59375 39.546875 
Q 3.21875 39.546875 1.3125 38.8125 
L 0.59375 40.578125 
L 14.0625 46.046875 
L 16.15625 46.046875 
z
" id="TimesNewRomanPSMT-110"/>
       <path d="M 15.09375 16.3125 
Q 10.984375 18.3125 8.78125 21.890625 
Q 6.59375 25.484375 6.59375 29.828125 
Q 6.59375 36.46875 11.59375 41.25 
Q 16.609375 46.046875 24.421875 46.046875 
Q 30.8125 46.046875 35.5 42.921875 
L 44.96875 42.921875 
Q 47.078125 42.921875 47.40625 42.796875 
Q 47.75 42.671875 47.90625 42.390625 
Q 48.1875 41.9375 48.1875 40.828125 
Q 48.1875 39.546875 47.953125 39.0625 
Q 47.796875 38.8125 47.4375 38.671875 
Q 47.078125 38.53125 44.96875 38.53125 
L 39.15625 38.53125 
Q 41.890625 35.015625 41.890625 29.546875 
Q 41.890625 23.296875 37.109375 18.84375 
Q 32.328125 14.40625 24.265625 14.40625 
Q 20.953125 14.40625 17.484375 15.375 
Q 15.328125 13.53125 14.5625 12.140625 
Q 13.8125 10.75 13.8125 9.765625 
Q 13.8125 8.9375 14.625 8.15625 
Q 15.4375 7.375 17.78125 7.03125 
Q 19.140625 6.84375 24.609375 6.6875 
Q 34.671875 6.453125 37.640625 6 
Q 42.1875 5.375 44.890625 2.640625 
Q 47.609375 -0.09375 47.609375 -4.109375 
Q 47.609375 -9.625 42.4375 -14.453125 
Q 34.8125 -21.578125 22.5625 -21.578125 
Q 13.140625 -21.578125 6.640625 -17.328125 
Q 2.984375 -14.890625 2.984375 -12.25 
Q 2.984375 -11.078125 3.515625 -9.90625 
Q 4.34375 -8.109375 6.9375 -4.890625 
Q 7.28125 -4.4375 11.921875 0.390625 
Q 9.375 1.90625 8.328125 3.09375 
Q 7.28125 4.296875 7.28125 5.8125 
Q 7.28125 7.515625 8.671875 9.8125 
Q 10.0625 12.109375 15.09375 16.3125 
z
M 23.578125 43.703125 
Q 19.96875 43.703125 17.53125 40.8125 
Q 15.09375 37.9375 15.09375 31.984375 
Q 15.09375 24.265625 18.40625 20.015625 
Q 20.953125 16.796875 24.859375 16.796875 
Q 28.5625 16.796875 30.953125 19.578125 
Q 33.34375 22.359375 33.34375 28.328125 
Q 33.34375 36.078125 29.984375 40.484375 
Q 27.484375 43.703125 23.578125 43.703125 
z
M 14.59375 0 
Q 12.3125 -2.484375 11.140625 -4.625 
Q 9.96875 -6.78125 9.96875 -8.59375 
Q 9.96875 -10.9375 12.796875 -12.703125 
Q 17.671875 -15.71875 26.90625 -15.71875 
Q 35.6875 -15.71875 39.859375 -12.609375 
Q 44.046875 -9.515625 44.046875 -6 
Q 44.046875 -3.46875 41.546875 -2.390625 
Q 39.015625 -1.3125 31.5 -1.125 
Q 20.515625 -0.828125 14.59375 0 
z
" id="TimesNewRomanPSMT-103"/>
       <path d="M 18.5 69.4375 
L 18.5 10.109375 
Q 18.5 5.90625 19.109375 4.53125 
Q 19.734375 3.171875 21 2.46875 
Q 22.265625 1.765625 25.734375 1.765625 
L 25.734375 0 
L 3.8125 0 
L 3.8125 1.765625 
Q 6.890625 1.765625 8 2.390625 
Q 9.125 3.03125 9.765625 4.484375 
Q 10.40625 5.953125 10.40625 10.109375 
L 10.40625 50.734375 
Q 10.40625 58.296875 10.0625 60.03125 
Q 9.71875 61.765625 8.953125 62.390625 
Q 8.203125 63.03125 7.03125 63.03125 
Q 5.765625 63.03125 3.8125 62.25 
L 2.984375 63.96875 
L 16.3125 69.4375 
z
" id="TimesNewRomanPSMT-108"/>
       <path d="M 23.203125 38.703125 
Q 31 30.796875 31 25.1875 
Q 31 19.59375 27.046875 15.640625 
Q 23.09375 11.703125 17.5 11.703125 
Q 11.796875 11.703125 7.890625 15.640625 
Q 4 19.59375 4 25.40625 
Q 4 31 7.953125 34.84375 
Q 11.90625 38.703125 17.703125 38.703125 
Q 23.203125 38.703125 31 30.796875 
z
M 20.40625 18.296875 
Q 24.40625 22.296875 24.40625 25.1875 
Q 24.40625 28.09375 22.40625 30.09375 
Q 20.40625 32.09375 17.703125 32.09375 
Q 14.59375 32.09375 12.59375 30.140625 
Q 10.59375 28.203125 10.59375 25.40625 
Q 10.59375 22.296875 12.546875 20.296875 
Q 14.5 18.296875 17.5 18.296875 
Q 20.40625 18.296875 24.40625 22.296875 
z
" id="STIXGeneral-Regular-8728"/>
      </defs>
      <use transform="translate(0 0.5625)" xlink:href="#TimesNewRomanPSMT-65"/>
      <use transform="translate(72.216797 0.5625)" xlink:href="#TimesNewRomanPSMT-110"/>
      <use transform="translate(122.216797 0.5625)" xlink:href="#TimesNewRomanPSMT-103"/>
      <use transform="translate(172.216797 0.5625)" xlink:href="#TimesNewRomanPSMT-108"/>
      <use transform="translate(200 0.5625)" xlink:href="#TimesNewRomanPSMT-101"/>
      <use transform="translate(244.384766 0.5625)" xlink:href="#TimesNewRomanPSMT-32"/>
      <use transform="translate(269.384766 0.5625)" xlink:href="#TimesNewRomanPSMT-91"/>
      <use transform="translate(314.336826 35.8375)scale(0.7)" xlink:href="#STIXGeneral-Regular-8728"/>
      <use transform="translate(353.354187 0.5625)" xlink:href="#TimesNewRomanPSMT-93"/>
     </g>
    </g>
   </g>
   <g id="line2d_29">
    <path clip-path="url(#pe21647e723)" d="M 74.175227 133.19434 
L 74.565425 133.501716 
L 74.885764 132.579589 
L 75.264912 133.501716 
L 75.683307 167.927788 
L 76.405738 179.915438 
L 76.790032 180.53019 
L 77.167658 177.763809 
L 78.69515 151.944255 
L 79.505801 151.944255 
L 79.820647 152.25163 
L 80.198139 153.173757 
L 81.013035 157.477016 
L 81.33546 160.243397 
L 82.095295 163.009778 
L 82.467067 164.23928 
L 83.231614 164.23928 
L 83.655479 163.317154 
L 84.033972 162.087651 
L 84.801553 155.632762 
L 85.121274 155.325387 
L 85.572464 155.325387 
L 85.873651 154.710636 
L 86.25989 155.632762 
L 86.689139 156.247514 
L 87.016475 157.169641 
L 87.771988 158.399143 
L 88.964832 161.165524 
L 89.343011 161.4729 
L 89.671728 162.702402 
L 90.118721 162.702402 
L 90.431315 162.087651 
L 90.861192 159.013895 
L 91.989495 159.936021 
L 92.310267 162.702402 
L 92.684216 163.624529 
L 93.404881 166.083534 
L 93.788877 165.776159 
L 94.155281 162.702402 
L 94.57106 160.550773 
L 94.941737 159.628646 
L 95.311808 159.32127 
L 96.05071 161.780275 
L 96.417162 162.395027 
L 97.156681 163.009778 
L 97.52425 163.624529 
L 98.586545 162.702402 
L 99.001176 163.931905 
L 99.378835 163.931905 
L 99.699173 164.23928 
L 100.066217 163.624529 
L 100.475447 164.23928 
L 100.845312 163.931905 
L 101.171013 165.468783 
L 101.582697 165.161407 
L 101.95292 166.083534 
L 102.320786 164.23928 
L 102.689422 164.854032 
L 103.011532 163.624529 
L 103.427213 165.161407 
L 103.796666 164.23928 
L 104.165123 165.161407 
L 104.490933 163.317154 
L 104.904864 163.931905 
L 105.271913 163.624529 
L 106.046145 163.624529 
L 106.388728 164.546656 
L 106.715648 164.854032 
L 107.108321 165.776159 
L 107.498199 164.854032 
L 107.870512 163.624529 
L 108.249985 163.624529 
L 108.604127 163.931905 
L 109.339281 165.161407 
L 109.685542 165.161407 
L 110.034186 165.468783 
L 111.141073 163.931905 
L 111.556343 163.009778 
L 111.881204 159.628646 
L 112.293977 162.395027 
L 112.987793 154.40326 
L 113.400089 158.091768 
L 113.723586 157.477016 
L 114.469263 160.858148 
L 114.877015 161.4729 
L 115.244128 161.165524 
L 115.57628 163.009778 
L 115.937788 161.780275 
L 116.354238 161.780275 
L 116.671419 161.165524 
L 117.096281 161.165524 
L 117.45397 157.477016 
L 117.785548 159.936021 
L 118.198852 159.936021 
L 118.518573 159.628646 
L 118.887301 157.784392 
L 119.255682 164.546656 
L 119.673204 160.243397 
L 119.992411 165.161407 
L 120.368814 163.931905 
L 120.776414 164.23928 
L 121.142953 163.009778 
L 121.472543 162.395027 
L 121.839993 159.936021 
L 122.207447 159.32127 
L 122.577193 158.091768 
L 122.946604 158.399143 
L 123.315716 159.32127 
L 123.681372 162.395027 
L 124.053372 161.165524 
L 124.470667 163.009778 
L 124.789467 159.936021 
L 125.161683 158.706519 
L 125.527643 160.550773 
L 125.940324 159.32127 
L 126.26941 159.936021 
L 126.677124 161.780275 
L 127.005208 161.165524 
L 127.416892 161.4729 
L 127.742154 159.628646 
L 128.154889 162.702402 
L 128.478905 159.013895 
L 128.838344 162.395027 
L 129.210359 162.087651 
L 130.01002 160.550773 
L 130.333576 159.32127 
L 131.095205 158.091768 
L 131.847425 157.477016 
L 132.672293 157.477016 
L 133.422059 158.091768 
L 133.773406 158.091768 
L 134.180254 158.399143 
L 134.561406 157.784392 
L 134.959777 157.784392 
L 135.699274 157.169641 
L 136.045259 157.169641 
L 136.403945 156.862265 
L 140.631065 156.554889 
L 140.953971 156.247514 
L 142.098902 155.940138 
L 142.542894 155.940138 
L 143.288371 155.325387 
L 143.665044 155.018011 
L 144.053487 155.018011 
L 144.426645 154.40326 
L 145.141834 154.40326 
L 145.509809 153.481133 
L 145.941761 153.788509 
L 146.26503 153.481133 
L 146.710089 153.481133 
L 147.080154 152.866382 
L 147.47755 152.866382 
L 147.781034 152.559006 
L 148.169065 152.559006 
L 148.547108 153.173757 
L 149.35589 153.788509 
L 150.117811 153.173757 
L 150.493174 153.481133 
L 150.871667 153.173757 
L 151.193208 154.40326 
L 151.573678 154.095884 
L 151.97694 154.095884 
L 152.402527 153.788509 
L 152.731159 153.788509 
L 153.15797 153.173757 
L 153.487235 153.481133 
L 153.867662 152.559006 
L 154.242521 153.481133 
L 154.682992 152.866382 
L 155.056237 153.173757 
L 155.434979 152.559006 
L 155.761498 152.25163 
L 156.196586 151.329503 
L 156.903574 151.022128 
L 157.282566 152.559006 
L 157.661243 151.636879 
L 158.470551 150.407377 
L 159.172335 150.100001 
L 159.611084 151.329503 
L 159.939254 151.329503 
L 160.312499 151.022128 
L 160.745675 149.48525 
L 161.124108 150.407377 
L 161.449392 149.48525 
L 161.83009 150.100001 
L 162.228352 150.100001 
L 162.958377 148.870498 
L 163.340098 148.870498 
L 164.06651 148.563123 
L 164.806191 147.33362 
L 165.172736 145.796742 
L 165.538988 145.489366 
L 166.282142 147.948371 
L 166.646596 148.563123 
L 167.059596 148.870498 
L 167.389868 148.563123 
L 167.813842 148.563123 
L 168.495748 147.948371 
L 168.868928 147.948371 
L 169.64375 148.563123 
L 169.985212 148.563123 
L 170.333293 147.948371 
L 170.699291 148.255747 
L 171.069903 147.640996 
L 171.440175 148.255747 
L 171.805967 147.640996 
L 172.177511 148.255747 
L 172.544901 147.640996 
L 172.931139 147.640996 
L 173.29971 148.255747 
L 173.656121 149.177874 
L 174.021848 148.563123 
L 174.390846 149.177874 
L 174.757917 147.33362 
L 175.129212 148.870498 
L 175.532988 147.640996 
L 175.900058 149.177874 
L 176.269376 147.33362 
L 176.63844 148.255747 
L 177.006875 147.026244 
L 177.377872 148.870498 
L 177.744942 148.563123 
L 178.114845 149.792625 
L 178.484618 148.870498 
L 178.851754 150.100001 
L 179.221213 149.48525 
L 179.58955 150.714752 
L 179.95818 149.48525 
L 180.284477 150.407377 
L 180.692911 149.177874 
L 181.062522 150.100001 
L 181.398628 150.100001 
L 181.755174 152.866382 
L 182.130721 151.944255 
L 182.493626 153.173757 
L 182.868918 151.944255 
L 183.237326 152.25163 
L 183.600009 151.022128 
L 184.344603 151.329503 
L 184.713916 150.407377 
L 185.506818 150.407377 
L 185.815024 151.022128 
L 186.23207 150.407377 
L 186.556114 151.022128 
L 186.975007 151.022128 
L 187.28864 151.329503 
L 187.723316 151.329503 
L 188.036224 152.25163 
L 188.442118 151.636879 
L 188.763383 152.25163 
L 189.140901 151.636879 
L 189.505339 153.173757 
L 189.896279 153.173757 
L 190.241522 153.788509 
L 190.610379 153.173757 
L 190.982828 153.481133 
L 191.350218 152.866382 
L 191.762926 153.173757 
L 192.084586 152.866382 
L 192.459353 153.173757 
L 193.19156 153.481133 
L 193.939003 152.866382 
L 194.737088 152.559006 
L 195.136255 152.559006 
L 195.493397 152.25163 
L 196.253254 153.481133 
L 196.956105 154.095884 
L 197.319925 154.710636 
L 198.104562 154.710636 
L 198.864782 154.095884 
L 199.258852 154.095884 
L 199.681266 153.788509 
L 200.000624 154.095884 
L 200.386072 155.018011 
L 201.140908 156.247514 
L 202.721647 156.247514 
L 203.0909 155.940138 
L 203.416806 156.554889 
L 203.798706 156.247514 
L 204.178695 156.554889 
L 205.357894 156.554889 
L 205.696702 156.862265 
L 206.080211 156.862265 
L 206.508891 157.169641 
L 206.869375 157.169641 
L 207.266175 157.477016 
L 207.638223 157.477016 
L 207.970034 157.784392 
L 208.376312 157.784392 
L 208.729252 158.399143 
L 209.153859 158.399143 
L 210.24759 159.32127 
L 211.067031 159.32127 
L 211.761368 158.706519 
L 212.144335 157.169641 
L 212.521945 156.247514 
L 212.958072 154.40326 
L 213.335092 154.095884 
L 213.704752 154.095884 
L 214.417216 155.325387 
L 214.852867 155.632762 
L 215.175297 156.554889 
L 215.929808 157.784392 
L 216.313869 158.091768 
L 217.832597 161.4729 
L 218.206979 161.780275 
L 218.650489 161.780275 
L 219.023036 161.4729 
L 219.404118 162.087651 
L 220.157746 161.4729 
L 220.568867 161.4729 
L 220.86226 161.780275 
L 221.247204 161.165524 
L 221.625789 161.780275 
L 221.989295 162.087651 
L 222.796192 162.395027 
L 223.162624 161.4729 
L 223.516272 162.087651 
L 224.226782 164.546656 
L 224.652819 164.546656 
L 224.959709 161.165524 
L 225.376912 160.858148 
L 225.747731 162.087651 
L 226.480528 162.702402 
L 226.810064 162.395027 
L 227.18027 162.702402 
L 227.556331 162.702402 
L 227.912656 163.317154 
L 229.034784 163.317154 
L 229.436037 164.23928 
L 229.765718 164.23928 
L 230.126966 165.161407 
L 230.503033 165.161407 
L 231.277286 164.546656 
L 231.649946 164.854032 
L 232.017948 164.546656 
L 232.392054 164.546656 
L 232.753876 163.624529 
L 233.084024 163.931905 
L 233.464093 163.931905 
L 233.862193 165.161407 
L 234.190071 164.546656 
L 234.551048 164.23928 
L 234.977459 163.009778 
L 235.292734 164.546656 
L 235.658775 163.317154 
L 236.027725 164.854032 
L 236.399567 163.931905 
L 236.765521 165.776159 
L 237.142243 163.624529 
L 237.50536 165.776159 
L 237.872977 163.931905 
L 238.249878 165.468783 
L 238.610384 163.009778 
L 238.979631 164.546656 
L 239.401086 163.317154 
L 239.724399 165.468783 
L 240.131836 164.23928 
L 240.462352 164.854032 
L 240.86947 163.317154 
L 241.204504 159.936021 
L 241.569348 163.931905 
L 241.932578 159.32127 
L 242.352164 158.399143 
L 242.676349 161.165524 
L 243.045412 159.32127 
L 243.413912 159.936021 
L 243.775393 156.554889 
L 244.157927 160.550773 
L 244.503527 160.243397 
L 244.930187 164.23928 
L 245.313132 162.087651 
L 245.678339 162.395027 
L 246.007198 165.468783 
L 246.376381 160.550773 
L 246.787111 159.32127 
L 247.1537 158.706519 
L 247.486009 157.477016 
L 247.892379 157.169641 
L 248.219992 160.243397 
L 248.601594 160.243397 
L 248.962642 161.4729 
L 249.326327 163.317154 
L 249.690191 164.23928 
L 250.067097 163.931905 
L 250.432846 163.009778 
L 250.796211 161.780275 
L 251.214303 160.858148 
L 251.580485 158.706519 
L 251.952847 158.706519 
L 252.274279 159.936021 
L 252.655134 159.936021 
L 253.059392 159.013895 
L 253.382499 159.32127 
L 253.760061 159.32127 
L 254.167249 161.165524 
L 254.488747 159.936021 
L 254.860335 161.165524 
L 255.27184 161.780275 
L 255.596403 159.628646 
L 255.96661 162.395027 
L 256.334606 157.784392 
L 256.706237 161.165524 
L 257.436792 163.317154 
L 257.870395 163.317154 
L 258.55085 160.243397 
L 258.920688 162.087651 
L 260.017306 159.32127 
L 260.79215 158.091768 
L 261.238931 158.091768 
L 261.60689 157.169641 
L 261.983406 157.477016 
L 262.326168 157.477016 
L 262.745982 158.091768 
L 263.834443 157.784392 
L 264.206854 158.091768 
L 264.966954 157.784392 
L 265.399816 157.477016 
L 265.732894 157.784392 
L 266.541567 157.477016 
L 268.006864 157.169641 
L 268.372023 156.862265 
L 270.322247 156.554889 
L 270.698699 156.247514 
L 271.781159 155.940138 
L 272.217492 155.632762 
L 272.560568 155.632762 
L 273.354726 155.018011 
L 273.684587 155.018011 
L 274.115488 154.40326 
L 274.817006 153.788509 
L 275.214104 153.788509 
L 275.579967 153.173757 
L 276.012303 153.788509 
L 276.389735 153.173757 
L 277.149629 152.559006 
L 277.92554 152.559006 
L 278.231699 153.173757 
L 279.041516 153.788509 
L 279.420643 153.481133 
L 279.746479 153.788509 
L 280.558809 152.559006 
L 280.886465 153.481133 
L 281.646062 154.095884 
L 282.019632 153.788509 
L 282.399511 154.40326 
L 282.836803 153.173757 
L 283.221996 153.173757 
L 283.591699 152.559006 
L 283.923461 152.866382 
L 284.35512 151.329503 
L 284.731138 152.866382 
L 285.056676 152.25163 
L 285.433924 152.559006 
L 286.631338 150.714752 
L 287.007242 152.559006 
L 287.335917 151.636879 
L 287.708485 152.559006 
L 288.088294 151.636879 
L 288.527444 151.329503 
L 288.920323 151.329503 
L 289.280048 151.022128 
L 289.66268 150.100001 
L 289.989312 151.636879 
L 290.748942 150.714752 
L 291.547227 150.407377 
L 291.877288 149.48525 
L 292.269327 149.48525 
L 292.611039 148.255747 
L 293.028561 149.48525 
L 293.350628 148.563123 
L 293.730443 148.563123 
L 294.131652 148.255747 
L 294.501197 148.870498 
L 294.834849 148.870498 
L 295.237948 148.563123 
L 295.60822 148.870498 
L 295.936277 148.563123 
L 296.301256 149.177874 
L 296.669464 150.100001 
L 297.038029 149.48525 
L 297.409162 147.640996 
L 297.777456 148.563123 
L 298.143866 149.177874 
L 298.567503 149.177874 
L 298.934639 147.948371 
L 299.296937 148.870498 
L 299.665827 146.718869 
L 299.994935 147.948371 
L 300.355186 148.255747 
L 300.795717 148.255747 
L 301.885679 146.104117 
L 302.207085 148.563123 
L 302.576311 147.33362 
L 302.988818 149.48525 
L 303.308832 147.948371 
L 303.688424 149.48525 
L 304.093766 147.948371 
L 304.413628 149.177874 
L 304.7867 147.026244 
L 305.155557 148.255747 
L 305.523538 147.33362 
L 305.938423 149.177874 
L 306.26174 148.870498 
L 306.679945 149.177874 
L 307.045104 148.870498 
L 307.42832 148.870498 
L 307.784921 148.563123 
L 308.478006 149.792625 
L 308.85221 149.792625 
L 309.258553 150.100001 
L 309.589567 149.48525 
L 309.994508 150.714752 
L 310.323432 149.792625 
L 310.734661 150.407377 
L 311.101504 149.177874 
L 311.43586 150.407377 
L 311.796409 151.022128 
L 312.208071 152.866382 
L 312.54097 152.25163 
L 312.901682 153.173757 
L 313.316567 151.944255 
L 313.645881 152.25163 
L 314.056519 151.022128 
L 314.424451 151.636879 
L 314.795058 150.407377 
L 315.103383 151.022128 
L 315.479542 150.407377 
L 315.841088 151.636879 
L 316.217198 150.714752 
L 316.630155 151.636879 
L 316.993293 151.329503 
L 317.326262 151.944255 
L 317.686151 151.636879 
L 318.054808 152.25163 
L 318.470787 151.636879 
L 318.791424 152.559006 
L 319.161993 152.25163 
L 319.529805 153.173757 
L 319.901214 153.481133 
L 320.274914 154.095884 
L 320.644032 153.788509 
L 321.017775 153.788509 
L 321.422829 153.173757 
L 321.744322 153.481133 
L 323.228435 152.25163 
L 323.605357 152.25163 
L 324.005385 153.173757 
L 324.327344 152.559006 
L 325.128196 152.559006 
L 325.504783 154.095884 
L 325.880736 154.40326 
L 326.581837 154.710636 
L 327.007793 154.095884 
L 327.428701 154.095884 
L 328.535084 153.173757 
L 329.313476 153.173757 
L 329.997045 155.018011 
L 330.440533 156.247514 
L 331.190684 156.862265 
L 331.570997 156.247514 
L 331.894174 156.554889 
L 333.799216 156.554889 
L 334.550342 155.940138 
L 334.984358 156.862265 
L 336.083245 156.862265 
L 336.879651 157.477016 
L 337.238613 157.477016 
L 337.638668 157.784392 
L 337.993579 157.784392 
L 338.352812 158.399143 
L 338.745777 158.399143 
L 339.170184 158.706519 
L 339.49686 158.706519 
L 339.871654 159.013895 
L 340.275138 159.013895 
L 340.632524 159.628646 
L 341.388811 159.013895 
L 342.151707 155.632762 
L 342.531251 153.481133 
L 342.90429 152.866382 
L 343.286444 153.481133 
L 343.668344 153.788509 
L 344.043978 154.40326 
L 344.424497 155.632762 
L 344.80267 155.940138 
L 345.18326 157.169641 
L 345.992296 158.706519 
L 346.326669 158.706519 
L 346.696967 159.936021 
L 347.129942 160.550773 
L 348.269668 163.009778 
L 348.595012 163.317154 
L 348.972205 162.702402 
L 349.410288 161.165524 
L 349.730134 160.858148 
L 350.120965 160.858148 
L 350.546937 161.165524 
L 350.87104 160.858148 
L 351.633627 161.4729 
L 352.421464 163.009778 
L 352.788323 162.702402 
L 353.117025 163.624529 
L 353.485049 161.780275 
L 353.884107 162.087651 
L 354.632688 162.395027 
L 354.963686 163.624529 
L 355.371031 162.702402 
L 355.703313 163.317154 
L 356.070795 163.624529 
L 356.479023 163.317154 
L 356.806452 162.702402 
L 357.174113 163.009778 
L 357.563103 163.009778 
L 357.956886 163.931905 
L 358.282901 163.624529 
L 358.652419 163.931905 
L 359.017199 163.317154 
L 359.38649 164.23928 
L 359.800855 163.624529 
L 360.129285 165.468783 
L 360.496171 164.854032 
L 360.871848 164.854032 
L 361.276968 164.23928 
L 361.591609 164.546656 
L 362.016308 164.546656 
L 362.371972 163.931905 
L 362.694174 163.009778 
L 363.111355 163.931905 
L 363.479492 164.23928 
L 363.848312 164.854032 
L 364.21756 165.161407 
L 364.587625 164.854032 
L 364.954966 163.931905 
L 365.279281 164.23928 
L 365.707685 164.23928 
L 366.389093 166.083534 
L 366.751548 165.776159 
L 367.127935 164.854032 
L 367.541097 164.23928 
L 367.91718 164.23928 
L 368.236409 164.546656 
L 368.611295 164.546656 
L 369.013684 163.624529 
L 369.382569 164.546656 
L 369.752889 163.317154 
L 370.120658 164.854032 
L 370.491547 163.931905 
L 370.86327 163.931905 
L 371.223911 162.702402 
L 371.600021 163.931905 
L 371.964746 163.009778 
L 372.334205 158.399143 
L 372.702905 157.477016 
L 373.071931 159.628646 
L 373.810925 159.013895 
L 374.178672 161.165524 
L 374.505196 162.087651 
L 374.867874 159.628646 
L 375.281903 161.165524 
L 375.98119 159.936021 
L 376.396557 160.550773 
L 376.725595 160.550773 
L 377.083983 158.706519 
L 377.458462 160.243397 
L 377.808331 159.32127 
L 378.192576 159.628646 
L 378.55826 163.931905 
L 378.928915 164.546656 
L 379.308134 163.931905 
L 379.674452 163.931905 
L 380.0465 162.087651 
L 380.404552 161.4729 
L 381.189773 159.32127 
L 381.557591 159.013895 
L 381.884386 161.4729 
L 382.298318 159.936021 
L 382.622816 159.628646 
L 383.019687 159.936021 
L 383.354612 158.399143 
L 383.733289 160.243397 
L 384.094288 159.936021 
L 384.462587 160.243397 
L 384.84771 158.399143 
L 385.264507 160.243397 
L 385.585463 162.395027 
L 385.964076 163.009778 
L 386.364353 162.702402 
L 386.691668 160.858148 
L 387.428441 159.32127 
L 388.241859 160.858148 
L 388.575852 162.087651 
L 388.906206 158.706519 
L 389.694141 161.4729 
L 390.020887 159.936021 
L 390.409438 159.936021 
L 391.160824 158.706519 
L 391.53968 157.784392 
L 391.914951 157.477016 
L 392.377477 157.477016 
L 392.673692 157.169641 
L 393.113248 157.477016 
L 393.43545 157.169641 
L 393.813109 157.477016 
L 395.018561 157.477016 
L 395.712513 156.862265 
L 398.829773 156.862265 
L 398.829773 156.862265 
" style="fill:none;stroke:#1f77b4;stroke-linecap:square;stroke-width:1.5;"/>
   </g>
   <g id="line2d_30">
    <path clip-path="url(#pe21647e723)" d="M 74.175227 79.126965 
L 74.565425 73.532728 
L 75.264912 61.929298 
L 75.683307 75.177188 
L 77.167658 100.25904 
L 77.540681 101.918869 
L 77.980421 101.211905 
L 78.69515 96.739589 
L 79.820647 93.681202 
L 80.198139 93.189401 
L 80.578679 93.435301 
L 81.013035 94.480378 
L 83.231614 106.652454 
L 84.033972 109.234409 
L 84.359495 109.003877 
L 84.801553 107.83585 
L 85.121274 107.513105 
L 85.572464 107.282574 
L 85.873651 106.713929 
L 86.689139 107.021304 
L 87.771988 108.819452 
L 88.205392 109.864529 
L 89.343011 113.967994 
L 89.671728 115.950567 
L 90.431315 118.839898 
L 90.861192 118.609366 
L 91.241846 119.470018 
L 91.989495 120.57657 
L 92.684216 125.141099 
L 93.099832 127.830636 
L 93.404881 130.566279 
L 93.788877 132.856227 
L 94.155281 133.547822 
L 94.57106 133.978148 
L 95.311808 135.22302 
L 96.05071 138.419726 
L 99.001176 152.743431 
L 100.845312 162.425764 
L 101.171013 165.192145 
L 101.582697 167.328406 
L 101.95292 170.064049 
L 102.320786 171.508714 
L 103.427213 178.009709 
L 103.796666 179.731013 
L 104.165123 182.236124 
L 104.490933 183.450258 
L 106.388728 193.347754 
L 107.108321 198.250395 
L 108.974621 207.717565 
L 110.034186 214.756467 
L 111.556343 221.856845 
L 111.881204 221.687788 
L 112.293977 224.054581 
L 112.621422 223.56278 
L 112.987793 221.810738 
L 113.400089 223.378354 
L 113.723586 223.501304 
L 114.135725 224.82302 
L 114.877015 227.927514 
L 115.244128 229.064804 
L 115.57628 231.308646 
L 116.354238 233.706176 
L 117.096281 235.980756 
L 117.45397 235.181579 
L 117.785548 236.841407 
L 118.518573 238.516605 
L 118.887301 238.347548 
L 119.255682 242.451013 
L 119.673204 242.159006 
L 119.992411 245.862883 
L 121.472543 252.179452 
L 121.839993 252.363877 
L 122.207447 252.947891 
L 122.577193 253.040104 
L 122.946604 253.670224 
L 123.315716 254.715301 
L 123.681372 257.174306 
L 124.053372 258.034958 
L 124.470667 260.2788 
L 124.789467 260.2788 
L 125.161683 260.524701 
L 125.527643 262.153792 
L 125.940324 262.55338 
L 126.26941 263.659932 
L 127.005208 266.641476 
L 127.416892 268.040035 
L 127.742154 268.332042 
L 128.154889 270.867891 
L 128.478905 270.452934 
L 128.838344 273.004152 
L 129.210359 274.371973 
L 130.01002 274.986725 
L 130.769119 275.816639 
L 131.095205 276.093277 
L 131.847425 276.216227 
L 132.672293 276.830979 
L 133.773406 278.32175 
L 134.180254 278.95187 
L 134.561406 279.151665 
L 135.317667 279.751047 
L 136.403945 280.181373 
L 140.953971 280.073792 
L 142.542894 279.827891 
L 144.053487 278.552282 
L 144.755845 277.44573 
L 145.141834 276.984666 
L 145.509809 276.016433 
L 145.941761 275.493895 
L 146.26503 274.710087 
L 146.710089 274.018491 
L 148.169065 270.207033 
L 149.682864 267.717291 
L 150.871667 265.396605 
L 151.193208 265.304392 
L 153.15797 261.861785 
L 153.487235 261.262402 
L 153.867662 260.063637 
L 154.242521 259.64868 
L 155.434979 256.836193 
L 156.196586 254.238869 
L 156.903574 252.84031 
L 157.282566 252.379246 
L 158.470551 247.814718 
L 159.611084 245.324975 
L 160.312499 242.696913 
L 160.745675 240.545284 
L 161.124108 239.361888 
L 161.449392 237.394684 
L 164.06651 228.434684 
L 164.806191 223.762574 
L 165.538988 217.907068 
L 167.059596 210.775953 
L 167.813842 206.841545 
L 169.276501 198.603877 
L 169.985212 194.853895 
L 171.069903 188.3529 
L 172.177511 182.389812 
L 172.931139 177.902128 
L 174.390846 170.909332 
L 174.757917 168.127582 
L 175.129212 166.744392 
L 175.532988 164.223912 
L 175.900058 162.917565 
L 176.269376 160.135816 
L 176.63844 158.414512 
L 177.006875 155.740344 
L 177.377872 154.449366 
L 177.744942 152.436056 
L 178.114845 151.191184 
L 178.484618 149.070292 
L 178.851754 147.902265 
L 179.221213 146.027274 
L 179.58955 145.012934 
L 179.95818 142.953517 
L 180.284477 141.770121 
L 180.692911 139.63386 
L 181.398628 136.836742 
L 181.755174 136.821373 
L 182.130721 135.46892 
L 182.493626 135.069332 
L 182.868918 133.624666 
L 183.237326 132.717908 
L 183.600009 131.042711 
L 184.344603 129.905421 
L 185.089891 126.708714 
L 187.723316 117.687239 
L 188.036224 116.964907 
L 189.140901 113.476193 
L 189.505339 113.168817 
L 189.896279 112.400378 
L 190.241522 111.970052 
L 190.610379 111.017188 
L 190.982828 110.417805 
L 191.350218 109.388097 
L 191.762926 108.71187 
L 192.084586 107.774375 
L 192.459353 107.098148 
L 193.19156 106.498766 
L 193.939003 104.700618 
L 194.737088 103.686279 
L 195.815377 101.012111 
L 197.319925 99.336913 
L 198.104562 98.568474 
L 198.5418 98.015198 
L 199.258852 96.847171 
L 200.000624 95.694512 
L 200.768085 95.694512 
L 201.140908 95.878937 
L 202.721647 95.878937 
L 203.0909 95.709881 
L 203.416806 95.97115 
L 203.798706 95.878937 
L 204.562669 96.124838 
L 205.357894 96.278526 
L 206.508891 97.000858 
L 206.869375 97.23139 
L 208.376312 98.799006 
L 208.729252 99.521339 
L 209.153859 100.059246 
L 209.866464 101.550018 
L 210.645072 103.179109 
L 211.761368 105.069469 
L 212.521945 104.562299 
L 213.335092 102.91784 
L 213.704752 102.379932 
L 214.04076 102.180138 
L 214.852867 102.072557 
L 215.929808 103.409641 
L 216.313869 103.962917 
L 216.744407 104.93115 
L 217.451851 107.313311 
L 218.206979 110.371699 
L 219.023036 112.969023 
L 219.723823 115.904461 
L 220.568867 118.424941 
L 220.86226 119.900344 
L 221.247204 120.945421 
L 221.989295 124.065284 
L 222.796192 125.694375 
L 223.162624 126.724083 
L 223.900583 130.504804 
L 224.226782 132.94844 
L 224.652819 135.023226 
L 224.959709 135.238389 
L 225.376912 136.298834 
L 226.810064 142.907411 
L 229.034784 153.481133 
L 230.126966 160.258766 
L 231.649946 168.773071 
L 234.551048 184.725867 
L 234.977459 186.047582 
L 235.292734 188.583431 
L 235.658775 189.981991 
L 236.027725 192.594684 
L 236.399567 194.239143 
L 236.765521 197.174581 
L 237.142243 198.373346 
L 237.50536 201.400996 
L 237.872977 202.768817 
L 238.249878 205.535198 
L 238.610384 206.488063 
L 238.979631 209.023912 
L 239.401086 210.422471 
L 239.724399 213.373277 
L 240.131836 215.002368 
L 240.462352 217.338423 
L 240.86947 218.644769 
L 241.204504 218.552557 
L 241.569348 221.672419 
L 241.932578 221.057668 
L 242.352164 221.318937 
L 242.676349 223.378354 
L 243.045412 223.593517 
L 243.413912 224.700069 
L 243.775393 223.762574 
L 244.157927 226.037154 
L 244.503527 226.943912 
L 244.930187 230.140618 
L 245.313132 230.955164 
L 245.678339 232.584255 
L 246.007198 235.811699 
L 246.376381 235.412111 
L 247.1537 236.242025 
L 247.486009 236.18055 
L 247.892379 236.318869 
L 248.219992 238.239967 
L 248.601594 239.238937 
L 248.962642 240.914135 
L 250.067097 247.338286 
L 250.796211 249.766553 
L 251.214303 250.642574 
L 251.580485 250.611836 
L 251.952847 251.226587 
L 252.274279 252.517565 
L 252.655134 253.439692 
L 253.059392 253.854649 
L 253.760061 255.48374 
L 254.167249 257.266519 
L 254.488747 257.819795 
L 255.27184 260.985764 
L 255.596403 261.185558 
L 255.96661 263.552351 
L 256.334606 262.55338 
L 257.436792 268.746999 
L 257.870395 270.514409 
L 258.55085 271.974443 
L 258.920688 273.987754 
L 259.290028 274.940618 
L 260.017306 275.155781 
L 261.238931 276.323809 
L 261.60689 276.277702 
L 262.745982 277.630155 
L 263.834443 277.922162 
L 264.206854 278.475438 
L 265.399816 278.982608 
L 265.732894 279.45904 
L 266.541567 279.674203 
L 268.372023 279.873997 
L 270.698699 279.766416 
L 271.781159 279.597359 
L 273.684587 278.398594 
L 274.115488 277.753105 
L 275.214104 276.339178 
L 275.579967 275.386313 
L 276.012303 274.955987 
L 278.231699 269.62302 
L 279.041516 269.192694 
L 280.886465 265.411973 
L 281.646062 265.058491 
L 282.019632 264.351527 
L 282.399511 264.074889 
L 283.923461 260.309538 
L 284.35512 258.618972 
L 284.731138 258.234752 
L 285.056676 257.051356 
L 285.433924 256.221442 
L 286.631338 251.979658 
L 287.007242 251.610807 
L 287.335917 250.18151 
L 287.708485 249.536021 
L 288.527444 246.785009 
L 289.280048 244.156948 
L 289.66268 242.343431 
L 289.989312 241.651836 
L 290.748942 238.685661 
L 291.547227 237.133414 
L 292.611039 231.108852 
L 293.028561 229.787136 
L 293.730443 225.668303 
L 296.301256 212.712419 
L 296.669464 211.452179 
L 297.038029 209.577188 
L 297.409162 206.872282 
L 298.567503 201.877428 
L 298.934639 199.433792 
L 299.296937 197.866176 
L 299.665827 194.838526 
L 301.10277 186.892865 
L 301.885679 181.590636 
L 302.207085 180.407239 
L 302.576311 177.809915 
L 302.988818 176.764838 
L 303.308832 174.228989 
L 303.688424 172.999486 
L 305.523538 161.980069 
L 305.938423 160.765936 
L 306.26174 158.829469 
L 306.679945 157.154272 
L 308.105915 149.777256 
L 309.258553 145.289572 
L 309.589567 143.414581 
L 309.994508 142.400241 
L 310.323432 140.509881 
L 310.734661 139.234272 
L 311.101504 137.098011 
L 311.796409 134.884907 
L 312.208071 134.5929 
L 312.54097 133.409503 
L 312.901682 132.917702 
L 315.103383 124.972042 
L 315.479542 123.327582 
L 315.841088 122.543774 
L 316.217198 120.883946 
L 316.630155 120.007925 
L 317.686151 116.549949 
L 318.054808 115.735404 
L 318.470787 114.39832 
L 318.791424 113.752831 
L 319.161993 112.661648 
L 320.644032 110.510018 
L 321.017775 109.895267 
L 322.121791 107.482368 
L 322.857362 106.375816 
L 323.605357 104.285661 
L 324.005385 103.79386 
L 324.327344 102.687308 
L 325.128196 101.765181 
L 325.504783 101.688337 
L 325.880736 101.319486 
L 326.581837 101.027479 
L 328.158931 98.276467 
L 329.313476 95.878937 
L 329.616412 95.617668 
L 329.997045 95.586931 
L 330.756355 96.124838 
L 331.190684 96.370738 
L 331.570997 96.186313 
L 332.277482 96.432214 
L 333.799216 96.739589 
L 334.550342 96.47832 
L 334.984358 96.908646 
L 336.083245 97.369709 
L 337.638668 98.87585 
L 337.993579 99.260069 
L 338.352812 99.982402 
L 339.170184 101.227274 
L 340.275138 103.317428 
L 340.632524 104.347136 
L 341.388811 105.622745 
L 341.771188 105.469057 
L 342.151707 104.762093 
L 342.90429 102.395301 
L 343.668344 101.365593 
L 344.043978 101.088955 
L 344.424497 101.304117 
L 344.80267 101.319486 
L 345.992296 103.378903 
L 346.326669 103.993654 
L 347.514431 108.127857 
L 348.595012 113.599143 
L 348.972205 115.02844 
L 349.410288 115.796879 
L 351.633627 123.112419 
L 352.421464 125.264049 
L 352.788323 126.785558 
L 353.117025 128.90645 
L 353.485049 129.736364 
L 353.884107 131.288611 
L 354.632688 132.917702 
L 354.963686 135.130807 
L 355.371031 136.467891 
L 356.070795 140.356193 
L 357.563103 146.934032 
L 359.38649 156.754684 
L 359.800855 158.414512 
L 360.129285 161.273105 
L 365.707685 191.334443 
L 366.389093 196.575198 
L 367.127935 200.740138 
L 367.91718 204.551596 
L 368.611295 208.79338 
L 369.013684 210.360996 
L 369.382569 212.712419 
L 369.752889 214.110979 
L 370.120658 216.723672 
L 371.223911 221.5341 
L 371.600021 223.824049 
L 371.964746 225.237977 
L 372.334205 224.392694 
L 372.702905 224.423431 
L 373.071931 225.914203 
L 373.810925 226.421373 
L 374.505196 230.033037 
L 374.867874 230.140618 
L 375.281903 231.831184 
L 376.396557 234.720515 
L 376.725595 235.79633 
L 377.083983 235.857805 
L 377.458462 237.31784 
L 377.808331 237.809641 
L 378.192576 238.747136 
L 378.55826 241.959212 
L 379.308134 245.955095 
L 379.674452 247.876193 
L 380.773502 250.704049 
L 381.189773 251.103637 
L 381.557591 251.70302 
L 381.884386 253.747068 
L 382.298318 254.208131 
L 383.019687 255.975541 
L 383.354612 256.052385 
L 383.733289 257.604632 
L 384.462587 259.52573 
L 384.84771 259.510361 
L 385.264507 261.062608 
L 385.964076 265.119967 
L 386.364353 266.641476 
L 387.428441 268.470361 
L 388.241859 271.00621 
L 388.575852 272.835095 
L 388.906206 272.435507 
L 389.694141 274.571768 
L 390.020887 275.032831 
L 390.409438 275.954958 
L 391.160824 276.969298 
L 391.914951 277.292042 
L 393.813109 278.675232 
L 395.384765 279.735678 
L 395.712513 279.797154 
L 398.829773 279.950841 
L 398.829773 279.950841 
" style="fill:none;stroke:#ff7f0e;stroke-linecap:square;stroke-width:1.5;"/>
   </g>
   <g id="line2d_31">
    <path clip-path="url(#pe21647e723)" d="M 74.175227 56.073792 
L 74.565425 50.786931 
L 74.885764 43.671184 
L 75.264912 39.1835 
L 75.683307 86.857462 
L 76.405738 113.122711 
L 76.790032 119.992557 
L 77.167658 121.775335 
L 77.540681 116.6729 
L 77.980421 107.974169 
L 78.302488 98.706793 
L 78.69515 92.43633 
L 79.505801 90.284701 
L 79.820647 89.685318 
L 80.198139 90.115644 
L 80.578679 92.205798 
L 81.013035 95.709881 
L 81.33546 100.305147 
L 82.467067 110.648337 
L 82.906303 112.646279 
L 83.231614 114.64422 
L 83.655479 115.212865 
L 84.033972 115.074546 
L 84.801553 107.221099 
L 85.121274 106.590979 
L 85.572464 106.360447 
L 85.873651 105.177051 
L 86.25989 106.222128 
L 86.689139 107.021304 
L 87.016475 108.450601 
L 87.447923 109.633997 
L 88.205392 112.938286 
L 89.343011 119.19338 
L 89.671728 122.405455 
L 90.118721 124.019178 
L 90.431315 124.680035 
L 90.861192 121.375747 
L 91.241846 122.543774 
L 91.989495 124.265078 
L 92.310267 129.475095 
L 93.099832 136.744529 
L 93.404881 140.402299 
L 93.788877 142.384872 
L 94.155281 140.002711 
L 94.57106 138.281407 
L 94.941737 137.927925 
L 95.311808 138.296776 
L 96.741006 148.301853 
L 97.156681 150.392008 
L 97.52425 153.035438 
L 98.586545 156.908371 
L 99.001176 160.427822 
L 99.378835 162.34892 
L 99.699173 164.74645 
L 100.066217 165.791527 
L 100.475447 168.588646 
L 100.845312 170.110155 
L 101.171013 174.413414 
L 101.582697 176.242299 
L 101.95292 179.900069 
L 102.320786 179.500481 
L 102.689422 182.451287 
L 103.011532 182.697188 
L 103.427213 186.923603 
L 103.796666 187.72278 
L 104.165123 191.150018 
L 104.490933 190.519898 
L 104.904864 193.240172 
L 105.669764 196.529092 
L 106.046145 198.373346 
L 107.108321 207.77904 
L 107.498199 208.731905 
L 107.870512 208.977805 
L 108.249985 210.822059 
L 108.974621 216.016708 
L 110.034186 223.977737 
L 110.44971 225.33019 
L 110.775227 227.005387 
L 111.141073 228.127308 
L 111.556343 228.619109 
L 111.881204 225.06892 
L 112.293977 230.202093 
L 112.987793 219.966485 
L 113.400089 225.222608 
L 113.723586 224.730807 
L 114.877015 233.1529 
L 115.244128 233.982814 
L 115.57628 238.07091 
L 115.937788 237.855747 
L 116.354238 239.238937 
L 116.671419 239.669263 
L 117.096281 240.898766 
L 117.45397 236.411081 
L 117.785548 240.529915 
L 118.518573 241.897737 
L 118.887301 239.884426 
L 119.255682 250.750155 
L 119.673204 246.154889 
L 119.992411 254.776776 
L 120.368814 255.099521 
L 120.776414 257.497051 
L 121.142953 257.589263 
L 121.472543 258.326965 
L 121.839993 256.052385 
L 122.207447 256.021648 
L 122.577193 254.884358 
L 122.946604 255.821853 
L 123.315716 257.789057 
L 123.681372 263.321819 
L 124.053372 262.952968 
L 124.470667 267.041064 
L 124.789467 263.967308 
L 125.161683 262.983706 
L 125.527643 266.457051 
L 125.940324 265.627136 
L 126.26941 267.34844 
L 126.677124 271.12916 
L 127.005208 271.559486 
L 127.416892 273.265421 
L 127.742154 271.713174 
L 128.154889 277.32278 
L 128.478905 273.219315 
L 128.838344 279.151665 
L 129.210359 280.212111 
L 130.01002 279.289984 
L 130.333576 278.460069 
L 130.769119 278.275644 
L 131.095205 277.937531 
L 131.847425 277.44573 
L 132.672293 278.060481 
L 134.180254 281.1035 
L 134.561406 280.688543 
L 134.959777 281.072762 
L 135.699274 280.811493 
L 136.045259 281.042025 
L 136.403945 280.796124 
L 140.631065 280.47338 
L 140.953971 280.073792 
L 142.542894 279.520515 
L 143.665044 277.630155 
L 144.053487 277.32278 
L 144.426645 276.062539 
L 145.141834 275.140413 
L 145.509809 273.250052 
L 145.941761 273.034889 
L 146.26503 271.943706 
L 146.710089 271.252111 
L 147.080154 269.607651 
L 147.47755 268.762368 
L 147.781034 267.440653 
L 148.169065 266.518526 
L 148.547108 266.549263 
L 149.35589 266.042093 
L 150.117811 263.782883 
L 150.493174 263.490876 
L 150.871667 262.322848 
L 151.193208 263.460138 
L 151.573678 262.522642 
L 151.97694 261.984735 
L 152.731159 260.355644 
L 153.15797 258.788028 
L 153.487235 258.496021 
L 153.867662 256.37513 
L 154.242521 256.882299 
L 154.682992 255.23784 
L 155.056237 254.868989 
L 156.196586 249.320858 
L 156.903574 247.614924 
L 157.282566 248.690738 
L 158.470551 241.974581 
L 159.172335 240.038114 
L 159.611084 240.406965 
L 160.312499 237.471527 
L 160.745675 233.78302 
L 161.124108 233.52175 
L 161.449392 230.632419 
L 161.83009 229.894718 
L 162.228352 228.35784 
L 163.340098 223.070979 
L 164.06651 220.750292 
L 164.806191 214.84868 
L 165.172736 210.238045 
L 165.538988 207.14892 
L 165.94967 206.841545 
L 166.646596 204.843603 
L 167.059596 203.398937 
L 167.389868 201.078251 
L 167.813842 199.157154 
L 168.868928 192.210464 
L 169.64375 189.090601 
L 169.985212 187.169503 
L 170.333293 184.295541 
L 170.699291 182.697188 
L 171.069903 179.746382 
L 171.440175 178.547617 
L 171.805967 175.59681 
L 172.177511 174.398045 
L 172.544901 171.447239 
L 172.931139 169.29561 
L 173.29971 168.096845 
L 173.656121 167.5282 
L 174.021848 164.807925 
L 174.390846 163.839692 
L 174.757917 159.213689 
L 175.129212 159.367377 
L 175.532988 155.617394 
L 175.900058 155.847925 
L 176.269376 151.221922 
L 176.63844 150.422745 
L 177.006875 146.519075 
L 177.377872 147.072351 
L 177.744942 144.751665 
L 178.114845 144.736296 
L 178.484618 141.693277 
L 178.851754 141.754752 
L 179.221213 139.265009 
L 179.58955 139.480172 
L 179.95818 136.191253 
L 180.284477 135.929984 
L 180.692911 132.56422 
L 181.062522 132.226107 
L 181.398628 130.689229 
L 181.755174 133.440241 
L 182.130721 131.165661 
L 182.493626 131.995575 
L 182.868918 129.321407 
L 183.237326 128.722025 
L 183.600009 125.817325 
L 184.344603 124.987411 
L 184.713916 122.328611 
L 185.506818 119.408543 
L 185.815024 118.901373 
L 186.23207 116.642162 
L 186.556114 116.134992 
L 187.723316 112.769229 
L 188.036224 112.969023 
L 188.442118 111.017188 
L 188.763383 110.817394 
L 189.140901 108.865558 
L 189.505339 110.095061 
L 189.896279 109.326622 
L 190.241522 109.511047 
L 190.610379 107.943431 
L 190.982828 107.651425 
L 191.350218 106.006965 
L 191.762926 105.638114 
L 192.084586 104.393243 
L 192.459353 104.024392 
L 193.19156 103.732385 
L 193.939003 101.319486 
L 194.737088 99.997771 
L 195.136255 99.075644 
L 195.493397 97.677085 
L 195.815377 97.630979 
L 196.253254 97.73856 
L 196.956105 97.385078 
L 197.319925 97.800035 
L 198.104562 97.031596 
L 198.5418 96.170944 
L 198.864782 95.233449 
L 199.258852 94.695541 
L 199.681266 93.681202 
L 200.000624 93.542883 
L 200.768085 95.079761 
L 201.140908 95.878937 
L 202.721647 95.878937 
L 203.0909 95.402505 
L 203.416806 96.278526 
L 203.798706 95.878937 
L 204.178695 96.35537 
L 205.357894 96.585901 
L 205.696702 97.139178 
L 206.080211 97.292865 
L 206.508891 97.922985 
L 206.869375 98.153517 
L 207.266175 98.860481 
L 207.638223 99.167857 
L 207.970034 99.951665 
L 208.376312 100.335884 
L 208.729252 101.672968 
L 209.153859 102.210876 
L 209.866464 104.316399 
L 210.24759 105.484426 
L 211.067031 107.021304 
L 211.761368 107.528474 
L 212.144335 105.761064 
L 212.521945 104.562299 
L 212.958072 101.703706 
L 213.335092 100.76621 
L 213.704752 100.228303 
L 214.417216 101.211905 
L 214.852867 101.457805 
L 215.175297 102.733414 
L 216.313869 105.807171 
L 217.073672 109.341991 
L 218.206979 115.904461 
L 219.023036 118.194409 
L 219.404118 120.45362 
L 219.723823 121.437222 
L 220.157746 122.34398 
L 220.568867 123.650327 
L 220.86226 125.433105 
L 221.247204 125.863431 
L 221.989295 129.905421 
L 222.796192 131.841888 
L 223.162624 131.949469 
L 223.516272 134.20868 
L 224.652819 143.322368 
L 224.959709 140.156399 
L 225.376912 140.909469 
L 225.747731 143.967857 
L 227.18027 151.068234 
L 227.556331 152.681956 
L 227.912656 155.248543 
L 229.034784 160.550773 
L 230.503033 171.401133 
L 232.392054 181.129572 
L 232.753876 181.775061 
L 234.190071 191.11928 
L 234.551048 192.717634 
L 234.977459 192.809846 
L 235.292734 196.882574 
L 235.658775 197.05163 
L 236.027725 201.201202 
L 236.399567 201.923534 
L 236.765521 206.703226 
L 237.142243 205.750361 
L 237.50536 210.929641 
L 237.872977 210.453208 
L 238.249878 214.756467 
L 238.610384 213.250327 
L 238.979631 217.323054 
L 239.401086 217.492111 
L 239.724399 222.594546 
L 240.131836 222.994135 
L 240.462352 225.944941 
L 240.86947 225.714409 
L 241.204504 222.241064 
L 241.569348 229.35681 
L 241.932578 224.131425 
L 242.352164 223.470567 
L 242.676349 228.296364 
L 243.045412 226.667274 
L 243.413912 228.388577 
L 243.775393 224.069949 
L 244.157927 230.340413 
L 244.503527 230.939795 
L 244.930187 238.132385 
L 245.313132 236.795301 
L 245.678339 238.731768 
L 246.007198 245.032968 
L 246.376381 239.71537 
L 246.787111 238.885455 
L 247.1537 238.70103 
L 247.486009 237.410052 
L 247.892379 237.240996 
L 248.219992 242.23585 
L 248.601594 243.234821 
L 248.962642 246.139521 
L 249.690191 253.501167 
L 250.067097 255.022677 
L 250.432846 255.514478 
L 250.796211 255.299315 
L 251.214303 255.253208 
L 251.580485 253.070841 
L 251.952847 253.685593 
L 252.274279 256.206073 
L 252.655134 257.1282 
L 253.059392 256.62103 
L 253.382499 257.789057 
L 253.760061 258.557497 
L 254.167249 262.184529 
L 254.488747 261.508303 
L 254.860335 264.336159 
L 255.27184 266.518526 
L 255.596403 264.56669 
L 255.96661 269.699864 
L 256.334606 264.090258 
L 256.706237 269.715232 
L 257.436792 275.816639 
L 257.870395 277.584049 
L 258.22535 276.969298 
L 258.55085 275.970327 
L 258.920688 279.827891 
L 259.290028 279.858629 
L 260.017306 278.229538 
L 260.418065 278.045112 
L 260.79215 277.706999 
L 261.238931 278.168063 
L 261.60689 277.199829 
L 261.983406 277.906793 
L 262.326168 278.214169 
L 262.745982 279.474409 
L 263.834443 279.45904 
L 264.206854 280.319692 
L 265.399816 280.212111 
L 265.732894 280.995919 
L 268.006864 280.734649 
L 268.372023 280.488749 
L 270.322247 280.166004 
L 270.698699 279.766416 
L 271.781159 279.289984 
L 272.217492 278.736708 
L 272.560568 278.58302 
L 273.684587 277.169092 
L 274.115488 275.908852 
L 275.214104 273.880172 
L 275.579967 272.312557 
L 276.012303 272.496982 
L 276.715658 269.684495 
L 277.481277 267.440653 
L 277.92554 266.518526 
L 279.041516 266.733689 
L 279.420643 265.642505 
L 279.746479 265.427342 
L 280.558809 262.138423 
L 280.886465 262.645593 
L 281.646062 262.906862 
L 282.019632 261.892522 
L 282.399511 262.230636 
L 282.836803 259.863843 
L 283.221996 259.095404 
L 283.591699 257.3741 
L 283.923461 256.928406 
L 284.35512 253.700961 
L 284.731138 254.85362 
L 285.056676 253.055473 
L 285.433924 252.532934 
L 286.631338 246.446896 
L 287.007242 247.922299 
L 287.335917 245.570876 
L 287.708485 245.847514 
L 288.088294 243.49609 
L 289.280048 238.931562 
L 289.66268 236.195919 
L 289.989312 237.041202 
L 290.748942 233.1529 
L 291.547227 231.293277 
L 291.877288 228.403946 
L 292.269327 226.71338 
L 292.611039 223.117085 
L 293.028561 223.024872 
L 293.350628 219.905009 
L 295.936277 206.611013 
L 296.301256 205.64278 
L 296.669464 205.304666 
L 297.038029 202.814924 
L 297.409162 198.265764 
L 297.777456 197.543431 
L 298.143866 196.575198 
L 298.567503 194.807788 
L 298.934639 191.134649 
L 299.296937 190.48916 
L 299.665827 185.309881 
L 299.994935 184.833449 
L 300.795717 181.237154 
L 301.885679 171.447239 
L 302.207085 172.722848 
L 302.576311 168.896021 
L 302.988818 170.002574 
L 303.308832 165.929846 
L 303.688424 166.237222 
L 304.093766 162.164495 
L 304.413628 161.995438 
L 304.7867 156.893003 
L 305.155557 156.493414 
L 305.523538 153.066176 
L 305.938423 153.696296 
L 306.26174 151.452454 
L 306.679945 150.084632 
L 307.784921 143.67585 
L 309.258553 139.142059 
L 309.589567 136.652316 
L 309.994508 136.867479 
L 310.323432 134.054992 
L 310.734661 133.394135 
L 311.101504 130.028371 
L 311.43586 130.16669 
L 311.796409 129.659521 
L 312.208071 131.211768 
L 312.54097 129.41362 
L 312.901682 129.843946 
L 313.316567 127.169778 
L 313.645881 126.570395 
L 314.056519 123.665696 
L 314.424451 123.312214 
L 314.795058 120.253826 
L 315.103383 119.746656 
L 315.479542 117.487445 
L 315.841088 117.93314 
L 316.217198 115.351184 
L 316.630155 115.397291 
L 316.993293 113.7682 
L 317.326262 113.491562 
L 317.686151 111.939315 
L 318.054808 111.739521 
L 318.470787 109.787685 
L 318.791424 110.064323 
L 319.161993 108.665764 
L 319.529805 109.09609 
L 319.901214 108.804083 
L 320.274914 109.065352 
L 320.644032 108.051013 
L 321.017775 107.436262 
L 321.422829 105.868646 
L 321.744322 105.576639 
L 322.121791 104.408611 
L 322.857362 102.687308 
L 323.605357 100.289778 
L 324.005385 100.720104 
L 324.327344 98.9988 
L 325.128196 98.076673 
L 325.504783 99.536708 
L 325.880736 99.475232 
L 326.581837 99.490601 
L 327.007793 98.153517 
L 327.428701 97.61561 
L 328.893272 93.57362 
L 329.313476 92.805181 
L 329.997045 94.357428 
L 330.440533 95.955781 
L 331.190684 96.98549 
L 331.570997 96.186313 
L 331.894174 96.662745 
L 333.799216 97.046965 
L 334.550342 96.170944 
L 334.984358 97.523397 
L 336.083245 97.984461 
L 336.879651 99.321545 
L 337.238613 99.62892 
L 337.638668 100.412728 
L 337.993579 100.796948 
L 338.352812 102.134032 
L 338.745777 102.671939 
L 340.275138 106.083809 
L 340.632524 107.728268 
L 341.388811 108.389126 
L 341.771188 106.69856 
L 342.151707 104.147342 
L 342.531251 100.658629 
L 342.90429 99.014169 
L 343.286444 99.12175 
L 343.668344 98.906587 
L 344.043978 99.244701 
L 344.424497 100.689366 
L 344.80267 101.012111 
L 345.18326 102.840996 
L 345.558254 104.024392 
L 345.992296 105.837908 
L 346.326669 106.45266 
L 346.696967 108.97314 
L 347.129942 110.848131 
L 348.595012 120.668783 
L 348.972205 121.483328 
L 349.410288 120.714889 
L 350.120965 122.620618 
L 350.546937 124.249709 
L 350.87104 125.00278 
L 352.788323 133.240447 
L 353.117025 136.283466 
L 353.485049 135.269126 
L 353.884107 137.128749 
L 354.632688 139.065215 
L 354.963686 142.507822 
L 355.371031 142.92278 
L 356.070795 147.733208 
L 356.806452 149.915575 
L 358.652419 160.58151 
L 359.017199 161.549744 
L 359.38649 164.74645 
L 359.800855 165.791527 
L 360.129285 170.494375 
L 360.496171 171.846828 
L 360.871848 173.998457 
L 361.276968 175.197222 
L 361.591609 177.671596 
L 362.016308 179.746382 
L 362.371972 180.868303 
L 362.694174 181.360104 
L 364.21756 192.456364 
L 364.587625 194.208406 
L 364.954966 194.930738 
L 365.279281 197.328268 
L 365.707685 199.32621 
L 366.389093 206.411219 
L 366.751548 208.393792 
L 367.541097 210.545421 
L 367.91718 212.543363 
L 368.611295 217.092522 
L 369.013684 217.738011 
L 369.382569 221.011562 
L 369.752889 221.180618 
L 370.120658 225.33019 
L 370.491547 226.052522 
L 370.86327 227.97362 
L 371.223911 227.988989 
L 371.600021 231.50844 
L 371.964746 232.000241 
L 372.334205 226.544323 
L 372.702905 225.652934 
L 373.071931 229.295335 
L 373.810925 229.187754 
L 374.505196 235.873174 
L 374.867874 233.52175 
L 375.281903 236.749195 
L 375.98119 237.148783 
L 376.725595 240.099589 
L 377.083983 238.31681 
L 377.458462 241.313723 
L 377.808331 240.883397 
L 378.192576 242.128268 
L 378.55826 249.643603 
L 378.928915 252.517565 
L 379.308134 253.639486 
L 379.674452 255.560584 
L 380.0465 254.623088 
L 380.404552 255.130258 
L 380.773502 255.007308 
L 381.189773 254.177394 
L 381.557591 254.469401 
L 381.884386 258.972454 
L 382.298318 257.896639 
L 382.622816 258.342334 
L 383.019687 259.664049 
L 383.354612 258.204015 
L 383.733289 261.600515 
L 384.094288 262.123054 
L 384.462587 263.521613 
L 384.84771 261.661991 
L 385.264507 265.058491 
L 385.585463 269.392488 
L 385.964076 271.882231 
L 386.364353 273.096364 
L 386.691668 271.851493 
L 387.100395 271.574855 
L 387.428441 271.544117 
L 388.241859 275.616845 
L 388.575852 278.675232 
L 388.906206 274.894512 
L 389.694141 279.797154 
L 390.020887 278.721339 
L 390.409438 279.643466 
L 390.83346 279.612728 
L 391.160824 279.428303 
L 391.53968 278.613757 
L 391.914951 278.521545 
L 392.377477 278.82892 
L 392.673692 278.659864 
L 393.113248 279.366828 
L 393.43545 279.197771 
L 393.813109 279.904735 
L 395.018561 280.826862 
L 395.712513 280.411905 
L 398.829773 280.565593 
L 398.829773 280.565593 
" style="fill:none;stroke:#2ca02c;stroke-linecap:square;stroke-width:1.5;"/>
   </g>
   <g id="patch_3">
    <path d="M 57.9425 293.1995 
L 57.9425 27.0875 
" style="fill:none;stroke:#000000;stroke-linecap:square;stroke-linejoin:miter;stroke-width:0.8;"/>
   </g>
   <g id="patch_4">
    <path d="M 415.0625 293.1995 
L 415.0625 27.0875 
" style="fill:none;stroke:#000000;stroke-linecap:square;stroke-linejoin:miter;stroke-width:0.8;"/>
   </g>
   <g id="patch_5">
    <path d="M 57.9425 293.1995 
L 415.0625 293.1995 
" style="fill:none;stroke:#000000;stroke-linecap:square;stroke-linejoin:miter;stroke-width:0.8;"/>
   </g>
   <g id="patch_6">
    <path d="M 57.9425 27.0875 
L 415.0625 27.0875 
" style="fill:none;stroke:#000000;stroke-linecap:square;stroke-linejoin:miter;stroke-width:0.8;"/>
   </g>
   <g id="text_17">
    <!-- The servo performance -->
    <g transform="translate(143.77125 21.0875)scale(0.2 -0.2)">
     <defs>
      <path d="M 16.265625 69.4375 
L 16.265625 36.71875 
Q 21.6875 42.671875 24.859375 44.359375 
Q 28.03125 46.046875 31.203125 46.046875 
Q 35.015625 46.046875 37.75 43.9375 
Q 40.484375 41.84375 41.796875 37.359375 
Q 42.71875 34.234375 42.71875 25.921875 
L 42.71875 10.109375 
Q 42.71875 5.859375 43.40625 4.296875 
Q 43.890625 3.125 45.0625 2.4375 
Q 46.234375 1.765625 49.359375 1.765625 
L 49.359375 0 
L 27.390625 0 
L 27.390625 1.765625 
L 28.421875 1.765625 
Q 31.546875 1.765625 32.765625 2.703125 
Q 33.984375 3.65625 34.46875 5.515625 
Q 34.625 6.296875 34.625 10.109375 
L 34.625 25.921875 
Q 34.625 33.25 33.859375 35.546875 
Q 33.109375 37.84375 31.4375 38.984375 
Q 29.78125 40.140625 27.4375 40.140625 
Q 25.046875 40.140625 22.453125 38.859375 
Q 19.875 37.59375 16.265625 33.734375 
L 16.265625 10.109375 
Q 16.265625 5.515625 16.765625 4.390625 
Q 17.28125 3.265625 18.671875 2.515625 
Q 20.0625 1.765625 23.484375 1.765625 
L 23.484375 0 
L 1.3125 0 
L 1.3125 1.765625 
Q 4.296875 1.765625 6 2.6875 
Q 6.984375 3.171875 7.5625 4.53125 
Q 8.15625 5.90625 8.15625 10.109375 
L 8.15625 50.59375 
Q 8.15625 58.25 7.78125 60 
Q 7.421875 61.765625 6.65625 62.390625 
Q 5.90625 63.03125 4.640625 63.03125 
Q 3.609375 63.03125 1.3125 62.25 
L 0.640625 63.96875 
L 14.015625 69.4375 
z
" id="TimesNewRomanPSMT-104"/>
      <path d="M 16.21875 46.046875 
L 16.21875 35.984375 
Q 21.828125 46.046875 27.734375 46.046875 
Q 30.421875 46.046875 32.171875 44.40625 
Q 33.9375 42.78125 33.9375 40.625 
Q 33.9375 38.71875 32.65625 37.390625 
Q 31.390625 36.078125 29.640625 36.078125 
Q 27.9375 36.078125 25.8125 37.765625 
Q 23.6875 39.453125 22.65625 39.453125 
Q 21.78125 39.453125 20.75 38.484375 
Q 18.5625 36.46875 16.21875 31.890625 
L 16.21875 10.453125 
Q 16.21875 6.734375 17.140625 4.828125 
Q 17.78125 3.515625 19.390625 2.640625 
Q 21 1.765625 24.03125 1.765625 
L 24.03125 0 
L 1.125 0 
L 1.125 1.765625 
Q 4.546875 1.765625 6.203125 2.828125 
Q 7.421875 3.609375 7.90625 5.328125 
Q 8.15625 6.15625 8.15625 10.0625 
L 8.15625 27.390625 
Q 8.15625 35.203125 7.828125 36.6875 
Q 7.515625 38.1875 6.65625 38.859375 
Q 5.8125 39.546875 4.546875 39.546875 
Q 3.03125 39.546875 1.125 38.8125 
L 0.640625 40.578125 
L 14.15625 46.046875 
z
" id="TimesNewRomanPSMT-114"/>
      <path d="M 0.828125 44.734375 
L 21.875 44.734375 
L 21.875 42.921875 
L 20.515625 42.921875 
Q 18.609375 42.921875 17.609375 41.984375 
Q 16.609375 41.0625 16.609375 39.5 
Q 16.609375 37.796875 17.625 35.453125 
L 28.03125 10.75 
L 38.484375 36.375 
Q 39.59375 39.109375 39.59375 40.53125 
Q 39.59375 41.21875 39.203125 41.65625 
Q 38.671875 42.390625 37.84375 42.65625 
Q 37.015625 42.921875 34.46875 42.921875 
L 34.46875 44.734375 
L 49.078125 44.734375 
L 49.078125 42.921875 
Q 46.53125 42.71875 45.5625 41.890625 
Q 43.84375 40.4375 42.484375 37.015625 
L 26.609375 -1.375 
L 24.609375 -1.375 
L 8.640625 36.375 
Q 7.5625 39.015625 6.578125 40.15625 
Q 5.609375 41.3125 4.109375 42.09375 
Q 3.265625 42.53125 0.828125 42.921875 
z
" id="TimesNewRomanPSMT-118"/>
      <path d="M 25 46.046875 
Q 35.15625 46.046875 41.3125 38.328125 
Q 46.53125 31.734375 46.53125 23.1875 
Q 46.53125 17.1875 43.640625 11.03125 
Q 40.765625 4.890625 35.71875 1.75 
Q 30.671875 -1.375 24.46875 -1.375 
Q 14.359375 -1.375 8.40625 6.6875 
Q 3.375 13.484375 3.375 21.921875 
Q 3.375 28.078125 6.421875 34.15625 
Q 9.46875 40.234375 14.453125 43.140625 
Q 19.4375 46.046875 25 46.046875 
z
M 23.484375 42.875 
Q 20.90625 42.875 18.28125 41.328125 
Q 15.671875 39.796875 14.0625 35.9375 
Q 12.453125 32.078125 12.453125 26.03125 
Q 12.453125 16.265625 16.328125 9.171875 
Q 20.21875 2.09375 26.5625 2.09375 
Q 31.296875 2.09375 34.375 6 
Q 37.453125 9.90625 37.453125 19.4375 
Q 37.453125 31.34375 32.328125 38.1875 
Q 28.859375 42.875 23.484375 42.875 
z
" id="TimesNewRomanPSMT-111"/>
      <path d="M -0.09375 40.28125 
L 13.671875 45.84375 
L 15.53125 45.84375 
L 15.53125 35.40625 
Q 19 41.3125 22.484375 43.671875 
Q 25.984375 46.046875 29.828125 46.046875 
Q 36.578125 46.046875 41.0625 40.765625 
Q 46.578125 34.328125 46.578125 23.96875 
Q 46.578125 12.40625 39.9375 4.828125 
Q 34.46875 -1.375 26.171875 -1.375 
Q 22.5625 -1.375 19.921875 -0.34375 
Q 17.96875 0.390625 15.53125 2.59375 
L 15.53125 -11.03125 
Q 15.53125 -15.625 16.09375 -16.859375 
Q 16.65625 -18.109375 18.046875 -18.84375 
Q 19.4375 -19.578125 23.09375 -19.578125 
L 23.09375 -21.390625 
L -0.34375 -21.390625 
L -0.34375 -19.578125 
L 0.875 -19.578125 
Q 3.5625 -19.625 5.46875 -18.5625 
Q 6.390625 -18.015625 6.90625 -16.8125 
Q 7.421875 -15.625 7.421875 -10.75 
L 7.421875 31.546875 
Q 7.421875 35.890625 7.03125 37.0625 
Q 6.640625 38.234375 5.78125 38.8125 
Q 4.9375 39.40625 3.46875 39.40625 
Q 2.296875 39.40625 0.484375 38.71875 
z
M 15.53125 32.515625 
L 15.53125 15.828125 
Q 15.53125 10.40625 15.96875 8.6875 
Q 16.65625 5.859375 19.3125 3.703125 
Q 21.96875 1.5625 26.03125 1.5625 
Q 30.90625 1.5625 33.9375 5.375 
Q 37.890625 10.359375 37.890625 19.390625 
Q 37.890625 29.640625 33.40625 35.15625 
Q 30.28125 38.96875 25.984375 38.96875 
Q 23.640625 38.96875 21.34375 37.796875 
Q 19.578125 36.921875 15.53125 32.515625 
z
" id="TimesNewRomanPSMT-112"/>
      <path d="M 20.609375 41.21875 
L 20.609375 11.8125 
Q 20.609375 5.5625 21.96875 3.90625 
Q 23.78125 1.765625 26.8125 1.765625 
L 30.859375 1.765625 
L 30.859375 0 
L 4.15625 0 
L 4.15625 1.765625 
L 6.15625 1.765625 
Q 8.109375 1.765625 9.71875 2.734375 
Q 11.328125 3.71875 11.9375 5.375 
Q 12.546875 7.03125 12.546875 11.8125 
L 12.546875 41.21875 
L 3.859375 41.21875 
L 3.859375 44.734375 
L 12.546875 44.734375 
L 12.546875 47.65625 
Q 12.546875 54.34375 14.6875 58.984375 
Q 16.84375 63.625 21.265625 66.484375 
Q 25.6875 69.34375 31.203125 69.34375 
Q 36.328125 69.34375 40.625 66.015625 
Q 43.453125 63.8125 43.453125 61.078125 
Q 43.453125 59.625 42.1875 58.328125 
Q 40.921875 57.03125 39.453125 57.03125 
Q 38.328125 57.03125 37.078125 57.828125 
Q 35.84375 58.640625 34.03125 61.296875 
Q 32.234375 63.96875 30.71875 64.890625 
Q 29.203125 65.828125 27.34375 65.828125 
Q 25.09375 65.828125 23.53125 64.625 
Q 21.96875 63.421875 21.28125 60.90625 
Q 20.609375 58.40625 20.609375 47.953125 
L 20.609375 44.734375 
L 32.125 44.734375 
L 32.125 41.21875 
z
" id="TimesNewRomanPSMT-102"/>
      <path d="M 28.46875 6.453125 
Q 21.578125 1.125 19.828125 0.296875 
Q 17.1875 -0.921875 14.203125 -0.921875 
Q 9.578125 -0.921875 6.5625 2.25 
Q 3.5625 5.421875 3.5625 10.59375 
Q 3.5625 13.875 5.03125 16.265625 
Q 7.03125 19.578125 11.984375 22.5 
Q 16.9375 25.4375 28.46875 29.640625 
L 28.46875 31.390625 
Q 28.46875 38.09375 26.34375 40.578125 
Q 24.21875 43.0625 20.171875 43.0625 
Q 17.09375 43.0625 15.28125 41.40625 
Q 13.421875 39.75 13.421875 37.59375 
L 13.53125 34.765625 
Q 13.53125 32.515625 12.375 31.296875 
Q 11.234375 30.078125 9.375 30.078125 
Q 7.5625 30.078125 6.421875 31.34375 
Q 5.28125 32.625 5.28125 34.8125 
Q 5.28125 39.015625 9.578125 42.53125 
Q 13.875 46.046875 21.625 46.046875 
Q 27.59375 46.046875 31.390625 44.046875 
Q 34.28125 42.53125 35.640625 39.3125 
Q 36.53125 37.203125 36.53125 30.71875 
L 36.53125 15.53125 
Q 36.53125 9.125 36.765625 7.6875 
Q 37.015625 6.25 37.578125 5.765625 
Q 38.140625 5.28125 38.875 5.28125 
Q 39.65625 5.28125 40.234375 5.609375 
Q 41.265625 6.25 44.1875 9.1875 
L 44.1875 6.453125 
Q 38.71875 -0.875 33.734375 -0.875 
Q 31.34375 -0.875 29.921875 0.78125 
Q 28.515625 2.4375 28.46875 6.453125 
z
M 28.46875 9.625 
L 28.46875 26.65625 
Q 21.09375 23.734375 18.953125 22.515625 
Q 15.09375 20.359375 13.421875 18.015625 
Q 11.765625 15.671875 11.765625 12.890625 
Q 11.765625 9.375 13.859375 7.046875 
Q 15.96875 4.734375 18.703125 4.734375 
Q 22.40625 4.734375 28.46875 9.625 
z
" id="TimesNewRomanPSMT-97"/>
      <path d="M 41.109375 17 
Q 39.3125 8.15625 34.03125 3.390625 
Q 28.765625 -1.375 22.359375 -1.375 
Q 14.75 -1.375 9.078125 5.015625 
Q 3.421875 11.421875 3.421875 22.3125 
Q 3.421875 32.859375 9.6875 39.453125 
Q 15.96875 46.046875 24.75 46.046875 
Q 31.34375 46.046875 35.59375 42.546875 
Q 39.84375 39.0625 39.84375 35.296875 
Q 39.84375 33.453125 38.640625 32.296875 
Q 37.453125 31.15625 35.296875 31.15625 
Q 32.421875 31.15625 30.953125 33.015625 
Q 30.125 34.03125 29.859375 36.90625 
Q 29.59375 39.796875 27.875 41.3125 
Q 26.171875 42.78125 23.140625 42.78125 
Q 18.265625 42.78125 15.28125 39.15625 
Q 11.328125 34.375 11.328125 26.515625 
Q 11.328125 18.5 15.25 12.375 
Q 19.1875 6.25 25.875 6.25 
Q 30.671875 6.25 34.46875 9.515625 
Q 37.15625 11.765625 39.703125 17.671875 
z
" id="TimesNewRomanPSMT-99"/>
     </defs>
     <use xlink:href="#TimesNewRomanPSMT-84"/>
     <use x="61.083984" xlink:href="#TimesNewRomanPSMT-104"/>
     <use x="111.083984" xlink:href="#TimesNewRomanPSMT-101"/>
     <use x="155.46875" xlink:href="#TimesNewRomanPSMT-32"/>
     <use x="180.46875" xlink:href="#TimesNewRomanPSMT-115"/>
     <use x="219.384766" xlink:href="#TimesNewRomanPSMT-101"/>
     <use x="263.769531" xlink:href="#TimesNewRomanPSMT-114"/>
     <use x="297.070312" xlink:href="#TimesNewRomanPSMT-118"/>
     <use x="347.070312" xlink:href="#TimesNewRomanPSMT-111"/>
     <use x="397.070312" xlink:href="#TimesNewRomanPSMT-32"/>
     <use x="422.070312" xlink:href="#TimesNewRomanPSMT-112"/>
     <use x="472.070312" xlink:href="#TimesNewRomanPSMT-101"/>
     <use x="516.455078" xlink:href="#TimesNewRomanPSMT-114"/>
     <use x="549.755859" xlink:href="#TimesNewRomanPSMT-102"/>
     <use x="583.056641" xlink:href="#TimesNewRomanPSMT-111"/>
     <use x="633.056641" xlink:href="#TimesNewRomanPSMT-114"/>
     <use x="666.357422" xlink:href="#TimesNewRomanPSMT-109"/>
     <use x="744.140625" xlink:href="#TimesNewRomanPSMT-97"/>
     <use x="788.525391" xlink:href="#TimesNewRomanPSMT-110"/>
     <use x="838.525391" xlink:href="#TimesNewRomanPSMT-99"/>
     <use x="882.910156" xlink:href="#TimesNewRomanPSMT-101"/>
    </g>
   </g>
   <g id="legend_1">
    <g id="patch_7">
     <path d="M 69.1425 107.755 
L 266.51 107.755 
Q 269.71 107.755 269.71 104.555 
L 269.71 38.2875 
Q 269.71 35.0875 266.51 35.0875 
L 69.1425 35.0875 
Q 65.9425 35.0875 65.9425 38.2875 
L 65.9425 104.555 
Q 65.9425 107.755 69.1425 107.755 
z
" style="fill:#ffffff;opacity:0.8;stroke:#cccccc;stroke-linejoin:miter;"/>
    </g>
    <g id="line2d_32">
     <path d="M 72.3425 47.0875 
L 104.3425 47.0875 
" style="fill:none;stroke:#1f77b4;stroke-linecap:square;stroke-width:1.5;"/>
    </g>
    <g id="line2d_33"/>
    <g id="text_18">
     <!-- error -->
     <g transform="translate(117.1425 52.6875)scale(0.16 -0.16)">
      <use xlink:href="#TimesNewRomanPSMT-101"/>
      <use x="44.384766" xlink:href="#TimesNewRomanPSMT-114"/>
      <use x="77.685547" xlink:href="#TimesNewRomanPSMT-114"/>
      <use x="110.986328" xlink:href="#TimesNewRomanPSMT-111"/>
      <use x="160.986328" xlink:href="#TimesNewRomanPSMT-114"/>
     </g>
    </g>
    <g id="line2d_34">
     <path d="M 72.3425 69.71 
L 104.3425 69.71 
" style="fill:none;stroke:#ff7f0e;stroke-linecap:square;stroke-width:1.5;"/>
    </g>
    <g id="line2d_35"/>
    <g id="text_19">
     <!-- servo commands -->
     <g transform="translate(117.1425 75.31)scale(0.16 -0.16)">
      <defs>
       <path d="M 34.71875 5.03125 
Q 31.453125 1.609375 28.328125 0.109375 
Q 25.203125 -1.375 21.578125 -1.375 
Q 14.265625 -1.375 8.796875 4.75 
Q 3.328125 10.890625 3.328125 20.515625 
Q 3.328125 30.125 9.375 38.109375 
Q 15.4375 46.09375 24.953125 46.09375 
Q 30.859375 46.09375 34.71875 42.328125 
L 34.71875 50.59375 
Q 34.71875 58.25 34.34375 60 
Q 33.984375 61.765625 33.203125 62.390625 
Q 32.421875 63.03125 31.25 63.03125 
Q 29.984375 63.03125 27.875 62.25 
L 27.25 63.96875 
L 40.578125 69.4375 
L 42.78125 69.4375 
L 42.78125 17.71875 
Q 42.78125 9.859375 43.140625 8.125 
Q 43.5 6.390625 44.3125 5.703125 
Q 45.125 5.03125 46.1875 5.03125 
Q 47.515625 5.03125 49.703125 5.859375 
L 50.25 4.15625 
L 36.96875 -1.375 
L 34.71875 -1.375 
z
M 34.71875 8.453125 
L 34.71875 31.5 
Q 34.421875 34.8125 32.953125 37.546875 
Q 31.5 40.28125 29.078125 41.671875 
Q 26.65625 43.0625 24.359375 43.0625 
Q 20.0625 43.0625 16.703125 39.203125 
Q 12.25 34.125 12.25 24.359375 
Q 12.25 14.5 16.546875 9.25 
Q 20.84375 4 26.125 4 
Q 30.5625 4 34.71875 8.453125 
z
" id="TimesNewRomanPSMT-100"/>
      </defs>
      <use xlink:href="#TimesNewRomanPSMT-115"/>
      <use x="38.916016" xlink:href="#TimesNewRomanPSMT-101"/>
      <use x="83.300781" xlink:href="#TimesNewRomanPSMT-114"/>
      <use x="116.601562" xlink:href="#TimesNewRomanPSMT-118"/>
      <use x="166.601562" xlink:href="#TimesNewRomanPSMT-111"/>
      <use x="216.601562" xlink:href="#TimesNewRomanPSMT-32"/>
      <use x="241.601562" xlink:href="#TimesNewRomanPSMT-99"/>
      <use x="285.986328" xlink:href="#TimesNewRomanPSMT-111"/>
      <use x="335.986328" xlink:href="#TimesNewRomanPSMT-109"/>
      <use x="413.769531" xlink:href="#TimesNewRomanPSMT-109"/>
      <use x="491.552734" xlink:href="#TimesNewRomanPSMT-97"/>
      <use x="535.9375" xlink:href="#TimesNewRomanPSMT-110"/>
      <use x="585.9375" xlink:href="#TimesNewRomanPSMT-100"/>
      <use x="635.9375" xlink:href="#TimesNewRomanPSMT-115"/>
     </g>
    </g>
    <g id="line2d_36">
     <path d="M 72.3425 92.3325 
L 104.3425 92.3325 
" style="fill:none;stroke:#2ca02c;stroke-linecap:square;stroke-width:1.5;"/>
    </g>
    <g id="line2d_37"/>
    <g id="text_20">
     <!-- Theoretical commands -->
     <g transform="translate(117.1425 97.9325)scale(0.16 -0.16)">
      <defs>
       <path d="M 16.109375 59.421875 
L 16.109375 44.734375 
L 26.5625 44.734375 
L 26.5625 41.3125 
L 16.109375 41.3125 
L 16.109375 12.3125 
Q 16.109375 7.953125 17.359375 6.4375 
Q 18.609375 4.9375 20.5625 4.9375 
Q 22.171875 4.9375 23.6875 5.9375 
Q 25.203125 6.9375 26.03125 8.890625 
L 27.9375 8.890625 
Q 26.21875 4.109375 23.09375 1.6875 
Q 19.96875 -0.734375 16.65625 -0.734375 
Q 14.40625 -0.734375 12.25 0.515625 
Q 10.109375 1.765625 9.078125 4.078125 
Q 8.0625 6.390625 8.0625 11.234375 
L 8.0625 41.3125 
L 0.984375 41.3125 
L 0.984375 42.921875 
Q 3.65625 44 6.46875 46.5625 
Q 9.28125 49.125 11.46875 52.640625 
Q 12.59375 54.5 14.59375 59.421875 
z
" id="TimesNewRomanPSMT-116"/>
      </defs>
      <use xlink:href="#TimesNewRomanPSMT-84"/>
      <use x="61.083984" xlink:href="#TimesNewRomanPSMT-104"/>
      <use x="111.083984" xlink:href="#TimesNewRomanPSMT-101"/>
      <use x="155.46875" xlink:href="#TimesNewRomanPSMT-111"/>
      <use x="205.46875" xlink:href="#TimesNewRomanPSMT-114"/>
      <use x="238.769531" xlink:href="#TimesNewRomanPSMT-101"/>
      <use x="283.154297" xlink:href="#TimesNewRomanPSMT-116"/>
      <use x="310.9375" xlink:href="#TimesNewRomanPSMT-105"/>
      <use x="338.720703" xlink:href="#TimesNewRomanPSMT-99"/>
      <use x="383.105469" xlink:href="#TimesNewRomanPSMT-97"/>
      <use x="427.490234" xlink:href="#TimesNewRomanPSMT-108"/>
      <use x="455.273438" xlink:href="#TimesNewRomanPSMT-32"/>
      <use x="480.273438" xlink:href="#TimesNewRomanPSMT-99"/>
      <use x="524.658203" xlink:href="#TimesNewRomanPSMT-111"/>
      <use x="574.658203" xlink:href="#TimesNewRomanPSMT-109"/>
      <use x="652.441406" xlink:href="#TimesNewRomanPSMT-109"/>
      <use x="730.224609" xlink:href="#TimesNewRomanPSMT-97"/>
      <use x="774.609375" xlink:href="#TimesNewRomanPSMT-110"/>
      <use x="824.609375" xlink:href="#TimesNewRomanPSMT-100"/>
      <use x="874.609375" xlink:href="#TimesNewRomanPSMT-115"/>
     </g>
    </g>
   </g>
  </g>
 </g>
 <defs>
  <clipPath id="pe21647e723">
   <rect height="266.112" width="357.12" x="57.9425" y="27.0875"/>
  </clipPath>
 </defs>
</svg>
