<?xml version="1.0" encoding="utf-8" standalone="no"?>
<!DOCTYPE svg PUBLIC "-//W3C//DTD SVG 1.1//EN"
  "http://www.w3.org/Graphics/SVG/1.1/DTD/svg11.dtd">
<!-- Created with matplotlib (https://matplotlib.org/) -->
<svg height="355.091687pt" version="1.1" viewBox="0 0 432.198125 355.091687" width="432.198125pt" xmlns="http://www.w3.org/2000/svg" xmlns:xlink="http://www.w3.org/1999/xlink">
 <metadata>
  <rdf:RDF xmlns:cc="http://creativecommons.org/ns#" xmlns:dc="http://purl.org/dc/elements/1.1/" xmlns:rdf="http://www.w3.org/1999/02/22-rdf-syntax-ns#">
   <cc:Work>
    <dc:type rdf:resource="http://purl.org/dc/dcmitype/StillImage"/>
    <dc:date>2022-02-22T15:06:25.696951</dc:date>
    <dc:format>image/svg+xml</dc:format>
    <dc:creator>
     <cc:Agent>
      <dc:title>Matplotlib v3.3.4, https://matplotlib.org/</dc:title>
     </cc:Agent>
    </dc:creator>
   </cc:Work>
  </rdf:RDF>
 </metadata>
 <defs>
  <style type="text/css">*{stroke-linecap:butt;stroke-linejoin:round;}</style>
 </defs>
 <g id="figure_1">
  <g id="patch_1">
   <path d="M 0 355.091687 
L 432.198125 355.091687 
L 432.198125 0 
L 0 0 
z
" style="fill:#ffffff;"/>
  </g>
  <g id="axes_1">
   <g id="patch_2">
    <path d="M 67.878125 300.560437 
L 424.998125 300.560437 
L 424.998125 34.448437 
L 67.878125 34.448437 
z
" style="fill:#ffffff;"/>
   </g>
   <g id="matplotlib.axis_1">
    <g id="xtick_1">
     <g id="line2d_1">
      <path clip-path="url(#p05877b2dfc)" d="M 84.06468 300.560437 
L 84.06468 34.448437 
" style="fill:none;stroke:#b0b0b0;stroke-linecap:square;stroke-width:0.8;"/>
     </g>
     <g id="line2d_2">
      <defs>
       <path d="M 0 0 
L 0 3.5 
" id="m31ffd07f07" style="stroke:#000000;stroke-width:0.8;"/>
      </defs>
      <g>
       <use style="stroke:#000000;stroke-width:0.8;" x="84.06468" xlink:href="#m31ffd07f07" y="300.560437"/>
      </g>
     </g>
     <g id="text_1">
      <!-- 0.0 -->
      <g transform="translate(71.56468 321.447937)scale(0.2 -0.2)">
       <defs>
        <path d="M 3.609375 32.71875 
Q 3.609375 44.046875 7.03125 52.21875 
Q 10.453125 60.40625 16.109375 64.40625 
Q 20.515625 67.578125 25.203125 67.578125 
Q 32.8125 67.578125 38.875 59.8125 
Q 46.4375 50.203125 46.4375 33.734375 
Q 46.4375 22.21875 43.109375 14.15625 
Q 39.796875 6.109375 34.640625 2.46875 
Q 29.5 -1.171875 24.703125 -1.171875 
Q 15.234375 -1.171875 8.9375 10.015625 
Q 3.609375 19.4375 3.609375 32.71875 
z
M 13.1875 31.5 
Q 13.1875 17.828125 16.546875 9.1875 
Q 19.34375 1.90625 24.859375 1.90625 
Q 27.484375 1.90625 30.3125 4.265625 
Q 33.15625 6.640625 34.625 12.203125 
Q 36.859375 20.609375 36.859375 35.890625 
Q 36.859375 47.21875 34.515625 54.78125 
Q 32.765625 60.40625 29.984375 62.75 
Q 27.984375 64.359375 25.140625 64.359375 
Q 21.828125 64.359375 19.234375 61.375 
Q 15.71875 57.328125 14.453125 48.625 
Q 13.1875 39.9375 13.1875 31.5 
z
" id="TimesNewRomanPSMT-48"/>
        <path d="M 12.5 9.46875 
Q 14.796875 9.46875 16.359375 7.875 
Q 17.921875 6.296875 17.921875 4.046875 
Q 17.921875 1.8125 16.328125 0.21875 
Q 14.75 -1.375 12.5 -1.375 
Q 10.25 -1.375 8.65625 0.21875 
Q 7.078125 1.8125 7.078125 4.046875 
Q 7.078125 6.34375 8.65625 7.90625 
Q 10.25 9.46875 12.5 9.46875 
z
" id="TimesNewRomanPSMT-46"/>
       </defs>
       <use xlink:href="#TimesNewRomanPSMT-48"/>
       <use x="50" xlink:href="#TimesNewRomanPSMT-46"/>
       <use x="75" xlink:href="#TimesNewRomanPSMT-48"/>
      </g>
     </g>
    </g>
    <g id="xtick_2">
     <g id="line2d_3">
      <path clip-path="url(#p05877b2dfc)" d="M 157.12249 300.560437 
L 157.12249 34.448437 
" style="fill:none;stroke:#b0b0b0;stroke-linecap:square;stroke-width:0.8;"/>
     </g>
     <g id="line2d_4">
      <g>
       <use style="stroke:#000000;stroke-width:0.8;" x="157.12249" xlink:href="#m31ffd07f07" y="300.560437"/>
      </g>
     </g>
     <g id="text_2">
      <!-- 2.5 -->
      <g transform="translate(144.62249 321.447937)scale(0.2 -0.2)">
       <defs>
        <path d="M 45.84375 12.75 
L 41.21875 0 
L 2.15625 0 
L 2.15625 1.8125 
Q 19.390625 17.53125 26.421875 27.484375 
Q 33.453125 37.453125 33.453125 45.703125 
Q 33.453125 52 29.59375 56.046875 
Q 25.734375 60.109375 20.359375 60.109375 
Q 15.484375 60.109375 11.59375 57.25 
Q 7.71875 54.390625 5.859375 48.875 
L 4.046875 48.875 
Q 5.28125 57.90625 10.328125 62.734375 
Q 15.375 67.578125 22.953125 67.578125 
Q 31 67.578125 36.390625 62.40625 
Q 41.796875 57.234375 41.796875 50.203125 
Q 41.796875 45.171875 39.453125 40.140625 
Q 35.84375 32.234375 27.734375 23.390625 
Q 15.578125 10.109375 12.546875 7.375 
L 29.828125 7.375 
Q 35.109375 7.375 37.234375 7.765625 
Q 39.359375 8.15625 41.0625 9.34375 
Q 42.78125 10.546875 44.046875 12.75 
z
" id="TimesNewRomanPSMT-50"/>
        <path d="M 43.40625 66.21875 
L 39.59375 57.90625 
L 19.671875 57.90625 
L 15.328125 49.03125 
Q 28.265625 47.125 35.84375 39.40625 
Q 42.328125 32.765625 42.328125 23.78125 
Q 42.328125 18.5625 40.203125 14.109375 
Q 38.09375 9.671875 34.859375 6.546875 
Q 31.640625 3.421875 27.6875 1.515625 
Q 22.078125 -1.171875 16.15625 -1.171875 
Q 10.203125 -1.171875 7.484375 0.84375 
Q 4.78125 2.875 4.78125 5.328125 
Q 4.78125 6.6875 5.90625 7.734375 
Q 7.03125 8.796875 8.734375 8.796875 
Q 10.015625 8.796875 10.96875 8.40625 
Q 11.921875 8.015625 14.203125 6.390625 
Q 17.875 3.859375 21.625 3.859375 
Q 27.34375 3.859375 31.65625 8.171875 
Q 35.984375 12.5 35.984375 18.703125 
Q 35.984375 24.703125 32.125 29.90625 
Q 28.265625 35.109375 21.484375 37.9375 
Q 16.15625 40.140625 6.984375 40.484375 
L 19.671875 66.21875 
z
" id="TimesNewRomanPSMT-53"/>
       </defs>
       <use xlink:href="#TimesNewRomanPSMT-50"/>
       <use x="50" xlink:href="#TimesNewRomanPSMT-46"/>
       <use x="75" xlink:href="#TimesNewRomanPSMT-53"/>
      </g>
     </g>
    </g>
    <g id="xtick_3">
     <g id="line2d_5">
      <path clip-path="url(#p05877b2dfc)" d="M 230.1803 300.560437 
L 230.1803 34.448437 
" style="fill:none;stroke:#b0b0b0;stroke-linecap:square;stroke-width:0.8;"/>
     </g>
     <g id="line2d_6">
      <g>
       <use style="stroke:#000000;stroke-width:0.8;" x="230.1803" xlink:href="#m31ffd07f07" y="300.560437"/>
      </g>
     </g>
     <g id="text_3">
      <!-- 5.0 -->
      <g transform="translate(217.6803 321.447937)scale(0.2 -0.2)">
       <use xlink:href="#TimesNewRomanPSMT-53"/>
       <use x="50" xlink:href="#TimesNewRomanPSMT-46"/>
       <use x="75" xlink:href="#TimesNewRomanPSMT-48"/>
      </g>
     </g>
    </g>
    <g id="xtick_4">
     <g id="line2d_7">
      <path clip-path="url(#p05877b2dfc)" d="M 303.23811 300.560437 
L 303.23811 34.448437 
" style="fill:none;stroke:#b0b0b0;stroke-linecap:square;stroke-width:0.8;"/>
     </g>
     <g id="line2d_8">
      <g>
       <use style="stroke:#000000;stroke-width:0.8;" x="303.23811" xlink:href="#m31ffd07f07" y="300.560437"/>
      </g>
     </g>
     <g id="text_4">
      <!-- 7.5 -->
      <g transform="translate(290.73811 321.447937)scale(0.2 -0.2)">
       <defs>
        <path d="M 10.0625 66.21875 
L 45.5625 66.21875 
L 45.5625 64.359375 
L 23.484375 -1.375 
L 18.015625 -1.375 
L 37.796875 58.25 
L 19.578125 58.25 
Q 14.0625 58.25 11.71875 56.9375 
Q 7.625 54.6875 5.125 50 
L 3.71875 50.53125 
z
" id="TimesNewRomanPSMT-55"/>
       </defs>
       <use xlink:href="#TimesNewRomanPSMT-55"/>
       <use x="50" xlink:href="#TimesNewRomanPSMT-46"/>
       <use x="75" xlink:href="#TimesNewRomanPSMT-53"/>
      </g>
     </g>
    </g>
    <g id="xtick_5">
     <g id="line2d_9">
      <path clip-path="url(#p05877b2dfc)" d="M 376.29592 300.560437 
L 376.29592 34.448437 
" style="fill:none;stroke:#b0b0b0;stroke-linecap:square;stroke-width:0.8;"/>
     </g>
     <g id="line2d_10">
      <g>
       <use style="stroke:#000000;stroke-width:0.8;" x="376.29592" xlink:href="#m31ffd07f07" y="300.560437"/>
      </g>
     </g>
     <g id="text_5">
      <!-- 10.0 -->
      <g transform="translate(358.79592 321.447937)scale(0.2 -0.2)">
       <defs>
        <path d="M 11.71875 59.71875 
L 27.828125 67.578125 
L 29.4375 67.578125 
L 29.4375 11.671875 
Q 29.4375 6.109375 29.90625 4.734375 
Q 30.375 3.375 31.828125 2.640625 
Q 33.296875 1.90625 37.796875 1.8125 
L 37.796875 0 
L 12.890625 0 
L 12.890625 1.8125 
Q 17.578125 1.90625 18.9375 2.609375 
Q 20.3125 3.328125 20.84375 4.515625 
Q 21.390625 5.71875 21.390625 11.671875 
L 21.390625 47.40625 
Q 21.390625 54.640625 20.90625 56.6875 
Q 20.5625 58.25 19.65625 58.984375 
Q 18.75 59.71875 17.484375 59.71875 
Q 15.671875 59.71875 12.453125 58.203125 
z
" id="TimesNewRomanPSMT-49"/>
       </defs>
       <use xlink:href="#TimesNewRomanPSMT-49"/>
       <use x="50" xlink:href="#TimesNewRomanPSMT-48"/>
       <use x="100" xlink:href="#TimesNewRomanPSMT-46"/>
       <use x="125" xlink:href="#TimesNewRomanPSMT-48"/>
      </g>
     </g>
    </g>
    <g id="text_6">
     <!-- Time [s] -->
     <g transform="translate(212.633438 343.613563)scale(0.2 -0.2)">
      <defs>
       <path d="M 57.859375 66.21875 
L 58.59375 50.6875 
L 56.734375 50.6875 
Q 56.203125 54.78125 55.28125 56.546875 
Q 53.765625 59.375 51.25 60.71875 
Q 48.734375 62.0625 44.625 62.0625 
L 35.296875 62.0625 
L 35.296875 11.46875 
Q 35.296875 5.375 36.625 3.859375 
Q 38.484375 1.8125 42.328125 1.8125 
L 44.625 1.8125 
L 44.625 0 
L 16.546875 0 
L 16.546875 1.8125 
L 18.890625 1.8125 
Q 23.09375 1.8125 24.859375 4.34375 
Q 25.921875 5.90625 25.921875 11.46875 
L 25.921875 62.0625 
L 17.96875 62.0625 
Q 13.328125 62.0625 11.375 61.375 
Q 8.84375 60.453125 7.03125 57.8125 
Q 5.21875 55.171875 4.890625 50.6875 
L 3.03125 50.6875 
L 3.8125 66.21875 
z
" id="TimesNewRomanPSMT-84"/>
       <path d="M 14.5 69.4375 
Q 16.546875 69.4375 17.984375 67.984375 
Q 19.4375 66.546875 19.4375 64.5 
Q 19.4375 62.453125 17.984375 60.984375 
Q 16.546875 59.515625 14.5 59.515625 
Q 12.453125 59.515625 10.984375 60.984375 
Q 9.515625 62.453125 9.515625 64.5 
Q 9.515625 66.546875 10.953125 67.984375 
Q 12.40625 69.4375 14.5 69.4375 
z
M 18.5625 46.046875 
L 18.5625 10.109375 
Q 18.5625 5.90625 19.171875 4.515625 
Q 19.78125 3.125 20.96875 2.4375 
Q 22.171875 1.765625 25.34375 1.765625 
L 25.34375 0 
L 3.609375 0 
L 3.609375 1.765625 
Q 6.890625 1.765625 8 2.390625 
Q 9.125 3.03125 9.78125 4.484375 
Q 10.453125 5.953125 10.453125 10.109375 
L 10.453125 27.34375 
Q 10.453125 34.625 10.015625 36.765625 
Q 9.671875 38.328125 8.9375 38.9375 
Q 8.203125 39.546875 6.9375 39.546875 
Q 5.5625 39.546875 3.609375 38.8125 
L 2.9375 40.578125 
L 16.40625 46.046875 
z
" id="TimesNewRomanPSMT-105"/>
       <path d="M 16.40625 36.53125 
Q 21.296875 41.40625 22.171875 42.140625 
Q 24.359375 44 26.890625 45.015625 
Q 29.4375 46.046875 31.9375 46.046875 
Q 36.140625 46.046875 39.15625 43.59375 
Q 42.1875 41.15625 43.21875 36.53125 
Q 48.25 42.390625 51.703125 44.21875 
Q 55.171875 46.046875 58.84375 46.046875 
Q 62.40625 46.046875 65.15625 44.21875 
Q 67.921875 42.390625 69.53125 38.234375 
Q 70.609375 35.40625 70.609375 29.34375 
L 70.609375 10.109375 
Q 70.609375 5.90625 71.234375 4.34375 
Q 71.734375 3.265625 73.046875 2.515625 
Q 74.359375 1.765625 77.34375 1.765625 
L 77.34375 0 
L 55.28125 0 
L 55.28125 1.765625 
L 56.203125 1.765625 
Q 59.078125 1.765625 60.6875 2.875 
Q 61.8125 3.65625 62.3125 5.375 
Q 62.5 6.203125 62.5 10.109375 
L 62.5 29.34375 
Q 62.5 34.8125 61.1875 37.0625 
Q 59.28125 40.1875 55.078125 40.1875 
Q 52.484375 40.1875 49.875 38.890625 
Q 47.265625 37.59375 43.5625 34.078125 
L 43.453125 33.546875 
L 43.5625 31.453125 
L 43.5625 10.109375 
Q 43.5625 5.515625 44.0625 4.390625 
Q 44.578125 3.265625 45.984375 2.515625 
Q 47.40625 1.765625 50.828125 1.765625 
L 50.828125 0 
L 28.21875 0 
L 28.21875 1.765625 
Q 31.9375 1.765625 33.328125 2.640625 
Q 34.71875 3.515625 35.25 5.28125 
Q 35.5 6.109375 35.5 10.109375 
L 35.5 29.34375 
Q 35.5 34.8125 33.890625 37.203125 
Q 31.734375 40.328125 27.875 40.328125 
Q 25.25 40.328125 22.65625 38.921875 
Q 18.609375 36.765625 16.40625 34.078125 
L 16.40625 10.109375 
Q 16.40625 5.71875 17.015625 4.390625 
Q 17.625 3.078125 18.8125 2.421875 
Q 20.015625 1.765625 23.6875 1.765625 
L 23.6875 0 
L 1.5625 0 
L 1.5625 1.765625 
Q 4.640625 1.765625 5.859375 2.421875 
Q 7.078125 3.078125 7.703125 4.515625 
Q 8.34375 5.953125 8.34375 10.109375 
L 8.34375 27.203125 
Q 8.34375 34.578125 7.90625 36.71875 
Q 7.5625 38.328125 6.828125 38.9375 
Q 6.109375 39.546875 4.828125 39.546875 
Q 3.46875 39.546875 1.5625 38.8125 
L 0.828125 40.578125 
L 14.3125 46.046875 
L 16.40625 46.046875 
z
" id="TimesNewRomanPSMT-109"/>
       <path d="M 10.640625 27.875 
Q 10.59375 17.921875 15.484375 12.25 
Q 20.359375 6.59375 26.953125 6.59375 
Q 31.34375 6.59375 34.59375 9 
Q 37.84375 11.421875 40.046875 17.28125 
L 41.546875 16.3125 
Q 40.53125 9.625 35.59375 4.125 
Q 30.671875 -1.375 23.25 -1.375 
Q 15.1875 -1.375 9.453125 4.90625 
Q 3.71875 11.1875 3.71875 21.78125 
Q 3.71875 33.25 9.59375 39.671875 
Q 15.484375 46.09375 24.359375 46.09375 
Q 31.890625 46.09375 36.71875 41.140625 
Q 41.546875 36.1875 41.546875 27.875 
z
M 10.640625 30.71875 
L 31.34375 30.71875 
Q 31.109375 35.015625 30.328125 36.765625 
Q 29.109375 39.5 26.6875 41.0625 
Q 24.265625 42.625 21.625 42.625 
Q 17.578125 42.625 14.375 39.46875 
Q 11.1875 36.328125 10.640625 30.71875 
z
" id="TimesNewRomanPSMT-101"/>
       <path id="TimesNewRomanPSMT-32"/>
       <path d="M 29.6875 -19.828125 
L 8.203125 -19.828125 
L 8.203125 67.71875 
L 29.6875 67.71875 
L 29.6875 63.875 
L 15.53125 63.875 
L 15.53125 -16.015625 
L 29.6875 -16.015625 
z
" id="TimesNewRomanPSMT-91"/>
       <path d="M 32.03125 46.046875 
L 32.03125 30.8125 
L 30.421875 30.8125 
Q 28.5625 37.984375 25.65625 40.578125 
Q 22.75 43.171875 18.265625 43.171875 
Q 14.84375 43.171875 12.734375 41.359375 
Q 10.640625 39.546875 10.640625 37.359375 
Q 10.640625 34.625 12.203125 32.671875 
Q 13.71875 30.671875 18.359375 28.421875 
L 25.484375 24.953125 
Q 35.40625 20.125 35.40625 12.203125 
Q 35.40625 6.109375 30.78125 2.359375 
Q 26.171875 -1.375 20.453125 -1.375 
Q 16.359375 -1.375 11.078125 0.09375 
Q 9.46875 0.59375 8.453125 0.59375 
Q 7.328125 0.59375 6.6875 -0.6875 
L 5.078125 -0.6875 
L 5.078125 15.28125 
L 6.6875 15.28125 
Q 8.0625 8.453125 11.90625 4.984375 
Q 15.765625 1.515625 20.5625 1.515625 
Q 23.921875 1.515625 26.046875 3.484375 
Q 28.171875 5.46875 28.171875 8.25 
Q 28.171875 11.625 25.796875 13.921875 
Q 23.4375 16.21875 16.359375 19.734375 
Q 9.28125 23.25 7.078125 26.078125 
Q 4.890625 28.859375 4.890625 33.109375 
Q 4.890625 38.625 8.671875 42.328125 
Q 12.453125 46.046875 18.453125 46.046875 
Q 21.09375 46.046875 24.859375 44.921875 
Q 27.34375 44.1875 28.171875 44.1875 
Q 28.953125 44.1875 29.390625 44.53125 
Q 29.828125 44.875 30.421875 46.046875 
z
" id="TimesNewRomanPSMT-115"/>
       <path d="M 3.65625 67.71875 
L 25.140625 67.71875 
L 25.140625 -19.875 
L 3.65625 -19.875 
L 3.65625 -16.015625 
L 17.828125 -16.015625 
L 17.828125 63.875 
L 3.65625 63.875 
z
" id="TimesNewRomanPSMT-93"/>
      </defs>
      <use xlink:href="#TimesNewRomanPSMT-84"/>
      <use x="57.583984" xlink:href="#TimesNewRomanPSMT-105"/>
      <use x="85.367188" xlink:href="#TimesNewRomanPSMT-109"/>
      <use x="163.150391" xlink:href="#TimesNewRomanPSMT-101"/>
      <use x="207.535156" xlink:href="#TimesNewRomanPSMT-32"/>
      <use x="232.535156" xlink:href="#TimesNewRomanPSMT-91"/>
      <use x="265.835938" xlink:href="#TimesNewRomanPSMT-115"/>
      <use x="304.751953" xlink:href="#TimesNewRomanPSMT-93"/>
     </g>
    </g>
   </g>
   <g id="matplotlib.axis_2">
    <g id="ytick_1">
     <g id="line2d_11">
      <path clip-path="url(#p05877b2dfc)" d="M 67.878125 263.661407 
L 424.998125 263.661407 
" style="fill:none;stroke:#b0b0b0;stroke-linecap:square;stroke-width:0.8;"/>
     </g>
     <g id="line2d_12">
      <defs>
       <path d="M 0 0 
L -3.5 0 
" id="mbd41a2a392" style="stroke:#000000;stroke-width:0.8;"/>
      </defs>
      <g>
       <use style="stroke:#000000;stroke-width:0.8;" x="67.878125" xlink:href="#mbd41a2a392" y="263.661407"/>
      </g>
     </g>
     <g id="text_7">
      <!-- −40 -->
      <g transform="translate(29.6 270.605157)scale(0.2 -0.2)">
       <defs>
        <path d="M 54.4375 31.25 
L 1.8125 31.25 
L 1.8125 35.25 
L 54.4375 35.25 
z
" id="TimesNewRomanPSMT-8722"/>
        <path d="M 46.53125 24.421875 
L 46.53125 17.484375 
L 37.640625 17.484375 
L 37.640625 0 
L 29.59375 0 
L 29.59375 17.484375 
L 1.5625 17.484375 
L 1.5625 23.734375 
L 32.28125 67.578125 
L 37.640625 67.578125 
L 37.640625 24.421875 
z
M 29.59375 24.421875 
L 29.59375 57.28125 
L 6.34375 24.421875 
z
" id="TimesNewRomanPSMT-52"/>
       </defs>
       <use xlink:href="#TimesNewRomanPSMT-8722"/>
       <use x="56.396484" xlink:href="#TimesNewRomanPSMT-52"/>
       <use x="106.396484" xlink:href="#TimesNewRomanPSMT-48"/>
      </g>
     </g>
    </g>
    <g id="ytick_2">
     <g id="line2d_13">
      <path clip-path="url(#p05877b2dfc)" d="M 67.878125 212.849363 
L 424.998125 212.849363 
" style="fill:none;stroke:#b0b0b0;stroke-linecap:square;stroke-width:0.8;"/>
     </g>
     <g id="line2d_14">
      <g>
       <use style="stroke:#000000;stroke-width:0.8;" x="67.878125" xlink:href="#mbd41a2a392" y="212.849363"/>
      </g>
     </g>
     <g id="text_8">
      <!-- −20 -->
      <g transform="translate(29.6 219.793113)scale(0.2 -0.2)">
       <use xlink:href="#TimesNewRomanPSMT-8722"/>
       <use x="56.396484" xlink:href="#TimesNewRomanPSMT-50"/>
       <use x="106.396484" xlink:href="#TimesNewRomanPSMT-48"/>
      </g>
     </g>
    </g>
    <g id="ytick_3">
     <g id="line2d_15">
      <path clip-path="url(#p05877b2dfc)" d="M 67.878125 162.037319 
L 424.998125 162.037319 
" style="fill:none;stroke:#b0b0b0;stroke-linecap:square;stroke-width:0.8;"/>
     </g>
     <g id="line2d_16">
      <g>
       <use style="stroke:#000000;stroke-width:0.8;" x="67.878125" xlink:href="#mbd41a2a392" y="162.037319"/>
      </g>
     </g>
     <g id="text_9">
      <!-- 0 -->
      <g transform="translate(50.878125 168.981069)scale(0.2 -0.2)">
       <use xlink:href="#TimesNewRomanPSMT-48"/>
      </g>
     </g>
    </g>
    <g id="ytick_4">
     <g id="line2d_17">
      <path clip-path="url(#p05877b2dfc)" d="M 67.878125 111.225275 
L 424.998125 111.225275 
" style="fill:none;stroke:#b0b0b0;stroke-linecap:square;stroke-width:0.8;"/>
     </g>
     <g id="line2d_18">
      <g>
       <use style="stroke:#000000;stroke-width:0.8;" x="67.878125" xlink:href="#mbd41a2a392" y="111.225275"/>
      </g>
     </g>
     <g id="text_10">
      <!-- 20 -->
      <g transform="translate(40.878125 118.169025)scale(0.2 -0.2)">
       <use xlink:href="#TimesNewRomanPSMT-50"/>
       <use x="50" xlink:href="#TimesNewRomanPSMT-48"/>
      </g>
     </g>
    </g>
    <g id="ytick_5">
     <g id="line2d_19">
      <path clip-path="url(#p05877b2dfc)" d="M 67.878125 60.413231 
L 424.998125 60.413231 
" style="fill:none;stroke:#b0b0b0;stroke-linecap:square;stroke-width:0.8;"/>
     </g>
     <g id="line2d_20">
      <g>
       <use style="stroke:#000000;stroke-width:0.8;" x="67.878125" xlink:href="#mbd41a2a392" y="60.413231"/>
      </g>
     </g>
     <g id="text_11">
      <!-- 40 -->
      <g transform="translate(40.878125 67.356981)scale(0.2 -0.2)">
       <use xlink:href="#TimesNewRomanPSMT-52"/>
       <use x="50" xlink:href="#TimesNewRomanPSMT-48"/>
      </g>
     </g>
    </g>
    <g id="text_12">
     <!-- Angle [$^\circ$] -->
     <g transform="translate(21.2 206.204437)rotate(-90)scale(0.2 -0.2)">
      <defs>
       <path d="M 45.75 22.171875 
L 20.125 22.171875 
L 15.625 11.71875 
Q 13.96875 7.859375 13.96875 5.953125 
Q 13.96875 4.4375 15.40625 3.296875 
Q 16.84375 2.15625 21.625 1.8125 
L 21.625 0 
L 0.78125 0 
L 0.78125 1.8125 
Q 4.9375 2.546875 6.15625 3.71875 
Q 8.640625 6.0625 11.671875 13.234375 
L 34.96875 67.71875 
L 36.671875 67.71875 
L 59.71875 12.640625 
Q 62.5 6 64.765625 4.015625 
Q 67.046875 2.046875 71.09375 1.8125 
L 71.09375 0 
L 44.96875 0 
L 44.96875 1.8125 
Q 48.921875 2 50.3125 3.125 
Q 51.703125 4.25 51.703125 5.859375 
Q 51.703125 8.015625 49.75 12.640625 
z
M 44.390625 25.78125 
L 33.15625 52.546875 
L 21.625 25.78125 
z
" id="TimesNewRomanPSMT-65"/>
       <path d="M 16.15625 36.578125 
Q 24.03125 46.046875 31.15625 46.046875 
Q 34.8125 46.046875 37.453125 44.21875 
Q 40.09375 42.390625 41.65625 38.1875 
Q 42.71875 35.25 42.71875 29.203125 
L 42.71875 10.109375 
Q 42.71875 5.859375 43.40625 4.34375 
Q 43.953125 3.125 45.140625 2.4375 
Q 46.34375 1.765625 49.5625 1.765625 
L 49.5625 0 
L 27.4375 0 
L 27.4375 1.765625 
L 28.375 1.765625 
Q 31.5 1.765625 32.734375 2.703125 
Q 33.984375 3.65625 34.46875 5.515625 
Q 34.671875 6.25 34.671875 10.109375 
L 34.671875 28.421875 
Q 34.671875 34.515625 33.078125 37.28125 
Q 31.5 40.046875 27.734375 40.046875 
Q 21.921875 40.046875 16.15625 33.6875 
L 16.15625 10.109375 
Q 16.15625 5.5625 16.703125 4.5 
Q 17.390625 3.078125 18.578125 2.421875 
Q 19.78125 1.765625 23.4375 1.765625 
L 23.4375 0 
L 1.3125 0 
L 1.3125 1.765625 
L 2.296875 1.765625 
Q 5.71875 1.765625 6.90625 3.484375 
Q 8.109375 5.21875 8.109375 10.109375 
L 8.109375 26.703125 
Q 8.109375 34.765625 7.734375 36.515625 
Q 7.375 38.28125 6.609375 38.90625 
Q 5.859375 39.546875 4.59375 39.546875 
Q 3.21875 39.546875 1.3125 38.8125 
L 0.59375 40.578125 
L 14.0625 46.046875 
L 16.15625 46.046875 
z
" id="TimesNewRomanPSMT-110"/>
       <path d="M 15.09375 16.3125 
Q 10.984375 18.3125 8.78125 21.890625 
Q 6.59375 25.484375 6.59375 29.828125 
Q 6.59375 36.46875 11.59375 41.25 
Q 16.609375 46.046875 24.421875 46.046875 
Q 30.8125 46.046875 35.5 42.921875 
L 44.96875 42.921875 
Q 47.078125 42.921875 47.40625 42.796875 
Q 47.75 42.671875 47.90625 42.390625 
Q 48.1875 41.9375 48.1875 40.828125 
Q 48.1875 39.546875 47.953125 39.0625 
Q 47.796875 38.8125 47.4375 38.671875 
Q 47.078125 38.53125 44.96875 38.53125 
L 39.15625 38.53125 
Q 41.890625 35.015625 41.890625 29.546875 
Q 41.890625 23.296875 37.109375 18.84375 
Q 32.328125 14.40625 24.265625 14.40625 
Q 20.953125 14.40625 17.484375 15.375 
Q 15.328125 13.53125 14.5625 12.140625 
Q 13.8125 10.75 13.8125 9.765625 
Q 13.8125 8.9375 14.625 8.15625 
Q 15.4375 7.375 17.78125 7.03125 
Q 19.140625 6.84375 24.609375 6.6875 
Q 34.671875 6.453125 37.640625 6 
Q 42.1875 5.375 44.890625 2.640625 
Q 47.609375 -0.09375 47.609375 -4.109375 
Q 47.609375 -9.625 42.4375 -14.453125 
Q 34.8125 -21.578125 22.5625 -21.578125 
Q 13.140625 -21.578125 6.640625 -17.328125 
Q 2.984375 -14.890625 2.984375 -12.25 
Q 2.984375 -11.078125 3.515625 -9.90625 
Q 4.34375 -8.109375 6.9375 -4.890625 
Q 7.28125 -4.4375 11.921875 0.390625 
Q 9.375 1.90625 8.328125 3.09375 
Q 7.28125 4.296875 7.28125 5.8125 
Q 7.28125 7.515625 8.671875 9.8125 
Q 10.0625 12.109375 15.09375 16.3125 
z
M 23.578125 43.703125 
Q 19.96875 43.703125 17.53125 40.8125 
Q 15.09375 37.9375 15.09375 31.984375 
Q 15.09375 24.265625 18.40625 20.015625 
Q 20.953125 16.796875 24.859375 16.796875 
Q 28.5625 16.796875 30.953125 19.578125 
Q 33.34375 22.359375 33.34375 28.328125 
Q 33.34375 36.078125 29.984375 40.484375 
Q 27.484375 43.703125 23.578125 43.703125 
z
M 14.59375 0 
Q 12.3125 -2.484375 11.140625 -4.625 
Q 9.96875 -6.78125 9.96875 -8.59375 
Q 9.96875 -10.9375 12.796875 -12.703125 
Q 17.671875 -15.71875 26.90625 -15.71875 
Q 35.6875 -15.71875 39.859375 -12.609375 
Q 44.046875 -9.515625 44.046875 -6 
Q 44.046875 -3.46875 41.546875 -2.390625 
Q 39.015625 -1.3125 31.5 -1.125 
Q 20.515625 -0.828125 14.59375 0 
z
" id="TimesNewRomanPSMT-103"/>
       <path d="M 18.5 69.4375 
L 18.5 10.109375 
Q 18.5 5.90625 19.109375 4.53125 
Q 19.734375 3.171875 21 2.46875 
Q 22.265625 1.765625 25.734375 1.765625 
L 25.734375 0 
L 3.8125 0 
L 3.8125 1.765625 
Q 6.890625 1.765625 8 2.390625 
Q 9.125 3.03125 9.765625 4.484375 
Q 10.40625 5.953125 10.40625 10.109375 
L 10.40625 50.734375 
Q 10.40625 58.296875 10.0625 60.03125 
Q 9.71875 61.765625 8.953125 62.390625 
Q 8.203125 63.03125 7.03125 63.03125 
Q 5.765625 63.03125 3.8125 62.25 
L 2.984375 63.96875 
L 16.3125 69.4375 
z
" id="TimesNewRomanPSMT-108"/>
       <path d="M 23.203125 38.703125 
Q 31 30.796875 31 25.1875 
Q 31 19.59375 27.046875 15.640625 
Q 23.09375 11.703125 17.5 11.703125 
Q 11.796875 11.703125 7.890625 15.640625 
Q 4 19.59375 4 25.40625 
Q 4 31 7.953125 34.84375 
Q 11.90625 38.703125 17.703125 38.703125 
Q 23.203125 38.703125 31 30.796875 
z
M 20.40625 18.296875 
Q 24.40625 22.296875 24.40625 25.1875 
Q 24.40625 28.09375 22.40625 30.09375 
Q 20.40625 32.09375 17.703125 32.09375 
Q 14.59375 32.09375 12.59375 30.140625 
Q 10.59375 28.203125 10.59375 25.40625 
Q 10.59375 22.296875 12.546875 20.296875 
Q 14.5 18.296875 17.5 18.296875 
Q 20.40625 18.296875 24.40625 22.296875 
z
" id="STIXGeneral-Regular-8728"/>
      </defs>
      <use transform="translate(0 0.5625)" xlink:href="#TimesNewRomanPSMT-65"/>
      <use transform="translate(72.216797 0.5625)" xlink:href="#TimesNewRomanPSMT-110"/>
      <use transform="translate(122.216797 0.5625)" xlink:href="#TimesNewRomanPSMT-103"/>
      <use transform="translate(172.216797 0.5625)" xlink:href="#TimesNewRomanPSMT-108"/>
      <use transform="translate(200 0.5625)" xlink:href="#TimesNewRomanPSMT-101"/>
      <use transform="translate(244.384766 0.5625)" xlink:href="#TimesNewRomanPSMT-32"/>
      <use transform="translate(269.384766 0.5625)" xlink:href="#TimesNewRomanPSMT-91"/>
      <use transform="translate(314.336826 35.8375)scale(0.7)" xlink:href="#STIXGeneral-Regular-8728"/>
      <use transform="translate(353.354187 0.5625)" xlink:href="#TimesNewRomanPSMT-93"/>
     </g>
    </g>
   </g>
   <g id="line2d_21">
    <path clip-path="url(#p05877b2dfc)" d="M 84.110852 166.459253 
L 84.659502 168.469223 
L 85.080176 172.489163 
L 85.613567 176.107109 
L 86.032987 180.529044 
L 86.506599 182.13702 
L 87.034994 185.352972 
L 87.51126 185.754966 
L 87.926144 184.14699 
L 88.467667 184.14699 
L 88.935565 183.343002 
L 89.406104 192.588864 
L 89.825851 197.010798 
L 90.301553 205.854667 
L 90.826911 208.668625 
L 91.302411 209.874607 
L 91.720144 210.276601 
L 92.194125 209.070619 
L 92.673457 206.658655 
L 93.146302 200.226751 
L 94.15566 191.784876 
L 94.567165 188.568924 
L 95.103448 187.764936 
L 96.946573 174.097139 
L 97.473485 172.489163 
L 99.299219 162.037319 
L 99.83346 159.625355 
L 100.250985 159.223361 
L 100.782593 156.409403 
L 103.158531 138.721666 
L 103.651156 138.721666 
L 104.579805 135.10372 
L 105.468293 128.269821 
L 106.003503 126.661845 
L 106.478188 121.033929 
L 107.427383 119.425953 
L 107.851129 115.808007 
L 108.32543 115.406013 
L 108.800819 120.229941 
L 109.27103 127.867827 
L 110.274814 139.525654 
L 110.75239 142.741606 
L 111.224769 143.947588 
L 112.183279 143.947588 
L 112.648265 148.369522 
L 113.064445 145.555564 
L 115.005203 153.997438 
L 119.293431 182.539014 
L 119.767816 182.941008 
L 120.187361 182.13702 
L 120.719443 183.744996 
L 121.192114 187.362942 
L 121.667258 185.754966 
L 122.143322 200.226751 
L 122.55558 204.648685 
L 123.090671 209.070619 
L 123.565585 211.884577 
L 124.516181 208.668625 
L 124.989458 207.060649 
L 125.409707 205.050679 
L 125.941287 200.226751 
L 126.831768 189.372912 
L 127.362763 187.362942 
L 127.836632 181.735026 
L 129.749138 172.489163 
L 130.702004 169.273211 
L 132.072877 161.233331 
L 132.602735 160.027349 
L 133.069004 157.615385 
L 134.495593 147.967528 
L 135.389698 140.731636 
L 135.924963 139.12366 
L 137.347826 133.495744 
L 137.758299 129.073809 
L 138.793819 120.631935 
L 139.185628 119.425953 
L 139.723903 120.229941 
L 140.192505 119.023959 
L 140.662744 116.210001 
L 141.146549 119.425953 
L 141.557141 125.857857 
L 142.566917 136.711696 
L 142.980554 138.319672 
L 143.455148 139.12366 
L 143.931728 141.937618 
L 144.467202 142.339612 
L 144.87946 149.977498 
L 145.413443 153.595444 
L 145.838214 154.399433 
L 146.306029 148.369522 
L 146.788106 149.575504 
L 147.310983 150.379492 
L 148.736904 159.223361 
L 149.62648 166.861247 
L 150.15891 170.077199 
L 151.524744 181.735026 
L 152.00919 184.14699 
L 152.532625 182.941008 
L 152.947021 183.343002 
L 153.422549 185.754966 
L 153.951007 189.372912 
L 154.433112 189.774906 
L 154.845432 203.442703 
L 155.380524 207.462643 
L 155.858511 208.266631 
L 156.269402 207.060649 
L 156.845051 207.060649 
L 157.284898 205.854667 
L 158.257211 205.854667 
L 158.646643 201.432733 
L 159.101164 195.000828 
L 160.531942 182.13702 
L 161.536395 174.901127 
L 162.424221 170.881187 
L 162.959368 169.273211 
L 164.808304 160.831337 
L 165.270364 159.625355 
L 166.285247 153.19345 
L 166.756406 149.977498 
L 167.178891 145.957558 
L 167.701762 143.947588 
L 168.179401 140.329642 
L 169.605942 135.505714 
L 170.083804 132.691756 
L 170.55375 128.269821 
L 171.027529 122.239911 
L 171.443068 118.621965 
L 172.40711 118.621965 
L 172.923878 117.013989 
L 173.879232 123.043899 
L 174.349799 130.279791 
L 174.824567 135.10372 
L 175.299022 138.721666 
L 175.715633 136.309702 
L 176.251805 128.269821 
L 176.66942 127.867827 
L 177.676263 156.007409 
L 178.56935 145.957558 
L 179.04719 155.605415 
L 179.518022 156.409403 
L 179.992581 158.419373 
L 181.472102 163.243301 
L 181.944362 165.655265 
L 182.418489 168.871217 
L 182.893731 170.881187 
L 183.789096 178.921068 
L 184.263983 182.13702 
L 184.748485 183.744996 
L 185.280678 183.744996 
L 185.738731 184.14699 
L 186.169236 185.754966 
L 186.630648 193.794846 
L 187.112028 198.618774 
L 187.645273 207.060649 
L 188.061076 208.668625 
L 189.081366 210.276601 
L 189.970384 204.246691 
L 190.443703 203.040709 
L 192.815015 182.13702 
L 193.291476 180.529044 
L 193.820638 178.11708 
L 194.244852 174.499133 
L 195.188229 170.881187 
L 196.613105 164.047289 
L 197.088723 162.841307 
L 198.098875 156.811397 
L 198.511188 153.19345 
L 198.988388 150.379492 
L 199.997551 141.937618 
L 200.88558 140.329642 
L 201.361107 137.917678 
L 202.309048 134.701726 
L 202.846007 131.887768 
L 204.20594 117.415983 
L 205.692595 121.435923 
L 207.587843 137.11369 
L 208.010342 124.249881 
L 208.534822 135.10372 
L 209.010211 127.063839 
L 209.426934 142.339612 
L 209.904782 135.505714 
L 210.441301 139.12366 
L 210.853182 140.329642 
L 211.329595 155.203421 
L 211.863453 158.821367 
L 212.278525 163.243301 
L 212.753238 165.655265 
L 213.225637 166.459253 
L 213.707191 168.067229 
L 215.178881 174.499133 
L 215.603616 174.901127 
L 216.130995 176.509104 
L 216.552575 176.107109 
L 217.554227 179.725056 
L 217.970142 181.735026 
L 218.445997 186.558954 
L 218.962966 194.598834 
L 219.914384 204.648685 
L 220.390002 204.246691 
L 220.86369 208.266631 
L 221.338403 209.472613 
L 221.815366 209.874607 
L 222.28789 207.060649 
L 222.762805 201.834727 
L 223.236354 198.618774 
L 223.656003 194.598834 
L 224.188113 190.578894 
L 224.662212 188.568924 
L 225.135259 183.343002 
L 226.083695 180.529044 
L 226.559424 177.715086 
L 227.041773 173.695145 
L 227.985122 169.273211 
L 229.347132 163.645295 
L 229.880642 162.037319 
L 230.830596 156.007409 
L 231.305657 153.595444 
L 232.729098 140.329642 
L 233.205859 139.525654 
L 234.153437 130.681785 
L 235.102339 128.269821 
L 235.518115 127.867827 
L 236.05136 123.043899 
L 236.526045 117.013989 
L 236.945409 117.415983 
L 237.472341 117.013989 
L 238.423055 126.259851 
L 238.898903 133.897738 
L 239.376688 133.495744 
L 239.848976 140.329642 
L 240.324978 150.781486 
L 240.800066 136.309702 
L 241.272737 137.11369 
L 241.747366 123.043899 
L 242.222016 146.761546 
L 242.696701 147.565534 
L 243.119869 158.017379 
L 243.642356 137.917678 
L 244.10243 156.409403 
L 244.607618 151.987468 
L 245.018718 156.811397 
L 245.472355 158.419373 
L 246.492686 163.645295 
L 247.442926 170.479193 
L 248.879459 182.941008 
L 249.357738 185.352972 
L 249.829817 186.960948 
L 250.252895 183.343002 
L 250.787951 181.735026 
L 251.250805 186.558954 
L 251.672998 192.588864 
L 252.148156 202.638715 
L 252.683185 205.854667 
L 253.097574 206.256661 
L 253.572321 210.276601 
L 254.04718 209.472613 
L 254.576956 206.256661 
L 255.048191 199.020769 
L 255.471582 198.618774 
L 256.004981 195.000828 
L 256.893908 192.588864 
L 257.37386 190.1769 
L 258.321209 180.931038 
L 259.269324 173.695145 
L 259.739702 171.685175 
L 261.642071 162.037319 
L 262.118887 160.429343 
L 262.642232 159.223361 
L 263.061443 155.605415 
L 263.534636 152.791456 
L 264.544733 145.15357 
L 265.023277 142.741606 
L 265.493252 141.535624 
L 265.914483 137.917678 
L 266.378654 135.10372 
L 266.915375 132.691756 
L 267.33869 128.269821 
L 267.808783 127.465833 
L 268.33876 123.847887 
L 268.759058 119.827947 
L 269.23561 117.817977 
L 269.772046 117.415983 
L 270.177294 119.425953 
L 271.126893 131.083779 
L 271.602337 133.897738 
L 272.137282 135.10372 
L 272.555594 138.319672 
L 273.027415 137.515684 
L 273.501751 137.917678 
L 274.046046 137.917678 
L 274.510998 150.379492 
L 274.926704 149.17351 
L 275.398023 157.213391 
L 275.884023 135.10372 
L 276.348326 135.505714 
L 276.826257 153.19345 
L 277.303109 151.18348 
L 277.779723 158.017379 
L 278.310516 162.037319 
L 278.76751 164.449283 
L 279.242815 168.469223 
L 280.192149 174.097139 
L 280.607451 178.519074 
L 281.144445 182.13702 
L 281.556765 183.343002 
L 282.090769 184.14699 
L 282.564639 182.539014 
L 283.461934 183.343002 
L 283.990323 184.950978 
L 284.404482 198.21678 
L 284.980172 207.864637 
L 285.350939 209.472613 
L 285.885438 210.276601 
L 286.83843 209.472613 
L 287.260393 207.060649 
L 287.724438 202.236721 
L 288.19743 195.804816 
L 289.209805 188.970918 
L 289.684545 188.568924 
L 290.628744 181.333032 
L 291.532498 175.303121 
L 292.054784 173.695145 
L 293.955794 163.243301 
L 294.429489 161.233331 
L 294.909113 160.429343 
L 296.332693 151.585474 
L 297.699935 139.525654 
L 298.222458 139.12366 
L 299.600569 132.289762 
L 300.129382 128.269821 
L 300.601106 127.465833 
L 301.550475 119.425953 
L 302.025341 119.827947 
L 302.981921 119.827947 
L 303.445646 125.857857 
L 303.926769 130.279791 
L 304.891738 134.701726 
L 305.29801 137.11369 
L 305.775614 137.11369 
L 306.249943 149.575504 
L 306.771218 149.977498 
L 307.1859 151.585474 
L 307.698926 152.791456 
L 308.195035 154.399433 
L 309.217164 154.399433 
L 309.575543 152.389462 
L 310.121037 152.389462 
L 310.580024 149.17351 
L 310.974521 153.19345 
L 311.511076 156.811397 
L 314.779153 189.372912 
L 315.329761 190.1769 
L 315.742896 187.362942 
L 316.224123 186.558954 
L 316.700891 192.18687 
L 317.224465 201.834727 
L 317.649619 207.060649 
L 318.188884 207.060649 
L 319.063967 207.864637 
L 319.825797 207.864637 
L 320.16714 204.246691 
L 320.589305 201.030739 
L 321.209523 199.824757 
L 321.55796 195.000828 
L 321.970691 191.382882 
L 322.395719 185.754966 
L 322.923363 181.735026 
L 323.343834 176.911098 
L 324.348615 170.479193 
L 324.821634 169.273211 
L 327.666906 159.625355 
L 328.56124 153.997438 
L 329.037033 150.781486 
L 330.456906 138.721666 
L 330.935158 138.319672 
L 331.469106 135.505714 
L 331.877511 134.299732 
L 332.427937 130.681785 
L 332.828977 126.259851 
L 333.364103 125.455863 
L 333.785801 121.435923 
L 334.314169 118.621965 
L 334.736515 117.817977 
L 335.215345 117.817977 
L 335.73492 115.406013 
L 336.157524 119.827947 
L 336.690219 128.269821 
L 337.637456 138.319672 
L 338.062456 139.927648 
L 338.51309 142.741606 
L 339.045429 150.781486 
L 339.520323 154.801427 
L 339.994861 148.369522 
L 340.472026 144.751576 
L 340.890777 156.811397 
L 341.840731 138.721666 
L 342.294751 139.525654 
L 342.79249 153.595444 
L 343.715767 166.459253 
L 344.667177 174.499133 
L 345.167906 176.509104 
L 345.638117 177.715086 
L 346.104093 179.323062 
L 346.562822 178.11708 
L 347.124766 178.11708 
L 347.535741 178.519074 
L 348.066944 180.12705 
L 348.485368 184.950978 
L 349.43489 203.040709 
L 349.971939 208.668625 
L 350.38072 210.678595 
L 350.911575 208.266631 
L 351.3305 208.668625 
L 351.80577 207.462643 
L 352.281911 206.658655 
L 352.807617 203.844697 
L 353.759146 193.392852 
L 354.180621 200.226751 
L 354.708989 188.568924 
L 355.183144 186.960948 
L 356.608222 172.891157 
L 357.027112 170.479193 
L 357.551363 168.469223 
L 358.027768 166.057259 
L 359.394892 161.635325 
L 359.929196 160.429343 
L 360.40356 158.419373 
L 360.878885 155.203421 
L 361.82884 147.565534 
L 363.19202 138.721666 
L 363.727077 138.319672 
L 364.201524 136.711696 
L 364.675658 134.299732 
L 365.626839 125.455863 
L 366.09912 123.445893 
L 366.514401 118.621965 
L 367.058515 118.621965 
L 367.476534 117.013989 
L 367.953818 117.013989 
L 368.435463 117.817977 
L 369.441198 131.887768 
L 369.913841 123.847887 
L 370.330487 127.465833 
L 370.805486 139.525654 
L 371.338069 143.545594 
L 371.755001 135.10372 
L 372.225951 137.515684 
L 372.702412 150.379492 
L 373.240012 142.741606 
L 373.650005 157.213391 
L 374.125059 164.449283 
L 374.60299 162.037319 
L 375.080712 163.645295 
L 376.028326 165.253271 
L 376.973166 169.675205 
L 377.445921 172.489163 
L 378.393973 176.911098 
L 378.927692 176.107109 
L 379.351208 176.509104 
L 379.815456 178.11708 
L 380.353083 180.931038 
L 380.776893 185.352972 
L 381.726436 199.020769 
L 382.188203 205.050679 
L 382.723239 210.276601 
L 383.151395 209.874607 
L 384.575275 203.844697 
L 385.098968 203.040709 
L 385.515782 201.432733 
L 389.36791 172.489163 
L 390.259827 168.469223 
L 390.73626 166.861247 
L 391.26892 164.449283 
L 391.683699 163.243301 
L 393.644154 153.19345 
L 394.538203 143.545594 
L 395.012797 140.329642 
L 395.539583 137.917678 
L 395.958334 138.319672 
L 396.434774 137.515684 
L 396.908344 136.309702 
L 397.446801 132.289762 
L 397.856689 126.259851 
L 398.846162 117.817977 
L 399.270396 117.013989 
L 400.272222 120.631935 
L 400.74729 123.043899 
L 401.224016 128.671815 
L 402.171023 135.907708 
L 402.646551 126.661845 
L 403.06556 123.445893 
L 403.542146 133.897738 
L 404.016713 131.083779 
L 404.471408 150.781486 
L 404.959714 147.967528 
L 405.446375 160.429343 
L 405.91504 156.409403 
L 406.381454 161.635325 
L 406.864207 157.213391 
L 407.792939 156.811397 
L 408.283906 156.409403 
L 408.765398 157.615385 
L 408.765398 157.615385 
" style="fill:none;stroke:#1f77b4;stroke-linecap:square;stroke-width:1.5;"/>
   </g>
   <g id="line2d_22">
    <path clip-path="url(#p05877b2dfc)" d="M 84.110852 77.035684 
L 84.659502 79.246651 
L 85.613567 87.668426 
L 86.506599 99.125255 
L 87.926144 117.013989 
L 88.935565 127.626631 
L 89.825851 148.108226 
L 90.826911 174.217738 
L 92.673457 220.547548 
L 93.675367 235.059532 
L 95.103448 253.269861 
L 96.050455 261.249442 
L 96.475198 264.324697 
L 97.891357 269.671217 
L 98.368585 269.912414 
L 98.882977 269.791815 
L 99.299219 269.068226 
L 100.250985 266.917558 
L 100.782593 264.666392 
L 101.680466 257.289801 
L 102.208284 251.742284 
L 104.579805 218.778774 
L 106.003503 191.222085 
L 108.32543 133.274647 
L 108.800819 124.269981 
L 109.746941 112.571955 
L 110.75239 104.893869 
L 112.183279 91.688366 
L 112.648265 89.597997 
L 113.064445 84.633371 
L 114.494219 77.29698 
L 115.005203 76.010599 
L 115.494561 75.769403 
L 115.972249 76.553291 
L 116.445937 78.020569 
L 116.865914 79.849642 
L 117.869705 86.080549 
L 118.345755 90.462284 
L 121.667258 130.963181 
L 123.565585 183.222404 
L 123.984838 194.799831 
L 125.941287 234.999233 
L 126.831768 246.717359 
L 127.362763 252.445773 
L 129.220937 264.887488 
L 130.702004 269.832015 
L 131.116136 270.314408 
L 131.644337 269.751616 
L 132.072877 268.82703 
L 132.602735 267.962743 
L 133.069004 266.13367 
L 134.023744 259.902763 
L 134.96669 249.792613 
L 135.389698 243.380808 
L 135.924963 237.170001 
L 137.758299 206.015464 
L 138.793819 183.986192 
L 139.185628 172.971556 
L 139.723903 162.760908 
L 141.146549 129.656701 
L 141.557141 122.541407 
L 142.566917 112.029263 
L 143.455148 101.095026 
L 144.467202 92.110459 
L 145.413443 90.361785 
L 145.838214 88.69351 
L 146.306029 83.467588 
L 147.310983 78.040669 
L 147.725846 76.452792 
L 148.203387 75.689004 
L 148.736904 76.070898 
L 149.150137 77.578376 
L 150.15891 82.844497 
L 151.049105 91.969762 
L 152.00919 104.351177 
L 152.532625 109.215305 
L 153.951007 129.234607 
L 154.433112 136.289602 
L 154.845432 150.741287 
L 158.646643 238.275484 
L 159.101164 244.58679 
L 160.531942 258.415385 
L 161.536395 263.480509 
L 162.424221 267.098455 
L 162.959368 268.425036 
L 163.382383 269.128525 
L 163.85458 269.329522 
L 164.328067 269.028027 
L 165.270364 267.038156 
L 165.754608 264.887488 
L 166.285247 261.591137 
L 166.756406 257.611397 
L 169.129467 227.723141 
L 170.083804 212.427269 
L 171.027529 190.900489 
L 171.443068 178.961267 
L 171.983859 168.107429 
L 173.349373 135.586112 
L 173.879232 126.923141 
L 174.824567 115.868306 
L 175.299022 111.124776 
L 176.251805 93.115444 
L 176.66942 84.452473 
L 177.195565 84.090679 
L 177.676263 86.562942 
L 178.147533 82.402304 
L 178.56935 76.814587 
L 179.04719 78.100968 
L 179.518022 76.935185 
L 179.992581 76.63369 
L 180.51996 76.61359 
L 180.994874 76.774388 
L 181.472102 77.678874 
L 181.944362 79.30695 
L 182.893731 84.794168 
L 183.789096 94.643022 
L 184.748485 106.542045 
L 185.738731 117.61698 
L 186.169236 124.028784 
L 187.645273 158.761068 
L 188.538855 183.001307 
L 190.443703 225.291078 
L 190.919983 233.330958 
L 192.345298 251.239791 
L 193.820638 262.133829 
L 194.712464 266.394966 
L 195.188229 268.002942 
L 196.14049 269.389821 
L 197.088723 269.007927 
L 197.622755 267.44015 
L 198.098875 265.289482 
L 198.988388 258.234487 
L 200.468989 241.189941 
L 201.895174 221.632932 
L 203.318671 195.644019 
L 204.68539 160.972035 
L 206.591779 126.239752 
L 207.587843 115.265315 
L 208.010342 101.959313 
L 208.534822 98.482065 
L 209.010211 87.326731 
L 209.426934 86.985036 
L 209.904782 78.301965 
L 210.441301 73.658934 
L 210.853182 68.593809 
L 211.329595 71.347468 
L 211.863453 71.628864 
L 212.753238 74.885016 
L 213.225637 76.231696 
L 213.707191 78.221566 
L 214.648959 83.949981 
L 216.130995 95.225913 
L 217.026061 103.024597 
L 217.554227 108.049522 
L 218.445997 121.154527 
L 219.386274 142.50041 
L 221.338403 190.136701 
L 222.28789 212.628266 
L 223.656003 236.124816 
L 225.552874 256.505913 
L 226.559424 263.721706 
L 227.508334 267.018057 
L 227.985122 268.224039 
L 228.457814 268.927528 
L 228.931823 269.349622 
L 229.347132 269.148625 
L 229.880642 268.666232 
L 230.299887 267.118555 
L 230.830596 264.646292 
L 231.305657 261.812234 
L 232.254559 251.822683 
L 233.678815 231.140091 
L 236.05136 184.81028 
L 236.945409 160.710739 
L 237.898805 140.289442 
L 238.423055 132.912852 
L 238.898903 128.169323 
L 239.376688 120.913331 
L 239.848976 117.536581 
L 240.324978 117.858176 
L 240.800066 107.084737 
L 241.272737 101.095026 
L 241.747366 87.125734 
L 242.222016 90.422085 
L 242.696701 87.045335 
L 243.119869 89.175903 
L 243.642356 77.116083 
L 244.10243 81.256621 
L 244.607618 77.417578 
L 245.018718 77.558276 
L 245.472355 77.136182 
L 245.959288 77.558276 
L 246.492686 78.804457 
L 246.970987 80.975225 
L 247.442926 84.171078 
L 247.91752 88.492513 
L 248.879459 100.471935 
L 250.252895 117.978774 
L 250.787951 122.420808 
L 251.250805 129.998396 
L 251.672998 139.445255 
L 252.683185 164.529682 
L 254.04718 200.588545 
L 255.471582 226.778455 
L 256.004981 233.933949 
L 256.893908 248.787628 
L 257.37386 255.098934 
L 258.321209 262.676521 
L 259.739702 268.947628 
L 260.2689 269.811915 
L 260.745423 270.193809 
L 261.642071 269.269223 
L 262.642232 267.319552 
L 263.534636 261.470539 
L 264.544733 251.742284 
L 265.493252 240.707548 
L 267.33869 208.186232 
L 268.33876 188.669423 
L 269.23561 165.253271 
L 270.177294 143.927488 
L 274.046046 94.904318 
L 274.510998 95.728406 
L 274.926704 92.150659 
L 275.398023 93.356641 
L 275.884023 79.99034 
L 276.348326 73.478037 
L 276.826257 76.573391 
L 277.303109 73.25694 
L 278.310516 75.508106 
L 278.76751 76.834687 
L 279.661831 82.583201 
L 280.192149 86.562942 
L 281.556765 103.808485 
L 283.990323 131.224477 
L 284.404482 144.249084 
L 284.980172 158.60027 
L 285.350939 170.941486 
L 287.724438 225.954368 
L 288.737196 238.918675 
L 290.10262 255.842623 
L 291.056929 262.636322 
L 292.054784 267.540649 
L 292.479492 269.128525 
L 293.008919 269.892314 
L 293.480649 270.17371 
L 293.955794 269.631018 
L 294.909113 268.183839 
L 295.381979 266.234168 
L 296.332693 259.902763 
L 296.803406 254.857738 
L 297.699935 242.215026 
L 298.222458 236.366013 
L 299.124191 221.653032 
L 300.601106 195.081227 
L 302.981921 140.731636 
L 304.398262 120.049044 
L 305.775614 102.200509 
L 306.249943 102.8236 
L 307.1859 97.798675 
L 307.698926 95.849004 
L 308.748012 92.512453 
L 309.217164 90.602982 
L 309.575543 87.588027 
L 310.121037 85.176063 
L 310.580024 80.995325 
L 310.974521 79.99034 
L 311.511076 79.769243 
L 311.949231 80.894826 
L 312.428437 83.125893 
L 313.366435 91.648166 
L 313.906376 97.617777 
L 314.779153 113.154846 
L 316.224123 131.807369 
L 316.700891 141.033131 
L 319.063967 201.010639 
L 319.825797 212.467468 
L 320.589305 230.717997 
L 321.209523 239.803062 
L 321.970691 252.847768 
L 322.395719 257.088804 
L 323.343834 263.078515 
L 324.348615 266.073371 
L 324.821634 267.520549 
L 325.299182 268.445135 
L 325.776459 268.967728 
L 326.241041 269.088326 
L 326.664111 269.028027 
L 327.14361 268.445135 
L 327.666906 267.239153 
L 328.087169 265.309582 
L 328.56124 262.334826 
L 329.037033 258.556083 
L 329.98404 247.28015 
L 332.427937 210.618296 
L 332.828977 200.347349 
L 333.364103 190.960788 
L 334.736515 156.6104 
L 336.157524 123.948386 
L 338.51309 98.964457 
L 339.045429 98.562463 
L 339.520323 97.959472 
L 340.472026 87.206132 
L 340.890777 89.517598 
L 341.415849 82.6837 
L 341.840731 74.442822 
L 342.294751 69.056103 
L 343.314462 73.035843 
L 344.206553 79.146152 
L 346.562822 100.431736 
L 347.124766 104.451676 
L 348.066944 113.697538 
L 349.012342 131.686771 
L 350.38072 170.70029 
L 350.911575 181.534029 
L 351.80577 204.30699 
L 352.807617 224.828784 
L 353.229963 232.406372 
L 353.759146 238.677478 
L 354.180621 250.275006 
L 354.708989 253.410559 
L 355.599791 263.179014 
L 356.077952 265.530679 
L 356.608222 266.79696 
L 357.027112 268.183839 
L 357.551363 269.188824 
L 358.027768 269.47022 
L 358.505198 269.590818 
L 358.981199 269.309423 
L 359.394892 268.847129 
L 359.929196 268.083341 
L 360.40356 266.575863 
L 360.878885 263.902603 
L 361.82884 255.279831 
L 362.777268 243.702404 
L 363.19202 237.149901 
L 363.727077 231.099891 
L 364.675658 216.628106 
L 366.09912 186.438356 
L 366.514401 174.137339 
L 367.058515 163.2835 
L 367.953818 140.289442 
L 368.435463 129.475803 
L 369.441198 117.114487 
L 369.913841 105.155165 
L 370.330487 97.597678 
L 370.805486 95.587708 
L 371.338069 92.170759 
L 371.755001 82.904796 
L 372.225951 77.497977 
L 372.702412 78.442663 
L 373.240012 71.327369 
L 373.650005 74.462922 
L 374.125059 77.236681 
L 374.60299 76.513092 
L 376.028326 79.28685 
L 376.552367 81.417419 
L 377.445921 87.38703 
L 379.351208 102.562304 
L 380.353083 112.632254 
L 381.299213 130.038595 
L 384.146268 200.206651 
L 385.515782 229.431616 
L 385.988627 237.290599 
L 387.472467 254.817538 
L 387.895169 258.958077 
L 388.840413 264.847289 
L 390.259827 268.887329 
L 390.73626 269.610918 
L 391.683699 269.430021 
L 392.159749 268.404936 
L 393.118733 264.76689 
L 393.644154 261.591137 
L 394.538203 250.757399 
L 396.908344 218.638077 
L 397.446801 209.995205 
L 399.270396 164.208087 
L 401.224016 128.511018 
L 402.171023 116.812992 
L 403.06556 94.582723 
L 403.542146 90.683381 
L 404.016713 82.100808 
L 404.471408 85.196162 
L 404.959714 80.834527 
L 405.446375 84.171078 
L 405.91504 81.558116 
L 406.381454 83.025395 
L 406.864207 80.492832 
L 407.792939 79.065754 
L 408.283906 77.538176 
L 408.765398 76.794487 
L 408.765398 76.794487 
" style="fill:none;stroke:#ff7f0e;stroke-linecap:square;stroke-width:1.5;"/>
   </g>
   <g id="line2d_23">
    <path clip-path="url(#p05877b2dfc)" d="M 84.110852 81.457618 
L 84.659502 85.678555 
L 87.034994 129.234607 
L 87.51126 135.686611 
L 87.926144 139.12366 
L 88.935565 148.932314 
L 90.301553 205.533072 
L 91.720144 246.958555 
L 92.673457 265.168884 
L 93.146302 266.354767 
L 93.675367 268.425036 
L 94.567165 273.610759 
L 95.103448 278.997478 
L 95.58062 279.821566 
L 96.050455 279.741167 
L 96.475198 280.002463 
L 96.946573 278.314089 
L 97.473485 278.836681 
L 97.891357 277.711098 
L 99.83346 265.329682 
L 100.250985 264.1036 
L 100.782593 259.038475 
L 101.680466 244.827987 
L 104.579805 191.845175 
L 107.427383 115.084418 
L 107.851129 98.82376 
L 108.32543 86.643341 
L 108.800819 82.462603 
L 109.27103 83.849482 
L 109.746941 84.03038 
L 110.274814 86.241347 
L 110.75239 85.598156 
L 111.224769 82.6435 
L 112.183279 73.598635 
L 112.648265 75.9302 
L 113.064445 68.151616 
L 114.015828 67.367728 
L 114.494219 66.845135 
L 115.005203 67.970719 
L 115.494561 70.945474 
L 116.865914 84.271576 
L 117.869705 96.532394 
L 118.345755 104.130081 
L 119.293431 122.561506 
L 120.719443 139.80705 
L 121.192114 150.841785 
L 121.667258 154.680828 
L 122.143322 183.041506 
L 123.090671 216.949702 
L 123.565585 233.069662 
L 123.984838 243.039113 
L 125.409707 269.912414 
L 125.941287 273.188665 
L 126.412899 274.012753 
L 126.831768 274.052952 
L 127.362763 277.771397 
L 127.836632 275.379532 
L 128.31363 276.565415 
L 129.220937 277.751297 
L 129.749138 277.228705 
L 130.220485 277.349303 
L 130.702004 277.067907 
L 131.116136 275.138336 
L 132.072877 268.023042 
L 132.602735 265.952772 
L 133.069004 261.711736 
L 134.023744 249.450918 
L 134.96669 232.104876 
L 135.389698 222.075125 
L 135.924963 214.256342 
L 137.347826 187.041347 
L 138.235088 159.203261 
L 139.185628 130.36019 
L 139.723903 120.95353 
L 140.662744 93.517438 
L 141.146549 87.045335 
L 141.557141 86.361945 
L 142.090595 87.286531 
L 142.566917 86.70364 
L 143.455148 78.181367 
L 143.931728 76.814587 
L 144.467202 72.412753 
L 144.87946 79.32705 
L 145.413443 81.919911 
L 145.838214 81.055624 
L 146.306029 69.799791 
L 147.310983 66.382842 
L 147.725846 67.20693 
L 148.203387 69.2571 
L 148.736904 73.25694 
L 150.576873 98.502164 
L 152.00919 126.460848 
L 152.532625 130.118994 
L 152.947021 135.968007 
L 154.433112 164.027189 
L 154.845432 192.146671 
L 155.858511 221.331437 
L 156.845051 242.275325 
L 158.257211 273.570559 
L 158.646643 277.670898 
L 159.101164 277.5503 
L 159.637252 277.690998 
L 160.051906 277.148306 
L 160.531942 278.515086 
L 161.536395 276.344318 
L 162.010201 275.821726 
L 162.424221 275.942324 
L 162.959368 275.660928 
L 163.85458 272.545474 
L 164.328067 270.234009 
L 164.808304 266.79696 
L 165.270364 264.626192 
L 165.754608 259.661566 
L 166.756406 245.551576 
L 167.178891 236.305714 
L 167.701762 229.17032 
L 168.657214 211.120788 
L 169.605942 194.076242 
L 170.083804 183.081706 
L 170.55375 168.891317 
L 171.443068 135.545913 
L 171.983859 124.692075 
L 172.923878 100.492035 
L 173.349373 92.974747 
L 173.879232 87.929722 
L 174.349799 89.397 
L 174.824567 88.934707 
L 175.299022 87.809123 
L 175.715633 78.241666 
L 176.251805 59.347947 
L 176.66942 50.282982 
L 177.676263 80.533032 
L 178.147533 71.548465 
L 178.56935 60.734826 
L 179.04719 71.669064 
L 179.518022 71.307269 
L 180.51996 74.60362 
L 180.994874 75.9704 
L 181.472102 78.884856 
L 181.944362 82.924896 
L 182.893731 93.638037 
L 184.263983 120.732434 
L 184.748485 128.249722 
L 185.280678 133.676641 
L 185.738731 139.726651 
L 186.169236 147.746432 
L 187.645273 203.784398 
L 188.538855 230.436601 
L 189.492432 251.239791 
L 189.970384 257.611397 
L 190.443703 266.294467 
L 190.919983 270.314408 
L 191.453967 272.706272 
L 191.922841 273.369562 
L 192.345298 276.565415 
L 192.815015 274.796641 
L 193.291476 277.329203 
L 193.820638 278.21359 
L 194.244852 276.625714 
L 194.712464 277.248804 
L 195.188229 276.84681 
L 196.14049 273.811756 
L 196.613105 271.178695 
L 197.088723 269.811915 
L 198.098875 260.06356 
L 201.895174 195.503321 
L 202.846007 175.906112 
L 203.794853 142.701407 
L 204.20594 126.842743 
L 205.218085 109.195205 
L 205.692595 100.612633 
L 206.111402 96.070101 
L 206.591779 93.678236 
L 207.055859 92.391855 
L 207.587843 90.341686 
L 208.010342 64.171875 
L 208.534822 71.548465 
L 209.010211 52.353251 
L 209.426934 67.287329 
L 209.904782 51.77036 
L 210.441301 50.745275 
L 210.853182 46.886132 
L 211.329595 64.51357 
L 211.863453 68.412912 
L 212.278525 74.462922 
L 212.753238 78.502962 
L 213.225637 80.65363 
L 213.707191 84.251476 
L 214.648959 93.999831 
L 215.603616 103.989383 
L 216.130995 109.697698 
L 216.552575 112.692553 
L 217.554227 125.737259 
L 217.970142 133.274647 
L 218.445997 145.676162 
L 219.914384 197.332394 
L 220.390002 207.362144 
L 221.338403 237.571995 
L 221.815366 250.053909 
L 222.28789 257.651596 
L 222.762805 260.807249 
L 223.236354 265.771875 
L 223.656003 268.686332 
L 224.188113 270.595803 
L 224.662212 274.615744 
L 225.135259 273.148465 
L 225.552874 276.605614 
L 226.083695 279.138176 
L 226.559424 279.399472 
L 227.041773 277.088007 
L 227.985122 275.459931 
L 228.931823 272.967568 
L 229.347132 270.756601 
L 229.880642 268.666232 
L 231.305657 253.37036 
L 232.254559 234.53694 
L 232.729098 223.361506 
L 233.205859 216.688406 
L 234.627773 180.910938 
L 235.518115 161.836322 
L 236.05136 145.81686 
L 236.526045 126.722144 
L 237.472341 104.310978 
L 237.898805 99.286053 
L 238.423055 97.135385 
L 238.898903 100.029742 
L 239.376688 92.371756 
L 239.848976 95.828904 
L 240.324978 106.602344 
L 240.800066 81.357119 
L 241.272737 76.171397 
L 241.747366 48.132314 
L 242.222016 75.146312 
L 242.696701 72.57355 
L 243.119869 85.155963 
L 243.642356 52.996441 
L 244.10243 75.628705 
L 244.607618 67.367728 
L 245.018718 72.332354 
L 245.472355 73.518236 
L 245.959288 76.352294 
L 246.492686 80.412434 
L 246.970987 85.799153 
L 247.91752 100.954328 
L 249.357738 130.340091 
L 249.829817 138.661367 
L 250.252895 139.284457 
L 250.787951 142.118515 
L 251.250805 154.520031 
L 251.672998 169.9968 
L 252.148156 193.211955 
L 253.097574 219.924457 
L 253.572321 237.2102 
L 254.04718 248.023839 
L 254.576956 254.897937 
L 255.048191 254.737139 
L 255.471582 263.359911 
L 256.004981 266.897458 
L 256.893908 279.339173 
L 257.37386 283.238515 
L 257.898277 281.55014 
L 258.321209 281.57024 
L 259.269324 278.796481 
L 259.739702 278.595484 
L 260.745423 274.615744 
L 261.219251 271.359592 
L 262.642232 264.505594 
L 264.544733 234.858535 
L 265.493252 220.205853 
L 266.378654 199.081068 
L 266.915375 188.609123 
L 267.33869 174.418735 
L 267.808783 164.730679 
L 268.33876 150.479991 
L 268.759058 134.701726 
L 269.23561 121.033929 
L 270.177294 101.316122 
L 270.710957 101.255823 
L 271.126893 99.788545 
L 271.602337 96.411795 
L 272.137282 91.246172 
L 272.555594 89.497498 
L 273.027415 82.321905 
L 274.046046 70.784677 
L 274.510998 84.070579 
L 274.926704 79.28685 
L 275.398023 88.532713 
L 275.884023 53.056741 
L 276.348326 46.946432 
L 276.826257 67.729522 
L 277.303109 62.403102 
L 277.779723 70.282184 
L 278.76751 79.246651 
L 280.192149 98.622763 
L 280.607451 108.491716 
L 281.556765 125.114168 
L 282.090769 131.686771 
L 282.564639 134.721825 
L 283.990323 154.138136 
L 284.404482 180.428545 
L 285.350939 218.37678 
L 286.83843 254.254747 
L 287.260393 262.375026 
L 287.724438 266.15377 
L 288.19743 266.234168 
L 289.209805 271.620888 
L 289.684545 277.731197 
L 290.10262 278.756282 
L 290.628744 278.87688 
L 291.056929 278.716083 
L 291.532498 278.374388 
L 292.054784 279.198475 
L 292.479492 278.374388 
L 293.480649 274.19365 
L 294.429489 268.023042 
L 294.909113 266.575863 
L 295.381979 261.812234 
L 296.332693 249.450918 
L 297.22245 230.034607 
L 297.699935 219.703361 
L 298.222458 213.452354 
L 299.124191 193.915444 
L 299.600569 183.865594 
L 301.075561 145.012872 
L 301.550475 129.656701 
L 302.981921 98.522264 
L 303.445646 97.316282 
L 303.926769 95.125415 
L 304.398262 90.301486 
L 305.29801 83.507787 
L 305.775614 77.27688 
L 306.249943 90.361785 
L 306.771218 87.869423 
L 307.698926 86.603141 
L 308.195035 86.784039 
L 309.217164 82.965096 
L 309.575543 77.94017 
L 310.121037 75.528206 
L 310.580024 68.131516 
L 311.511076 74.543321 
L 312.428437 86.743839 
L 313.906376 115.707508 
L 314.779153 140.490439 
L 315.329761 148.570519 
L 315.742896 151.243779 
L 316.224123 156.329004 
L 316.700891 171.182683 
L 317.649619 211.723779 
L 318.188884 222.979612 
L 319.063967 246.837957 
L 321.209523 277.590499 
L 321.970691 282.193331 
L 322.395719 280.806451 
L 322.923363 280.504956 
L 323.343834 277.952294 
L 324.348615 274.515245 
L 324.821634 274.756441 
L 325.299182 274.073052 
L 325.776459 272.987668 
L 326.664111 270.234009 
L 327.14361 268.043141 
L 327.666906 264.827189 
L 328.087169 260.485654 
L 329.037033 247.30025 
L 329.98404 227.582443 
L 330.456906 217.0502 
L 330.935158 210.598196 
L 331.877511 191.804976 
L 332.427937 179.262763 
L 332.828977 164.569881 
L 333.364103 154.379333 
L 333.785801 139.003062 
L 335.73492 86.542842 
L 336.157524 81.739014 
L 336.690219 84.271576 
L 337.166631 83.929881 
L 337.637456 84.271576 
L 338.062456 80.834527 
L 338.51309 79.668745 
L 339.045429 87.306631 
L 339.520323 90.72358 
L 339.994861 78.945155 
L 340.472026 69.92039 
L 340.890777 84.291676 
L 341.840731 51.127169 
L 342.294751 46.544438 
L 342.79249 62.724697 
L 344.667177 95.929403 
L 346.104093 114.059333 
L 346.562822 116.511496 
L 347.124766 120.531437 
L 348.066944 131.787269 
L 348.485368 143.78679 
L 349.012342 163.846292 
L 349.43489 185.594168 
L 350.38072 219.341566 
L 350.911575 227.763341 
L 351.3305 239.94376 
L 352.281911 259.842463 
L 352.807617 266.636162 
L 353.229963 268.987827 
L 353.759146 270.033012 
L 354.180621 288.464437 
L 354.708989 279.942164 
L 355.183144 284.082703 
L 355.599791 284.082703 
L 356.608222 277.650798 
L 357.551363 275.620729 
L 358.027768 273.49016 
L 358.505198 272.002782 
L 359.929196 266.475365 
L 360.40356 262.957917 
L 360.878885 257.068705 
L 362.303051 232.205375 
L 363.19202 213.834248 
L 363.727077 207.382244 
L 364.675658 188.890519 
L 367.476534 106.521945 
L 368.435463 85.256461 
L 368.957072 86.66344 
L 369.441198 86.964936 
L 369.913841 66.965734 
L 370.330487 63.026192 
L 370.805486 73.076043 
L 371.338069 73.679034 
L 371.755001 55.971197 
L 372.225951 52.976342 
L 372.702412 66.784836 
L 373.240012 52.031656 
L 373.650005 69.638994 
L 374.125059 79.648645 
L 374.60299 76.513092 
L 375.080712 79.005454 
L 376.028326 82.502802 
L 376.973166 91.567768 
L 378.393973 110.421287 
L 378.927692 112.89355 
L 379.351208 117.034089 
L 380.353083 131.525973 
L 380.776893 143.103401 
L 381.726436 177.956282 
L 382.723239 215.402025 
L 383.151395 226.838755 
L 384.575275 251.862882 
L 385.515782 268.82703 
L 385.988627 273.068067 
L 386.999302 277.389502 
L 387.472467 279.339173 
L 387.895169 279.861766 
L 388.428651 280.102962 
L 388.840413 278.91708 
L 389.36791 276.826711 
L 389.788904 276.324218 
L 390.73626 274.434846 
L 391.26892 271.902284 
L 391.683699 270.636003 
L 392.630727 263.158914 
L 393.118733 259.138974 
L 393.644154 252.747269 
L 395.539583 213.492553 
L 396.434774 200.91014 
L 396.908344 192.910459 
L 397.446801 180.247648 
L 398.323633 148.289123 
L 399.270396 119.184757 
L 400.74729 96.170599 
L 401.224016 95.145514 
L 402.171023 90.683381 
L 403.06556 55.991297 
L 403.542146 62.543799 
L 404.016713 51.147269 
L 404.471408 73.94033 
L 404.959714 66.764737 
L 405.446375 82.563102 
L 405.91504 75.9302 
L 406.381454 82.623401 
L 406.864207 75.668904 
L 407.792939 73.839831 
L 408.283906 71.91026 
L 408.765398 72.372553 
L 408.765398 72.372553 
" style="fill:none;stroke:#2ca02c;stroke-linecap:square;stroke-width:1.5;"/>
   </g>
   <g id="patch_3">
    <path d="M 67.878125 300.560437 
L 67.878125 34.448438 
" style="fill:none;stroke:#000000;stroke-linecap:square;stroke-linejoin:miter;stroke-width:0.8;"/>
   </g>
   <g id="patch_4">
    <path d="M 424.998125 300.560437 
L 424.998125 34.448438 
" style="fill:none;stroke:#000000;stroke-linecap:square;stroke-linejoin:miter;stroke-width:0.8;"/>
   </g>
   <g id="patch_5">
    <path d="M 67.878125 300.560437 
L 424.998125 300.560437 
" style="fill:none;stroke:#000000;stroke-linecap:square;stroke-linejoin:miter;stroke-width:0.8;"/>
   </g>
   <g id="patch_6">
    <path d="M 67.878125 34.448437 
L 424.998125 34.448437 
" style="fill:none;stroke:#000000;stroke-linecap:square;stroke-linejoin:miter;stroke-width:0.8;"/>
   </g>
   <g id="text_13">
    <!-- The servo performance -->
    <g transform="translate(107.34125 28.03125)scale(0.3 -0.3)">
     <defs>
      <path d="M 16.265625 69.4375 
L 16.265625 36.71875 
Q 21.6875 42.671875 24.859375 44.359375 
Q 28.03125 46.046875 31.203125 46.046875 
Q 35.015625 46.046875 37.75 43.9375 
Q 40.484375 41.84375 41.796875 37.359375 
Q 42.71875 34.234375 42.71875 25.921875 
L 42.71875 10.109375 
Q 42.71875 5.859375 43.40625 4.296875 
Q 43.890625 3.125 45.0625 2.4375 
Q 46.234375 1.765625 49.359375 1.765625 
L 49.359375 0 
L 27.390625 0 
L 27.390625 1.765625 
L 28.421875 1.765625 
Q 31.546875 1.765625 32.765625 2.703125 
Q 33.984375 3.65625 34.46875 5.515625 
Q 34.625 6.296875 34.625 10.109375 
L 34.625 25.921875 
Q 34.625 33.25 33.859375 35.546875 
Q 33.109375 37.84375 31.4375 38.984375 
Q 29.78125 40.140625 27.4375 40.140625 
Q 25.046875 40.140625 22.453125 38.859375 
Q 19.875 37.59375 16.265625 33.734375 
L 16.265625 10.109375 
Q 16.265625 5.515625 16.765625 4.390625 
Q 17.28125 3.265625 18.671875 2.515625 
Q 20.0625 1.765625 23.484375 1.765625 
L 23.484375 0 
L 1.3125 0 
L 1.3125 1.765625 
Q 4.296875 1.765625 6 2.6875 
Q 6.984375 3.171875 7.5625 4.53125 
Q 8.15625 5.90625 8.15625 10.109375 
L 8.15625 50.59375 
Q 8.15625 58.25 7.78125 60 
Q 7.421875 61.765625 6.65625 62.390625 
Q 5.90625 63.03125 4.640625 63.03125 
Q 3.609375 63.03125 1.3125 62.25 
L 0.640625 63.96875 
L 14.015625 69.4375 
z
" id="TimesNewRomanPSMT-104"/>
      <path d="M 16.21875 46.046875 
L 16.21875 35.984375 
Q 21.828125 46.046875 27.734375 46.046875 
Q 30.421875 46.046875 32.171875 44.40625 
Q 33.9375 42.78125 33.9375 40.625 
Q 33.9375 38.71875 32.65625 37.390625 
Q 31.390625 36.078125 29.640625 36.078125 
Q 27.9375 36.078125 25.8125 37.765625 
Q 23.6875 39.453125 22.65625 39.453125 
Q 21.78125 39.453125 20.75 38.484375 
Q 18.5625 36.46875 16.21875 31.890625 
L 16.21875 10.453125 
Q 16.21875 6.734375 17.140625 4.828125 
Q 17.78125 3.515625 19.390625 2.640625 
Q 21 1.765625 24.03125 1.765625 
L 24.03125 0 
L 1.125 0 
L 1.125 1.765625 
Q 4.546875 1.765625 6.203125 2.828125 
Q 7.421875 3.609375 7.90625 5.328125 
Q 8.15625 6.15625 8.15625 10.0625 
L 8.15625 27.390625 
Q 8.15625 35.203125 7.828125 36.6875 
Q 7.515625 38.1875 6.65625 38.859375 
Q 5.8125 39.546875 4.546875 39.546875 
Q 3.03125 39.546875 1.125 38.8125 
L 0.640625 40.578125 
L 14.15625 46.046875 
z
" id="TimesNewRomanPSMT-114"/>
      <path d="M 0.828125 44.734375 
L 21.875 44.734375 
L 21.875 42.921875 
L 20.515625 42.921875 
Q 18.609375 42.921875 17.609375 41.984375 
Q 16.609375 41.0625 16.609375 39.5 
Q 16.609375 37.796875 17.625 35.453125 
L 28.03125 10.75 
L 38.484375 36.375 
Q 39.59375 39.109375 39.59375 40.53125 
Q 39.59375 41.21875 39.203125 41.65625 
Q 38.671875 42.390625 37.84375 42.65625 
Q 37.015625 42.921875 34.46875 42.921875 
L 34.46875 44.734375 
L 49.078125 44.734375 
L 49.078125 42.921875 
Q 46.53125 42.71875 45.5625 41.890625 
Q 43.84375 40.4375 42.484375 37.015625 
L 26.609375 -1.375 
L 24.609375 -1.375 
L 8.640625 36.375 
Q 7.5625 39.015625 6.578125 40.15625 
Q 5.609375 41.3125 4.109375 42.09375 
Q 3.265625 42.53125 0.828125 42.921875 
z
" id="TimesNewRomanPSMT-118"/>
      <path d="M 25 46.046875 
Q 35.15625 46.046875 41.3125 38.328125 
Q 46.53125 31.734375 46.53125 23.1875 
Q 46.53125 17.1875 43.640625 11.03125 
Q 40.765625 4.890625 35.71875 1.75 
Q 30.671875 -1.375 24.46875 -1.375 
Q 14.359375 -1.375 8.40625 6.6875 
Q 3.375 13.484375 3.375 21.921875 
Q 3.375 28.078125 6.421875 34.15625 
Q 9.46875 40.234375 14.453125 43.140625 
Q 19.4375 46.046875 25 46.046875 
z
M 23.484375 42.875 
Q 20.90625 42.875 18.28125 41.328125 
Q 15.671875 39.796875 14.0625 35.9375 
Q 12.453125 32.078125 12.453125 26.03125 
Q 12.453125 16.265625 16.328125 9.171875 
Q 20.21875 2.09375 26.5625 2.09375 
Q 31.296875 2.09375 34.375 6 
Q 37.453125 9.90625 37.453125 19.4375 
Q 37.453125 31.34375 32.328125 38.1875 
Q 28.859375 42.875 23.484375 42.875 
z
" id="TimesNewRomanPSMT-111"/>
      <path d="M -0.09375 40.28125 
L 13.671875 45.84375 
L 15.53125 45.84375 
L 15.53125 35.40625 
Q 19 41.3125 22.484375 43.671875 
Q 25.984375 46.046875 29.828125 46.046875 
Q 36.578125 46.046875 41.0625 40.765625 
Q 46.578125 34.328125 46.578125 23.96875 
Q 46.578125 12.40625 39.9375 4.828125 
Q 34.46875 -1.375 26.171875 -1.375 
Q 22.5625 -1.375 19.921875 -0.34375 
Q 17.96875 0.390625 15.53125 2.59375 
L 15.53125 -11.03125 
Q 15.53125 -15.625 16.09375 -16.859375 
Q 16.65625 -18.109375 18.046875 -18.84375 
Q 19.4375 -19.578125 23.09375 -19.578125 
L 23.09375 -21.390625 
L -0.34375 -21.390625 
L -0.34375 -19.578125 
L 0.875 -19.578125 
Q 3.5625 -19.625 5.46875 -18.5625 
Q 6.390625 -18.015625 6.90625 -16.8125 
Q 7.421875 -15.625 7.421875 -10.75 
L 7.421875 31.546875 
Q 7.421875 35.890625 7.03125 37.0625 
Q 6.640625 38.234375 5.78125 38.8125 
Q 4.9375 39.40625 3.46875 39.40625 
Q 2.296875 39.40625 0.484375 38.71875 
z
M 15.53125 32.515625 
L 15.53125 15.828125 
Q 15.53125 10.40625 15.96875 8.6875 
Q 16.65625 5.859375 19.3125 3.703125 
Q 21.96875 1.5625 26.03125 1.5625 
Q 30.90625 1.5625 33.9375 5.375 
Q 37.890625 10.359375 37.890625 19.390625 
Q 37.890625 29.640625 33.40625 35.15625 
Q 30.28125 38.96875 25.984375 38.96875 
Q 23.640625 38.96875 21.34375 37.796875 
Q 19.578125 36.921875 15.53125 32.515625 
z
" id="TimesNewRomanPSMT-112"/>
      <path d="M 20.609375 41.21875 
L 20.609375 11.8125 
Q 20.609375 5.5625 21.96875 3.90625 
Q 23.78125 1.765625 26.8125 1.765625 
L 30.859375 1.765625 
L 30.859375 0 
L 4.15625 0 
L 4.15625 1.765625 
L 6.15625 1.765625 
Q 8.109375 1.765625 9.71875 2.734375 
Q 11.328125 3.71875 11.9375 5.375 
Q 12.546875 7.03125 12.546875 11.8125 
L 12.546875 41.21875 
L 3.859375 41.21875 
L 3.859375 44.734375 
L 12.546875 44.734375 
L 12.546875 47.65625 
Q 12.546875 54.34375 14.6875 58.984375 
Q 16.84375 63.625 21.265625 66.484375 
Q 25.6875 69.34375 31.203125 69.34375 
Q 36.328125 69.34375 40.625 66.015625 
Q 43.453125 63.8125 43.453125 61.078125 
Q 43.453125 59.625 42.1875 58.328125 
Q 40.921875 57.03125 39.453125 57.03125 
Q 38.328125 57.03125 37.078125 57.828125 
Q 35.84375 58.640625 34.03125 61.296875 
Q 32.234375 63.96875 30.71875 64.890625 
Q 29.203125 65.828125 27.34375 65.828125 
Q 25.09375 65.828125 23.53125 64.625 
Q 21.96875 63.421875 21.28125 60.90625 
Q 20.609375 58.40625 20.609375 47.953125 
L 20.609375 44.734375 
L 32.125 44.734375 
L 32.125 41.21875 
z
" id="TimesNewRomanPSMT-102"/>
      <path d="M 28.46875 6.453125 
Q 21.578125 1.125 19.828125 0.296875 
Q 17.1875 -0.921875 14.203125 -0.921875 
Q 9.578125 -0.921875 6.5625 2.25 
Q 3.5625 5.421875 3.5625 10.59375 
Q 3.5625 13.875 5.03125 16.265625 
Q 7.03125 19.578125 11.984375 22.5 
Q 16.9375 25.4375 28.46875 29.640625 
L 28.46875 31.390625 
Q 28.46875 38.09375 26.34375 40.578125 
Q 24.21875 43.0625 20.171875 43.0625 
Q 17.09375 43.0625 15.28125 41.40625 
Q 13.421875 39.75 13.421875 37.59375 
L 13.53125 34.765625 
Q 13.53125 32.515625 12.375 31.296875 
Q 11.234375 30.078125 9.375 30.078125 
Q 7.5625 30.078125 6.421875 31.34375 
Q 5.28125 32.625 5.28125 34.8125 
Q 5.28125 39.015625 9.578125 42.53125 
Q 13.875 46.046875 21.625 46.046875 
Q 27.59375 46.046875 31.390625 44.046875 
Q 34.28125 42.53125 35.640625 39.3125 
Q 36.53125 37.203125 36.53125 30.71875 
L 36.53125 15.53125 
Q 36.53125 9.125 36.765625 7.6875 
Q 37.015625 6.25 37.578125 5.765625 
Q 38.140625 5.28125 38.875 5.28125 
Q 39.65625 5.28125 40.234375 5.609375 
Q 41.265625 6.25 44.1875 9.1875 
L 44.1875 6.453125 
Q 38.71875 -0.875 33.734375 -0.875 
Q 31.34375 -0.875 29.921875 0.78125 
Q 28.515625 2.4375 28.46875 6.453125 
z
M 28.46875 9.625 
L 28.46875 26.65625 
Q 21.09375 23.734375 18.953125 22.515625 
Q 15.09375 20.359375 13.421875 18.015625 
Q 11.765625 15.671875 11.765625 12.890625 
Q 11.765625 9.375 13.859375 7.046875 
Q 15.96875 4.734375 18.703125 4.734375 
Q 22.40625 4.734375 28.46875 9.625 
z
" id="TimesNewRomanPSMT-97"/>
      <path d="M 41.109375 17 
Q 39.3125 8.15625 34.03125 3.390625 
Q 28.765625 -1.375 22.359375 -1.375 
Q 14.75 -1.375 9.078125 5.015625 
Q 3.421875 11.421875 3.421875 22.3125 
Q 3.421875 32.859375 9.6875 39.453125 
Q 15.96875 46.046875 24.75 46.046875 
Q 31.34375 46.046875 35.59375 42.546875 
Q 39.84375 39.0625 39.84375 35.296875 
Q 39.84375 33.453125 38.640625 32.296875 
Q 37.453125 31.15625 35.296875 31.15625 
Q 32.421875 31.15625 30.953125 33.015625 
Q 30.125 34.03125 29.859375 36.90625 
Q 29.59375 39.796875 27.875 41.3125 
Q 26.171875 42.78125 23.140625 42.78125 
Q 18.265625 42.78125 15.28125 39.15625 
Q 11.328125 34.375 11.328125 26.515625 
Q 11.328125 18.5 15.25 12.375 
Q 19.1875 6.25 25.875 6.25 
Q 30.671875 6.25 34.46875 9.515625 
Q 37.15625 11.765625 39.703125 17.671875 
z
" id="TimesNewRomanPSMT-99"/>
     </defs>
     <use xlink:href="#TimesNewRomanPSMT-84"/>
     <use x="61.083984" xlink:href="#TimesNewRomanPSMT-104"/>
     <use x="111.083984" xlink:href="#TimesNewRomanPSMT-101"/>
     <use x="155.46875" xlink:href="#TimesNewRomanPSMT-32"/>
     <use x="180.46875" xlink:href="#TimesNewRomanPSMT-115"/>
     <use x="219.384766" xlink:href="#TimesNewRomanPSMT-101"/>
     <use x="263.769531" xlink:href="#TimesNewRomanPSMT-114"/>
     <use x="297.070312" xlink:href="#TimesNewRomanPSMT-118"/>
     <use x="347.070312" xlink:href="#TimesNewRomanPSMT-111"/>
     <use x="397.070312" xlink:href="#TimesNewRomanPSMT-32"/>
     <use x="422.070312" xlink:href="#TimesNewRomanPSMT-112"/>
     <use x="472.070312" xlink:href="#TimesNewRomanPSMT-101"/>
     <use x="516.455078" xlink:href="#TimesNewRomanPSMT-114"/>
     <use x="549.755859" xlink:href="#TimesNewRomanPSMT-102"/>
     <use x="583.056641" xlink:href="#TimesNewRomanPSMT-111"/>
     <use x="633.056641" xlink:href="#TimesNewRomanPSMT-114"/>
     <use x="666.357422" xlink:href="#TimesNewRomanPSMT-109"/>
     <use x="744.140625" xlink:href="#TimesNewRomanPSMT-97"/>
     <use x="788.525391" xlink:href="#TimesNewRomanPSMT-110"/>
     <use x="838.525391" xlink:href="#TimesNewRomanPSMT-99"/>
     <use x="882.910156" xlink:href="#TimesNewRomanPSMT-101"/>
    </g>
   </g>
   <g id="legend_1">
    <g id="patch_7">
     <path d="M 164.28875 290.560437 
L 410.998125 290.560437 
Q 414.998125 290.560437 414.998125 286.560437 
L 414.998125 203.726062 
Q 414.998125 199.726062 410.998125 199.726062 
L 164.28875 199.726062 
Q 160.28875 199.726062 160.28875 203.726062 
L 160.28875 286.560437 
Q 160.28875 290.560437 164.28875 290.560437 
z
" style="fill:#ffffff;opacity:0.8;stroke:#cccccc;stroke-linejoin:miter;"/>
    </g>
    <g id="line2d_24">
     <path d="M 168.28875 214.726062 
L 208.28875 214.726062 
" style="fill:none;stroke:#1f77b4;stroke-linecap:square;stroke-width:1.5;"/>
    </g>
    <g id="line2d_25"/>
    <g id="text_14">
     <!-- error -->
     <g transform="translate(224.28875 221.726062)scale(0.2 -0.2)">
      <use xlink:href="#TimesNewRomanPSMT-101"/>
      <use x="44.384766" xlink:href="#TimesNewRomanPSMT-114"/>
      <use x="77.685547" xlink:href="#TimesNewRomanPSMT-114"/>
      <use x="110.986328" xlink:href="#TimesNewRomanPSMT-111"/>
      <use x="160.986328" xlink:href="#TimesNewRomanPSMT-114"/>
     </g>
    </g>
    <g id="line2d_26">
     <path d="M 168.28875 243.004188 
L 208.28875 243.004188 
" style="fill:none;stroke:#ff7f0e;stroke-linecap:square;stroke-width:1.5;"/>
    </g>
    <g id="line2d_27"/>
    <g id="text_15">
     <!-- servo commands -->
     <g transform="translate(224.28875 250.004188)scale(0.2 -0.2)">
      <defs>
       <path d="M 34.71875 5.03125 
Q 31.453125 1.609375 28.328125 0.109375 
Q 25.203125 -1.375 21.578125 -1.375 
Q 14.265625 -1.375 8.796875 4.75 
Q 3.328125 10.890625 3.328125 20.515625 
Q 3.328125 30.125 9.375 38.109375 
Q 15.4375 46.09375 24.953125 46.09375 
Q 30.859375 46.09375 34.71875 42.328125 
L 34.71875 50.59375 
Q 34.71875 58.25 34.34375 60 
Q 33.984375 61.765625 33.203125 62.390625 
Q 32.421875 63.03125 31.25 63.03125 
Q 29.984375 63.03125 27.875 62.25 
L 27.25 63.96875 
L 40.578125 69.4375 
L 42.78125 69.4375 
L 42.78125 17.71875 
Q 42.78125 9.859375 43.140625 8.125 
Q 43.5 6.390625 44.3125 5.703125 
Q 45.125 5.03125 46.1875 5.03125 
Q 47.515625 5.03125 49.703125 5.859375 
L 50.25 4.15625 
L 36.96875 -1.375 
L 34.71875 -1.375 
z
M 34.71875 8.453125 
L 34.71875 31.5 
Q 34.421875 34.8125 32.953125 37.546875 
Q 31.5 40.28125 29.078125 41.671875 
Q 26.65625 43.0625 24.359375 43.0625 
Q 20.0625 43.0625 16.703125 39.203125 
Q 12.25 34.125 12.25 24.359375 
Q 12.25 14.5 16.546875 9.25 
Q 20.84375 4 26.125 4 
Q 30.5625 4 34.71875 8.453125 
z
" id="TimesNewRomanPSMT-100"/>
      </defs>
      <use xlink:href="#TimesNewRomanPSMT-115"/>
      <use x="38.916016" xlink:href="#TimesNewRomanPSMT-101"/>
      <use x="83.300781" xlink:href="#TimesNewRomanPSMT-114"/>
      <use x="116.601562" xlink:href="#TimesNewRomanPSMT-118"/>
      <use x="166.601562" xlink:href="#TimesNewRomanPSMT-111"/>
      <use x="216.601562" xlink:href="#TimesNewRomanPSMT-32"/>
      <use x="241.601562" xlink:href="#TimesNewRomanPSMT-99"/>
      <use x="285.986328" xlink:href="#TimesNewRomanPSMT-111"/>
      <use x="335.986328" xlink:href="#TimesNewRomanPSMT-109"/>
      <use x="413.769531" xlink:href="#TimesNewRomanPSMT-109"/>
      <use x="491.552734" xlink:href="#TimesNewRomanPSMT-97"/>
      <use x="535.9375" xlink:href="#TimesNewRomanPSMT-110"/>
      <use x="585.9375" xlink:href="#TimesNewRomanPSMT-100"/>
      <use x="635.9375" xlink:href="#TimesNewRomanPSMT-115"/>
     </g>
    </g>
    <g id="line2d_28">
     <path d="M 168.28875 271.282312 
L 208.28875 271.282312 
" style="fill:none;stroke:#2ca02c;stroke-linecap:square;stroke-width:1.5;"/>
    </g>
    <g id="line2d_29"/>
    <g id="text_16">
     <!-- Theoretical commands -->
     <g transform="translate(224.28875 278.282312)scale(0.2 -0.2)">
      <defs>
       <path d="M 16.109375 59.421875 
L 16.109375 44.734375 
L 26.5625 44.734375 
L 26.5625 41.3125 
L 16.109375 41.3125 
L 16.109375 12.3125 
Q 16.109375 7.953125 17.359375 6.4375 
Q 18.609375 4.9375 20.5625 4.9375 
Q 22.171875 4.9375 23.6875 5.9375 
Q 25.203125 6.9375 26.03125 8.890625 
L 27.9375 8.890625 
Q 26.21875 4.109375 23.09375 1.6875 
Q 19.96875 -0.734375 16.65625 -0.734375 
Q 14.40625 -0.734375 12.25 0.515625 
Q 10.109375 1.765625 9.078125 4.078125 
Q 8.0625 6.390625 8.0625 11.234375 
L 8.0625 41.3125 
L 0.984375 41.3125 
L 0.984375 42.921875 
Q 3.65625 44 6.46875 46.5625 
Q 9.28125 49.125 11.46875 52.640625 
Q 12.59375 54.5 14.59375 59.421875 
z
" id="TimesNewRomanPSMT-116"/>
      </defs>
      <use xlink:href="#TimesNewRomanPSMT-84"/>
      <use x="61.083984" xlink:href="#TimesNewRomanPSMT-104"/>
      <use x="111.083984" xlink:href="#TimesNewRomanPSMT-101"/>
      <use x="155.46875" xlink:href="#TimesNewRomanPSMT-111"/>
      <use x="205.46875" xlink:href="#TimesNewRomanPSMT-114"/>
      <use x="238.769531" xlink:href="#TimesNewRomanPSMT-101"/>
      <use x="283.154297" xlink:href="#TimesNewRomanPSMT-116"/>
      <use x="310.9375" xlink:href="#TimesNewRomanPSMT-105"/>
      <use x="338.720703" xlink:href="#TimesNewRomanPSMT-99"/>
      <use x="383.105469" xlink:href="#TimesNewRomanPSMT-97"/>
      <use x="427.490234" xlink:href="#TimesNewRomanPSMT-108"/>
      <use x="455.273438" xlink:href="#TimesNewRomanPSMT-32"/>
      <use x="480.273438" xlink:href="#TimesNewRomanPSMT-99"/>
      <use x="524.658203" xlink:href="#TimesNewRomanPSMT-111"/>
      <use x="574.658203" xlink:href="#TimesNewRomanPSMT-109"/>
      <use x="652.441406" xlink:href="#TimesNewRomanPSMT-109"/>
      <use x="730.224609" xlink:href="#TimesNewRomanPSMT-97"/>
      <use x="774.609375" xlink:href="#TimesNewRomanPSMT-110"/>
      <use x="824.609375" xlink:href="#TimesNewRomanPSMT-100"/>
      <use x="874.609375" xlink:href="#TimesNewRomanPSMT-115"/>
     </g>
    </g>
   </g>
  </g>
 </g>
 <defs>
  <clipPath id="p05877b2dfc">
   <rect height="266.112" width="357.12" x="67.878125" y="34.448437"/>
  </clipPath>
 </defs>
</svg>
