<?xml version="1.0" encoding="utf-8" standalone="no"?>
<!DOCTYPE svg PUBLIC "-//W3C//DTD SVG 1.1//EN"
  "http://www.w3.org/Graphics/SVG/1.1/DTD/svg11.dtd">
<!-- Created with matplotlib (https://matplotlib.org/) -->
<svg height="355.091687pt" version="1.1" viewBox="0 0 432.198125 355.091687" width="432.198125pt" xmlns="http://www.w3.org/2000/svg" xmlns:xlink="http://www.w3.org/1999/xlink">
 <metadata>
  <rdf:RDF xmlns:cc="http://creativecommons.org/ns#" xmlns:dc="http://purl.org/dc/elements/1.1/" xmlns:rdf="http://www.w3.org/1999/02/22-rdf-syntax-ns#">
   <cc:Work>
    <dc:type rdf:resource="http://purl.org/dc/dcmitype/StillImage"/>
    <dc:date>2022-02-22T15:09:59.736195</dc:date>
    <dc:format>image/svg+xml</dc:format>
    <dc:creator>
     <cc:Agent>
      <dc:title>Matplotlib v3.3.4, https://matplotlib.org/</dc:title>
     </cc:Agent>
    </dc:creator>
   </cc:Work>
  </rdf:RDF>
 </metadata>
 <defs>
  <style type="text/css">*{stroke-linecap:butt;stroke-linejoin:round;}</style>
 </defs>
 <g id="figure_1">
  <g id="patch_1">
   <path d="M 0 355.091687 
L 432.198125 355.091687 
L 432.198125 0 
L 0 0 
z
" style="fill:#ffffff;"/>
  </g>
  <g id="axes_1">
   <g id="patch_2">
    <path d="M 67.878125 300.560437 
L 424.998125 300.560437 
L 424.998125 34.448437 
L 67.878125 34.448437 
z
" style="fill:#ffffff;"/>
   </g>
   <g id="matplotlib.axis_1">
    <g id="xtick_1">
     <g id="line2d_1">
      <path clip-path="url(#pd4805803f0)" d="M 84.027076 300.560437 
L 84.027076 34.448437 
" style="fill:none;stroke:#b0b0b0;stroke-linecap:square;stroke-width:0.8;"/>
     </g>
     <g id="line2d_2">
      <defs>
       <path d="M 0 0 
L 0 3.5 
" id="m0ac97a9bdb" style="stroke:#000000;stroke-width:0.8;"/>
      </defs>
      <g>
       <use style="stroke:#000000;stroke-width:0.8;" x="84.027076" xlink:href="#m0ac97a9bdb" y="300.560437"/>
      </g>
     </g>
     <g id="text_1">
      <!-- 0 -->
      <g transform="translate(79.027076 321.447937)scale(0.2 -0.2)">
       <defs>
        <path d="M 3.609375 32.71875 
Q 3.609375 44.046875 7.03125 52.21875 
Q 10.453125 60.40625 16.109375 64.40625 
Q 20.515625 67.578125 25.203125 67.578125 
Q 32.8125 67.578125 38.875 59.8125 
Q 46.4375 50.203125 46.4375 33.734375 
Q 46.4375 22.21875 43.109375 14.15625 
Q 39.796875 6.109375 34.640625 2.46875 
Q 29.5 -1.171875 24.703125 -1.171875 
Q 15.234375 -1.171875 8.9375 10.015625 
Q 3.609375 19.4375 3.609375 32.71875 
z
M 13.1875 31.5 
Q 13.1875 17.828125 16.546875 9.1875 
Q 19.34375 1.90625 24.859375 1.90625 
Q 27.484375 1.90625 30.3125 4.265625 
Q 33.15625 6.640625 34.625 12.203125 
Q 36.859375 20.609375 36.859375 35.890625 
Q 36.859375 47.21875 34.515625 54.78125 
Q 32.765625 60.40625 29.984375 62.75 
Q 27.984375 64.359375 25.140625 64.359375 
Q 21.828125 64.359375 19.234375 61.375 
Q 15.71875 57.328125 14.453125 48.625 
Q 13.1875 39.9375 13.1875 31.5 
z
" id="TimesNewRomanPSMT-48"/>
       </defs>
       <use xlink:href="#TimesNewRomanPSMT-48"/>
      </g>
     </g>
    </g>
    <g id="xtick_2">
     <g id="line2d_3">
      <path clip-path="url(#pd4805803f0)" d="M 174.894039 300.560437 
L 174.894039 34.448437 
" style="fill:none;stroke:#b0b0b0;stroke-linecap:square;stroke-width:0.8;"/>
     </g>
     <g id="line2d_4">
      <g>
       <use style="stroke:#000000;stroke-width:0.8;" x="174.894039" xlink:href="#m0ac97a9bdb" y="300.560437"/>
      </g>
     </g>
     <g id="text_2">
      <!-- 2 -->
      <g transform="translate(169.894039 321.447937)scale(0.2 -0.2)">
       <defs>
        <path d="M 45.84375 12.75 
L 41.21875 0 
L 2.15625 0 
L 2.15625 1.8125 
Q 19.390625 17.53125 26.421875 27.484375 
Q 33.453125 37.453125 33.453125 45.703125 
Q 33.453125 52 29.59375 56.046875 
Q 25.734375 60.109375 20.359375 60.109375 
Q 15.484375 60.109375 11.59375 57.25 
Q 7.71875 54.390625 5.859375 48.875 
L 4.046875 48.875 
Q 5.28125 57.90625 10.328125 62.734375 
Q 15.375 67.578125 22.953125 67.578125 
Q 31 67.578125 36.390625 62.40625 
Q 41.796875 57.234375 41.796875 50.203125 
Q 41.796875 45.171875 39.453125 40.140625 
Q 35.84375 32.234375 27.734375 23.390625 
Q 15.578125 10.109375 12.546875 7.375 
L 29.828125 7.375 
Q 35.109375 7.375 37.234375 7.765625 
Q 39.359375 8.15625 41.0625 9.34375 
Q 42.78125 10.546875 44.046875 12.75 
z
" id="TimesNewRomanPSMT-50"/>
       </defs>
       <use xlink:href="#TimesNewRomanPSMT-50"/>
      </g>
     </g>
    </g>
    <g id="xtick_3">
     <g id="line2d_5">
      <path clip-path="url(#pd4805803f0)" d="M 265.761001 300.560437 
L 265.761001 34.448437 
" style="fill:none;stroke:#b0b0b0;stroke-linecap:square;stroke-width:0.8;"/>
     </g>
     <g id="line2d_6">
      <g>
       <use style="stroke:#000000;stroke-width:0.8;" x="265.761001" xlink:href="#m0ac97a9bdb" y="300.560437"/>
      </g>
     </g>
     <g id="text_3">
      <!-- 4 -->
      <g transform="translate(260.761001 321.447937)scale(0.2 -0.2)">
       <defs>
        <path d="M 46.53125 24.421875 
L 46.53125 17.484375 
L 37.640625 17.484375 
L 37.640625 0 
L 29.59375 0 
L 29.59375 17.484375 
L 1.5625 17.484375 
L 1.5625 23.734375 
L 32.28125 67.578125 
L 37.640625 67.578125 
L 37.640625 24.421875 
z
M 29.59375 24.421875 
L 29.59375 57.28125 
L 6.34375 24.421875 
z
" id="TimesNewRomanPSMT-52"/>
       </defs>
       <use xlink:href="#TimesNewRomanPSMT-52"/>
      </g>
     </g>
    </g>
    <g id="xtick_4">
     <g id="line2d_7">
      <path clip-path="url(#pd4805803f0)" d="M 356.627963 300.560437 
L 356.627963 34.448437 
" style="fill:none;stroke:#b0b0b0;stroke-linecap:square;stroke-width:0.8;"/>
     </g>
     <g id="line2d_8">
      <g>
       <use style="stroke:#000000;stroke-width:0.8;" x="356.627963" xlink:href="#m0ac97a9bdb" y="300.560437"/>
      </g>
     </g>
     <g id="text_4">
      <!-- 6 -->
      <g transform="translate(351.627963 321.447937)scale(0.2 -0.2)">
       <defs>
        <path d="M 44.828125 67.578125 
L 44.828125 65.765625 
Q 38.375 65.140625 34.296875 63.203125 
Q 30.21875 61.28125 26.234375 57.328125 
Q 22.265625 53.375 19.65625 48.515625 
Q 17.046875 43.65625 15.28125 36.96875 
Q 22.3125 41.796875 29.390625 41.796875 
Q 36.1875 41.796875 41.15625 36.328125 
Q 46.140625 30.859375 46.140625 22.265625 
Q 46.140625 13.96875 41.109375 7.125 
Q 35.0625 -1.171875 25.09375 -1.171875 
Q 18.3125 -1.171875 13.578125 3.328125 
Q 4.296875 12.0625 4.296875 25.984375 
Q 4.296875 34.859375 7.859375 42.859375 
Q 11.421875 50.875 18.03125 57.078125 
Q 24.65625 63.28125 30.703125 65.421875 
Q 36.765625 67.578125 42 67.578125 
z
M 14.453125 33.40625 
Q 13.578125 26.8125 13.578125 22.75 
Q 13.578125 18.0625 15.3125 12.5625 
Q 17.046875 7.078125 20.453125 3.859375 
Q 22.953125 1.5625 26.515625 1.5625 
Q 30.765625 1.5625 34.109375 5.5625 
Q 37.453125 9.578125 37.453125 17 
Q 37.453125 25.34375 34.125 31.4375 
Q 30.8125 37.546875 24.703125 37.546875 
Q 22.859375 37.546875 20.734375 36.765625 
Q 18.609375 35.984375 14.453125 33.40625 
z
" id="TimesNewRomanPSMT-54"/>
       </defs>
       <use xlink:href="#TimesNewRomanPSMT-54"/>
      </g>
     </g>
    </g>
    <g id="text_5">
     <!-- Time [s] -->
     <g transform="translate(212.633438 343.613563)scale(0.2 -0.2)">
      <defs>
       <path d="M 57.859375 66.21875 
L 58.59375 50.6875 
L 56.734375 50.6875 
Q 56.203125 54.78125 55.28125 56.546875 
Q 53.765625 59.375 51.25 60.71875 
Q 48.734375 62.0625 44.625 62.0625 
L 35.296875 62.0625 
L 35.296875 11.46875 
Q 35.296875 5.375 36.625 3.859375 
Q 38.484375 1.8125 42.328125 1.8125 
L 44.625 1.8125 
L 44.625 0 
L 16.546875 0 
L 16.546875 1.8125 
L 18.890625 1.8125 
Q 23.09375 1.8125 24.859375 4.34375 
Q 25.921875 5.90625 25.921875 11.46875 
L 25.921875 62.0625 
L 17.96875 62.0625 
Q 13.328125 62.0625 11.375 61.375 
Q 8.84375 60.453125 7.03125 57.8125 
Q 5.21875 55.171875 4.890625 50.6875 
L 3.03125 50.6875 
L 3.8125 66.21875 
z
" id="TimesNewRomanPSMT-84"/>
       <path d="M 14.5 69.4375 
Q 16.546875 69.4375 17.984375 67.984375 
Q 19.4375 66.546875 19.4375 64.5 
Q 19.4375 62.453125 17.984375 60.984375 
Q 16.546875 59.515625 14.5 59.515625 
Q 12.453125 59.515625 10.984375 60.984375 
Q 9.515625 62.453125 9.515625 64.5 
Q 9.515625 66.546875 10.953125 67.984375 
Q 12.40625 69.4375 14.5 69.4375 
z
M 18.5625 46.046875 
L 18.5625 10.109375 
Q 18.5625 5.90625 19.171875 4.515625 
Q 19.78125 3.125 20.96875 2.4375 
Q 22.171875 1.765625 25.34375 1.765625 
L 25.34375 0 
L 3.609375 0 
L 3.609375 1.765625 
Q 6.890625 1.765625 8 2.390625 
Q 9.125 3.03125 9.78125 4.484375 
Q 10.453125 5.953125 10.453125 10.109375 
L 10.453125 27.34375 
Q 10.453125 34.625 10.015625 36.765625 
Q 9.671875 38.328125 8.9375 38.9375 
Q 8.203125 39.546875 6.9375 39.546875 
Q 5.5625 39.546875 3.609375 38.8125 
L 2.9375 40.578125 
L 16.40625 46.046875 
z
" id="TimesNewRomanPSMT-105"/>
       <path d="M 16.40625 36.53125 
Q 21.296875 41.40625 22.171875 42.140625 
Q 24.359375 44 26.890625 45.015625 
Q 29.4375 46.046875 31.9375 46.046875 
Q 36.140625 46.046875 39.15625 43.59375 
Q 42.1875 41.15625 43.21875 36.53125 
Q 48.25 42.390625 51.703125 44.21875 
Q 55.171875 46.046875 58.84375 46.046875 
Q 62.40625 46.046875 65.15625 44.21875 
Q 67.921875 42.390625 69.53125 38.234375 
Q 70.609375 35.40625 70.609375 29.34375 
L 70.609375 10.109375 
Q 70.609375 5.90625 71.234375 4.34375 
Q 71.734375 3.265625 73.046875 2.515625 
Q 74.359375 1.765625 77.34375 1.765625 
L 77.34375 0 
L 55.28125 0 
L 55.28125 1.765625 
L 56.203125 1.765625 
Q 59.078125 1.765625 60.6875 2.875 
Q 61.8125 3.65625 62.3125 5.375 
Q 62.5 6.203125 62.5 10.109375 
L 62.5 29.34375 
Q 62.5 34.8125 61.1875 37.0625 
Q 59.28125 40.1875 55.078125 40.1875 
Q 52.484375 40.1875 49.875 38.890625 
Q 47.265625 37.59375 43.5625 34.078125 
L 43.453125 33.546875 
L 43.5625 31.453125 
L 43.5625 10.109375 
Q 43.5625 5.515625 44.0625 4.390625 
Q 44.578125 3.265625 45.984375 2.515625 
Q 47.40625 1.765625 50.828125 1.765625 
L 50.828125 0 
L 28.21875 0 
L 28.21875 1.765625 
Q 31.9375 1.765625 33.328125 2.640625 
Q 34.71875 3.515625 35.25 5.28125 
Q 35.5 6.109375 35.5 10.109375 
L 35.5 29.34375 
Q 35.5 34.8125 33.890625 37.203125 
Q 31.734375 40.328125 27.875 40.328125 
Q 25.25 40.328125 22.65625 38.921875 
Q 18.609375 36.765625 16.40625 34.078125 
L 16.40625 10.109375 
Q 16.40625 5.71875 17.015625 4.390625 
Q 17.625 3.078125 18.8125 2.421875 
Q 20.015625 1.765625 23.6875 1.765625 
L 23.6875 0 
L 1.5625 0 
L 1.5625 1.765625 
Q 4.640625 1.765625 5.859375 2.421875 
Q 7.078125 3.078125 7.703125 4.515625 
Q 8.34375 5.953125 8.34375 10.109375 
L 8.34375 27.203125 
Q 8.34375 34.578125 7.90625 36.71875 
Q 7.5625 38.328125 6.828125 38.9375 
Q 6.109375 39.546875 4.828125 39.546875 
Q 3.46875 39.546875 1.5625 38.8125 
L 0.828125 40.578125 
L 14.3125 46.046875 
L 16.40625 46.046875 
z
" id="TimesNewRomanPSMT-109"/>
       <path d="M 10.640625 27.875 
Q 10.59375 17.921875 15.484375 12.25 
Q 20.359375 6.59375 26.953125 6.59375 
Q 31.34375 6.59375 34.59375 9 
Q 37.84375 11.421875 40.046875 17.28125 
L 41.546875 16.3125 
Q 40.53125 9.625 35.59375 4.125 
Q 30.671875 -1.375 23.25 -1.375 
Q 15.1875 -1.375 9.453125 4.90625 
Q 3.71875 11.1875 3.71875 21.78125 
Q 3.71875 33.25 9.59375 39.671875 
Q 15.484375 46.09375 24.359375 46.09375 
Q 31.890625 46.09375 36.71875 41.140625 
Q 41.546875 36.1875 41.546875 27.875 
z
M 10.640625 30.71875 
L 31.34375 30.71875 
Q 31.109375 35.015625 30.328125 36.765625 
Q 29.109375 39.5 26.6875 41.0625 
Q 24.265625 42.625 21.625 42.625 
Q 17.578125 42.625 14.375 39.46875 
Q 11.1875 36.328125 10.640625 30.71875 
z
" id="TimesNewRomanPSMT-101"/>
       <path id="TimesNewRomanPSMT-32"/>
       <path d="M 29.6875 -19.828125 
L 8.203125 -19.828125 
L 8.203125 67.71875 
L 29.6875 67.71875 
L 29.6875 63.875 
L 15.53125 63.875 
L 15.53125 -16.015625 
L 29.6875 -16.015625 
z
" id="TimesNewRomanPSMT-91"/>
       <path d="M 32.03125 46.046875 
L 32.03125 30.8125 
L 30.421875 30.8125 
Q 28.5625 37.984375 25.65625 40.578125 
Q 22.75 43.171875 18.265625 43.171875 
Q 14.84375 43.171875 12.734375 41.359375 
Q 10.640625 39.546875 10.640625 37.359375 
Q 10.640625 34.625 12.203125 32.671875 
Q 13.71875 30.671875 18.359375 28.421875 
L 25.484375 24.953125 
Q 35.40625 20.125 35.40625 12.203125 
Q 35.40625 6.109375 30.78125 2.359375 
Q 26.171875 -1.375 20.453125 -1.375 
Q 16.359375 -1.375 11.078125 0.09375 
Q 9.46875 0.59375 8.453125 0.59375 
Q 7.328125 0.59375 6.6875 -0.6875 
L 5.078125 -0.6875 
L 5.078125 15.28125 
L 6.6875 15.28125 
Q 8.0625 8.453125 11.90625 4.984375 
Q 15.765625 1.515625 20.5625 1.515625 
Q 23.921875 1.515625 26.046875 3.484375 
Q 28.171875 5.46875 28.171875 8.25 
Q 28.171875 11.625 25.796875 13.921875 
Q 23.4375 16.21875 16.359375 19.734375 
Q 9.28125 23.25 7.078125 26.078125 
Q 4.890625 28.859375 4.890625 33.109375 
Q 4.890625 38.625 8.671875 42.328125 
Q 12.453125 46.046875 18.453125 46.046875 
Q 21.09375 46.046875 24.859375 44.921875 
Q 27.34375 44.1875 28.171875 44.1875 
Q 28.953125 44.1875 29.390625 44.53125 
Q 29.828125 44.875 30.421875 46.046875 
z
" id="TimesNewRomanPSMT-115"/>
       <path d="M 3.65625 67.71875 
L 25.140625 67.71875 
L 25.140625 -19.875 
L 3.65625 -19.875 
L 3.65625 -16.015625 
L 17.828125 -16.015625 
L 17.828125 63.875 
L 3.65625 63.875 
z
" id="TimesNewRomanPSMT-93"/>
      </defs>
      <use xlink:href="#TimesNewRomanPSMT-84"/>
      <use x="57.583984" xlink:href="#TimesNewRomanPSMT-105"/>
      <use x="85.367188" xlink:href="#TimesNewRomanPSMT-109"/>
      <use x="163.150391" xlink:href="#TimesNewRomanPSMT-101"/>
      <use x="207.535156" xlink:href="#TimesNewRomanPSMT-32"/>
      <use x="232.535156" xlink:href="#TimesNewRomanPSMT-91"/>
      <use x="265.835938" xlink:href="#TimesNewRomanPSMT-115"/>
      <use x="304.751953" xlink:href="#TimesNewRomanPSMT-93"/>
     </g>
    </g>
   </g>
   <g id="matplotlib.axis_2">
    <g id="ytick_1">
     <g id="line2d_9">
      <path clip-path="url(#pd4805803f0)" d="M 67.878125 290.207089 
L 424.998125 290.207089 
" style="fill:none;stroke:#b0b0b0;stroke-linecap:square;stroke-width:0.8;"/>
     </g>
     <g id="line2d_10">
      <defs>
       <path d="M 0 0 
L -3.5 0 
" id="m3c2c0a678f" style="stroke:#000000;stroke-width:0.8;"/>
      </defs>
      <g>
       <use style="stroke:#000000;stroke-width:0.8;" x="67.878125" xlink:href="#m3c2c0a678f" y="290.207089"/>
      </g>
     </g>
     <g id="text_6">
      <!-- −60 -->
      <g transform="translate(29.6 297.150839)scale(0.2 -0.2)">
       <defs>
        <path d="M 54.4375 31.25 
L 1.8125 31.25 
L 1.8125 35.25 
L 54.4375 35.25 
z
" id="TimesNewRomanPSMT-8722"/>
       </defs>
       <use xlink:href="#TimesNewRomanPSMT-8722"/>
       <use x="56.396484" xlink:href="#TimesNewRomanPSMT-54"/>
       <use x="106.396484" xlink:href="#TimesNewRomanPSMT-48"/>
      </g>
     </g>
    </g>
    <g id="ytick_2">
     <g id="line2d_11">
      <path clip-path="url(#pd4805803f0)" d="M 67.878125 244.31726 
L 424.998125 244.31726 
" style="fill:none;stroke:#b0b0b0;stroke-linecap:square;stroke-width:0.8;"/>
     </g>
     <g id="line2d_12">
      <g>
       <use style="stroke:#000000;stroke-width:0.8;" x="67.878125" xlink:href="#m3c2c0a678f" y="244.31726"/>
      </g>
     </g>
     <g id="text_7">
      <!-- −40 -->
      <g transform="translate(29.6 251.26101)scale(0.2 -0.2)">
       <use xlink:href="#TimesNewRomanPSMT-8722"/>
       <use x="56.396484" xlink:href="#TimesNewRomanPSMT-52"/>
       <use x="106.396484" xlink:href="#TimesNewRomanPSMT-48"/>
      </g>
     </g>
    </g>
    <g id="ytick_3">
     <g id="line2d_13">
      <path clip-path="url(#pd4805803f0)" d="M 67.878125 198.42743 
L 424.998125 198.42743 
" style="fill:none;stroke:#b0b0b0;stroke-linecap:square;stroke-width:0.8;"/>
     </g>
     <g id="line2d_14">
      <g>
       <use style="stroke:#000000;stroke-width:0.8;" x="67.878125" xlink:href="#m3c2c0a678f" y="198.42743"/>
      </g>
     </g>
     <g id="text_8">
      <!-- −20 -->
      <g transform="translate(29.6 205.37118)scale(0.2 -0.2)">
       <use xlink:href="#TimesNewRomanPSMT-8722"/>
       <use x="56.396484" xlink:href="#TimesNewRomanPSMT-50"/>
       <use x="106.396484" xlink:href="#TimesNewRomanPSMT-48"/>
      </g>
     </g>
    </g>
    <g id="ytick_4">
     <g id="line2d_15">
      <path clip-path="url(#pd4805803f0)" d="M 67.878125 152.5376 
L 424.998125 152.5376 
" style="fill:none;stroke:#b0b0b0;stroke-linecap:square;stroke-width:0.8;"/>
     </g>
     <g id="line2d_16">
      <g>
       <use style="stroke:#000000;stroke-width:0.8;" x="67.878125" xlink:href="#m3c2c0a678f" y="152.5376"/>
      </g>
     </g>
     <g id="text_9">
      <!-- 0 -->
      <g transform="translate(50.878125 159.48135)scale(0.2 -0.2)">
       <use xlink:href="#TimesNewRomanPSMT-48"/>
      </g>
     </g>
    </g>
    <g id="ytick_5">
     <g id="line2d_17">
      <path clip-path="url(#pd4805803f0)" d="M 67.878125 106.647771 
L 424.998125 106.647771 
" style="fill:none;stroke:#b0b0b0;stroke-linecap:square;stroke-width:0.8;"/>
     </g>
     <g id="line2d_18">
      <g>
       <use style="stroke:#000000;stroke-width:0.8;" x="67.878125" xlink:href="#m3c2c0a678f" y="106.647771"/>
      </g>
     </g>
     <g id="text_10">
      <!-- 20 -->
      <g transform="translate(40.878125 113.591521)scale(0.2 -0.2)">
       <use xlink:href="#TimesNewRomanPSMT-50"/>
       <use x="50" xlink:href="#TimesNewRomanPSMT-48"/>
      </g>
     </g>
    </g>
    <g id="ytick_6">
     <g id="line2d_19">
      <path clip-path="url(#pd4805803f0)" d="M 67.878125 60.757941 
L 424.998125 60.757941 
" style="fill:none;stroke:#b0b0b0;stroke-linecap:square;stroke-width:0.8;"/>
     </g>
     <g id="line2d_20">
      <g>
       <use style="stroke:#000000;stroke-width:0.8;" x="67.878125" xlink:href="#m3c2c0a678f" y="60.757941"/>
      </g>
     </g>
     <g id="text_11">
      <!-- 40 -->
      <g transform="translate(40.878125 67.701691)scale(0.2 -0.2)">
       <use xlink:href="#TimesNewRomanPSMT-52"/>
       <use x="50" xlink:href="#TimesNewRomanPSMT-48"/>
      </g>
     </g>
    </g>
    <g id="text_12">
     <!-- Angle [$^\circ$] -->
     <g transform="translate(21.2 206.204437)rotate(-90)scale(0.2 -0.2)">
      <defs>
       <path d="M 45.75 22.171875 
L 20.125 22.171875 
L 15.625 11.71875 
Q 13.96875 7.859375 13.96875 5.953125 
Q 13.96875 4.4375 15.40625 3.296875 
Q 16.84375 2.15625 21.625 1.8125 
L 21.625 0 
L 0.78125 0 
L 0.78125 1.8125 
Q 4.9375 2.546875 6.15625 3.71875 
Q 8.640625 6.0625 11.671875 13.234375 
L 34.96875 67.71875 
L 36.671875 67.71875 
L 59.71875 12.640625 
Q 62.5 6 64.765625 4.015625 
Q 67.046875 2.046875 71.09375 1.8125 
L 71.09375 0 
L 44.96875 0 
L 44.96875 1.8125 
Q 48.921875 2 50.3125 3.125 
Q 51.703125 4.25 51.703125 5.859375 
Q 51.703125 8.015625 49.75 12.640625 
z
M 44.390625 25.78125 
L 33.15625 52.546875 
L 21.625 25.78125 
z
" id="TimesNewRomanPSMT-65"/>
       <path d="M 16.15625 36.578125 
Q 24.03125 46.046875 31.15625 46.046875 
Q 34.8125 46.046875 37.453125 44.21875 
Q 40.09375 42.390625 41.65625 38.1875 
Q 42.71875 35.25 42.71875 29.203125 
L 42.71875 10.109375 
Q 42.71875 5.859375 43.40625 4.34375 
Q 43.953125 3.125 45.140625 2.4375 
Q 46.34375 1.765625 49.5625 1.765625 
L 49.5625 0 
L 27.4375 0 
L 27.4375 1.765625 
L 28.375 1.765625 
Q 31.5 1.765625 32.734375 2.703125 
Q 33.984375 3.65625 34.46875 5.515625 
Q 34.671875 6.25 34.671875 10.109375 
L 34.671875 28.421875 
Q 34.671875 34.515625 33.078125 37.28125 
Q 31.5 40.046875 27.734375 40.046875 
Q 21.921875 40.046875 16.15625 33.6875 
L 16.15625 10.109375 
Q 16.15625 5.5625 16.703125 4.5 
Q 17.390625 3.078125 18.578125 2.421875 
Q 19.78125 1.765625 23.4375 1.765625 
L 23.4375 0 
L 1.3125 0 
L 1.3125 1.765625 
L 2.296875 1.765625 
Q 5.71875 1.765625 6.90625 3.484375 
Q 8.109375 5.21875 8.109375 10.109375 
L 8.109375 26.703125 
Q 8.109375 34.765625 7.734375 36.515625 
Q 7.375 38.28125 6.609375 38.90625 
Q 5.859375 39.546875 4.59375 39.546875 
Q 3.21875 39.546875 1.3125 38.8125 
L 0.59375 40.578125 
L 14.0625 46.046875 
L 16.15625 46.046875 
z
" id="TimesNewRomanPSMT-110"/>
       <path d="M 15.09375 16.3125 
Q 10.984375 18.3125 8.78125 21.890625 
Q 6.59375 25.484375 6.59375 29.828125 
Q 6.59375 36.46875 11.59375 41.25 
Q 16.609375 46.046875 24.421875 46.046875 
Q 30.8125 46.046875 35.5 42.921875 
L 44.96875 42.921875 
Q 47.078125 42.921875 47.40625 42.796875 
Q 47.75 42.671875 47.90625 42.390625 
Q 48.1875 41.9375 48.1875 40.828125 
Q 48.1875 39.546875 47.953125 39.0625 
Q 47.796875 38.8125 47.4375 38.671875 
Q 47.078125 38.53125 44.96875 38.53125 
L 39.15625 38.53125 
Q 41.890625 35.015625 41.890625 29.546875 
Q 41.890625 23.296875 37.109375 18.84375 
Q 32.328125 14.40625 24.265625 14.40625 
Q 20.953125 14.40625 17.484375 15.375 
Q 15.328125 13.53125 14.5625 12.140625 
Q 13.8125 10.75 13.8125 9.765625 
Q 13.8125 8.9375 14.625 8.15625 
Q 15.4375 7.375 17.78125 7.03125 
Q 19.140625 6.84375 24.609375 6.6875 
Q 34.671875 6.453125 37.640625 6 
Q 42.1875 5.375 44.890625 2.640625 
Q 47.609375 -0.09375 47.609375 -4.109375 
Q 47.609375 -9.625 42.4375 -14.453125 
Q 34.8125 -21.578125 22.5625 -21.578125 
Q 13.140625 -21.578125 6.640625 -17.328125 
Q 2.984375 -14.890625 2.984375 -12.25 
Q 2.984375 -11.078125 3.515625 -9.90625 
Q 4.34375 -8.109375 6.9375 -4.890625 
Q 7.28125 -4.4375 11.921875 0.390625 
Q 9.375 1.90625 8.328125 3.09375 
Q 7.28125 4.296875 7.28125 5.8125 
Q 7.28125 7.515625 8.671875 9.8125 
Q 10.0625 12.109375 15.09375 16.3125 
z
M 23.578125 43.703125 
Q 19.96875 43.703125 17.53125 40.8125 
Q 15.09375 37.9375 15.09375 31.984375 
Q 15.09375 24.265625 18.40625 20.015625 
Q 20.953125 16.796875 24.859375 16.796875 
Q 28.5625 16.796875 30.953125 19.578125 
Q 33.34375 22.359375 33.34375 28.328125 
Q 33.34375 36.078125 29.984375 40.484375 
Q 27.484375 43.703125 23.578125 43.703125 
z
M 14.59375 0 
Q 12.3125 -2.484375 11.140625 -4.625 
Q 9.96875 -6.78125 9.96875 -8.59375 
Q 9.96875 -10.9375 12.796875 -12.703125 
Q 17.671875 -15.71875 26.90625 -15.71875 
Q 35.6875 -15.71875 39.859375 -12.609375 
Q 44.046875 -9.515625 44.046875 -6 
Q 44.046875 -3.46875 41.546875 -2.390625 
Q 39.015625 -1.3125 31.5 -1.125 
Q 20.515625 -0.828125 14.59375 0 
z
" id="TimesNewRomanPSMT-103"/>
       <path d="M 18.5 69.4375 
L 18.5 10.109375 
Q 18.5 5.90625 19.109375 4.53125 
Q 19.734375 3.171875 21 2.46875 
Q 22.265625 1.765625 25.734375 1.765625 
L 25.734375 0 
L 3.8125 0 
L 3.8125 1.765625 
Q 6.890625 1.765625 8 2.390625 
Q 9.125 3.03125 9.765625 4.484375 
Q 10.40625 5.953125 10.40625 10.109375 
L 10.40625 50.734375 
Q 10.40625 58.296875 10.0625 60.03125 
Q 9.71875 61.765625 8.953125 62.390625 
Q 8.203125 63.03125 7.03125 63.03125 
Q 5.765625 63.03125 3.8125 62.25 
L 2.984375 63.96875 
L 16.3125 69.4375 
z
" id="TimesNewRomanPSMT-108"/>
       <path d="M 23.203125 38.703125 
Q 31 30.796875 31 25.1875 
Q 31 19.59375 27.046875 15.640625 
Q 23.09375 11.703125 17.5 11.703125 
Q 11.796875 11.703125 7.890625 15.640625 
Q 4 19.59375 4 25.40625 
Q 4 31 7.953125 34.84375 
Q 11.90625 38.703125 17.703125 38.703125 
Q 23.203125 38.703125 31 30.796875 
z
M 20.40625 18.296875 
Q 24.40625 22.296875 24.40625 25.1875 
Q 24.40625 28.09375 22.40625 30.09375 
Q 20.40625 32.09375 17.703125 32.09375 
Q 14.59375 32.09375 12.59375 30.140625 
Q 10.59375 28.203125 10.59375 25.40625 
Q 10.59375 22.296875 12.546875 20.296875 
Q 14.5 18.296875 17.5 18.296875 
Q 20.40625 18.296875 24.40625 22.296875 
z
" id="STIXGeneral-Regular-8728"/>
      </defs>
      <use transform="translate(0 0.5625)" xlink:href="#TimesNewRomanPSMT-65"/>
      <use transform="translate(72.216797 0.5625)" xlink:href="#TimesNewRomanPSMT-110"/>
      <use transform="translate(122.216797 0.5625)" xlink:href="#TimesNewRomanPSMT-103"/>
      <use transform="translate(172.216797 0.5625)" xlink:href="#TimesNewRomanPSMT-108"/>
      <use transform="translate(200 0.5625)" xlink:href="#TimesNewRomanPSMT-101"/>
      <use transform="translate(244.384766 0.5625)" xlink:href="#TimesNewRomanPSMT-32"/>
      <use transform="translate(269.384766 0.5625)" xlink:href="#TimesNewRomanPSMT-91"/>
      <use transform="translate(314.336826 35.8375)scale(0.7)" xlink:href="#STIXGeneral-Regular-8728"/>
      <use transform="translate(353.354187 0.5625)" xlink:href="#TimesNewRomanPSMT-93"/>
     </g>
    </g>
   </g>
   <g id="line2d_21">
    <path clip-path="url(#pd4805803f0)" d="M 84.110852 163.792226 
L 84.780476 167.059698 
L 85.615519 171.77938 
L 87.006241 183.397058 
L 89.26642 183.397058 
L 107.617508 162.340016 
L 109.840674 134.384978 
L 111.329655 124.219509 
L 112.065973 127.123929 
L 112.89652 134.74803 
L 113.628798 143.098237 
L 114.366242 149.270128 
L 115.836408 157.257282 
L 116.57591 160.524754 
L 117.313311 165.970541 
L 119.441121 185.575373 
L 121.63348 185.575373 
L 140.076522 157.620335 
L 142.415863 130.028348 
L 143.14436 125.671719 
L 143.890177 126.034771 
L 145.266071 139.830765 
L 146.092393 146.002656 
L 147.487503 152.900653 
L 148.317779 155.44202 
L 149.048324 158.346439 
L 149.787057 163.429174 
L 150.529495 167.059698 
L 152.00108 181.944849 
L 154.095537 181.944849 
L 171.827793 173.23159 
L 172.588234 160.524754 
L 174.890009 134.021925 
L 175.633682 130.391401 
L 176.280298 126.034771 
L 177.023343 127.486981 
L 177.859609 132.569716 
L 178.581835 139.467712 
L 179.244732 147.091814 
L 180.711735 155.805072 
L 182.277235 163.066121 
L 184.398491 179.766534 
L 185.224077 184.123163 
L 187.353381 206.632415 
L 189.625985 206.632415 
L 202.80114 167.785803 
L 204.309381 141.646027 
L 205.126941 136.20024 
L 205.780966 129.302243 
L 206.525473 123.493404 
L 207.243149 120.588985 
L 207.992195 122.404247 
L 208.819644 126.397824 
L 209.556373 136.926345 
L 210.211406 144.550446 
L 210.955079 139.467712 
L 211.687476 142.735184 
L 212.425472 144.913499 
L 213.249802 148.180971 
L 213.879899 152.174548 
L 214.719708 158.346439 
L 216.939234 182.307901 
L 217.58364 190.658107 
L 218.407677 194.651684 
L 219.882122 202.638838 
L 220.536754 205.180205 
L 221.360163 207.721573 
L 224.245186 207.721573 
L 224.964096 209.173782 
L 225.708451 206.632415 
L 226.531091 197.556104 
L 227.922258 174.6838 
L 228.656203 172.868537 
L 230.218302 155.44202 
L 232.433972 127.486981 
L 233.171102 116.232355 
L 233.821542 109.334359 
L 234.562041 106.066887 
L 235.302627 104.614677 
L 236.046896 101.710257 
L 236.766218 103.162467 
L 238.26029 103.162467 
L 238.990196 104.614677 
L 239.810939 107.519096 
L 240.463416 112.238778 
L 241.288146 120.952037 
L 242.024009 125.308667 
L 242.766046 136.20024 
L 244.238639 148.180971 
L 244.975899 151.811495 
L 245.62817 148.544023 
L 246.454352 151.08539 
L 247.189532 156.168125 
L 248.669555 169.964118 
L 249.426833 179.040429 
L 250.075454 182.307901 
L 250.812541 189.205898 
L 251.643629 198.645261 
L 252.388949 203.001891 
L 253.027755 207.721573 
L 255.325836 206.632415 
L 256.016041 206.632415 
L 256.807333 206.995468 
L 257.467089 206.995468 
L 258.279914 201.549681 
L 258.94358 196.103894 
L 259.682346 188.479793 
L 261.883154 155.44202 
L 262.617197 146.365709 
L 263.362744 139.10466 
L 264.18325 132.206663 
L 264.830874 125.671719 
L 265.572001 122.767299 
L 267.784085 106.066887 
L 268.520262 103.162467 
L 269.263707 101.710257 
L 270.848283 101.710257 
L 271.558842 102.07331 
L 272.950648 107.519096 
L 274.429274 126.397824 
L 275.172719 140.193817 
L 277.346132 140.193817 
L 281.025447 171.053275 
L 281.80323 181.218744 
L 282.632835 187.753688 
L 283.290045 198.282209 
L 284.109782 205.90631 
L 284.763396 207.721573 
L 286.230669 206.269363 
L 286.966034 204.091048 
L 287.801943 202.638838 
L 289.279962 195.740842 
L 291.422027 172.505485 
L 292.873583 161.976964 
L 295.09338 146.002656 
L 295.892319 142.009079 
L 296.630315 136.20024 
L 298.105215 121.678142 
L 299.488973 108.971306 
L 300.319108 104.614677 
L 301.059965 103.162467 
L 301.805685 103.162467 
L 303.191165 100.258047 
L 304.010046 101.710257 
L 304.745995 104.977729 
L 305.488444 109.334359 
L 306.223754 118.773722 
L 306.960516 125.308667 
L 307.698297 130.391401 
L 309.911919 136.926345 
L 310.649049 149.270128 
L 311.392007 152.174548 
L 312.858869 163.429174 
L 313.596487 170.690223 
L 314.334939 176.136009 
L 316.457386 206.632415 
L 317.294194 205.543258 
L 318.024879 206.995468 
L 318.763689 206.269363 
L 319.499183 204.091048 
L 321.715633 196.103894 
L 322.451723 191.384212 
L 323.926709 176.862114 
L 325.402421 162.340016 
L 326.049146 154.715915 
L 327.616867 145.276551 
L 328.355145 140.919922 
L 331.304858 114.054041 
L 332.044393 108.971306 
L 332.787026 107.519096 
L 334.261297 101.710257 
L 334.903559 100.258047 
L 335.733554 98.805838 
L 336.483184 98.805838 
L 337.21036 101.347205 
L 337.947999 106.429939 
L 338.697316 116.95846 
L 339.341029 124.219509 
L 340.081702 138.015502 
L 340.832015 138.015502 
L 343.794087 154.352863 
L 346.742619 176.862114 
L 347.567804 185.575373 
L 349.654744 185.575373 
L 365.967268 175.046852 
L 366.77809 161.613912 
L 367.396781 147.454866 
L 369.614357 124.945614 
L 370.349483 119.499827 
L 371.101302 120.952037 
L 372.577783 136.20024 
L 373.310104 150.359286 
L 374.154094 152.5376 
L 374.865151 155.44202 
L 375.521235 152.5376 
L 377.089594 157.983387 
L 377.817821 163.429174 
L 378.473254 172.505485 
L 379.204481 185.212321 
L 379.946215 189.56895 
L 380.686248 191.747265 
L 381.582991 203.727996 
L 383.6884 203.727996 
L 396.862418 168.511908 
L 397.720175 154.715915 
L 398.372847 142.009079 
L 399.201032 131.117506 
L 399.933981 127.486981 
L 400.673332 119.86288 
L 402.147929 112.964883 
L 402.888785 116.232355 
L 403.539496 124.945614 
L 404.364822 141.646027 
L 405.103231 139.467712 
L 408.765398 139.467712 
L 408.765398 139.467712 
" style="fill:none;stroke:#1f77b4;stroke-linecap:square;stroke-width:1.5;"/>
   </g>
   <g id="line2d_22">
    <path clip-path="url(#pd4805803f0)" d="M 84.110852 78.365985 
L 85.615519 89.2031 
L 86.351154 97.208407 
L 87.006241 106.665923 
L 89.26642 114.380788 
L 107.617508 110.514279 
L 108.479122 107.174197 
L 109.131296 102.000699 
L 110.679941 87.424143 
L 111.329655 78.928716 
L 112.065973 73.446624 
L 112.89652 71.286462 
L 113.628798 71.431683 
L 114.366242 72.466382 
L 115.10751 74.045661 
L 115.836408 76.314738 
L 116.57591 79.291768 
L 117.313311 84.28374 
L 118.051308 91.236194 
L 119.441121 109.860785 
L 121.63348 118.120228 
L 140.076522 111.0044 
L 140.927466 106.684076 
L 141.666557 100.421421 
L 143.14436 84.265587 
L 143.890177 77.748796 
L 144.535516 74.517629 
L 145.266071 73.62815 
L 146.092393 73.845982 
L 146.833835 74.209034 
L 148.317779 76.768554 
L 149.048324 79.09209 
L 150.529495 88.059485 
L 151.261458 95.683587 
L 152.00108 105.322629 
L 154.095537 112.674441 
L 171.827793 115.233961 
L 172.588234 113.418699 
L 173.420146 110.024158 
L 174.169311 104.578372 
L 175.633682 91.036515 
L 176.280298 83.103819 
L 177.023343 77.276827 
L 177.859609 73.809676 
L 178.581835 72.611603 
L 180.063786 74.771765 
L 181.450717 79.400684 
L 182.277235 83.230888 
L 182.93503 88.858201 
L 184.398491 104.669135 
L 185.224077 113.872514 
L 187.353381 134.148994 
L 189.625985 147.672697 
L 202.80114 139.830765 
L 203.555125 136.454377 
L 204.309381 129.810517 
L 205.126941 124.092441 
L 207.243149 98.352022 
L 207.992195 91.363262 
L 208.819644 86.026391 
L 209.556373 85.282134 
L 210.211406 85.572576 
L 210.955079 80.780284 
L 212.425472 78.05739 
L 213.249802 77.948474 
L 213.879899 79.055784 
L 214.719708 82.359562 
L 215.371957 87.60567 
L 216.110409 94.975634 
L 216.939234 105.250019 
L 217.58364 117.285207 
L 218.407677 129.011801 
L 219.882122 143.933257 
L 220.536754 157.856319 
L 221.360163 172.414722 
L 223.589383 186.210715 
L 224.964096 214.601417 
L 225.708451 227.36271 
L 227.182495 241.558061 
L 227.922258 243.28256 
L 228.656203 247.820716 
L 229.479536 248.111158 
L 230.218302 246.223285 
L 230.961661 241.75774 
L 232.433972 225.946806 
L 233.171102 213.494107 
L 234.562041 188.025977 
L 238.990196 113.890667 
L 240.463416 94.848566 
L 241.288146 89.566153 
L 242.024009 84.065908 
L 242.766046 83.24904 
L 244.238639 85.754102 
L 244.975899 86.661733 
L 245.62817 84.683097 
L 246.454352 85.082455 
L 247.189532 87.514906 
L 247.839203 91.817078 
L 248.669555 98.460938 
L 250.075454 116.232355 
L 251.643629 141.827553 
L 252.388949 155.750614 
L 253.027755 170.962512 
L 255.325836 184.159469 
L 257.467089 225.021022 
L 258.94358 244.898144 
L 259.682346 251.596461 
L 260.499537 253.59325 
L 261.141756 253.811081 
L 261.883154 251.487545 
L 262.617197 247.221679 
L 263.362744 241.685129 
L 264.18325 234.532996 
L 264.830874 225.856043 
L 265.572001 217.542141 
L 267.131186 194.905821 
L 268.520262 168.548213 
L 270.025698 142.698879 
L 271.558842 117.484886 
L 272.215922 106.266566 
L 272.950648 95.883265 
L 274.429274 86.389444 
L 275.172719 87.442296 
L 277.346132 84.35635 
L 281.025447 98.243106 
L 282.632835 119.227538 
L 283.290045 133.822246 
L 286.966034 202.638838 
L 289.279962 235.259101 
L 290.661272 246.18698 
L 291.422027 248.89172 
L 292.873583 251.542003 
L 293.705311 250.706983 
L 294.347205 248.81911 
L 295.892319 241.83035 
L 296.630315 236.003358 
L 298.105215 218.213788 
L 298.845433 206.904705 
L 299.488973 194.161564 
L 301.805685 155.750614 
L 303.191165 129.102565 
L 304.745995 105.921666 
L 305.488444 96.427844 
L 306.960516 85.971934 
L 307.698297 81.960204 
L 309.911919 80.017873 
L 310.649049 82.90414 
L 311.392007 83.684703 
L 312.120591 86.589123 
L 312.858869 91.054668 
L 314.334939 105.304477 
L 315.077387 117.194444 
L 315.811246 132.406342 
L 316.457386 148.217276 
L 317.294194 161.141943 
L 318.763689 188.407182 
L 320.889397 223.187607 
L 322.451723 241.394687 
L 323.196707 246.913085 
L 323.926709 250.924814 
L 324.666299 253.212045 
L 325.402421 253.375418 
L 326.883734 249.58152 
L 327.616867 246.350353 
L 328.355145 242.138945 
L 329.829958 227.689457 
L 332.787026 181.926696 
L 334.261297 155.496478 
L 334.903559 141.990927 
L 337.947999 92.652099 
L 339.341029 82.014662 
L 340.081702 82.522935 
L 340.832015 78.892411 
L 343.138869 82.250646 
L 343.794087 83.793619 
L 344.531087 87.242617 
L 345.35794 92.652099 
L 346.00434 98.097885 
L 346.742619 106.248413 
L 347.567804 117.121834 
L 349.654744 125.381277 
L 365.967268 127.850034 
L 366.77809 126.089229 
L 367.396781 120.570832 
L 368.232138 114.507856 
L 371.101302 80.762131 
L 371.916933 77.258675 
L 372.577783 75.352649 
L 373.310104 79.055784 
L 374.154094 79.709279 
L 374.865151 81.30671 
L 375.521235 80.435384 
L 376.353504 82.032814 
L 377.089594 84.156671 
L 377.817821 88.513301 
L 378.473254 96.228165 
L 379.946215 118.773722 
L 380.686248 129.229633 
L 381.582991 145.621451 
L 383.6884 158.41905 
L 396.862418 151.847801 
L 397.720175 148.253581 
L 399.933981 125.835093 
L 402.147929 94.431056 
L 402.888785 86.334986 
L 403.539496 82.050967 
L 404.364822 84.338198 
L 405.103231 80.417231 
L 407.295459 77.149759 
L 408.765398 73.882287 
L 408.765398 73.882287 
" style="fill:none;stroke:#ff7f0e;stroke-linecap:square;stroke-width:1.5;"/>
   </g>
   <g id="line2d_23">
    <path clip-path="url(#pd4805803f0)" d="M 84.110852 89.620611 
L 85.615519 108.44488 
L 86.351154 122.259026 
L 87.006241 137.525381 
L 89.26642 145.240246 
L 107.617508 120.316695 
L 108.479122 106.448092 
L 109.840674 76.804859 
L 110.679941 63.825734 
L 111.329655 50.610625 
L 112.065973 48.032953 
L 112.89652 53.496892 
L 113.628798 61.992319 
L 114.366242 69.19891 
L 116.57591 87.278922 
L 117.313311 97.71668 
L 118.051308 111.204079 
L 119.441121 142.898558 
L 121.63348 151.158001 
L 140.076522 116.087134 
L 140.927466 101.601342 
L 143.14436 57.399706 
L 143.890177 51.245967 
L 144.535516 54.186692 
L 145.266071 60.921315 
L 146.092393 67.311038 
L 146.833835 71.304615 
L 147.487503 75.643091 
L 148.317779 79.672974 
L 149.048324 84.900929 
L 150.529495 102.581583 
L 152.00108 134.729878 
L 154.095537 142.08169 
L 171.827793 135.927951 
L 172.588234 121.405853 
L 173.420146 108.208896 
L 174.890009 79.146548 
L 175.633682 68.890316 
L 176.280298 56.60099 
L 177.023343 52.226208 
L 177.859609 53.841792 
L 178.581835 59.541715 
L 179.244732 68.0916 
L 180.063786 74.045661 
L 182.277235 93.759409 
L 183.665759 118.955249 
L 185.224077 145.458077 
L 187.353381 188.243809 
L 189.625985 201.767512 
L 202.80114 155.078967 
L 203.555125 138.632691 
L 204.309381 118.918943 
L 205.126941 107.755081 
L 206.525473 78.166306 
L 207.243149 66.403407 
L 207.992195 61.229909 
L 208.819644 59.886615 
L 210.211406 77.585422 
L 210.955079 67.710395 
L 211.687476 69.507505 
L 212.425472 70.433289 
L 213.249802 73.591845 
L 213.879899 78.692732 
L 214.719708 88.168401 
L 216.110409 115.306572 
L 216.939234 135.02032 
L 217.58364 155.405715 
L 218.407677 171.125886 
L 219.882122 194.034495 
L 220.536754 210.498924 
L 221.360163 227.598694 
L 223.589383 241.394687 
L 224.964096 271.237599 
L 225.708451 281.457525 
L 226.531091 280.912947 
L 227.182495 276.411096 
L 227.922258 265.42876 
L 228.656203 268.151653 
L 229.479536 259.728836 
L 230.218302 249.127705 
L 230.961661 235.222796 
L 232.433972 200.896187 
L 233.821542 157.420656 
L 236.046896 111.204079 
L 237.525251 88.404385 
L 238.26029 76.060602 
L 238.990196 65.967744 
L 239.810939 58.488863 
L 240.463416 54.549744 
L 241.288146 57.98059 
L 242.024009 56.836974 
L 242.766046 66.91168 
L 244.238639 81.397473 
L 244.975899 85.935628 
L 245.62817 80.68952 
L 246.454352 83.630245 
L 247.189532 91.145431 
L 248.669555 115.887455 
L 249.426833 134.312367 
L 250.075454 146.002656 
L 250.812541 164.137126 
L 253.027755 226.146484 
L 255.325836 238.254284 
L 257.467089 279.478889 
L 258.94358 288.464438 
L 259.682346 287.538654 
L 260.499537 276.828606 
L 261.883154 254.391965 
L 265.572001 187.771841 
L 267.131186 153.517842 
L 267.784085 135.292609 
L 269.263707 104.578372 
L 271.558842 67.020596 
L 272.215922 58.343642 
L 272.950648 50.864762 
L 274.429274 60.249667 
L 275.172719 75.098513 
L 277.346132 72.012567 
L 281.025447 116.758781 
L 281.80323 137.144176 
L 282.632835 154.443626 
L 283.290045 179.566855 
L 284.763396 218.976199 
L 285.580543 231.646729 
L 286.230669 244.135733 
L 287.801943 264.829723 
L 288.448105 272.853182 
L 289.279962 278.462343 
L 290.021241 276.320333 
L 290.661272 273.778966 
L 292.224497 264.285144 
L 292.873583 260.981367 
L 293.705311 254.337507 
L 295.892319 231.301829 
L 296.630315 219.665998 
L 298.845433 169.510302 
L 299.488973 150.59527 
L 301.059965 118.719265 
L 301.805685 106.375481 
L 303.191165 76.823012 
L 304.010046 66.004049 
L 304.745995 58.361795 
L 305.488444 53.224603 
L 306.223754 57.054806 
L 306.960516 58.743 
L 307.698297 59.814005 
L 309.911919 64.406618 
L 310.649049 79.636668 
L 311.392007 83.321651 
L 312.120591 91.671857 
L 312.858869 101.946241 
L 314.334939 128.902886 
L 315.077387 151.684427 
L 316.457386 202.312091 
L 317.294194 214.147601 
L 318.024879 229.649941 
L 318.763689 242.138945 
L 320.889397 270.021373 
L 321.715633 276.665233 
L 322.451723 280.2413 
L 323.196707 278.135595 
L 323.926709 275.249328 
L 324.666299 270.638562 
L 325.402421 263.177834 
L 326.049146 253.811081 
L 326.883734 247.040153 
L 328.355145 230.521266 
L 329.829958 203.001891 
L 331.304858 167.549819 
L 332.044393 150.050691 
L 332.787026 136.908192 
L 335.733554 74.39056 
L 336.483184 60.95762 
L 337.21036 51.463798 
L 337.947999 46.544437 
L 338.697316 51.33673 
L 339.341029 53.696571 
L 340.081702 68.000837 
L 340.832015 64.370313 
L 343.794087 85.608881 
L 344.531087 94.503666 
L 346.00434 115.524403 
L 346.742619 130.572927 
L 347.567804 150.159607 
L 349.654744 158.41905 
L 365.967268 150.359286 
L 366.77809 135.165541 
L 367.396781 115.488098 
L 368.232138 100.711863 
L 369.614357 70.524052 
L 370.349483 55.185086 
L 371.101302 49.176568 
L 371.916933 53.660266 
L 372.577783 59.015289 
L 373.310104 76.87747 
L 374.154094 79.709279 
L 374.865151 84.211129 
L 375.521235 80.435384 
L 376.353504 84.937234 
L 377.089594 89.602458 
L 377.817821 99.404874 
L 378.473254 116.19605 
L 379.204481 140.883617 
L 379.946215 155.805072 
L 380.686248 168.439298 
L 381.582991 196.811847 
L 383.6884 209.609445 
L 396.862418 167.822108 
L 397.720175 150.431896 
L 398.372847 131.280879 
L 399.201032 111.76681 
L 399.933981 100.784474 
L 400.673332 82.704462 
L 402.147929 54.858339 
L 402.888785 50.029741 
L 403.539496 54.458981 
L 404.364822 73.446624 
L 405.103231 67.347343 
L 407.295459 64.079871 
L 408.765398 60.812399 
L 408.765398 60.812399 
" style="fill:none;stroke:#2ca02c;stroke-linecap:square;stroke-width:1.5;"/>
   </g>
   <g id="patch_3">
    <path d="M 67.878125 300.560437 
L 67.878125 34.448437 
" style="fill:none;stroke:#000000;stroke-linecap:square;stroke-linejoin:miter;stroke-width:0.8;"/>
   </g>
   <g id="patch_4">
    <path d="M 424.998125 300.560437 
L 424.998125 34.448437 
" style="fill:none;stroke:#000000;stroke-linecap:square;stroke-linejoin:miter;stroke-width:0.8;"/>
   </g>
   <g id="patch_5">
    <path d="M 67.878125 300.560437 
L 424.998125 300.560437 
" style="fill:none;stroke:#000000;stroke-linecap:square;stroke-linejoin:miter;stroke-width:0.8;"/>
   </g>
   <g id="patch_6">
    <path d="M 67.878125 34.448437 
L 424.998125 34.448437 
" style="fill:none;stroke:#000000;stroke-linecap:square;stroke-linejoin:miter;stroke-width:0.8;"/>
   </g>
   <g id="text_13">
    <!-- The servo performance -->
    <g transform="translate(107.34125 28.03125)scale(0.3 -0.3)">
     <defs>
      <path d="M 16.265625 69.4375 
L 16.265625 36.71875 
Q 21.6875 42.671875 24.859375 44.359375 
Q 28.03125 46.046875 31.203125 46.046875 
Q 35.015625 46.046875 37.75 43.9375 
Q 40.484375 41.84375 41.796875 37.359375 
Q 42.71875 34.234375 42.71875 25.921875 
L 42.71875 10.109375 
Q 42.71875 5.859375 43.40625 4.296875 
Q 43.890625 3.125 45.0625 2.4375 
Q 46.234375 1.765625 49.359375 1.765625 
L 49.359375 0 
L 27.390625 0 
L 27.390625 1.765625 
L 28.421875 1.765625 
Q 31.546875 1.765625 32.765625 2.703125 
Q 33.984375 3.65625 34.46875 5.515625 
Q 34.625 6.296875 34.625 10.109375 
L 34.625 25.921875 
Q 34.625 33.25 33.859375 35.546875 
Q 33.109375 37.84375 31.4375 38.984375 
Q 29.78125 40.140625 27.4375 40.140625 
Q 25.046875 40.140625 22.453125 38.859375 
Q 19.875 37.59375 16.265625 33.734375 
L 16.265625 10.109375 
Q 16.265625 5.515625 16.765625 4.390625 
Q 17.28125 3.265625 18.671875 2.515625 
Q 20.0625 1.765625 23.484375 1.765625 
L 23.484375 0 
L 1.3125 0 
L 1.3125 1.765625 
Q 4.296875 1.765625 6 2.6875 
Q 6.984375 3.171875 7.5625 4.53125 
Q 8.15625 5.90625 8.15625 10.109375 
L 8.15625 50.59375 
Q 8.15625 58.25 7.78125 60 
Q 7.421875 61.765625 6.65625 62.390625 
Q 5.90625 63.03125 4.640625 63.03125 
Q 3.609375 63.03125 1.3125 62.25 
L 0.640625 63.96875 
L 14.015625 69.4375 
z
" id="TimesNewRomanPSMT-104"/>
      <path d="M 16.21875 46.046875 
L 16.21875 35.984375 
Q 21.828125 46.046875 27.734375 46.046875 
Q 30.421875 46.046875 32.171875 44.40625 
Q 33.9375 42.78125 33.9375 40.625 
Q 33.9375 38.71875 32.65625 37.390625 
Q 31.390625 36.078125 29.640625 36.078125 
Q 27.9375 36.078125 25.8125 37.765625 
Q 23.6875 39.453125 22.65625 39.453125 
Q 21.78125 39.453125 20.75 38.484375 
Q 18.5625 36.46875 16.21875 31.890625 
L 16.21875 10.453125 
Q 16.21875 6.734375 17.140625 4.828125 
Q 17.78125 3.515625 19.390625 2.640625 
Q 21 1.765625 24.03125 1.765625 
L 24.03125 0 
L 1.125 0 
L 1.125 1.765625 
Q 4.546875 1.765625 6.203125 2.828125 
Q 7.421875 3.609375 7.90625 5.328125 
Q 8.15625 6.15625 8.15625 10.0625 
L 8.15625 27.390625 
Q 8.15625 35.203125 7.828125 36.6875 
Q 7.515625 38.1875 6.65625 38.859375 
Q 5.8125 39.546875 4.546875 39.546875 
Q 3.03125 39.546875 1.125 38.8125 
L 0.640625 40.578125 
L 14.15625 46.046875 
z
" id="TimesNewRomanPSMT-114"/>
      <path d="M 0.828125 44.734375 
L 21.875 44.734375 
L 21.875 42.921875 
L 20.515625 42.921875 
Q 18.609375 42.921875 17.609375 41.984375 
Q 16.609375 41.0625 16.609375 39.5 
Q 16.609375 37.796875 17.625 35.453125 
L 28.03125 10.75 
L 38.484375 36.375 
Q 39.59375 39.109375 39.59375 40.53125 
Q 39.59375 41.21875 39.203125 41.65625 
Q 38.671875 42.390625 37.84375 42.65625 
Q 37.015625 42.921875 34.46875 42.921875 
L 34.46875 44.734375 
L 49.078125 44.734375 
L 49.078125 42.921875 
Q 46.53125 42.71875 45.5625 41.890625 
Q 43.84375 40.4375 42.484375 37.015625 
L 26.609375 -1.375 
L 24.609375 -1.375 
L 8.640625 36.375 
Q 7.5625 39.015625 6.578125 40.15625 
Q 5.609375 41.3125 4.109375 42.09375 
Q 3.265625 42.53125 0.828125 42.921875 
z
" id="TimesNewRomanPSMT-118"/>
      <path d="M 25 46.046875 
Q 35.15625 46.046875 41.3125 38.328125 
Q 46.53125 31.734375 46.53125 23.1875 
Q 46.53125 17.1875 43.640625 11.03125 
Q 40.765625 4.890625 35.71875 1.75 
Q 30.671875 -1.375 24.46875 -1.375 
Q 14.359375 -1.375 8.40625 6.6875 
Q 3.375 13.484375 3.375 21.921875 
Q 3.375 28.078125 6.421875 34.15625 
Q 9.46875 40.234375 14.453125 43.140625 
Q 19.4375 46.046875 25 46.046875 
z
M 23.484375 42.875 
Q 20.90625 42.875 18.28125 41.328125 
Q 15.671875 39.796875 14.0625 35.9375 
Q 12.453125 32.078125 12.453125 26.03125 
Q 12.453125 16.265625 16.328125 9.171875 
Q 20.21875 2.09375 26.5625 2.09375 
Q 31.296875 2.09375 34.375 6 
Q 37.453125 9.90625 37.453125 19.4375 
Q 37.453125 31.34375 32.328125 38.1875 
Q 28.859375 42.875 23.484375 42.875 
z
" id="TimesNewRomanPSMT-111"/>
      <path d="M -0.09375 40.28125 
L 13.671875 45.84375 
L 15.53125 45.84375 
L 15.53125 35.40625 
Q 19 41.3125 22.484375 43.671875 
Q 25.984375 46.046875 29.828125 46.046875 
Q 36.578125 46.046875 41.0625 40.765625 
Q 46.578125 34.328125 46.578125 23.96875 
Q 46.578125 12.40625 39.9375 4.828125 
Q 34.46875 -1.375 26.171875 -1.375 
Q 22.5625 -1.375 19.921875 -0.34375 
Q 17.96875 0.390625 15.53125 2.59375 
L 15.53125 -11.03125 
Q 15.53125 -15.625 16.09375 -16.859375 
Q 16.65625 -18.109375 18.046875 -18.84375 
Q 19.4375 -19.578125 23.09375 -19.578125 
L 23.09375 -21.390625 
L -0.34375 -21.390625 
L -0.34375 -19.578125 
L 0.875 -19.578125 
Q 3.5625 -19.625 5.46875 -18.5625 
Q 6.390625 -18.015625 6.90625 -16.8125 
Q 7.421875 -15.625 7.421875 -10.75 
L 7.421875 31.546875 
Q 7.421875 35.890625 7.03125 37.0625 
Q 6.640625 38.234375 5.78125 38.8125 
Q 4.9375 39.40625 3.46875 39.40625 
Q 2.296875 39.40625 0.484375 38.71875 
z
M 15.53125 32.515625 
L 15.53125 15.828125 
Q 15.53125 10.40625 15.96875 8.6875 
Q 16.65625 5.859375 19.3125 3.703125 
Q 21.96875 1.5625 26.03125 1.5625 
Q 30.90625 1.5625 33.9375 5.375 
Q 37.890625 10.359375 37.890625 19.390625 
Q 37.890625 29.640625 33.40625 35.15625 
Q 30.28125 38.96875 25.984375 38.96875 
Q 23.640625 38.96875 21.34375 37.796875 
Q 19.578125 36.921875 15.53125 32.515625 
z
" id="TimesNewRomanPSMT-112"/>
      <path d="M 20.609375 41.21875 
L 20.609375 11.8125 
Q 20.609375 5.5625 21.96875 3.90625 
Q 23.78125 1.765625 26.8125 1.765625 
L 30.859375 1.765625 
L 30.859375 0 
L 4.15625 0 
L 4.15625 1.765625 
L 6.15625 1.765625 
Q 8.109375 1.765625 9.71875 2.734375 
Q 11.328125 3.71875 11.9375 5.375 
Q 12.546875 7.03125 12.546875 11.8125 
L 12.546875 41.21875 
L 3.859375 41.21875 
L 3.859375 44.734375 
L 12.546875 44.734375 
L 12.546875 47.65625 
Q 12.546875 54.34375 14.6875 58.984375 
Q 16.84375 63.625 21.265625 66.484375 
Q 25.6875 69.34375 31.203125 69.34375 
Q 36.328125 69.34375 40.625 66.015625 
Q 43.453125 63.8125 43.453125 61.078125 
Q 43.453125 59.625 42.1875 58.328125 
Q 40.921875 57.03125 39.453125 57.03125 
Q 38.328125 57.03125 37.078125 57.828125 
Q 35.84375 58.640625 34.03125 61.296875 
Q 32.234375 63.96875 30.71875 64.890625 
Q 29.203125 65.828125 27.34375 65.828125 
Q 25.09375 65.828125 23.53125 64.625 
Q 21.96875 63.421875 21.28125 60.90625 
Q 20.609375 58.40625 20.609375 47.953125 
L 20.609375 44.734375 
L 32.125 44.734375 
L 32.125 41.21875 
z
" id="TimesNewRomanPSMT-102"/>
      <path d="M 28.46875 6.453125 
Q 21.578125 1.125 19.828125 0.296875 
Q 17.1875 -0.921875 14.203125 -0.921875 
Q 9.578125 -0.921875 6.5625 2.25 
Q 3.5625 5.421875 3.5625 10.59375 
Q 3.5625 13.875 5.03125 16.265625 
Q 7.03125 19.578125 11.984375 22.5 
Q 16.9375 25.4375 28.46875 29.640625 
L 28.46875 31.390625 
Q 28.46875 38.09375 26.34375 40.578125 
Q 24.21875 43.0625 20.171875 43.0625 
Q 17.09375 43.0625 15.28125 41.40625 
Q 13.421875 39.75 13.421875 37.59375 
L 13.53125 34.765625 
Q 13.53125 32.515625 12.375 31.296875 
Q 11.234375 30.078125 9.375 30.078125 
Q 7.5625 30.078125 6.421875 31.34375 
Q 5.28125 32.625 5.28125 34.8125 
Q 5.28125 39.015625 9.578125 42.53125 
Q 13.875 46.046875 21.625 46.046875 
Q 27.59375 46.046875 31.390625 44.046875 
Q 34.28125 42.53125 35.640625 39.3125 
Q 36.53125 37.203125 36.53125 30.71875 
L 36.53125 15.53125 
Q 36.53125 9.125 36.765625 7.6875 
Q 37.015625 6.25 37.578125 5.765625 
Q 38.140625 5.28125 38.875 5.28125 
Q 39.65625 5.28125 40.234375 5.609375 
Q 41.265625 6.25 44.1875 9.1875 
L 44.1875 6.453125 
Q 38.71875 -0.875 33.734375 -0.875 
Q 31.34375 -0.875 29.921875 0.78125 
Q 28.515625 2.4375 28.46875 6.453125 
z
M 28.46875 9.625 
L 28.46875 26.65625 
Q 21.09375 23.734375 18.953125 22.515625 
Q 15.09375 20.359375 13.421875 18.015625 
Q 11.765625 15.671875 11.765625 12.890625 
Q 11.765625 9.375 13.859375 7.046875 
Q 15.96875 4.734375 18.703125 4.734375 
Q 22.40625 4.734375 28.46875 9.625 
z
" id="TimesNewRomanPSMT-97"/>
      <path d="M 41.109375 17 
Q 39.3125 8.15625 34.03125 3.390625 
Q 28.765625 -1.375 22.359375 -1.375 
Q 14.75 -1.375 9.078125 5.015625 
Q 3.421875 11.421875 3.421875 22.3125 
Q 3.421875 32.859375 9.6875 39.453125 
Q 15.96875 46.046875 24.75 46.046875 
Q 31.34375 46.046875 35.59375 42.546875 
Q 39.84375 39.0625 39.84375 35.296875 
Q 39.84375 33.453125 38.640625 32.296875 
Q 37.453125 31.15625 35.296875 31.15625 
Q 32.421875 31.15625 30.953125 33.015625 
Q 30.125 34.03125 29.859375 36.90625 
Q 29.59375 39.796875 27.875 41.3125 
Q 26.171875 42.78125 23.140625 42.78125 
Q 18.265625 42.78125 15.28125 39.15625 
Q 11.328125 34.375 11.328125 26.515625 
Q 11.328125 18.5 15.25 12.375 
Q 19.1875 6.25 25.875 6.25 
Q 30.671875 6.25 34.46875 9.515625 
Q 37.15625 11.765625 39.703125 17.671875 
z
" id="TimesNewRomanPSMT-99"/>
     </defs>
     <use xlink:href="#TimesNewRomanPSMT-84"/>
     <use x="61.083984" xlink:href="#TimesNewRomanPSMT-104"/>
     <use x="111.083984" xlink:href="#TimesNewRomanPSMT-101"/>
     <use x="155.46875" xlink:href="#TimesNewRomanPSMT-32"/>
     <use x="180.46875" xlink:href="#TimesNewRomanPSMT-115"/>
     <use x="219.384766" xlink:href="#TimesNewRomanPSMT-101"/>
     <use x="263.769531" xlink:href="#TimesNewRomanPSMT-114"/>
     <use x="297.070312" xlink:href="#TimesNewRomanPSMT-118"/>
     <use x="347.070312" xlink:href="#TimesNewRomanPSMT-111"/>
     <use x="397.070312" xlink:href="#TimesNewRomanPSMT-32"/>
     <use x="422.070312" xlink:href="#TimesNewRomanPSMT-112"/>
     <use x="472.070312" xlink:href="#TimesNewRomanPSMT-101"/>
     <use x="516.455078" xlink:href="#TimesNewRomanPSMT-114"/>
     <use x="549.755859" xlink:href="#TimesNewRomanPSMT-102"/>
     <use x="583.056641" xlink:href="#TimesNewRomanPSMT-111"/>
     <use x="633.056641" xlink:href="#TimesNewRomanPSMT-114"/>
     <use x="666.357422" xlink:href="#TimesNewRomanPSMT-109"/>
     <use x="744.140625" xlink:href="#TimesNewRomanPSMT-97"/>
     <use x="788.525391" xlink:href="#TimesNewRomanPSMT-110"/>
     <use x="838.525391" xlink:href="#TimesNewRomanPSMT-99"/>
     <use x="882.910156" xlink:href="#TimesNewRomanPSMT-101"/>
    </g>
   </g>
   <g id="legend_1">
    <g id="patch_7">
     <path d="M 81.878125 290.560437 
L 328.5875 290.560437 
Q 332.5875 290.560437 332.5875 286.560437 
L 332.5875 203.726062 
Q 332.5875 199.726062 328.5875 199.726062 
L 81.878125 199.726062 
Q 77.878125 199.726062 77.878125 203.726062 
L 77.878125 286.560437 
Q 77.878125 290.560437 81.878125 290.560437 
z
" style="fill:#ffffff;opacity:0.8;stroke:#cccccc;stroke-linejoin:miter;"/>
    </g>
    <g id="line2d_24">
     <path d="M 85.878125 214.726062 
L 125.878125 214.726062 
" style="fill:none;stroke:#1f77b4;stroke-linecap:square;stroke-width:1.5;"/>
    </g>
    <g id="line2d_25"/>
    <g id="text_14">
     <!-- error -->
     <g transform="translate(141.878125 221.726062)scale(0.2 -0.2)">
      <use xlink:href="#TimesNewRomanPSMT-101"/>
      <use x="44.384766" xlink:href="#TimesNewRomanPSMT-114"/>
      <use x="77.685547" xlink:href="#TimesNewRomanPSMT-114"/>
      <use x="110.986328" xlink:href="#TimesNewRomanPSMT-111"/>
      <use x="160.986328" xlink:href="#TimesNewRomanPSMT-114"/>
     </g>
    </g>
    <g id="line2d_26">
     <path d="M 85.878125 243.004188 
L 125.878125 243.004188 
" style="fill:none;stroke:#ff7f0e;stroke-linecap:square;stroke-width:1.5;"/>
    </g>
    <g id="line2d_27"/>
    <g id="text_15">
     <!-- servo commands -->
     <g transform="translate(141.878125 250.004188)scale(0.2 -0.2)">
      <defs>
       <path d="M 34.71875 5.03125 
Q 31.453125 1.609375 28.328125 0.109375 
Q 25.203125 -1.375 21.578125 -1.375 
Q 14.265625 -1.375 8.796875 4.75 
Q 3.328125 10.890625 3.328125 20.515625 
Q 3.328125 30.125 9.375 38.109375 
Q 15.4375 46.09375 24.953125 46.09375 
Q 30.859375 46.09375 34.71875 42.328125 
L 34.71875 50.59375 
Q 34.71875 58.25 34.34375 60 
Q 33.984375 61.765625 33.203125 62.390625 
Q 32.421875 63.03125 31.25 63.03125 
Q 29.984375 63.03125 27.875 62.25 
L 27.25 63.96875 
L 40.578125 69.4375 
L 42.78125 69.4375 
L 42.78125 17.71875 
Q 42.78125 9.859375 43.140625 8.125 
Q 43.5 6.390625 44.3125 5.703125 
Q 45.125 5.03125 46.1875 5.03125 
Q 47.515625 5.03125 49.703125 5.859375 
L 50.25 4.15625 
L 36.96875 -1.375 
L 34.71875 -1.375 
z
M 34.71875 8.453125 
L 34.71875 31.5 
Q 34.421875 34.8125 32.953125 37.546875 
Q 31.5 40.28125 29.078125 41.671875 
Q 26.65625 43.0625 24.359375 43.0625 
Q 20.0625 43.0625 16.703125 39.203125 
Q 12.25 34.125 12.25 24.359375 
Q 12.25 14.5 16.546875 9.25 
Q 20.84375 4 26.125 4 
Q 30.5625 4 34.71875 8.453125 
z
" id="TimesNewRomanPSMT-100"/>
      </defs>
      <use xlink:href="#TimesNewRomanPSMT-115"/>
      <use x="38.916016" xlink:href="#TimesNewRomanPSMT-101"/>
      <use x="83.300781" xlink:href="#TimesNewRomanPSMT-114"/>
      <use x="116.601562" xlink:href="#TimesNewRomanPSMT-118"/>
      <use x="166.601562" xlink:href="#TimesNewRomanPSMT-111"/>
      <use x="216.601562" xlink:href="#TimesNewRomanPSMT-32"/>
      <use x="241.601562" xlink:href="#TimesNewRomanPSMT-99"/>
      <use x="285.986328" xlink:href="#TimesNewRomanPSMT-111"/>
      <use x="335.986328" xlink:href="#TimesNewRomanPSMT-109"/>
      <use x="413.769531" xlink:href="#TimesNewRomanPSMT-109"/>
      <use x="491.552734" xlink:href="#TimesNewRomanPSMT-97"/>
      <use x="535.9375" xlink:href="#TimesNewRomanPSMT-110"/>
      <use x="585.9375" xlink:href="#TimesNewRomanPSMT-100"/>
      <use x="635.9375" xlink:href="#TimesNewRomanPSMT-115"/>
     </g>
    </g>
    <g id="line2d_28">
     <path d="M 85.878125 271.282312 
L 125.878125 271.282312 
" style="fill:none;stroke:#2ca02c;stroke-linecap:square;stroke-width:1.5;"/>
    </g>
    <g id="line2d_29"/>
    <g id="text_16">
     <!-- Theoretical commands -->
     <g transform="translate(141.878125 278.282312)scale(0.2 -0.2)">
      <defs>
       <path d="M 16.109375 59.421875 
L 16.109375 44.734375 
L 26.5625 44.734375 
L 26.5625 41.3125 
L 16.109375 41.3125 
L 16.109375 12.3125 
Q 16.109375 7.953125 17.359375 6.4375 
Q 18.609375 4.9375 20.5625 4.9375 
Q 22.171875 4.9375 23.6875 5.9375 
Q 25.203125 6.9375 26.03125 8.890625 
L 27.9375 8.890625 
Q 26.21875 4.109375 23.09375 1.6875 
Q 19.96875 -0.734375 16.65625 -0.734375 
Q 14.40625 -0.734375 12.25 0.515625 
Q 10.109375 1.765625 9.078125 4.078125 
Q 8.0625 6.390625 8.0625 11.234375 
L 8.0625 41.3125 
L 0.984375 41.3125 
L 0.984375 42.921875 
Q 3.65625 44 6.46875 46.5625 
Q 9.28125 49.125 11.46875 52.640625 
Q 12.59375 54.5 14.59375 59.421875 
z
" id="TimesNewRomanPSMT-116"/>
      </defs>
      <use xlink:href="#TimesNewRomanPSMT-84"/>
      <use x="61.083984" xlink:href="#TimesNewRomanPSMT-104"/>
      <use x="111.083984" xlink:href="#TimesNewRomanPSMT-101"/>
      <use x="155.46875" xlink:href="#TimesNewRomanPSMT-111"/>
      <use x="205.46875" xlink:href="#TimesNewRomanPSMT-114"/>
      <use x="238.769531" xlink:href="#TimesNewRomanPSMT-101"/>
      <use x="283.154297" xlink:href="#TimesNewRomanPSMT-116"/>
      <use x="310.9375" xlink:href="#TimesNewRomanPSMT-105"/>
      <use x="338.720703" xlink:href="#TimesNewRomanPSMT-99"/>
      <use x="383.105469" xlink:href="#TimesNewRomanPSMT-97"/>
      <use x="427.490234" xlink:href="#TimesNewRomanPSMT-108"/>
      <use x="455.273438" xlink:href="#TimesNewRomanPSMT-32"/>
      <use x="480.273438" xlink:href="#TimesNewRomanPSMT-99"/>
      <use x="524.658203" xlink:href="#TimesNewRomanPSMT-111"/>
      <use x="574.658203" xlink:href="#TimesNewRomanPSMT-109"/>
      <use x="652.441406" xlink:href="#TimesNewRomanPSMT-109"/>
      <use x="730.224609" xlink:href="#TimesNewRomanPSMT-97"/>
      <use x="774.609375" xlink:href="#TimesNewRomanPSMT-110"/>
      <use x="824.609375" xlink:href="#TimesNewRomanPSMT-100"/>
      <use x="874.609375" xlink:href="#TimesNewRomanPSMT-115"/>
     </g>
    </g>
   </g>
  </g>
 </g>
 <defs>
  <clipPath id="pd4805803f0">
   <rect height="266.112" width="357.12" x="67.878125" y="34.448437"/>
  </clipPath>
 </defs>
</svg>
